<?xml version="1.0" encoding="utf-8"?>
<!-- Generator: Adobe Illustrator 23.1.1, SVG Export Plug-In . SVG Version: 6.00 Build 0)  -->
<svg version="1.1" id="Layer_1" xmlns="http://www.w3.org/2000/svg" xmlns:xlink="http://www.w3.org/1999/xlink" x="0px" y="0px"
	 viewBox="0 0 1296 792" style="enable-background:new 0 0 1296 792;" xml:space="preserve">
<style type="text/css">
	.st0{fill:none;stroke:#000000;stroke-width:8.035216e-03;stroke-miterlimit:11.3386;}
</style>
<g>
	<path class="st0" d="M203.1,602.2l0.4,1.2l1.9,9.6l0.1,0.3l-0.1-0.3l0.1,0.3l0,0.1l0,0l-0.2,0.4l0,0l0,0l0,0l0,0l0,0l0,0l-0.1,0.1
		l-0.1,0.1l-0.1,0.1l0,0l-0.1,0.1l-0.2,0.2l-0.3,0.1l-0.2,0l0,0l-0.1,0l-0.3-0.1l-0.2-0.1l0.4,0.3c-1.8-4.1-6.9-14.6-8.4-14.2
		c-2.3,0.6,0.5,15.2,2.5,22.8c2,7.6,5.5,13.2,7.8,12.6c1.8-0.5,2.3-4.8,1.4-10.3l0,0.9l0-0.1l0,0l0.2,0.1l0.2,0.1l1.4,0.3l0.8,2.7
		l0,0l0.2,0.6l0,0.1l0,0.1l1.1,3.4l0,0.1l0,0l0,0.1l0.6,1.9l0.5,1.6l0.1,0.3l0,0l0,0.1l0.1,0.3l0,0.1l1.6,4.5l0.3,0.9l0.1,0.3l0,0
		l0,0.1l0.7,1.9l0.1,0.2l1.5,4l0.5,1.2l0.1,0.3l1,2.5l0.1,0.1l0.2,0.5l0.2,0.4l3.1,6.8l0.1,0.3l0.6,1.2l0.5,1l0.1,0.3l1.5,2.9
		l0.8,1.5l0.3,0.5l0.9,1.6l0.5,0.8l1.4,2.4l0.6,1.1l2,3.3l0.1,0.1l0.6,1l0,0.1l0.3,0.6l1.4,2.2l0.1,0.1l1,1.6l1.1,1.7l0.6,1l2.5,3.6
		l0.8,1.1l0.4,0.5l0.6,0.9l0.8,1.1l0.4,0.5l1.5,1.9l0.4,0.5l0.4,0.5l2.1,2.6l0.1,0.2l0.4,0.5l2,2.3l1.3,1.5l0.1,0.2l0.1,0.1l0.1,0.1
		l0,0l0,0l0,0l0.1,0.1l1.1,1.2l1.6,1.7l1.1,1.1l0.3,0.3l1,1l1.4,1.4l0.9,0.9l0,0l2.4,2.3l1.2,1.1l1,0.9l1.7,1.6l0.6,0.6l0.1,0.1
		l0.2,0.2l0.8,0.7l1,0.9l2.6,2.2l0.3,0.2l1.9,1.6l1,0.9l1.3,1l0.6,0.5l2.2,1.8l0.4,0.3l0.5,0.3l0.4,0.3l1.4,1l1.7,1.3l0.4,0.3l1,0.8
		l2.7,1.8l1.4,0.9l6.1,3.9l0,0l0.5,0.3l2.7,1.5l1.4,0.8l0.5,0.3l0.7,0.4l0.8,0.4l3.2,1.7l0.3,0.1l0.9,0.4l0.7,0.3l2.7,1.3l0.8,0.4
		l3.3,1.5l0.5,0.2l0.5,0.2l0,0l0.3,0.1l0,0l3.6,1.5l3.3,1.4l0.3,0.1l0.6,0.2l0,0l2.2,0.9l1.7,0.6l0.4,0.2l0.2,0.1l0.3,0.1l0.1,0
		l1.5,0.5l0.9,0.3l0,0l0,0l0.1,0l2,0.7l0.6,0.2l0.3,0.1l2.4,0.8l0.4,0.1l0.1,0l0,0l1.4,0.5l0,0l0,0l1.4,0.4l0.1,0l2.8,0.8l7,2.1l0,0
		l1.3,0.3l0,0l2.9,0.7l0.3,0.1l2.6,0.6l1,0.2l4.5,1l3.2,0.7l0.3,0.1l0.8,0.2l4.5,0.8l1.1,0.2l0.3,0l1.1,0.2l3.2,0.5l0,0l0.1,0l0,0
		l0.5,0.1l4.6,0.7l0.6,0.1l0.7,0.1l0,0l0.1,0l0.1,0l0.2,0l0.3,0l1.1,0.1l0,0l6,0.8l0.1,0l0.4,0l0,0l0.1,0l0.2,0l0.3,0l0.3,0l0,0
		l4.6,0.4l3.7,0.4l7.7,0.8l0.4,0l0,0l0.4,0l1.3,0.1l4.7,0.3l0,0l1.4,0.1l2.8,0.1l1.2,0l1.9,0.1l1.1,0l0.3,0l9.1,0.3l2,0.1l0.5,0
		l3.2,0.1l0.5,0l0,0l0.1,0.1l0.3,0.3h0.1h0h0.1h0.1l0.2,0.2l0.5,0.4l0.1,0.1l0,0l0.2,0.2l0.5,0.5l0,0l0,0l0,0l0,0l0,0l0,0.1l0,0l0,0
		l0.1,0.2l0,0l0,0l0,0v0l0,0.2l0,0.2l0,0.2l-0.1,0.2l0.1-0.2l0,0.1c-4.4,0.7-7.4,2.1-7.4,3.7c0,2.3,6.3,4.3,14.2,4.3
		s14.2-1.9,14.2-4.3c0-1.9-4-3.5-9.6-4l0.1,0l0,0.1l0,0l0-0.1l0-0.1l0,0l0-0.1l0-0.1l0,0l0,0l0-0.1l0-0.2l0.1-0.2l0,0l0,0l0,0
		l0.1-0.2l0,0l0.4-0.3l0.5-0.5l0.1-0.1l0.1-0.1h0.7l0.2-0.2l0.3-0.2l0,0l3.3-0.1l3.1-0.1l3.3-0.1l2.6-0.1l0.2,0l0.1,0l1.4,0l0.9,0
		l0.9,0l16.4-1l2.1-0.1l0.1,0l0.2,0l3.4-0.3l0.4,0l0.9-0.1l0.9-0.1l0,0l8.6-1l0.4,0l1.5-0.2l0.6-0.1l0,0l6.5-0.9l3.4-0.5l0.4-0.1
		l0.8-0.1l1.1-0.2l1-0.2l1.6-0.3l0.4-0.1l2.5-0.5l2-0.4l1.6-0.3l0.1,0l0.6-0.1l1.8-0.4l5.7-1.2l1.3-0.3l1-0.2l1.1-0.3l2.3-0.6l2-0.5
		l5.3-1.5l1.7-0.5l0.3-0.1l0.7-0.2l0.1,0l0,0l4.1-1.3l0.6-0.2l0.8-0.3l1.6-0.5l3.7-1.3l1.1-0.4l1-0.4l0.2-0.1l2.7-1l2.8-1.1l1.5-0.6
		l0.1,0l1.2-0.5l1.1-0.4l2.2-0.9l0,0l6.3-2.9l1.1-0.5l2-1l3.4-1.8l0.6-0.3l0.3-0.2l0.4-0.2l3.1-1.7l0.5-0.3l0,0l0.8-0.5l0.8-0.5
		l1.6-1l3.3-2l0.3-0.2l0,0l0.3-0.2l0.2-0.1l1.1-0.7l6.3-4.4l1.5-1l0.6-0.4l0.1-0.1l0.2-0.2l0,0l0,0l0.3-0.2l1.2-0.9l0.6-0.5l2-1.6
		l2.4-1.9l0.7-0.6l1.4-1.2l0.1-0.1l0.4-0.3l0.1-0.1l0.9-0.8l0.1-0.1l1.8-1.6l2.9-2.6l1.3-1.2l1.5-1.4l0.9-0.9l0.1-0.1l0.5-0.5
		l1.5-1.5l2.5-2.5l0.5-0.5l0.1-0.1l0.7-0.8l3.9-4.3l0.8-0.8l0.7-0.8l0.4-0.5l2-2.4l1.5-1.8l2.4-3.2l0.9-1.2l0.4-0.5l0.4-0.5l0,0
		l0.1-0.2l0,0l0,0l0.2-0.3l0,0l0.2-0.3l0.1-0.1l2-2.8l0.6-0.9l0.1-0.1l0.4-0.6l0.5-0.8l0.3-0.4l0.9-1.4l0.6-0.9l1-1.4l0,0l0,0l1.9-3
		l0.2-0.3l0.7-1.1l0.2-0.4l0.1-0.2l0.3-0.6l0.3-0.5l2.4-4.2l0.4-0.7l0.1-0.2l0.5-0.9l1.9-3.5l0.2-0.3l0.4-0.7l1.1-2.1l0.4-0.7
		l0.5-1.1l1.2-2.5l0,0l0.4-0.8l0.3-0.7l0.1-0.2l0.7-1.5l0.4-0.8l0.4-0.9l0.9-2.3l1.7-4.1l0.8-2l0.9-2.3l0.1-0.3l0.3-0.9l0.2-0.6
		l0.7-2l1-2.8l0.5-1.6l0.2-0.6l1.6-5.1l0.1-0.4l-0.2,0.7l0.2-0.6l0.4-1.3l0,0l0-0.1l0.7-2.6l0.4-1.3l1.7-0.1"/>
	<polyline class="st0" points="172.2,541.6 171.9,538.3 170.9,523.1 170.2,510.2 169.7,492.7 169.6,484.4 169.9,469.1 170.2,461.2 
		171.3,446.8 172.7,432.2 173.6,424.9 174.7,416.2 176.3,405.2 176.2,405.1 179.2,388.1 181,378.5 182.3,372.4 184.7,361.2 
		186,356.1 187.8,348.7 190.6,338.3 192.3,332.4 194,326.8 196.5,318.8 200.9,305.9 207.3,288.6 212.5,275.7 217.6,263.8 
		220.7,256.9 226.2,245.5 230.6,237.1 236.8,225.5 243.1,214.2 250.2,202.3 257.5,190.7 261.9,184.1 269.5,172.9 	"/>
	<polyline class="st0" points="589.4,171 586.7,169.7 586.9,170.2 586.7,169.7 586.6,169.6 586.6,169.6 586.4,169.2 586.2,168.8 
		586.2,168.8 586,167.9 585.8,167.1 585.8,167 585.8,166.9 585.8,166.7 585.8,166.7 585.8,166.6 585.8,166 585.8,165.8 585.9,165.3 
		586,165.1 586.3,164.3 586.5,163.8 586.7,163.5 586.7,163.5 586.7,163.5 587.6,162.4 587.6,162.4 587.6,162.3 587.7,162.3 
		588.9,161.3 589.1,161.2 589.2,161.2 589.2,161.1 589.5,161 590,160.8 590.2,160.7 590.3,160.7 590.5,160.7 590.7,160.6 
		591.5,160.6 591.5,160.6 591.9,160.6 592.2,160.6 592.6,160.7 592.6,160.7 593,160.8 593.3,160.9 593.5,161 593.8,161.1 
		594.7,161.5 594.7,161.5 594.7,161.5 594.8,161.5 594.8,161.6 594.9,161.6 595.9,162.2 596.3,162.4 597.5,163.2 598.6,163.9 
		598.8,164 599,164.1 599.2,164.2 599.2,164.2 599.5,164.3 599.7,164.3 600,164.4 600,164.4 600,164.4 600.2,164.4 600.4,164.3 
		600.5,164.3 600.6,164.2 600.7,164.1 601.3,163.7 601.3,163.7 601.9,163.2 603,162.4 604.6,161.1 604.9,160.8 604.9,160.8 
		605,160.8 605,160.7 605.1,160.5 605.2,160 605.2,159.9 605.2,159.9 605.2,159.6 605,159.1 604.9,158.9 604.8,158.6 604.6,157.9 
		604.6,157.8 604.6,157.8 604.5,157.7 604.3,157.2 604.1,156.9 603.9,156.5 603,154.9 602.8,154.6 602.8,154.6 602.7,154.5 
		602.7,154.4 602.7,154.4 602.6,154.3 602,153.4 601.7,153.1 601.2,152.5 601.1,152.4 600.7,152.1 600.6,151.9 600.3,151.6 
		600.3,151.6 600.1,151.4 600.1,151.4 599.4,150.9 599.2,150.7 598.9,150.5 598.3,150.2 598.1,150 597.8,149.9 597.8,149.9 
		597.2,149.6 597.2,149.6 596.4,149.4 595.9,149.2 595.4,149 595.1,148.9 595.1,148.9 594.9,148.9 594.6,148.8 594.6,148.8 
		594.1,148.7 593.4,148.6 593.2,148.6 593.1,148.6 593,148.6 592.2,148.7 591.7,148.6 591.1,148.6 590.7,148.6 590.1,148.7 
		589.5,148.7 589.1,148.8 588.7,148.9 588.6,148.9 588.5,148.9 587.7,149.1 585.9,149.6 585.8,149.7 585.5,149.8 585.5,149.8 
		585.3,149.9 584.5,150.2 584,150.5 583.5,150.7 583.3,150.9 583.3,150.9 582.4,151.4 582.1,151.6 581.7,151.9 581.7,151.9 
		581.3,152.2 581.2,152.3 580.7,152.7 580.1,153.2 579.5,153.8 579.5,153.8 579.4,154 579.4,154 579.2,154.1 579,154.5 578.9,154.5 
		577.8,155.8 577.5,156.2 577.5,156.3 577.2,156.7 576.7,157.5 576.7,157.5 576.5,157.8 576.3,158.3 576.2,158.6 575.7,159.5 
		575.7,159.5 575.6,159.6 575.5,159.9 575.2,160.7 574.9,161.4 574.8,161.9 574.5,162.9 574.3,164 574.2,164.8 574.1,166.2 
		574.1,166.6 574.2,167 574.2,167.1 574.3,168.5 574.3,168.8 574.4,169 574.4,169.2 574.7,170.4 574.9,171.7 575,171.8 575.2,172.6 
		575.3,172.7 575.6,173.6 575.6,173.8 575.7,173.8 575.7,173.9 575.8,174.1 576.4,175.6 576.9,176.8 577.5,178 577.7,178.3 
		578.4,179.5 579.2,180.8 579.6,181.6 580,182.2 583.3,187 586.8,192 591.6,199.1 593.8,202.3 594.9,204 595.3,204.6 598.7,209.6 
		599.7,211.1 603.5,217.1 605.1,219.7 605.4,220.1 606,221.2 606.3,221.6 606.6,222 607.5,223.6 611.1,229.6 611.2,229.7 
		611.8,230.8 612,231 616.8,239.3 617.6,240.6 618.2,241.6 618.4,242.1 619.1,243.2 619.2,243.5 619.6,244.1 619.9,244.8 
		620.4,245.6 625.2,254.4 625.4,254.6 626.2,256.1 626.5,256.7 626.8,257.2 627.2,258.1 627.3,258.3 627.5,258.7 629.3,262.1 
		629.7,263 629.8,263.1 629.9,263.5 630.4,264.5 631.7,267.2 633.1,270 633.3,270.5 633.5,270.7 634,272 636.2,276.7 636.7,277.7 
		637.6,279.7 638.1,280.8 638.9,282.6 640.7,286.6 640.7,286.8 641.4,288.3 643,292.2 643.4,293.2 644.2,295.1 644.9,296.9 645,297 
		645.8,299 646,299.5 646,299.5 646.2,300 647.9,304.7 650,310.1 650.9,312.5 651,312.9 651.7,314.7 652,315.7 652.4,316.8 
		652.5,317.2 653,318.6 656.8,329.7 657.2,330.7 657.4,331.6 658,333.2 658.2,334 658.3,334.2 658.6,335.5 658.7,335.8 660.7,342.3 
		662.8,349.3 663.2,350.6 663.9,353.3 664.3,354.8 664.6,355.9 665.4,358.6 666,361.3 666.4,362.9 666.7,364 666.7,364 667.5,367.3 
		667.8,368.5 668.6,371.9 668.9,373.2 669,373.4 669.1,373.9 670.3,379.6 670.4,379.8 670.5,380.3 670.6,380.9 672.3,389.2 
		672.4,389.8 672.8,392 672.9,392.3 674.1,399.1 674.2,399.8 675.1,404.9 675.8,409.4 676.2,411.6 676.2,411.8 676.8,415.6 
		677,417.4 678.2,425.7 678.4,427.1 678.5,427.9 678.7,429.3 678.7,429.9 679.7,438.5 679.8,439.2 680.1,442.4 680.4,445.4 
		680.6,447.2 681.1,454.8 681.2,454.9 681.2,455.7 681.5,463 681.6,464.4 681.6,465.7 681.6,466.3 681.6,467.5 681.7,467.8 
		681.7,468.2 681.6,473.7 681.6,475.2 681.5,477.7 681.4,480 681.4,480.4 681.2,483.4 681.2,484.1 681.1,485.1 680.9,488.5 
		680.8,489.2 680.5,492.5 680.5,492.6 680.3,493.7 680,496.4 679.8,498.3 679.5,500.7 679.5,500.8 679.4,501.1 679.3,501.8 
		678.8,505 678.6,506.5 678.5,507 678.4,507.3 677.4,512.5 677.3,512.9 677.3,513.2 676.5,516.4 676.4,516.7 676.4,516.9 
		676.2,517.5 676.2,517.5 676.2,517.6 676.1,518 675,521.7 674.9,522.2 674.8,522.5 674.2,524.4 672.8,528.9 672.7,529.1 
		672.4,530.1 671.8,531.9 671.2,533.5 671.2,533.5 671.1,533.7 671.1,533.7 671,534.1 671,534.1 671,534.1 671,534.2 670.8,534.5 
		669.9,537.1 669.7,537.4 669.5,538.1 667.5,542.6 667.4,542.9 667.3,543.2 667,543.8 664.6,548.5 664.1,549.5 663.7,550.2 
		663.5,550.7 663.5,550.7 663.2,551.1 661.2,555.1 661.1,555.1 660.9,555.5 660.9,555.6 660.7,555.9 658,560.9 657.9,560.9 
		655.7,564.8 655.4,565.3 654.5,566.8 654,567.6 653.5,568.5 653,569.2 652.8,569.6 652.6,569.9 652.5,570 652.4,570.1 646.8,578.7 
		646.8,578.8 646.6,579.1 646.5,579.2 646.5,579.2 646.2,579.7 646.1,579.9 645.9,580.1 645.9,580.2 645.3,581.1 645,581.5 
		642.6,585.1 642,585.9 641.9,586 637.1,592.6 637,592.9 636.7,593.1 635.8,594.4 633.2,597.8 632.4,598.7 629.8,602 626.8,605.6 
		625.3,607.5 617.6,616.6 616.9,617.4 616.6,617.7 613.1,621.6 612.2,622.6 607.5,627.6 606.9,628.2 606.7,628.4 606.6,628.5 
		606.4,628.7 601.9,633 601.3,633.6 597.1,637.4 596.2,638.2 595.4,639 595.4,639 594.7,639.6 591.1,642.7 589.6,644 589.2,644.3 
		588.5,644.9 583.9,648.6 583.3,649 580.3,651.3 579.1,652.2 578.4,652.7 574.8,655.2 571.9,657.3 571.7,657.4 570.6,658.1 
		567,660.4 563.6,662.5 562.9,662.9 560.1,664.5 559.3,664.9 558.3,665.5 558,665.7 554.2,667.8 552.9,668.5 552.4,668.7 
		552.3,668.8 552.1,668.9 552.1,668.9 551.4,669.2 548.5,670.7 544.3,672.8 543.6,673.1 542.6,673.6 541.9,673.9 536.9,676.1 
		530.6,678.9 529.9,679.2 529.1,679.5 528.6,679.7 528.1,679.9 527.2,680.3 526.1,680.7 525.3,681 524.8,681.2 520.4,682.9 
		517.5,684 516.1,684.5 513.7,685.3 513.1,685.5 509.4,686.7 506.9,687.5 504.7,688.2 502.1,688.9 501.9,688.9 501.1,689.2 
		501,689.2 499.4,689.6 495.5,690.6 494.3,690.9 492.9,691.2 490.4,691.8 487.9,692.4 486.5,692.6 486.1,692.7 485.9,692.7 
		485.6,692.8 484.2,693.1 478.8,694 477.2,694.3 477.1,694.3 477.1,694.3 476.7,694.4 476.3,694.4 476.2,694.5 470.5,695.3 
		470.4,695.3 470.4,695.3 470.3,695.3 470.3,695.3 467.2,695.6 466.3,695.7 466.2,695.8 464.8,695.9 460.9,696.2 460.3,696.3 
		458.3,696.4 455.6,696.6 455.1,696.6 454.5,696.6 453.7,696.7 449.2,696.8 448.1,696.9 447.1,696.9 446.4,696.9 446,696.9 
		444,696.8 434.6,696.7 434,696.7 433.4,696.7 432.4,696.6 427.4,696.3 427.2,696.3 427.2,696.3 427,696.2 426.2,696.2 421.2,695.7 
		420.8,695.6 420.5,695.6 420.2,695.6 413.5,694.7 413.4,694.7 412.9,694.7 412.5,694.6 409.7,694.1 409.2,694.1 408.7,694 
		405.4,693.4 403,692.9 402.7,692.9 402.3,692.8 402,692.7 401.9,692.7 399.3,692.2 397.6,691.8 395.9,691.5 395.9,691.5 394.2,691 
		389.7,689.9 389.5,689.9 389.4,689.9 386.9,689.2 385.9,688.9 385.3,688.7 383.4,688.2 383.2,688.1 383,688.1 376.4,686 376.2,686 
		375.6,685.8 374.3,685.3 370.7,684.1 370.1,683.8 368.6,683.3 364,681.6 362.7,681.1 360.7,680.3 360,680 359.9,680 359.7,679.9 
		359.5,679.8 358.6,679.4 354.8,677.8 354.7,677.8 354.7,677.8 354.5,677.7 351.1,676.2 345.1,673.5 344.6,673.3 344.5,673.2 
		344,672.9 343.8,672.8 339.5,670.8 339.4,670.7 339.3,670.7 339.3,670.6 338.8,670.4 335.8,668.9 335,668.4 333.8,667.8 
		327.9,664.4 325.3,663 323.9,662.2 323.6,662 322.6,661.4 318.8,659.1 318.2,658.6 318,658.5 317.4,658.1 316.3,657.3 313.2,655.2 
		312,654.5 310.2,653.2 305,649.3 304.7,649 304.1,648.6 304,648.5 302.7,647.5 300,645.3 298.2,643.9 297.9,643.6 297.8,643.5 
		296.9,642.7 296.8,642.7 293.8,640.1 293.8,640.1 292.9,639.3 287.9,634.8 285,632 284.3,631.4 284.1,631.2 283.6,630.6 
		281.5,628.5 279.2,626.3 278.4,625.4 275.6,622.5 274.6,621.4 273.1,619.7 272.3,618.8 271.3,617.7 268.9,614.9 267.5,613.3 
		261.3,605.8 258.2,602.1 257.6,601.3 256.6,600.1 253.8,596.6 253.1,595.6 250.8,592.6 249.6,590.9 248.9,590 248.9,590 
		247.5,588.1 246.4,586.5 245.1,584.6 244.9,584.3 244.3,583.4 243.4,582.2 242.7,581 242.5,580.8 242.3,580.5 242.1,580.1 
		235.9,570.7 235.7,570.4 235.7,570.4 235.5,570.2 235.4,570 235.3,569.9 235.2,569.6 235,569.3 234,567.6 232.4,565 232.2,564.7 
		232.1,564.5 232,564.3 231.7,563.8 228.9,558.9 228.3,557.8 226.8,555.1 226.2,553.9 225.1,551.9 223.4,548.6 223.1,548.1 
		222.8,547.5 221.6,545.1 220.9,543.5 220.4,542.6 220.1,541.9 219.7,541.1 219.7,540.9 219.6,540.7 219.6,540.6 218.8,538.8 
		218.3,537.5 218.1,537.1 218,536.8 217.9,536.4 217,534 216.7,533.4 215.8,530.5 215.6,530.1 214.6,527 214.5,526.6 214.3,526.2 
		214.2,525.7 214,525.4 214,525.1 213.2,522.3 212.6,520.3 212.2,519 212,518.4 211.8,517.7 211.8,517.6 211.8,517.5 211,514.3 
		211,514.2 210.8,513.8 209.4,506.2 209.3,505.6 209.2,505.2 209.1,505 209,504.3 208.6,501.3 208.1,498 207.9,495.5 207.5,492.5 
		207.4,491.1 207.3,490.6 206.9,484.9 206.8,484.3 206.7,483.6 206.6,481.7 206.6,481.3 206.6,481 206.6,480.7 206.6,480 
		206.5,479.7 206.5,479.7 206.4,475.7 206.4,475 206.4,475 206.3,471.5 206.3,471.1 206.3,468.8 206.3,467.5 206.3,467.3 
		206.4,466.2 206.4,463.8 206.4,462.9 206.5,461.7 206.6,460.9 206.7,458 206.7,458 206.9,454.9 207.2,450.7 207.2,449.8 
		207.9,442.4 207.9,442.1 208.1,440 208.3,438.5 209.2,429.9 209.3,429.4 209.5,428 210.8,418.5 210.9,417.4 211,417.1 211.8,411.9 
		212.7,406.3 212.9,404.9 212.9,404.8 213,404 213.1,403.3 213.7,400.2 213.8,399.3 213.9,399.2 214,398.3 215.1,392.3 216.2,386.9 
		216.4,385.8 217,382.5 217.5,380.3 217.6,379.8 218.1,377.2 218.9,374 218.9,373.9 218.9,373.6 220.5,367.3 221.7,362.4 
		221.9,361.4 222.2,360.4 222.4,359.3 222.5,359 223.4,355.7 223.7,354.8 224.9,350.3 225,349.8 225.2,349 225.8,347.1 227.2,342.3 
		228.4,338.3 228.8,336.9 231.1,329.7 232,327.1 232.6,325.1 235,318.3 235,318.2 235.2,317.8 235.2,317.7 235.4,317.2 236.6,313.7 
		237,312.6 237.2,312.1 239,307.2 239.7,305.5 240,304.7 240.7,302.7 241.3,301.1 241.7,300.3 243.9,294.7 244.2,294.1 244.9,292.2 
		245.1,291.9 246.3,289.1 246.6,288.2 247.7,285.7 248,285 248.2,284.5 248.5,283.9 249.5,281.6 250.4,279.7 250.9,278.4 251,278.3 
		251.1,277.9 251.2,277.8 251.7,276.8 255.6,268.5 256.2,267.2 256.2,267.1 257,265.5 258,263.5 258.1,263.2 258.2,263 258.3,262.9 
		260.8,258.1 261.7,256.3 261.9,255.9 261.9,255.9 262.1,255.5 262.3,255.2 262.6,254.6 262.9,254.1 265.8,248.7 266.4,247.7 
		269.5,242.1 269.7,241.8 269.8,241.5 270.2,240.9 270.7,240 271.5,238.6 276.8,229.6 277.1,229.2 278.7,226.5 278.7,226.4 
		278.9,226 279.2,225.7 281.5,221.9 284.2,217.5 284.4,217.1 285,216.1 285.1,216 285.5,215.3 287.8,211.8 288.2,211.1 288.6,210.5 
		291.4,206.3 292,205.4 292.6,204.6 292.8,204.3 293.1,203.9 298.1,196.4 298.1,196.4 298.5,195.9 298.7,195.7 299.1,195 
		299.6,194.3 301.2,192 301.5,191.6 304.7,186.9 308,182.1 308.4,181.4 309.5,179.5 310.1,178.3 310.3,178.1 310.3,178 310.7,177.3 
		310.8,177.1 311.7,175.2 311.7,175.1 312.3,173.4 312.7,172.2 312.8,172.1 313.3,169.9 313.4,169.3 313.5,169.2 313.6,168 
		313.6,167.9 313.7,167.5 313.7,167 313.7,166.9 313.7,166.8 313.7,166.4 313.7,165.5 313.7,165.3 313.6,165.1 313.4,163.5 
		313.4,163.4 313.2,162.5 313.1,162.3 313.1,162.1 312.8,161.3 312.6,160.7 312.6,160.7 312.6,160.7 312.5,160.3 312.3,159.9 
		312.1,159.5 311.7,158.8 311.6,158.5 311.1,157.7 311.1,157.5 311.1,157.5 311.1,157.5 310.8,157 310.8,157 310.1,156.1 
		309.9,155.8 309.8,155.6 309.7,155.5 309.7,155.5 309.4,155.1 309.1,154.8 308.8,154.5 308.6,154.2 308.5,154.1 308.4,153.9 
		308.3,153.9 307.5,153.1 307.2,152.9 307.2,152.8 307.2,152.8 306.6,152.4 306.1,152 305.7,151.7 305.5,151.5 305.3,151.4 
		304.7,151 304.5,151 304.5,151 304.1,150.7 303.9,150.6 303.4,150.3 303.3,150.3 303.2,150.3 303.1,150.2 303.1,150.2 303,150.2 
		302.8,150.1 302,149.8 301.5,149.6 301.5,149.6 300.7,149.3 300.6,149.3 298.9,149 298.5,148.9 298.2,148.8 297.8,148.8 
		297.7,148.8 297.5,148.7 297.3,148.7 297.2,148.7 296.2,148.7 295.9,148.6 295.6,148.6 295.6,148.6 295.4,148.7 295,148.7 
		294.6,148.7 293.5,148.8 293.5,148.8 293.1,148.9 292.5,149.1 292.4,149.1 291.8,149.3 291.7,149.3 291.6,149.3 291.2,149.5 
		290.8,149.7 290.1,149.9 289.8,150.1 289.7,150.2 289.1,150.5 288.9,150.7 288.2,151.2 287.9,151.4 287.3,152 287,152.2 
		286.9,152.3 286.8,152.4 286.8,152.4 286.8,152.4 286.7,152.5 286.7,152.6 286.5,152.8 285.8,153.5 285.8,153.5 285.2,154.4 
		285.2,154.5 285,154.8 284.5,155.6 284.3,155.8 284.3,155.8 284.2,156 284.1,156.2 284,156.3 283.7,156.9 283.2,158.1 283,158.5 
		282.8,159.1 282.8,159.2 282.7,159.4 282.7,159.8 282.6,159.9 282.6,160.1 282.6,160.1 282.6,160.2 282.6,160.3 282.6,160.3 
		282.7,160.7 282.8,160.7 282.8,160.7 282.9,160.9 283,161.1 283.1,161.1 283.1,161.1 283.1,161.1 283.2,161.2 285.7,163.2 
		286.3,163.7 286.7,164 286.8,164 287.3,164.3 287.4,164.4 287.4,164.4 287.7,164.5 287.7,164.5 287.8,164.5 288.1,164.5 
		288.1,164.5 288.2,164.5 288.2,164.5 288.3,164.4 288.3,164.4 288.3,164.4 288.3,164.4 288.4,164.4 289.1,164.1 290.7,163.1 
		290.9,162.9 291.6,162.5 293.1,161.7 293.6,161.4 293.7,161.3 294.9,160.9 295.1,160.8 295.5,160.7 295.5,160.7 295.9,160.7 
		296,160.7 296.4,160.7 296.9,160.7 296.9,160.7 297.2,160.7 297.2,160.8 297.6,160.8 297.7,160.8 297.7,160.8 298.5,161.2 
		298.8,161.3 298.8,161.3 298.9,161.4 299,161.5 299.1,161.5 299.9,162.2 300,162.2 300,162.3 300,162.3 300.1,162.3 300.8,163.1 
		300.9,163.3 300.9,163.3 301.1,163.5 301.4,164.1 301.6,164.4 301.8,164.9 301.8,165 301.9,165.4 302,165.9 302,166.2 302,166.6 
		302,166.8 302,166.9 302,166.9 302,167 302,167.1 302,167.3 301.9,167.7 301.9,167.8 301.8,168 301.8,168.1 301.7,168.4 
		301.5,169.1 301.5,169.2 301.2,169.9 300.7,170.7 300.3,171.4 300.1,171.8 299.7,172.3 298.8,173.8 298,174.9 297.7,175.3 
		297.7,175.4 297.7,175.3 295.5,176.1 	"/>
	<polyline class="st0" points="616.6,170.3 620.2,175.4 627.5,186.3 637.3,201.6 641.2,208 646.9,217.9 657,236.4 657.9,235.9 
		668.8,260.3 676.3,277.6 681.6,291.1 683.1,295.1 689.9,314 692.8,323.1 696.1,334.2 700.1,348.6 702.4,357.9 703.9,364.2 
		706.2,375 709.9,394.3 711.1,401.4 712.8,412.8 714.7,427.5 716,438.6 717,449.5 717.9,462.9 718.2,470.3 718.3,477.2 718.4,485.5 
		718.3,493.2 718.1,504.2 717.6,514.5 715.9,539.4 715,543.6 	"/>
	<path class="st0" d="M684.7,612.3l-0.3,0.2l-0.1,0.1l-0.1,0l0,0l-0.1,0l-0.3,0l-0.1,0l-0.1,0l0,0l-0.2-0.1l-0.2-0.1l-0.1-0.2
		l-0.1-0.1l0-0.1l0,0l0-0.1l0,0l0,0l0,0l0-0.1l0,0l-0.2-0.1l0,0l0.1,0.3l-0.3-0.7l0-0.5"/>
	<path class="st0" d="M681.1,623c-0.8,4.4-0.5,7.7,1,8.2c2.2,0.8,6.2-4.5,8.8-11.9c2.7-7.4,5.2-19.8,3-20.6
		c-1.8-0.6-6.8,8.5-9.2,13.5"/>
	<line class="st0" x1="269.5" y1="172.9" x2="297.7" y2="175.4"/>
	<line class="st0" x1="616.6" y1="170.3" x2="586.9" y2="170.2"/>
	<line class="st0" x1="715" y1="543.6" x2="682.5" y2="610.7"/>
	<line class="st0" x1="203.1" y1="602.6" x2="203.5" y2="603.4"/>
	<line class="st0" x1="172.2" y1="541.6" x2="203.1" y2="602.6"/>
</g>
<g>
	<path class="st0" d="M757.1,602.2l0.4,1.2l1.9,9.6l0.1,0.3l-0.1-0.3l0.1,0.3l0,0.1l0,0l-0.2,0.4l0,0l0,0l0,0l0,0l0,0l0,0l-0.1,0.1
		l-0.1,0.1l-0.1,0.1l0,0l-0.1,0.1l-0.2,0.2l-0.3,0.1l-0.2,0l0,0l-0.1,0l-0.3-0.1l-0.2-0.1l0.4,0.3c-1.8-4.1-6.9-14.6-8.4-14.2
		c-2.3,0.6,0.5,15.2,2.5,22.8c2,7.6,5.5,13.2,7.8,12.6c1.8-0.5,2.3-4.8,1.4-10.3l0,0.9l0-0.1l0,0l0.2,0.1l0.2,0.1l1.4,0.3l0.8,2.7
		l0,0l0.2,0.6l0,0.1l0,0.1l1.1,3.4l0,0.1l0,0l0,0.1l0.6,1.9l0.5,1.6l0.1,0.3l0,0l0,0.1l0.1,0.3l0,0.1l1.6,4.5l0.3,0.9l0.1,0.3l0,0
		l0,0.1l0.7,1.9l0.1,0.2l1.5,4l0.5,1.2l0.1,0.3l1,2.5l0.1,0.1l0.2,0.5l0.2,0.4l3.1,6.8l0.1,0.3l0.6,1.2l0.5,1l0.1,0.3l1.5,2.9
		l0.8,1.5l0.3,0.5l0.9,1.6l0.5,0.8l1.4,2.4l0.6,1.1l2,3.3l0.1,0.1l0.6,1l0,0.1l0.3,0.6l1.4,2.2l0.1,0.1l1,1.6l1.1,1.7l0.6,1l2.5,3.6
		l0.8,1.1l0.4,0.5l0.6,0.9l0.8,1.1l0.4,0.5l1.5,1.9l0.4,0.5l0.4,0.5l2.1,2.6l0.1,0.2l0.4,0.5l2,2.3l1.3,1.5l0.1,0.2l0.1,0.1l0.1,0.1
		l0,0l0,0l0,0l0.1,0.1l1.1,1.2l1.6,1.7l1.1,1.1l0.3,0.3l1,1l1.4,1.4l0.9,0.9l0,0l2.4,2.3l1.2,1.1l1,0.9l1.7,1.6l0.6,0.6l0.1,0.1
		l0.2,0.2l0.8,0.7l1,0.9l2.6,2.2l0.3,0.2l1.9,1.6l1,0.9l1.3,1l0.6,0.5l2.2,1.8l0.4,0.3l0.5,0.3l0.4,0.3l1.4,1l1.7,1.3l0.4,0.3l1,0.8
		l2.7,1.8l1.4,0.9l6.1,3.9l0,0l0.5,0.3l2.7,1.5l1.4,0.8l0.5,0.3l0.7,0.4l0.8,0.4l3.2,1.7l0.3,0.1l0.9,0.4l0.7,0.3l2.7,1.3l0.8,0.4
		l3.3,1.5l0.5,0.2l0.5,0.2l0,0l0.3,0.1l0,0l3.6,1.5l3.3,1.4l0.3,0.1l0.6,0.2l0,0l2.2,0.9l1.7,0.6l0.4,0.2l0.2,0.1l0.3,0.1l0.1,0
		l1.5,0.5l0.9,0.3l0,0l0,0l0.1,0l2,0.7l0.6,0.2l0.3,0.1l2.4,0.8l0.4,0.1l0.1,0l0,0l1.4,0.5l0,0l0,0l1.4,0.4l0.1,0l2.8,0.8l7,2.1l0,0
		l1.3,0.3l0,0l2.9,0.7l0.3,0.1l2.6,0.6l1,0.2l4.5,1l3.2,0.7l0.3,0.1l0.8,0.2l4.5,0.8l1.1,0.2l0.3,0l1.1,0.2l3.2,0.5l0,0l0.1,0l0,0
		l0.5,0.1l4.6,0.7l0.6,0.1l0.7,0.1l0,0l0.1,0l0.1,0l0.2,0l0.3,0l1.1,0.1l0,0l6,0.8l0.1,0l0.4,0l0,0l0.1,0l0.2,0l0.3,0l0.3,0l0,0
		l4.6,0.4l3.7,0.4l7.7,0.8l0.4,0l0,0l0.4,0l1.3,0.1l4.7,0.3l0,0l1.4,0.1l2.8,0.1l1.2,0l1.9,0.1l1.1,0l0.3,0l9.1,0.3l2,0.1l0.5,0
		l3.2,0.1l0.5,0l0,0l0.1,0.1l0.3,0.3h0.1h0h0.1h0.1l0.2,0.2l0.5,0.4l0.1,0.1l0,0l0.2,0.2l0.5,0.5l0,0l0,0l0,0l0,0l0,0l0,0.1l0,0l0,0
		l0.1,0.2l0,0l0,0l0,0v0l0,0.2l0,0.2l0,0.2l-0.1,0.2l0.1-0.2l0,0.1c-4.4,0.7-7.4,2.1-7.4,3.7c0,2.3,6.3,4.3,14.2,4.3
		c7.8,0,14.2-1.9,14.2-4.3c0-1.9-4-3.5-9.6-4l0.1,0l0,0.1l0,0l0-0.1l0-0.1l0,0l0-0.1l0-0.1l0,0l0,0l0-0.1l0-0.2l0.1-0.2l0,0l0,0l0,0
		l0.1-0.2l0,0l0.4-0.3l0.5-0.5l0.1-0.1l0.1-0.1h0.7l0.2-0.2l0.3-0.2l0,0l3.3-0.1l3.1-0.1l3.3-0.1l2.6-0.1l0.2,0l0.1,0l1.4,0l0.9,0
		l0.9,0l16.4-1l2.1-0.1l0.1,0l0.2,0l3.4-0.3l0.4,0l0.9-0.1l0.9-0.1l0,0l8.6-1l0.4,0l1.5-0.2l0.6-0.1l0,0l6.5-0.9l3.4-0.5l0.4-0.1
		l0.8-0.1l1.1-0.2l1-0.2l1.6-0.3l0.4-0.1l2.5-0.5l2-0.4l1.6-0.3l0.1,0l0.6-0.1l1.8-0.4l5.7-1.2l1.3-0.3l1-0.2l1.1-0.3l2.3-0.6l2-0.5
		l5.3-1.5l1.7-0.5l0.3-0.1l0.7-0.2l0.1,0l0,0l4.1-1.3l0.6-0.2l0.8-0.3l1.6-0.5l3.7-1.3l1.1-0.4l1-0.4l0.2-0.1l2.7-1l2.8-1.1l1.5-0.6
		l0.1,0l1.2-0.5l1.1-0.4l2.2-0.9l0,0l6.3-2.9l1.1-0.5l2-1l3.4-1.8l0.6-0.3l0.3-0.2l0.4-0.2l3.1-1.7l0.5-0.3l0,0l0.8-0.5l0.8-0.5
		l1.6-1l3.3-2l0.3-0.2l0,0l0.3-0.2l0.2-0.1l1.1-0.7l6.3-4.4l1.5-1l0.6-0.4l0.1-0.1l0.2-0.2l0,0l0,0l0.3-0.2l1.2-0.9l0.6-0.5l2-1.6
		l2.4-1.9l0.7-0.6l1.4-1.2l0.1-0.1l0.4-0.3l0.1-0.1l0.9-0.8l0.1-0.1l1.8-1.6l2.9-2.6l1.3-1.2l1.5-1.4l0.9-0.9l0.1-0.1l0.5-0.5
		l1.5-1.5l2.5-2.5l0.5-0.5l0.1-0.1l0.7-0.8l3.9-4.3l0.8-0.8l0.7-0.8l0.4-0.5l2-2.4l1.5-1.8l2.4-3.2l0.9-1.2l0.4-0.5l0.4-0.5l0,0
		l0.1-0.2l0,0l0,0l0.2-0.3l0,0l0.2-0.3l0.1-0.1l2-2.8l0.6-0.9l0.1-0.1l0.4-0.6l0.5-0.8l0.3-0.4l0.9-1.4l0.6-0.9l1-1.4l0,0l0,0l1.9-3
		l0.2-0.3l0.6-1.1l0.2-0.4l0.1-0.2l0.3-0.6l0.3-0.5l2.4-4.2l0.4-0.7l0.1-0.2l0.5-0.9l1.9-3.5l0.2-0.3l0.4-0.7l1.1-2.1l0.4-0.7
		l0.5-1.1l1.2-2.5l0,0l0.4-0.8l0.3-0.7l0.1-0.2l0.7-1.5l0.4-0.8l0.4-0.9l0.9-2.3l1.7-4.1l0.8-2l0.9-2.3l0.1-0.3l0.3-0.9l0.2-0.6
		l0.7-2l1-2.8l0.5-1.6l0.2-0.6l1.6-5.1l0.1-0.4l-0.2,0.7l0.2-0.6l0.4-1.3l0,0l0-0.1l0.7-2.6l0.4-1.3l1.7-0.1"/>
	<polyline class="st0" points="726.2,541.6 725.9,538.3 724.9,523.1 724.2,510.2 723.7,492.7 723.6,484.4 723.9,469.1 724.2,461.2 
		725.3,446.8 726.7,432.2 727.6,424.9 728.7,416.2 730.3,405.2 730.2,405.1 733.2,388.1 735,378.5 736.3,372.4 738.7,361.2 
		740,356.1 741.8,348.7 744.6,338.3 746.3,332.4 748,326.8 750.5,318.8 754.9,305.9 761.3,288.6 766.5,275.7 771.6,263.8 
		774.7,256.9 780.2,245.5 784.6,237.1 790.8,225.5 797.1,214.2 804.2,202.3 811.5,190.7 815.9,184.1 823.5,172.9 	"/>
	<polyline class="st0" points="1143.4,171 1140.7,169.7 1140.9,170.2 1140.7,169.7 1140.6,169.6 1140.6,169.6 1140.4,169.2 
		1140.2,168.8 1140.2,168.8 1140,167.9 1139.8,167.1 1139.8,167 1139.8,166.9 1139.8,166.7 1139.8,166.7 1139.8,166.6 1139.8,166 
		1139.8,165.8 1139.9,165.3 1140,165.1 1140.3,164.3 1140.5,163.8 1140.7,163.5 1140.7,163.5 1140.7,163.5 1141.6,162.4 
		1141.6,162.4 1141.6,162.3 1141.7,162.3 1142.9,161.3 1143.1,161.2 1143.2,161.2 1143.2,161.1 1143.5,161 1144,160.8 1144.2,160.7 
		1144.3,160.7 1144.5,160.7 1144.7,160.6 1145.5,160.6 1145.5,160.6 1145.9,160.6 1146.2,160.6 1146.6,160.7 1146.6,160.7 
		1147,160.8 1147.3,160.9 1147.5,161 1147.8,161.1 1148.7,161.5 1148.7,161.5 1148.7,161.5 1148.8,161.5 1148.8,161.6 1148.9,161.6 
		1149.9,162.2 1150.3,162.4 1151.5,163.2 1152.6,163.9 1152.8,164 1153,164.1 1153.2,164.2 1153.2,164.2 1153.5,164.3 1153.7,164.3 
		1154,164.4 1154,164.4 1154,164.4 1154.2,164.4 1154.4,164.3 1154.5,164.3 1154.6,164.2 1154.7,164.1 1155.3,163.7 1155.3,163.7 
		1155.9,163.2 1157,162.4 1158.6,161.1 1158.9,160.8 1158.9,160.8 1159,160.8 1159,160.7 1159.1,160.5 1159.2,160 1159.2,159.9 
		1159.2,159.9 1159.2,159.6 1159,159.1 1158.9,158.9 1158.8,158.6 1158.6,157.9 1158.6,157.8 1158.6,157.8 1158.5,157.7 
		1158.3,157.2 1158.1,156.9 1157.9,156.5 1157,154.9 1156.8,154.6 1156.8,154.6 1156.7,154.5 1156.7,154.4 1156.7,154.4 
		1156.6,154.3 1156,153.4 1155.7,153.1 1155.2,152.5 1155.1,152.4 1154.7,152.1 1154.6,151.9 1154.3,151.6 1154.3,151.6 
		1154.1,151.4 1154.1,151.4 1153.4,150.9 1153.2,150.7 1152.9,150.5 1152.3,150.2 1152.1,150 1151.8,149.9 1151.8,149.9 
		1151.2,149.6 1151.2,149.6 1150.4,149.4 1149.9,149.2 1149.4,149 1149.1,148.9 1149.1,148.9 1148.9,148.9 1148.6,148.8 
		1148.6,148.8 1148.1,148.7 1147.4,148.6 1147.2,148.6 1147.1,148.6 1147,148.6 1146.2,148.7 1145.7,148.6 1145.1,148.6 
		1144.7,148.6 1144.1,148.7 1143.5,148.7 1143.1,148.8 1142.7,148.9 1142.6,148.9 1142.5,148.9 1141.7,149.1 1139.9,149.6 
		1139.8,149.7 1139.5,149.8 1139.5,149.8 1139.3,149.9 1138.5,150.2 1138,150.5 1137.5,150.7 1137.3,150.9 1137.3,150.9 
		1136.4,151.4 1136.1,151.6 1135.7,151.9 1135.7,151.9 1135.3,152.2 1135.2,152.3 1134.7,152.7 1134.1,153.2 1133.5,153.8 
		1133.5,153.8 1133.4,154 1133.4,154 1133.2,154.1 1133,154.5 1132.9,154.5 1131.8,155.8 1131.5,156.2 1131.5,156.3 1131.2,156.7 
		1130.7,157.5 1130.7,157.5 1130.5,157.8 1130.3,158.3 1130.2,158.6 1129.7,159.5 1129.7,159.5 1129.6,159.6 1129.5,159.9 
		1129.2,160.7 1128.9,161.4 1128.8,161.9 1128.5,162.9 1128.3,164 1128.2,164.8 1128.1,166.2 1128.1,166.6 1128.2,167 1128.2,167.1 
		1128.3,168.5 1128.3,168.8 1128.4,169 1128.4,169.2 1128.7,170.4 1128.9,171.7 1129,171.8 1129.2,172.6 1129.3,172.7 1129.6,173.6 
		1129.6,173.8 1129.7,173.8 1129.7,173.9 1129.8,174.1 1130.4,175.6 1130.9,176.8 1131.5,178 1131.7,178.3 1132.4,179.5 
		1133.2,180.8 1133.6,181.6 1134,182.2 1137.3,187 1140.8,192 1145.6,199.1 1147.8,202.3 1148.9,204 1149.3,204.6 1152.7,209.6 
		1153.7,211.1 1157.5,217.1 1159.1,219.7 1159.4,220.1 1160,221.2 1160.3,221.6 1160.6,222 1161.5,223.6 1165.1,229.6 1165.2,229.7 
		1165.8,230.8 1166,231 1170.8,239.3 1171.6,240.6 1172.2,241.6 1172.4,242.1 1173.1,243.2 1173.2,243.5 1173.6,244.1 1173.9,244.8 
		1174.4,245.6 1179.2,254.4 1179.4,254.6 1180.2,256.1 1180.5,256.7 1180.8,257.2 1181.2,258.1 1181.3,258.3 1181.5,258.7 
		1183.3,262.1 1183.7,263 1183.8,263.1 1183.9,263.5 1184.4,264.5 1185.7,267.2 1187.1,270 1187.3,270.5 1187.5,270.7 1188,272 
		1190.2,276.7 1190.7,277.7 1191.6,279.7 1192.1,280.8 1192.9,282.6 1194.7,286.6 1194.7,286.8 1195.4,288.3 1197,292.2 
		1197.4,293.2 1198.2,295.1 1198.9,296.9 1199,297 1199.8,299 1200,299.5 1200,299.5 1200.2,300 1201.9,304.7 1204,310.1 
		1204.9,312.5 1205,312.9 1205.7,314.7 1206,315.7 1206.4,316.8 1206.5,317.2 1207,318.6 1210.8,329.7 1211.2,330.7 1211.4,331.6 
		1212,333.2 1212.2,334 1212.3,334.2 1212.6,335.5 1212.7,335.8 1214.7,342.3 1216.8,349.3 1217.2,350.6 1217.9,353.3 1218.3,354.8 
		1218.6,355.9 1219.4,358.6 1220,361.3 1220.4,362.9 1220.7,364 1220.7,364 1221.5,367.3 1221.8,368.5 1222.6,371.9 1222.9,373.2 
		1223,373.4 1223.1,373.9 1224.3,379.6 1224.4,379.8 1224.5,380.3 1224.6,380.9 1226.3,389.2 1226.4,389.8 1226.8,392 1226.9,392.3 
		1228.1,399.1 1228.2,399.8 1229.1,404.9 1229.8,409.4 1230.2,411.6 1230.2,411.8 1230.8,415.6 1231,417.4 1232.2,425.7 
		1232.4,427.1 1232.5,427.9 1232.7,429.3 1232.7,429.9 1233.7,438.5 1233.8,439.2 1234.1,442.4 1234.4,445.4 1234.6,447.2 
		1235.1,454.8 1235.2,454.9 1235.2,455.7 1235.5,463 1235.6,464.4 1235.6,465.7 1235.6,466.3 1235.6,467.5 1235.7,467.8 
		1235.7,468.2 1235.6,473.7 1235.6,475.2 1235.5,477.7 1235.4,480 1235.4,480.4 1235.2,483.4 1235.2,484.1 1235.1,485.1 
		1234.9,488.5 1234.8,489.2 1234.5,492.5 1234.5,492.6 1234.3,493.7 1234,496.4 1233.8,498.3 1233.5,500.7 1233.5,500.8 
		1233.4,501.1 1233.3,501.8 1232.8,505 1232.6,506.5 1232.5,507 1232.4,507.3 1231.4,512.5 1231.3,512.9 1231.3,513.2 1230.5,516.4 
		1230.4,516.7 1230.4,516.9 1230.2,517.5 1230.2,517.5 1230.2,517.6 1230.1,518 1229,521.7 1228.9,522.2 1228.8,522.5 1228.2,524.4 
		1226.8,528.9 1226.7,529.1 1226.4,530.1 1225.8,531.9 1225.2,533.5 1225.2,533.5 1225.1,533.7 1225.1,533.7 1225,534.1 1225,534.1 
		1225,534.1 1225,534.2 1224.8,534.5 1223.9,537.1 1223.7,537.4 1223.5,538.1 1221.5,542.6 1221.4,542.9 1221.3,543.2 1221,543.8 
		1218.6,548.5 1218.1,549.5 1217.7,550.2 1217.5,550.7 1217.5,550.7 1217.2,551.1 1215.2,555.1 1215.1,555.1 1214.9,555.5 
		1214.9,555.6 1214.7,555.9 1212,560.9 1211.9,560.9 1209.7,564.8 1209.4,565.3 1208.5,566.8 1208,567.6 1207.5,568.5 1207,569.2 
		1206.8,569.6 1206.6,569.9 1206.5,570 1206.4,570.1 1200.8,578.7 1200.8,578.8 1200.6,579.1 1200.5,579.2 1200.5,579.2 
		1200.2,579.7 1200.1,579.9 1199.9,580.1 1199.9,580.2 1199.3,581.1 1199,581.5 1196.6,585.1 1196,585.9 1195.9,586 1191.1,592.6 
		1191,592.9 1190.7,593.1 1189.8,594.4 1187.2,597.8 1186.4,598.7 1183.8,602 1180.8,605.6 1179.3,607.5 1171.6,616.6 1170.9,617.4 
		1170.6,617.7 1167.1,621.6 1166.2,622.6 1161.5,627.6 1160.9,628.2 1160.7,628.4 1160.6,628.5 1160.4,628.7 1155.9,633 
		1155.3,633.6 1151.1,637.4 1150.2,638.2 1149.4,639 1149.4,639 1148.7,639.6 1145.1,642.7 1143.6,644 1143.2,644.3 1142.5,644.9 
		1137.9,648.6 1137.3,649 1134.3,651.3 1133.1,652.2 1132.4,652.7 1128.8,655.2 1125.9,657.3 1125.7,657.4 1124.6,658.1 1121,660.4 
		1117.6,662.5 1116.9,662.9 1114.1,664.5 1113.3,664.9 1112.3,665.5 1112,665.7 1108.2,667.8 1106.9,668.5 1106.4,668.7 
		1106.3,668.8 1106.1,668.9 1106.1,668.9 1105.4,669.2 1102.5,670.7 1098.3,672.8 1097.6,673.1 1096.6,673.6 1095.9,673.9 
		1090.9,676.1 1084.6,678.9 1083.9,679.2 1083.1,679.5 1082.6,679.7 1082.1,679.9 1081.2,680.3 1080.1,680.7 1079.3,681 
		1078.8,681.2 1074.4,682.9 1071.5,684 1070.1,684.5 1067.7,685.3 1067.1,685.5 1063.4,686.7 1060.9,687.5 1058.7,688.2 
		1056.1,688.9 1055.9,688.9 1055.1,689.2 1055,689.2 1053.4,689.6 1049.5,690.6 1048.3,690.9 1046.9,691.2 1044.4,691.8 
		1041.9,692.4 1040.5,692.6 1040.1,692.7 1039.9,692.7 1039.6,692.8 1038.2,693.1 1032.8,694 1031.2,694.3 1031.1,694.3 
		1031.1,694.3 1030.7,694.4 1030.3,694.4 1030.2,694.5 1024.5,695.3 1024.4,695.3 1024.4,695.3 1024.3,695.3 1024.3,695.3 
		1021.2,695.6 1020.3,695.7 1020.2,695.8 1018.8,695.9 1014.9,696.2 1014.3,696.3 1012.3,696.4 1009.6,696.6 1009.1,696.6 
		1008.5,696.6 1007.7,696.7 1003.2,696.8 1002.1,696.9 1001.1,696.9 1000.4,696.9 1000,696.9 998,696.8 988.6,696.7 988,696.7 
		987.4,696.7 986.4,696.6 981.4,696.3 981.2,696.3 981.2,696.3 981,696.2 980.2,696.2 975.2,695.7 974.8,695.6 974.5,695.6 
		974.2,695.6 967.5,694.7 967.4,694.7 966.9,694.7 966.5,694.6 963.7,694.1 963.2,694.1 962.7,694 959.4,693.4 957,692.9 
		956.7,692.9 956.3,692.8 956,692.7 955.9,692.7 953.3,692.2 951.6,691.8 949.9,691.5 949.9,691.5 948.2,691 943.7,689.9 
		943.5,689.9 943.4,689.9 940.9,689.2 939.9,688.9 939.3,688.7 937.4,688.2 937.2,688.1 937,688.1 930.4,686 930.2,686 929.6,685.8 
		928.3,685.3 924.7,684.1 924.1,683.8 922.6,683.3 918,681.6 916.7,681.1 914.7,680.3 914,680 913.9,680 913.7,679.9 913.5,679.8 
		912.6,679.4 908.8,677.8 908.7,677.8 908.7,677.8 908.5,677.7 905.1,676.2 899.1,673.5 898.6,673.3 898.5,673.2 898,672.9 
		897.8,672.8 893.5,670.8 893.4,670.7 893.3,670.7 893.3,670.6 892.8,670.4 889.8,668.9 889,668.4 887.8,667.8 881.9,664.4 
		879.3,663 877.9,662.2 877.6,662 876.6,661.4 872.8,659.1 872.2,658.6 872,658.5 871.4,658.1 870.3,657.3 867.2,655.2 866,654.5 
		864.2,653.2 859,649.3 858.7,649 858.1,648.6 858,648.5 856.7,647.5 854,645.3 852.2,643.9 851.9,643.6 851.8,643.5 850.9,642.7 
		850.8,642.7 847.8,640.1 847.8,640.1 846.9,639.3 841.9,634.8 839,632 838.3,631.4 838.1,631.2 837.6,630.6 835.5,628.5 
		833.2,626.3 832.4,625.4 829.6,622.5 828.6,621.4 827.1,619.7 826.3,618.8 825.3,617.7 822.9,614.9 821.5,613.3 815.3,605.8 
		812.2,602.1 811.6,601.3 810.6,600.1 807.8,596.6 807.1,595.6 804.8,592.6 803.6,590.9 802.9,590 802.9,590 801.5,588.1 
		800.4,586.5 799.1,584.6 798.9,584.3 798.3,583.4 797.4,582.2 796.7,581 796.5,580.8 796.3,580.5 796.1,580.1 789.9,570.7 
		789.7,570.4 789.7,570.4 789.5,570.2 789.4,570 789.3,569.9 789.2,569.6 789,569.3 788,567.6 786.4,565 786.2,564.7 786.1,564.5 
		786,564.3 785.7,563.8 782.9,558.9 782.3,557.8 780.8,555.1 780.2,553.9 779.1,551.9 777.4,548.6 777.1,548.1 776.8,547.5 
		775.6,545.1 774.9,543.5 774.4,542.6 774.1,541.9 773.7,541.1 773.7,540.9 773.6,540.7 773.6,540.6 772.8,538.8 772.3,537.5 
		772.1,537.1 772,536.8 771.9,536.4 771,534 770.7,533.4 769.8,530.5 769.6,530.1 768.6,527 768.5,526.6 768.3,526.2 768.2,525.7 
		768,525.4 768,525.1 767.2,522.3 766.6,520.3 766.2,519 766,518.4 765.8,517.7 765.8,517.6 765.8,517.5 765,514.3 765,514.2 
		764.8,513.8 763.4,506.2 763.3,505.6 763.2,505.2 763.1,505 763,504.3 762.6,501.3 762.1,498 761.9,495.5 761.5,492.5 761.4,491.1 
		761.3,490.6 760.9,484.9 760.8,484.3 760.7,483.6 760.6,481.7 760.6,481.3 760.6,481 760.6,480.7 760.6,480 760.5,479.7 
		760.5,479.7 760.4,475.7 760.4,475 760.4,475 760.3,471.5 760.3,471.1 760.3,468.8 760.3,467.5 760.3,467.3 760.4,466.2 
		760.4,463.8 760.4,462.9 760.5,461.7 760.6,460.9 760.7,458 760.7,458 760.9,454.9 761.2,450.7 761.2,449.8 761.9,442.4 
		761.9,442.1 762.1,440 762.3,438.5 763.2,429.9 763.3,429.4 763.5,428 764.8,418.5 764.9,417.4 765,417.1 765.8,411.9 766.7,406.3 
		766.9,404.9 766.9,404.8 767,404 767.1,403.3 767.7,400.2 767.8,399.3 767.9,399.2 768,398.3 769.1,392.3 770.2,386.9 770.4,385.8 
		771,382.5 771.5,380.3 771.6,379.8 772.1,377.2 772.9,374 772.9,373.9 772.9,373.6 774.5,367.3 775.7,362.4 775.9,361.4 
		776.2,360.4 776.4,359.3 776.5,359 777.4,355.7 777.7,354.8 778.9,350.3 779,349.8 779.2,349 779.8,347.1 781.2,342.3 782.4,338.3 
		782.8,336.9 785.1,329.7 786,327.1 786.6,325.1 789,318.3 789,318.2 789.2,317.8 789.2,317.7 789.4,317.2 790.6,313.7 791,312.6 
		791.2,312.1 793,307.2 793.7,305.5 794,304.7 794.7,302.7 795.3,301.1 795.7,300.3 797.9,294.7 798.2,294.1 798.9,292.2 
		799.1,291.9 800.3,289.1 800.6,288.2 801.7,285.7 802,285 802.2,284.5 802.5,283.9 803.5,281.6 804.4,279.7 804.9,278.4 805,278.3 
		805.1,277.9 805.2,277.8 805.7,276.8 809.6,268.5 810.2,267.2 810.2,267.1 811,265.5 812,263.5 812.1,263.2 812.2,263 812.3,262.9 
		814.8,258.1 815.7,256.3 815.9,255.9 815.9,255.9 816.1,255.5 816.3,255.2 816.6,254.6 816.9,254.1 819.8,248.7 820.4,247.7 
		823.5,242.1 823.7,241.8 823.8,241.5 824.2,240.9 824.7,240 825.5,238.6 830.8,229.6 831.1,229.2 832.7,226.5 832.7,226.4 
		832.9,226 833.2,225.7 835.5,221.9 838.2,217.5 838.4,217.1 839,216.1 839.1,216 839.5,215.3 841.8,211.8 842.2,211.1 842.6,210.5 
		845.4,206.3 846,205.4 846.6,204.6 846.8,204.3 847.1,203.9 852.1,196.4 852.1,196.4 852.5,195.9 852.7,195.7 853.1,195 
		853.6,194.3 855.2,192 855.5,191.6 858.7,186.9 862,182.1 862.4,181.4 863.5,179.5 864.1,178.3 864.3,178.1 864.3,178 864.7,177.3 
		864.8,177.1 865.7,175.2 865.7,175.1 866.3,173.4 866.7,172.2 866.8,172.1 867.3,169.9 867.4,169.3 867.5,169.2 867.6,168 
		867.6,167.9 867.7,167.5 867.7,167 867.7,166.9 867.7,166.8 867.7,166.4 867.7,165.5 867.7,165.3 867.6,165.1 867.4,163.5 
		867.4,163.4 867.2,162.5 867.1,162.3 867.1,162.1 866.8,161.3 866.6,160.7 866.6,160.7 866.6,160.7 866.5,160.3 866.3,159.9 
		866.1,159.5 865.7,158.8 865.6,158.5 865.1,157.7 865.1,157.5 865.1,157.5 865.1,157.5 864.8,157 864.8,157 864.1,156.1 
		863.9,155.8 863.8,155.6 863.7,155.5 863.7,155.5 863.4,155.1 863.1,154.8 862.8,154.5 862.6,154.2 862.5,154.1 862.4,153.9 
		862.3,153.9 861.5,153.1 861.2,152.9 861.2,152.8 861.2,152.8 860.6,152.4 860.1,152 859.7,151.7 859.5,151.5 859.3,151.4 
		858.7,151 858.5,151 858.5,151 858.1,150.7 857.9,150.6 857.4,150.3 857.3,150.3 857.2,150.3 857.1,150.2 857.1,150.2 857,150.2 
		856.8,150.1 856,149.8 855.5,149.6 855.5,149.6 854.7,149.3 854.6,149.3 852.9,149 852.5,148.9 852.2,148.8 851.8,148.8 
		851.7,148.8 851.5,148.7 851.3,148.7 851.2,148.7 850.2,148.7 849.9,148.6 849.6,148.6 849.6,148.6 849.4,148.7 849,148.7 
		848.6,148.7 847.5,148.8 847.5,148.8 847.1,148.9 846.5,149.1 846.4,149.1 845.8,149.3 845.7,149.3 845.6,149.3 845.2,149.5 
		844.8,149.7 844.1,149.9 843.8,150.1 843.7,150.2 843.1,150.5 842.9,150.7 842.2,151.2 841.9,151.4 841.3,152 841,152.2 
		840.9,152.3 840.8,152.4 840.8,152.4 840.8,152.4 840.7,152.5 840.7,152.6 840.5,152.8 839.8,153.5 839.8,153.5 839.2,154.4 
		839.2,154.5 839,154.8 838.5,155.6 838.3,155.8 838.3,155.8 838.2,156 838.1,156.2 838,156.3 837.7,156.9 837.2,158.1 837,158.5 
		836.8,159.1 836.8,159.2 836.7,159.4 836.7,159.8 836.6,159.9 836.6,160.1 836.6,160.1 836.6,160.2 836.6,160.3 836.6,160.3 
		836.7,160.7 836.8,160.7 836.8,160.7 836.9,160.9 837,161.1 837.1,161.1 837.1,161.1 837.1,161.1 837.2,161.2 839.7,163.2 
		840.3,163.7 840.7,164 840.8,164 841.3,164.3 841.4,164.4 841.4,164.4 841.7,164.5 841.7,164.5 841.8,164.5 842.1,164.5 
		842.1,164.5 842.2,164.5 842.2,164.5 842.3,164.4 842.3,164.4 842.3,164.4 842.3,164.4 842.4,164.4 843.1,164.1 844.7,163.1 
		844.9,162.9 845.6,162.5 847.1,161.7 847.6,161.4 847.7,161.3 848.9,160.9 849.1,160.8 849.5,160.7 849.5,160.7 849.9,160.7 
		850,160.7 850.4,160.7 850.9,160.7 850.9,160.7 851.2,160.7 851.2,160.8 851.6,160.8 851.7,160.8 851.7,160.8 852.5,161.2 
		852.8,161.3 852.8,161.3 852.9,161.4 853,161.5 853.1,161.5 853.9,162.2 854,162.2 854,162.3 854,162.3 854.1,162.3 854.8,163.1 
		854.9,163.3 854.9,163.3 855.1,163.5 855.4,164.1 855.6,164.4 855.8,164.9 855.8,165 855.9,165.4 856,165.9 856,166.2 856,166.6 
		856,166.8 856,166.9 856,166.9 856,167 856,167.1 856,167.3 855.9,167.7 855.9,167.8 855.8,168 855.8,168.1 855.7,168.4 
		855.5,169.1 855.5,169.2 855.2,169.9 854.7,170.7 854.3,171.4 854.1,171.8 853.7,172.3 852.8,173.8 852,174.9 851.7,175.3 
		851.7,175.4 851.7,175.3 849.5,176.1 	"/>
	<polyline class="st0" points="1170.6,170.3 1174.2,175.4 1181.5,186.3 1191.3,201.6 1195.2,208 1200.9,217.9 1211,236.4 
		1211.9,235.9 1222.8,260.3 1230.3,277.6 1235.6,291.1 1237.1,295.1 1243.9,314 1246.8,323.1 1250.1,334.2 1254.1,348.6 
		1256.4,357.9 1257.9,364.2 1260.2,375 1263.9,394.3 1265.1,401.4 1266.8,412.8 1268.7,427.5 1270,438.6 1271,449.5 1271.9,462.9 
		1272.2,470.3 1272.3,477.2 1272.4,485.5 1272.3,493.2 1272.1,504.2 1271.6,514.5 1269.9,539.4 1269,543.6 	"/>
	<path class="st0" d="M1238.7,612.3l-0.3,0.2l-0.1,0.1l-0.1,0l0,0l-0.1,0l-0.3,0l-0.1,0l-0.1,0l0,0l-0.2-0.1l-0.2-0.1l-0.1-0.2
		l-0.1-0.1l0-0.1l0,0l0-0.1l0,0l0,0l0,0l0-0.1l0,0l-0.2-0.1l0,0l0.1,0.3l-0.3-0.7l0-0.5"/>
	<path class="st0" d="M1235.1,623c-0.8,4.4-0.5,7.7,1,8.2c2.2,0.8,6.2-4.5,8.8-11.9c2.7-7.4,5.2-19.8,3-20.6
		c-1.8-0.6-6.8,8.5-9.2,13.5"/>
	<line class="st0" x1="823.5" y1="172.9" x2="851.7" y2="175.4"/>
	<line class="st0" x1="1170.6" y1="170.3" x2="1140.9" y2="170.2"/>
	<line class="st0" x1="1269" y1="543.6" x2="1236.5" y2="610.7"/>
	<line class="st0" x1="757.1" y1="602.6" x2="757.5" y2="603.4"/>
	<line class="st0" x1="726.2" y1="541.6" x2="757.1" y2="602.6"/>
</g>
<g>
	<path class="st0" d="M958.9,190.8l-0.4-1.2l-1.9-9.6l-0.1-0.3l0.1,0.3l-0.1-0.3l0-0.1l0,0l0.2-0.4l0,0l0,0l0,0l0,0l0,0l0,0l0.1-0.1
		l0.1-0.1l0.1-0.1l0,0l0.1-0.1l0.2-0.2l0.3-0.1l0.2,0l0,0l0.1,0l0.3,0.1l0.2,0.1l-0.4-0.3c1.8,4.1,6.9,14.6,8.4,14.2
		c2.3-0.6-0.5-15.2-2.5-22.8c-2-7.6-5.5-13.2-7.8-12.6c-1.8,0.5-2.3,4.8-1.4,10.3l0-0.9l0,0.1l0,0l-0.2-0.1l-0.2-0.1l-1.4-0.3
		l-0.8-2.7l0,0l-0.2-0.6l0-0.1l0-0.1l-1.1-3.4l0-0.1l0,0l0-0.1l-0.6-1.9l-0.5-1.6l-0.1-0.3l0,0l0-0.1l-0.1-0.3l0-0.1l-1.6-4.5
		l-0.3-0.9l-0.1-0.3l0,0l0-0.1l-0.7-1.9l-0.1-0.2l-1.5-4l-0.5-1.2l-0.1-0.3l-1-2.5l-0.1-0.1l-0.2-0.5l-0.2-0.4l-3.1-6.8l-0.1-0.3
		l-0.6-1.2l-0.5-1l-0.1-0.3l-1.5-2.9l-0.8-1.5l-0.3-0.5l-0.9-1.6l-0.5-0.8l-1.4-2.4l-0.6-1.1l-2-3.3l-0.1-0.1l-0.6-1l0-0.1l-0.3-0.6
		l-1.4-2.2l-0.1-0.1l-1-1.6l-1.1-1.7l-0.6-1l-2.5-3.6l-0.8-1.1l-0.4-0.5l-0.6-0.9l-0.8-1.1l-0.4-0.5l-1.5-1.9l-0.4-0.5l-0.4-0.5
		l-2.1-2.6l-0.1-0.2l-0.4-0.5l-2-2.3l-1.3-1.5l-0.1-0.2l-0.1-0.1l-0.1-0.1l0,0l0,0l0,0l-0.1-0.1l-1.1-1.2l-1.6-1.7l-1.1-1.1
		l-0.3-0.3l-1-1l-1.4-1.4l-0.9-0.9l0,0l-2.4-2.3l-1.2-1.1l-1-0.9l-1.7-1.6l-0.6-0.6l-0.1-0.1l-0.2-0.2l-0.8-0.7l-1-0.9l-2.6-2.2
		l-0.3-0.2l-1.9-1.6l-1-0.9l-1.3-1l-0.6-0.5l-2.2-1.8l-0.4-0.3l-0.5-0.3l-0.4-0.3l-1.4-1l-1.7-1.3l-0.4-0.3l-1-0.8l-2.7-1.8
		l-1.4-0.9l-6.1-3.9l0,0l-0.5-0.3l-2.7-1.5l-1.4-0.8l-0.5-0.3l-0.7-0.4l-0.8-0.4l-3.2-1.7l-0.3-0.1l-0.9-0.4l-0.7-0.3l-2.7-1.3
		l-0.8-0.4l-3.3-1.5l-0.5-0.2l-0.5-0.2l0,0l-0.3-0.1l0,0l-3.6-1.5l-3.3-1.4l-0.3-0.1l-0.6-0.2l0,0l-2.2-0.9l-1.7-0.6l-0.4-0.2
		l-0.2-0.1l-0.3-0.1l-0.1,0l-1.5-0.5l-0.9-0.3l0,0l0,0l-0.1,0l-2-0.7l-0.6-0.2l-0.3-0.1l-2.4-0.8l-0.4-0.1l-0.1,0l0,0l-1.4-0.5l0,0
		l0,0l-1.4-0.4l-0.1,0l-2.8-0.8l-7-2.1l0,0l-1.3-0.3l0,0l-2.9-0.7l-0.3-0.1l-2.6-0.6l-1-0.2l-4.5-1l-3.2-0.7l-0.3-0.1l-0.8-0.2
		l-4.5-0.8l-1.1-0.2l-0.3,0l-1.1-0.2l-3.2-0.5l0,0l-0.1,0l0,0l-0.5-0.1l-4.6-0.7l-0.6-0.1l-0.7-0.1l0,0l-0.1,0l-0.1,0l-0.2,0l-0.3,0
		l-1.1-0.1l0,0l-6-0.8l-0.1,0l-0.4,0l0,0l-0.1,0l-0.2,0l-0.3,0l-0.3,0l0,0l-4.6-0.4l-3.7-0.4l-7.7-0.8l-0.4,0l0,0l-0.4,0l-1.3-0.1
		l-4.7-0.3l0,0l-1.4-0.1l-2.8-0.1l-1.2,0l-1.9-0.1l-1.1,0l-0.3,0l-9.1-0.3l-2-0.1l-0.5,0l-3.2-0.1l-0.5,0l0,0l-0.1-0.1l-0.3-0.3
		h-0.1h0h-0.1h-0.1l-0.2-0.2l-0.5-0.4l-0.1-0.1l0,0l-0.2-0.2l-0.5-0.5l0,0l0,0l0,0l0,0l0,0l0-0.1l0,0l0,0l-0.1-0.2l0,0l0,0l0,0v0
		l0-0.2l0-0.2l0-0.2l0.1-0.2l-0.1,0.2l0-0.1c4.4-0.7,7.4-2.1,7.4-3.7c0-2.3-6.3-4.3-14.2-4.3c-7.8,0-14.2,1.9-14.2,4.3
		c0,1.9,4,3.5,9.6,4l-0.1,0l0-0.1l0,0l0,0.1l0,0.1l0,0l0,0.1l0,0.1l0,0l0,0l0,0.1l0,0.2l-0.1,0.2l0,0l0,0l0,0L712,18l0,0l-0.4,0.3
		l-0.5,0.5l-0.1,0.1l-0.1,0.1h-0.7l-0.2,0.2l-0.3,0.2l0,0l-3.3,0.1l-3.1,0.1l-3.3,0.1l-2.6,0.1l-0.2,0l-0.1,0l-1.4,0l-0.9,0l-0.9,0
		l-16.4,1l-2.1,0.1l-0.1,0l-0.2,0l-3.4,0.3l-0.4,0l-0.9,0.1l-0.9,0.1l0,0l-8.6,1l-0.4,0l-1.5,0.2l-0.6,0.1l0,0l-6.5,0.9l-3.4,0.5
		l-0.4,0.1l-0.8,0.1l-1.1,0.2l-1,0.2l-1.6,0.3l-0.4,0.1l-2.5,0.5l-2,0.4l-1.6,0.3l-0.1,0l-0.6,0.1l-1.8,0.4l-5.7,1.2l-1.3,0.3
		l-1,0.2l-1.1,0.3l-2.3,0.6l-2,0.5l-5.3,1.5l-1.7,0.5l-0.3,0.1l-0.7,0.2l-0.1,0l0,0l-4.1,1.3l-0.6,0.2l-0.8,0.3l-1.6,0.5l-3.7,1.3
		l-1.1,0.4l-1,0.4l-0.2,0.1l-2.7,1l-2.8,1.1l-1.5,0.6l-0.1,0l-1.2,0.5l-1.1,0.4l-2.2,0.9l0,0l-6.3,2.9l-1.1,0.5l-2,1l-3.4,1.8
		l-0.6,0.3l-0.3,0.2l-0.4,0.2l-3.1,1.7l-0.5,0.3l0,0l-0.8,0.5l-0.8,0.5l-1.6,1l-3.3,2l-0.3,0.2l0,0l-0.3,0.2l-0.2,0.1l-1.1,0.7
		l-6.3,4.4l-1.5,1l-0.6,0.4l-0.1,0.1l-0.2,0.2l0,0l0,0l-0.3,0.2l-1.2,0.9l-0.6,0.5l-2,1.6l-2.4,1.9l-0.7,0.6l-1.4,1.2l-0.1,0.1
		l-0.4,0.3l-0.1,0.1l-0.9,0.8l-0.1,0.1l-1.8,1.6L538,74l-1.3,1.2l-1.5,1.4l-0.9,0.9l-0.1,0.1l-0.5,0.5l-1.5,1.5l-2.5,2.5l-0.5,0.5
		l-0.1,0.1l-0.7,0.8l-3.9,4.3l-0.8,0.8l-0.7,0.8l-0.4,0.5l-2,2.4l-1.5,1.8l-2.4,3.2l-0.9,1.2l-0.4,0.5l-0.4,0.5l0,0l-0.1,0.2l0,0
		l0,0l-0.2,0.3l0,0l-0.2,0.3l-0.1,0.1l-2,2.8l-0.6,0.9l-0.1,0.1l-0.4,0.6l-0.5,0.8l-0.3,0.4l-0.9,1.4l-0.6,0.9l-1,1.4l0,0l0,0
		l-1.9,3L506,113l-0.6,1.1l-0.2,0.4l-0.1,0.2l-0.3,0.6l-0.3,0.5l-2.4,4.2l-0.4,0.7l-0.1,0.2l-0.5,0.9l-1.9,3.5l-0.2,0.3l-0.4,0.7
		l-1.1,2.1l-0.4,0.7l-0.5,1.1l-1.2,2.5l0,0l-0.4,0.8l-0.3,0.7l-0.1,0.2l-0.7,1.5l-0.4,0.8l-0.4,0.9l-0.9,2.3l-1.7,4.1l-0.8,2
		l-0.9,2.3l-0.1,0.3l-0.3,0.9l-0.2,0.6l-0.7,2l-1,2.8l-0.5,1.6l-0.2,0.6l-1.6,5.1l-0.1,0.4l0.2-0.7l-0.2,0.6l-0.4,1.3l0,0l0,0.1
		l-0.7,2.6l-0.4,1.3L481,168"/>
	<polyline class="st0" points="989.8,251.4 990.1,254.7 991.1,269.9 991.8,282.8 992.3,300.3 992.4,308.6 992.1,323.9 991.8,331.8 
		990.7,346.2 989.3,360.8 988.4,368.1 987.3,376.8 985.7,387.8 985.8,387.9 982.8,404.9 981,414.5 979.7,420.6 977.3,431.8 
		976,436.9 974.2,444.3 971.4,454.7 969.7,460.6 968,466.2 965.5,474.2 961.1,487.1 954.7,504.4 949.5,517.3 944.4,529.2 
		941.3,536.1 935.8,547.5 931.4,555.9 925.2,567.5 918.9,578.8 911.8,590.7 904.5,602.3 900.1,608.9 892.5,620.1 	"/>
	<polyline class="st0" points="572.6,622 575.3,623.3 575.1,622.8 575.3,623.3 575.4,623.4 575.4,623.4 575.6,623.8 575.8,624.2 
		575.8,624.2 576,625.1 576.2,625.9 576.2,626 576.2,626.1 576.2,626.3 576.2,626.3 576.2,626.4 576.2,627 576.2,627.2 576.1,627.7 
		576,627.9 575.7,628.7 575.5,629.2 575.3,629.5 575.3,629.5 575.3,629.5 574.4,630.6 574.4,630.6 574.4,630.7 574.3,630.7 
		573.1,631.7 572.9,631.8 572.8,631.8 572.8,631.9 572.5,632 572,632.2 571.8,632.3 571.7,632.3 571.5,632.3 571.3,632.4 
		570.5,632.4 570.5,632.4 570.1,632.4 569.8,632.4 569.4,632.3 569.4,632.3 569,632.2 568.7,632.1 568.5,632 568.2,631.9 
		567.3,631.5 567.3,631.5 567.3,631.5 567.2,631.5 567.2,631.4 567.1,631.4 566.1,630.8 565.7,630.6 564.5,629.8 563.4,629.1 
		563.2,629 563,628.9 562.8,628.8 562.8,628.8 562.5,628.7 562.3,628.7 562,628.6 562,628.6 562,628.6 561.8,628.6 561.6,628.7 
		561.5,628.7 561.4,628.8 561.3,628.9 560.7,629.3 560.7,629.3 560.1,629.8 559,630.6 557.4,631.9 557.1,632.2 557.1,632.2 
		557,632.2 557,632.3 556.9,632.5 556.8,633 556.8,633.1 556.8,633.1 556.8,633.4 557,633.9 557.1,634.1 557.2,634.4 557.4,635.1 
		557.4,635.2 557.4,635.2 557.5,635.3 557.7,635.8 557.9,636.1 558.1,636.5 559,638.1 559.2,638.4 559.2,638.4 559.3,638.5 
		559.3,638.6 559.3,638.6 559.4,638.7 560,639.6 560.3,639.9 560.8,640.5 560.9,640.6 561.3,640.9 561.4,641.1 561.7,641.4 
		561.7,641.4 561.9,641.6 561.9,641.6 562.6,642.1 562.8,642.3 563.1,642.5 563.7,642.8 563.9,643 564.2,643.1 564.2,643.1 
		564.8,643.4 564.8,643.4 565.6,643.6 566.1,643.8 566.6,644 566.9,644.1 566.9,644.1 567.1,644.1 567.4,644.2 567.4,644.2 
		567.9,644.3 568.6,644.4 568.8,644.4 568.9,644.4 569,644.4 569.8,644.3 570.3,644.4 570.9,644.4 571.3,644.4 571.9,644.3 
		572.5,644.3 572.9,644.2 573.3,644.1 573.4,644.1 573.5,644.1 574.3,643.9 576.1,643.4 576.2,643.3 576.5,643.2 576.5,643.2 
		576.7,643.1 577.5,642.8 578,642.5 578.5,642.3 578.7,642.1 578.7,642.1 579.6,641.6 579.9,641.4 580.3,641.1 580.3,641.1 
		580.7,640.8 580.8,640.7 581.3,640.3 581.9,639.8 582.5,639.2 582.5,639.2 582.6,639 582.6,639 582.8,638.9 583,638.5 583.1,638.5 
		584.2,637.2 584.5,636.8 584.5,636.7 584.8,636.3 585.3,635.5 585.3,635.5 585.5,635.2 585.7,634.7 585.8,634.4 586.3,633.5 
		586.3,633.5 586.4,633.4 586.5,633.1 586.8,632.3 587.1,631.6 587.2,631.1 587.5,630.1 587.7,629 587.8,628.2 587.9,626.8 
		587.9,626.4 587.8,626 587.8,625.9 587.7,624.5 587.7,624.2 587.6,624 587.6,623.8 587.3,622.6 587.1,621.3 587,621.2 586.8,620.4 
		586.7,620.3 586.4,619.4 586.4,619.2 586.3,619.2 586.3,619.1 586.2,618.9 585.6,617.4 585.1,616.2 584.5,615 584.3,614.7 
		583.6,613.5 582.8,612.2 582.4,611.4 582,610.8 578.7,606 575.2,601 570.4,593.9 568.2,590.7 567.1,589 566.7,588.4 563.3,583.4 
		562.3,581.9 558.5,575.9 556.9,573.3 556.6,572.9 556,571.8 555.7,571.4 555.4,571 554.5,569.4 550.9,563.4 550.8,563.3 
		550.2,562.2 550,562 545.2,553.7 544.4,552.4 543.8,551.4 543.6,550.9 542.9,549.8 542.8,549.5 542.4,548.9 542.1,548.2 
		541.6,547.4 536.8,538.6 536.6,538.4 535.8,536.9 535.5,536.3 535.2,535.8 534.8,534.9 534.7,534.7 534.5,534.3 532.7,530.9 
		532.3,530 532.2,529.9 532.1,529.5 531.6,528.5 530.3,525.8 528.9,523 528.7,522.5 528.5,522.3 528,521 525.8,516.3 525.3,515.3 
		524.4,513.3 523.9,512.2 523.1,510.4 521.3,506.4 521.3,506.2 520.6,504.7 519,500.8 518.6,499.8 517.8,497.9 517.1,496.1 517,496 
		516.2,494 516,493.5 516,493.5 515.8,493 514.1,488.3 512,482.9 511.1,480.5 511,480.1 510.3,478.3 510,477.3 509.6,476.2 
		509.5,475.8 509,474.4 505.2,463.3 504.8,462.3 504.6,461.4 504,459.8 503.8,459 503.7,458.8 503.4,457.5 503.3,457.2 501.3,450.7 
		499.2,443.7 498.8,442.4 498.1,439.7 497.7,438.2 497.4,437.1 496.6,434.4 496,431.7 495.6,430.1 495.3,429 495.3,429 494.5,425.7 
		494.2,424.5 493.4,421.1 493.1,419.8 493,419.6 492.9,419.1 491.7,413.4 491.6,413.2 491.5,412.7 491.4,412.1 489.7,403.8 
		489.6,403.2 489.2,401 489.1,400.7 487.9,393.9 487.8,393.2 486.9,388.1 486.2,383.6 485.8,381.4 485.8,381.2 485.2,377.4 
		485,375.6 483.8,367.3 483.6,365.9 483.5,365.1 483.3,363.7 483.3,363.1 482.3,354.5 482.2,353.8 481.9,350.6 481.6,347.6 
		481.4,345.8 480.9,338.2 480.8,338.1 480.8,337.3 480.5,330 480.4,328.6 480.4,327.3 480.4,326.7 480.4,325.5 480.3,325.2 
		480.3,324.8 480.4,319.3 480.4,317.8 480.5,315.3 480.6,313 480.6,312.6 480.8,309.6 480.8,308.9 480.9,307.9 481.1,304.5 
		481.2,303.8 481.5,300.5 481.5,300.4 481.7,299.3 482,296.6 482.2,294.7 482.5,292.3 482.5,292.2 482.6,291.9 482.7,291.2 
		483.2,288 483.4,286.5 483.5,286 483.6,285.7 484.6,280.5 484.7,280.1 484.7,279.8 485.5,276.6 485.6,276.3 485.6,276.1 
		485.8,275.5 485.8,275.5 485.8,275.4 485.9,275 487,271.3 487.1,270.8 487.2,270.5 487.8,268.6 489.2,264.1 489.3,263.9 
		489.6,262.9 490.2,261.1 490.8,259.5 490.8,259.5 490.9,259.3 490.9,259.3 491,258.9 491,258.9 491,258.9 491,258.8 491.2,258.5 
		492.1,255.9 492.3,255.6 492.5,254.9 494.5,250.4 494.6,250.1 494.7,249.8 495,249.2 497.4,244.5 497.9,243.5 498.3,242.8 
		498.5,242.3 498.5,242.3 498.8,241.9 500.8,237.9 500.9,237.9 501.1,237.5 501.1,237.4 501.3,237.1 504,232.1 504.1,232.1 
		506.3,228.2 506.6,227.7 507.5,226.2 508,225.4 508.5,224.5 509,223.8 509.2,223.4 509.4,223.1 509.5,223 509.6,222.9 515.2,214.3 
		515.2,214.2 515.4,213.9 515.5,213.8 515.5,213.8 515.8,213.3 515.9,213.1 516.1,212.9 516.1,212.8 516.7,211.9 517,211.5 
		519.4,207.9 520,207.1 520.1,207 524.9,200.4 525,200.1 525.3,199.9 526.2,198.6 528.8,195.2 529.6,194.3 532.2,191 535.2,187.4 
		536.7,185.5 544.4,176.4 545.1,175.6 545.4,175.3 548.9,171.4 549.8,170.4 554.5,165.4 555.1,164.8 555.3,164.6 555.4,164.5 
		555.6,164.3 560.1,160 560.7,159.4 564.9,155.6 565.8,154.8 566.6,154 566.6,154 567.3,153.4 570.9,150.3 572.4,149 572.8,148.7 
		573.5,148.1 578.1,144.4 578.7,144 581.7,141.7 582.9,140.8 583.6,140.3 587.2,137.8 590.1,135.7 590.3,135.6 591.4,134.9 
		595,132.6 598.4,130.5 599.1,130.1 601.9,128.5 602.7,128.1 603.7,127.5 604,127.3 607.8,125.2 609.1,124.5 609.6,124.3 
		609.7,124.2 609.9,124.1 609.9,124.1 610.6,123.8 613.5,122.3 617.7,120.2 618.4,119.9 619.4,119.4 620.1,119.1 625.1,116.9 
		631.4,114.1 632.1,113.8 632.9,113.5 633.4,113.3 633.9,113.1 634.8,112.7 635.9,112.3 636.7,112 637.2,111.8 641.6,110.1 
		644.5,109 645.9,108.5 648.3,107.7 648.9,107.5 652.6,106.3 655.1,105.5 657.3,104.8 659.9,104.1 660.1,104.1 660.9,103.8 
		661,103.8 662.6,103.4 666.5,102.4 667.7,102.1 669.1,101.8 671.6,101.2 674.1,100.6 675.5,100.4 675.9,100.3 676.1,100.3 
		676.4,100.2 677.8,99.9 683.2,99 684.8,98.7 684.9,98.7 684.9,98.7 685.3,98.6 685.7,98.6 685.8,98.5 691.5,97.7 691.6,97.7 
		691.6,97.7 691.7,97.7 691.7,97.7 694.8,97.4 695.7,97.3 695.8,97.2 697.2,97.1 701.1,96.8 701.7,96.7 703.7,96.6 706.4,96.4 
		706.9,96.4 707.5,96.4 708.3,96.3 712.8,96.2 713.9,96.1 714.9,96.1 715.6,96.1 716,96.1 718,96.2 727.4,96.3 728,96.3 728.6,96.3 
		729.6,96.4 734.6,96.7 734.8,96.7 734.8,96.7 735,96.8 735.8,96.8 740.8,97.3 741.2,97.4 741.5,97.4 741.8,97.4 748.5,98.3 
		748.6,98.3 749.1,98.3 749.5,98.4 752.3,98.9 752.8,98.9 753.3,99 756.6,99.6 759,100.1 759.3,100.1 759.7,100.2 760,100.3 
		760.1,100.3 762.7,100.8 764.4,101.2 766.1,101.5 766.1,101.5 767.8,102 772.3,103.1 772.5,103.1 772.6,103.1 775.1,103.8 
		776.1,104.1 776.7,104.3 778.6,104.8 778.8,104.9 779,104.9 785.6,107 785.8,107 786.4,107.2 787.7,107.7 791.3,108.9 791.9,109.2 
		793.4,109.7 798,111.4 799.3,111.9 801.3,112.7 802,113 802.1,113 802.3,113.1 802.5,113.2 803.4,113.6 807.2,115.2 807.3,115.2 
		807.3,115.2 807.5,115.3 810.9,116.8 816.9,119.5 817.4,119.7 817.5,119.8 818,120.1 818.2,120.2 822.5,122.2 822.6,122.3 
		822.7,122.3 822.7,122.4 823.2,122.6 826.2,124.1 827,124.6 828.2,125.2 834.1,128.6 836.7,130 838.1,130.8 838.4,131 839.4,131.6 
		843.2,133.9 843.8,134.4 844,134.5 844.6,134.9 845.7,135.7 848.8,137.8 850,138.5 851.8,139.8 857,143.7 857.3,144 857.9,144.4 
		858,144.5 859.3,145.5 862,147.7 863.8,149.1 864.1,149.4 864.2,149.5 865.1,150.3 865.2,150.3 868.2,152.9 868.2,152.9 
		869.1,153.7 874.1,158.2 877,161 877.7,161.6 877.9,161.8 878.4,162.4 880.5,164.5 882.8,166.7 883.6,167.6 886.4,170.5 
		887.4,171.6 888.9,173.3 889.7,174.2 890.7,175.3 893.1,178.1 894.5,179.7 900.7,187.2 903.8,190.9 904.4,191.7 905.4,192.9 
		908.2,196.4 908.9,197.4 911.2,200.4 912.4,202.1 913.1,203 913.1,203 914.5,204.9 915.6,206.5 916.9,208.4 917.1,208.7 
		917.7,209.6 918.6,210.8 919.3,212 919.5,212.2 919.7,212.5 919.9,212.9 926.1,222.3 926.3,222.6 926.3,222.6 926.5,222.8 
		926.6,223 926.7,223.1 926.8,223.4 927,223.7 928,225.4 929.6,228 929.8,228.3 929.9,228.5 930,228.7 930.3,229.2 933.1,234.1 
		933.7,235.2 935.2,237.9 935.8,239.1 936.9,241.1 938.6,244.4 938.9,244.9 939.2,245.5 940.4,247.9 941.1,249.5 941.6,250.4 
		941.9,251.1 942.3,251.9 942.3,252.1 942.4,252.3 942.4,252.4 943.2,254.2 943.7,255.5 943.9,255.9 944,256.2 944.1,256.6 945,259 
		945.3,259.6 946.2,262.5 946.4,262.9 947.4,266 947.5,266.4 947.7,266.8 947.8,267.3 948,267.6 948,267.9 948.8,270.7 949.4,272.7 
		949.8,274 950,274.6 950.2,275.3 950.2,275.4 950.2,275.5 951,278.7 951,278.8 951.2,279.2 952.6,286.8 952.7,287.4 952.8,287.8 
		952.9,288 953,288.7 953.4,291.7 953.9,295 954.1,297.5 954.5,300.5 954.6,301.9 954.7,302.4 955.1,308.1 955.2,308.7 955.3,309.4 
		955.4,311.3 955.4,311.7 955.4,312 955.4,312.3 955.4,313 955.5,313.3 955.5,313.3 955.6,317.3 955.6,318 955.6,318 955.7,321.5 
		955.7,321.9 955.7,324.2 955.7,325.5 955.7,325.7 955.6,326.8 955.6,329.2 955.6,330.1 955.5,331.3 955.4,332.1 955.3,335 
		955.3,335 955.1,338.1 954.8,342.3 954.8,343.2 954.1,350.6 954.1,350.9 953.9,353 953.7,354.5 952.8,363.1 952.7,363.6 952.5,365 
		951.2,374.5 951.1,375.6 951,375.9 950.2,381.1 949.3,386.7 949.1,388.1 949.1,388.2 949,389 948.9,389.7 948.3,392.8 948.2,393.7 
		948.1,393.8 948,394.7 946.9,400.7 945.8,406.1 945.6,407.2 945,410.5 944.5,412.7 944.4,413.2 943.9,415.8 943.1,419 943.1,419.1 
		943.1,419.4 941.5,425.7 940.3,430.6 940.1,431.6 939.8,432.6 939.6,433.7 939.5,434 938.6,437.3 938.3,438.2 937.1,442.7 
		937,443.2 936.8,444 936.2,445.9 934.8,450.7 933.6,454.7 933.2,456.1 930.9,463.3 930,465.9 929.4,467.9 927,474.7 927,474.8 
		926.8,475.2 926.8,475.3 926.6,475.8 925.4,479.3 925,480.4 924.8,480.9 923,485.8 922.3,487.5 922,488.3 921.3,490.3 920.7,491.9 
		920.3,492.7 918.1,498.3 917.8,498.9 917.1,500.8 916.9,501.1 915.7,503.9 915.4,504.8 914.3,507.3 914,508 913.8,508.5 
		913.5,509.1 912.5,511.4 911.6,513.3 911.1,514.6 911,514.7 910.9,515.1 910.8,515.2 910.3,516.2 906.4,524.5 905.8,525.8 
		905.8,525.9 905,527.5 904,529.5 903.9,529.8 903.8,530 903.7,530.1 901.2,534.9 900.3,536.7 900.1,537.1 900.1,537.1 899.9,537.5 
		899.7,537.8 899.4,538.4 899.1,538.9 896.2,544.3 895.6,545.3 892.5,550.9 892.3,551.2 892.2,551.5 891.8,552.1 891.3,553 
		890.5,554.4 885.2,563.4 884.9,563.8 883.3,566.5 883.3,566.6 883.1,567 882.8,567.3 880.5,571.1 877.8,575.5 877.6,575.9 
		877,576.9 876.9,577 876.5,577.7 874.2,581.2 873.8,581.9 873.4,582.5 870.6,586.7 870,587.6 869.4,588.4 869.2,588.7 868.9,589.1 
		863.9,596.6 863.9,596.6 863.5,597.1 863.3,597.3 862.9,598 862.4,598.7 860.8,601 860.5,601.4 857.3,606.1 854,610.9 853.6,611.6 
		852.5,613.5 851.9,614.7 851.7,614.9 851.7,615 851.3,615.7 851.2,615.9 850.3,617.8 850.3,617.9 849.7,619.6 849.3,620.8 
		849.2,620.9 848.7,623.1 848.6,623.7 848.5,623.8 848.4,625 848.4,625.1 848.3,625.5 848.3,626 848.3,626.1 848.3,626.2 
		848.3,626.6 848.3,627.5 848.3,627.7 848.4,627.9 848.6,629.5 848.6,629.6 848.8,630.5 848.9,630.7 848.9,630.9 849.2,631.7 
		849.4,632.3 849.4,632.3 849.4,632.3 849.5,632.7 849.7,633.1 849.9,633.5 850.3,634.2 850.4,634.5 850.9,635.3 850.9,635.5 
		850.9,635.5 850.9,635.5 851.2,636 851.2,636 851.9,636.9 852.1,637.2 852.2,637.4 852.3,637.5 852.3,637.5 852.6,637.9 
		852.9,638.2 853.2,638.5 853.4,638.8 853.5,638.9 853.6,639.1 853.7,639.1 854.5,639.9 854.8,640.1 854.8,640.2 854.8,640.2 
		855.4,640.6 855.9,641 856.3,641.3 856.5,641.5 856.7,641.6 857.3,642 857.5,642 857.5,642 857.9,642.3 858.1,642.4 858.6,642.7 
		858.7,642.7 858.8,642.7 858.9,642.8 858.9,642.8 859,642.8 859.2,642.9 860,643.2 860.5,643.4 860.5,643.4 861.3,643.7 
		861.4,643.7 863.1,644 863.5,644.1 863.8,644.2 864.2,644.2 864.3,644.2 864.5,644.3 864.7,644.3 864.8,644.3 865.8,644.3 
		866.1,644.4 866.4,644.4 866.4,644.4 866.6,644.3 867,644.3 867.4,644.3 868.5,644.2 868.5,644.2 868.9,644.1 869.5,643.9 
		869.6,643.9 870.2,643.7 870.3,643.7 870.4,643.7 870.8,643.5 871.2,643.3 871.9,643.1 872.2,642.9 872.3,642.8 872.9,642.5 
		873.1,642.3 873.8,641.8 874.1,641.6 874.7,641 875,640.8 875.1,640.7 875.2,640.6 875.2,640.6 875.2,640.6 875.3,640.5 
		875.3,640.4 875.5,640.2 876.2,639.5 876.2,639.5 876.8,638.6 876.8,638.5 877,638.2 877.5,637.4 877.7,637.2 877.7,637.2 
		877.8,637 877.9,636.8 878,636.7 878.3,636.1 878.8,634.9 879,634.5 879.2,633.9 879.2,633.8 879.3,633.6 879.3,633.2 879.4,633.1 
		879.4,632.9 879.4,632.9 879.4,632.8 879.4,632.7 879.4,632.7 879.3,632.3 879.2,632.3 879.2,632.3 879.1,632.1 879,631.9 
		878.9,631.9 878.9,631.9 878.9,631.9 878.8,631.8 876.3,629.8 875.7,629.3 875.3,629 875.2,629 874.7,628.7 874.6,628.6 
		874.6,628.6 874.3,628.5 874.3,628.5 874.2,628.5 873.9,628.5 873.9,628.5 873.8,628.5 873.8,628.5 873.7,628.6 873.7,628.6 
		873.7,628.6 873.7,628.6 873.6,628.6 872.9,628.9 871.3,629.9 871.1,630.1 870.4,630.5 868.9,631.3 868.4,631.6 868.3,631.7 
		867.1,632.1 866.9,632.2 866.5,632.3 866.5,632.3 866.1,632.3 866,632.3 865.6,632.3 865.1,632.3 865.1,632.3 864.8,632.3 
		864.8,632.2 864.4,632.2 864.3,632.2 864.3,632.2 863.5,631.8 863.2,631.7 863.2,631.7 863.1,631.6 863,631.5 862.9,631.5 
		862.1,630.8 862,630.8 862,630.7 862,630.7 861.9,630.7 861.2,629.9 861.1,629.7 861.1,629.7 860.9,629.5 860.6,628.9 860.4,628.6 
		860.2,628.1 860.2,628 860.1,627.6 860,627.1 860,626.8 860,626.4 860,626.2 860,626.1 860,626.1 860,626 860,625.9 860,625.7 
		860.1,625.3 860.1,625.2 860.2,625 860.2,624.9 860.3,624.6 860.5,623.9 860.5,623.8 860.8,623.1 861.3,622.3 861.7,621.6 
		861.9,621.2 862.3,620.7 863.2,619.2 864,618.1 864.3,617.7 864.3,617.6 864.3,617.7 866.5,616.9 	"/>
	<polyline class="st0" points="545.4,622.7 541.8,617.6 534.5,606.7 524.7,591.4 520.8,585 515.1,575.1 505,556.6 504.1,557.1 
		493.2,532.7 485.7,515.4 480.4,501.9 478.9,497.9 472.1,479 469.2,469.9 465.9,458.8 461.9,444.4 459.6,435.1 458.1,428.8 
		455.8,418 452.1,398.7 450.9,391.6 449.2,380.2 447.3,365.5 446,354.4 445,343.5 444.1,330.1 443.8,322.7 443.7,315.8 443.6,307.5 
		443.7,299.8 443.9,288.8 444.4,278.5 446.1,253.6 447,249.4 	"/>
	<path class="st0" d="M477.3,180.7l0.3-0.2l0.1-0.1l0.1,0l0,0l0.1,0l0.3,0l0.1,0l0.1,0l0,0l0.2,0.1l0.2,0.1l0.1,0.2l0.1,0.1l0,0.1
		l0,0l0,0.1l0,0l0,0l0,0l0,0.1l0,0l0.2,0.1l0,0l-0.1-0.3l0.3,0.7l0,0.5"/>
	<path class="st0" d="M480.9,170c0.8-4.4,0.5-7.7-1-8.2c-2.2-0.8-6.2,4.5-8.8,11.9s-5.2,19.8-3,20.6c1.8,0.6,6.8-8.5,9.2-13.5"/>
	<line class="st0" x1="892.5" y1="620.1" x2="864.3" y2="617.6"/>
	<line class="st0" x1="545.4" y1="622.7" x2="575.1" y2="622.8"/>
	<line class="st0" x1="447" y1="249.4" x2="479.5" y2="182.3"/>
	<line class="st0" x1="958.9" y1="190.4" x2="958.5" y2="189.6"/>
	<line class="st0" x1="989.8" y1="251.4" x2="958.9" y2="190.4"/>
</g>
</svg>
