<?xml version="1.0" encoding="utf-8"?>
<!-- Generator: Adobe Illustrator 23.1.1, SVG Export Plug-In . SVG Version: 6.00 Build 0)  -->
<svg version="1.1" id="Layer_1" xmlns="http://www.w3.org/2000/svg" xmlns:xlink="http://www.w3.org/1999/xlink" x="0px" y="0px"
	 viewBox="0 0 1440 792" style="enable-background:new 0 0 1440 792;" xml:space="preserve">
<style type="text/css">
	.st0{fill:none;stroke:#000000;stroke-width:8.035216e-03;stroke-miterlimit:11.3386;}
</style>
<path class="st0" d="M1154,158.1l29.7,0.1l3.5,4.9l7.4,10.5l9.8,14.7l3.9,6.2l5.7,9.5l10.1,17.8l0.9-0.4l10.9,23.5l7.5,16.6l5.4,13
	l1.5,3.8l6.7,18.2l2.9,8.7l3.4,10.7l4,13.9l2.3,8.9l1.5,6.1l2.3,10.4l3.7,18.5l1.2,6.8l1.7,11l2,14.2l1.2,10.6l1,10.5l0.9,12.9
	l0.3,7.1l0.2,6.6l0.1,8l-0.1,7.4l-0.3,10.5l-0.5,10l-1.6,23.9l-0.9,4l-32.6,64.6l0,0.5l0.3,0.7l-0.1-0.3l0,0l0.2,0.1l0,0l0,0.1l0,0
	l0,0l0,0l0,0.1l0,0l0,0.1l0.1,0.1l0.1,0.2l0.2,0.1l0.2,0.1l0,0l0.1,0l0.1,0l0.3,0l0.1,0l0,0l0.1,0l0.1-0.1l0.3-0.2
	c2.4-4.9,7.5-13.6,9.2-13c2.2,0.8-0.3,12.8-3,19.9c-2.7,7.1-6.6,12.2-8.8,11.4c-1.5-0.5-2.1-1.8-1.3-6l-1.8,1.3l0,0l-0.7,2.5l0,0.1
	l0,0l-0.4,1.3l-0.2,0.5l0.2-0.7l-0.1,0.4l-1.6,4.9l-0.2,0.6l-0.5,1.5l-1,2.7l-0.7,1.9l-0.2,0.6l-0.3,0.8l-0.1,0.3l-0.9,2.2l-0.8,1.9
	l-1.7,4l-0.9,2.2l-0.4,0.9l-0.4,0.8l-0.7,1.5l-0.1,0.2l-0.3,0.7l-0.4,0.8l0,0l-1.2,2.5l-0.5,1l-0.4,0.7l-1.1,2.1l-0.4,0.7l-0.2,0.3
	l-1.9,3.4l-0.5,0.8l-0.1,0.2l-0.4,0.6l-2.4,4.1l-0.3,0.5l-0.3,0.5l-0.1,0.2l-0.2,0.4l-0.7,1l-0.2,0.3l-1.9,2.9l0,0l0,0l-1,1.4
	l-0.6,0.8l-0.9,1.3l-0.3,0.4l-0.5,0.7l-0.4,0.6l-0.1,0.1l-0.6,0.8l-2,2.7l-0.1,0.1l-0.2,0.3l0,0l-0.2,0.3l0,0l0,0l-0.1,0.1l0,0
	l-0.4,0.5l-0.4,0.4l-0.9,1.1l-2.4,3l-1.5,1.8l-2,2.3l-0.4,0.5l-0.7,0.8l-0.8,0.8l-3.9,4.2l-0.7,0.7l-0.1,0.1l-0.5,0.4l-2.5,2.4
	l-1.5,1.4l-0.5,0.5l-0.1,0.1l-0.9,0.9l-1.5,1.3l-1.3,1.1l-2.9,2.5l-1.8,1.6l-0.1,0.1l-0.9,0.8l-0.1,0.1l-0.4,0.3l-0.1,0.1l-1.4,1.1
	l-0.7,0.6l-2.4,1.8l-2,1.6l-0.6,0.4l-1.2,0.9l-0.3,0.2l0,0l0,0l-0.2,0.2l-0.1,0.1l-0.6,0.4l-1.5,1l-6.3,4.3l-1.1,0.7l-0.2,0.1
	l-0.3,0.2l0,0l-0.3,0.2l-3.3,1.9l-1.6,1l-0.8,0.5l-0.8,0.4l0,0l-0.5,0.3l-3.1,1.7l-0.4,0.2l-0.3,0.2l-0.6,0.3l-3.4,1.7l-2,1
	l-1.1,0.5l-6.3,2.8l0,0l-2.2,0.9l-1.1,0.4l-1.2,0.5l-0.1,0l-1.5,0.6l-2.8,1l-2.7,1l-0.2,0.1l-1,0.4l-1.1,0.4l-3.7,1.2l-1.6,0.5
	l-0.8,0.2l-0.6,0.2l-4.1,1.2l0,0l-0.1,0l-0.7,0.2l-0.3,0.1l-1.7,0.5l-5.3,1.4l-2,0.5l-2.3,0.5l-1.1,0.3l-1,0.2l-1.3,0.3l-5.7,1.2
	l-1.8,0.4l-0.6,0.1l-0.1,0l-1.6,0.3l-2,0.4l-2.5,0.4l-0.4,0.1l-1.6,0.3l-1,0.2l-1.1,0.2l-0.8,0.1l-0.4,0.1l-3.4,0.5l-6.5,0.9l0,0
	l-0.6,0.1l-1.5,0.2l-0.4,0l-8.6,1l0,0l-0.9,0.1l-0.9,0.1l-0.4,0l-3.4,0.3l-0.2,0l-0.1,0l-2.1,0.1l-16.4,1l-0.9,0l-0.9,0l-1.4,0
	l-0.1,0l-0.2,0l-2.6,0.1l-3.3,0.1l-3.1,0.1l-3.3,0.1l0,0l-0.3,0.2l-0.2,0.2h-0.7l-0.1,0.1l-0.1,0.1l-0.5,0.4l-0.4,0.3l0,0l-0.1,0.2
	l0,0l0,0l0,0l-0.1,0.2l0,0.2l0,0l0,0l0,0l0,0.1l0,0.1l0,0l0,0.1l0,0.1l0,0l0-0.1l-0.1,0c5.6,0.5,9.6,2.1,9.6,3.9
	c0,2.3-6.3,4.1-14.2,4.1c-7.8,0-14.2-1.8-14.2-4.1c0-1.6,3-2.9,7.4-3.6l0-0.1l-0.1,0.1l0.1-0.1l0-0.2l0-0.2l0-0.2v0l0,0l0,0l0,0
	l-0.1-0.2l0,0l0,0l0-0.1l0,0l0,0l0,0l0,0l0,0l-0.5-0.5l-0.2-0.2l0,0l-0.1-0.1l-0.5-0.4l-0.2-0.2h-0.1h-0.1h0h-0.1l-0.3-0.3l-0.1-0.1
	l0,0l-0.5,0l-3.2,0l-0.5,0l-2-0.1l-9.1-0.3l-0.3,0l-1.1,0l-1.9-0.1l-1.2,0l-2.8-0.1l-1.4-0.1l0,0l-4.7-0.3l-1.3-0.1l-0.4,0h0l-0.4,0
	l-7.7-0.7l-3.7-0.3l-4.6-0.4l0,0l-0.3,0l-0.3,0l-0.2,0l-0.1,0l0,0l-0.4,0l-0.1,0l-6-0.8l0,0l-1.1-0.1l-0.3,0l-0.2,0l-0.1,0l-0.1,0
	l0,0l-0.7-0.1l-0.6-0.1l-4.6-0.7l-0.5-0.1l0,0l-0.1,0l0,0l-3.2-0.5l-1.1-0.2l-0.3,0l-1.1-0.2l-4.5-0.8l-0.8-0.2l-0.3,0l-3.2-0.7
	l-4.5-0.9l-1-0.2l-2.6-0.6l-0.3-0.1L915,729l0,0l-1.3-0.3l0,0l-7-2l-2.8-0.8l-0.1,0l-1.4-0.4l0,0l0,0l-1.4-0.4l0,0l-0.1,0l-0.4-0.1
	l-2.4-0.8l-0.3-0.1l-0.6-0.2l-2-0.7l-0.1,0l0,0l0,0l-0.9-0.3l-1.5-0.5l-0.1,0l-0.3-0.1l-0.2-0.1l-0.4-0.2l-1.7-0.6l-2.2-0.8l0,0
	l-0.6-0.2l-0.3-0.1l-3.3-1.4l-3.6-1.5l0,0l-0.3-0.1l0,0L879,717l-0.5-0.2l-3.3-1.5l-0.8-0.4l-2.7-1.3l-0.7-0.3l-0.9-0.4l-0.3-0.1
	l-3.2-1.7l-0.8-0.4l-0.7-0.4l-0.5-0.3l-1.4-0.8l-2.7-1.5l-0.5-0.3l0,0l-6.1-3.8l-1.4-0.9l-2.7-1.8l-1-0.7l-0.4-0.3l-1.7-1.2l-1.4-1
	l-0.4-0.3l-0.5-0.3l-0.4-0.3l-2.2-1.7l-0.6-0.5l-1.3-1l-1-0.8l-1.9-1.5l-0.3-0.2l-2.6-2.2l-1-0.8l-0.8-0.7l-0.2-0.2l-0.1-0.1
	l-0.6-0.6l-1.7-1.5l-1-0.9l-1.2-1.1l-2.4-2.2l0,0l-0.9-0.9l-1.4-1.4l-1-1l-0.3-0.3l-1.1-1.1l-1.6-1.7l-1.1-1.2l-0.1-0.1l0,0l0,0l0,0
	l0-0.1l-0.1-0.1l-0.1-0.2l-1.3-1.5l-2-2.2l-0.4-0.5l-0.1-0.1l-2.1-2.5l-0.4-0.5l-0.4-0.5l-1.5-1.9L809,663l-0.8-1l-0.6-0.8l-0.4-0.5
	l-0.8-1l-2.5-3.5l-0.6-0.9l-1.1-1.7l-1-1.5l-0.1-0.1l-1.4-2.1l-0.3-0.5l0-0.1l-0.6-1l-0.1-0.1l-2-3.2l-0.6-1.1l-1.4-2.3l-0.5-0.8
	l-0.9-1.6l-0.3-0.5l-0.8-1.4l-1.5-2.8l-0.1-0.3l-0.5-1l-0.6-1.1l-0.1-0.3l-3.1-6.5l-0.2-0.4l-0.2-0.4l-0.1-0.1l-1-2.4l-0.1-0.3
	l-0.5-1.1l-1.5-3.8l-0.1-0.2l-0.7-1.8l0-0.1l0,0l-0.1-0.3l-0.3-0.9l-1.6-4.4l0-0.1l-0.1-0.3l0-0.1l0,0l-0.1-0.3l-0.5-1.6l-0.6-1.8
	l0-0.1l0,0l0-0.1l-1.1-3.3l0-0.1l0-0.1l-0.2-0.6v0c-0.4,1.2-0.4,1.2-0.9,2.3c-0.8,2.6-1.4,3.3-3.2,3.8c-2.3,0.6-5.7-4.8-7.8-12.1
	c-2-7.3-4.7-21.3-2.5-21.9c1.6-0.4,6.6,9.7,8.4,13.6l-0.4-0.3l0.2,0.1l0.3,0.1l0.1,0l0,0l0.2,0l0.3-0.1l0.2-0.1l0.1-0.1l0,0l0.1-0.1
	l0.1-0.1l0.1-0.1l0,0l0,0l0,0l0,0l0,0l0,0l0.2-0.3l0,0l0-0.1l-0.1-0.3l0.1,0.3l-0.1-0.3l-1.9-9.2l-0.4-1.2l0.4,1.2l-0.4-0.8
	l-30.9-58.7l-0.2-3.2l-1-14.6l-0.7-12.4l-0.5-16.8l0-8l0.3-14.8l0.4-7.6l1-13.8l1.4-14.1l0.9-7.1l1.1-8.3l1.6-10.6l-0.1,0l3-16.4
	l1.8-9.3l1.3-5.8l2.5-10.8l1.2-4.9l1.9-7.1l2.8-10l1.7-5.6l1.7-5.4l2.5-7.7l4.4-12.4l6.4-16.6l5.2-12.5l5.1-11.4l3.2-6.7l5.5-10.9
	l4.4-8.1l6.2-11.2l6.3-10.9l7.1-11.4l7.3-11.2l4.3-6.4l7.6-10.8l28.2,2.4l-2.2,0.7l2.2-0.7l-0.1,0.1l0.1-0.1l0.3-0.4l0.7-1.1l1-1.4
	l0.3-0.5l0.2-0.4l0.4-0.7l0.5-0.8l0.3-0.7l0,0l0.2-0.7l0.1-0.3l0.1-0.2l0.1-0.2l0,0l0-0.4l0-0.2l0-0.1l0-0.1l0-0.1l0,0l0-0.2l0-0.4
	l-0.1-0.3l-0.1-0.5l-0.1-0.3l0-0.1l-0.2-0.5l-0.1-0.3l-0.4-0.6l-0.1-0.2l0,0l-0.2-0.2l-0.7-0.8l-0.1-0.1l0,0l0,0l-0.1,0l-0.8-0.6
	l-0.1-0.1l-0.1-0.1l-0.1-0.1l0,0l-0.3-0.1l-0.8-0.3l-0.1,0l0,0l-0.4,0l0,0l-0.3-0.1l0,0l-0.5,0l-0.5,0l-0.1,0l-0.4,0.1l0,0l-0.4,0.1
	l-0.1,0l-1.2,0.4l-0.1,0.1l-0.6,0.3l-1.5,0.8l-0.7,0.4l-0.2,0.1l-1.6,1l-0.7,0.3l-0.1,0l0,0l0,0l0,0l0,0l0,0l-0.1,0l-0.1,0l-0.3,0
	l-0.1,0l0,0l-0.2-0.1l0,0l-0.1-0.1l-0.4-0.3l-0.1-0.1l-0.4-0.3l-0.6-0.5l-2.4-1.9l-0.1-0.1l0,0l0,0l0,0l-0.1-0.1l-0.2-0.2l0,0
	l-0.1-0.1l-0.1-0.3l0,0l0-0.1l0-0.1l0-0.1l0-0.2l0-0.1l0-0.3l0.1-0.2l0-0.1l0.2-0.5l0.2-0.4l0.6-1.2l0.3-0.5l0.1-0.1l0.1-0.2
	l0.1-0.2l0,0l0.1-0.2l0.5-0.7l0.2-0.3l0.1-0.1l0.6-0.8l0,0l0.6-0.7l0.2-0.2l0.1-0.1l0,0l0,0l0,0l0.1-0.1l0.2-0.1l0.2-0.2l0.6-0.5
	l0.3-0.2l0.8-0.5l0.2-0.1l0.6-0.4l0.1-0.1l0.4-0.2l0.7-0.3l0.3-0.1l0.4-0.2l0.1,0l0.1,0l0.6-0.1l0.1,0l0.5-0.1l0.4-0.1l0.1,0
	l1.1-0.1l0.4,0l0.4,0l0.2,0l0,0l0.3,0l0.3,0l1,0l0.1,0l0.2,0l0.2,0l0.1,0l0.4,0.1l0.3,0.1l0.3,0.1l1.7,0.3l0.1,0l0.8,0.2l0,0
	l0.5,0.2l0.8,0.3l0.1,0l0.1,0.1l0,0l0.1,0.1l0.1,0l0.1,0l0.5,0.3l0.2,0.1l0.4,0.2l0,0l0.1,0.1l0.6,0.4l0.2,0.1l0.3,0.2l0.4,0.3
	l0.5,0.4l0.5,0.4l0,0l0,0l0.3,0.3l0.8,0.7l0.1,0.1l0.1,0.1l0.1,0.1l0.2,0.3l0.2,0.3l0.3,0.4l0.3,0.4l0,0l0.1,0.1l0.1,0.1l0.2,0.3
	l0.6,0.9l0,0l0.3,0.5l0,0l0,0l0.1,0.1l0.4,0.8l0.2,0.3l0.4,0.7l0.1,0.3l0.2,0.4l0.2,0.4l0,0l0,0l0.2,0.5l0.2,0.8l0,0.1l0.1,0.2
	l0.2,0.9l0,0.1l0.2,1.5l0,0.2l0,0.2l0,0.9l0,0.3l0,0.1l0,0.1l0,0.5l0,0.4l0,0.1l-0.2,1.1l0,0.1l-0.1,0.6l-0.5,2.1l0,0.1l-0.4,1.2
	l-0.6,1.6l-0.1,0.1l-0.9,1.9l-0.1,0.2l-0.3,0.7l0,0l-0.1,0.2l-0.7,1.1l-1.1,1.8l-0.4,0.7l-3.3,4.6l-3.2,4.5l-0.3,0.4l-1.6,2.2
	l-0.5,0.7l-0.5,0.6l-0.1,0.2l-0.4,0.5l0,0l-5.1,7.1l-0.3,0.4l-0.2,0.3l-0.6,0.8l-0.6,0.9l-2.8,4l-0.4,0.6l-0.5,0.7l-2.2,3.4
	l-0.4,0.6l-0.1,0.1l-0.6,1l-0.2,0.4l-2.7,4.3l-2.3,3.6l-0.2,0.3l-0.2,0.3l-0.1,0.1l-1.6,2.6l-0.2,0.4l-5.3,8.7l-0.8,1.4l-0.5,0.9
	l-0.3,0.6l-0.2,0.3l-0.2,0.3l-3.1,5.3l-0.6,1l-2.9,5.2l-0.3,0.5l-0.3,0.5l-0.2,0.3l-0.2,0.3l0,0l-0.2,0.4l-0.9,1.7l-2.5,4.7l0,0
	l-0.1,0.2l-0.1,0.2l-1,1.9l-0.8,1.5l0,0.1l-0.6,1.3l-3.9,8l-0.5,1l0,0.1l-0.2,0.4l0,0.1l-0.6,1.2l-0.9,1.8l-1,2.2l-0.3,0.6l-0.2,0.4
	l-0.3,0.7l-1.1,2.5l-0.4,0.8l-1.2,2.7l-0.1,0.3l-0.8,1.8l-0.3,0.6l-2.2,5.4l-0.3,0.8l-0.6,1.5l-0.8,2l-0.3,0.7l-0.6,1.6l-1.8,4.7
	l-0.2,0.5l-0.4,1.1l-1.2,3.4l-0.2,0.4l0,0.1l-0.1,0.4l0,0l-2.4,6.6l-0.7,1.9l-0.9,2.6l-2.3,6.9l-0.4,1.3l-1.2,3.8l-1.4,4.6l-0.6,1.8
	l-0.2,0.7l-0.1,0.5l-1.2,4.3l-0.3,0.9l-0.9,3.2l-0.1,0.3l-0.3,1l-0.2,0.9l-0.2,1l-1.2,4.7l-1.5,6.1l-0.1,0.3l0,0.1l-0.7,3.1
	l-0.5,2.5l-0.1,0.5l-0.4,2.1l-0.7,3.2l-0.2,1.1l-1,5.3l-1.1,5.7l-0.2,0.9l0,0.1l-0.2,0.9l-0.5,3l-0.1,0.7l-0.1,0.7l0,0.1l-0.2,1.4
	l-0.9,5.4l-0.8,5l0,0.3l-0.2,1.1l-1.3,9.1l-0.2,1.4l-0.1,0.5l-1,8.3l-0.2,1.4l-0.2,2.1l0,0.3l-0.7,7.1l-0.1,0.9l-0.3,4.1l-0.2,2.9
	l0,0l-0.2,2.7l-0.1,0.8l-0.1,1.1l0,0.9l0,2.3l0,1l0,0.1l0,1.3l0,2.2l0,0.4l0,3.4l0,0l0,0.6l0.2,3.8l0,0l0,0.2l0,0.7l0,0.4l0,0.3
	l0,0.3l0.1,1.9l0.1,0.6l0.1,0.6l0.5,5.5l0.1,0.5l0.1,1.3l0.3,2.9l0.3,2.3l0.4,3.2l0.4,2.8l0.1,0.7l0,0.1l0.1,0.5l0.1,0.5l1.5,7.3
	l0.1,0.5l0,0.1l0.8,3.1l0,0l0,0.1l0.2,0.7l0.2,0.6l0.4,1.3l0.6,1.9l0.8,2.7l0.1,0.2l0.1,0.3l0.2,0.5l0.1,0.4l0.1,0.3l1,3l0.1,0.4
	l1,2.8l0.2,0.6l0.9,2.3l0.1,0.3l0.1,0.3l0.2,0.5l0.5,1.2l0.8,1.8l0,0.1l0.1,0.2l0.1,0.2l0.4,0.7l0.3,0.7l0.5,0.9l0.7,1.5l1.2,2.4
	l0.3,0.5l0.3,0.6l1.7,3.2l1.1,1.9l0.6,1.1l1.5,2.6l0.6,1.1l2.8,4.7l0.3,0.4l0.1,0.2l0.2,0.3l0.2,0.3l1.6,2.5l1,1.6l0.2,0.3l0.1,0.2
	l0.1,0.2l0.1,0.1l0.2,0.3l0,0l0.2,0.2l6.2,9.1l0.2,0.3l0.2,0.3l0.2,0.2l0.8,1.1l0.9,1.2l0.6,0.9l0.2,0.3l1.3,1.8l1.1,1.5l1.3,1.8
	l0,0l0.7,0.9l1.3,1.6l2.2,2.8l0.8,1l2.8,3.4l1,1.1l0.6,0.8l3.1,3.6l6.3,7.2l1.3,1.5l2.5,2.7l0.9,1l0.8,0.9l1.5,1.6l1,1.1l2.8,2.8
	l0.8,0.8l2.3,2.2l2.1,2l0.6,0.6l0.2,0.2l0.7,0.6l2.9,2.7l5,4.3l0.9,0.8l0,0l2.9,2.4l0.1,0.1l0.9,0.7l0.1,0.1l0.3,0.3l1.7,1.4
	l2.8,2.2l1.3,1l0.1,0.1l0.6,0.4l0.3,0.2l5.2,3.8l1.9,1.2l1.1,0.8l3.1,2l1.1,0.7l0.6,0.4l0.2,0.1l0.6,0.4l3.7,2.2l1.1,0.6l0.2,0.1
	l1.5,0.8l2.5,1.4l5.9,3.2l1.2,0.7l0.8,0.4l3,1.5l0.5,0.2l0,0l0.1,0l0.1,0.1l4.3,2l0.2,0.1l0.5,0.2l0.2,0.1l0.4,0.2l6,2.6l3.4,1.5
	l0.2,0.1l0,0l0.1,0l3.7,1.5l1,0.4l0.2,0.1l0.2,0.1l0.1,0l0.7,0.3l2,0.8l1.3,0.5l4.5,1.6l1.5,0.5l0.6,0.2l3.7,1.2l1.2,0.4l0.7,0.2
	l0.2,0.1l6.6,2l0.1,0l0.2,0l1.9,0.5l0.7,0.2l0.9,0.2l2.5,0.7l0,0l0.3,0.1l4.5,1.1l1.7,0.4l0,0l1.6,0.3l1.7,0.4l2.6,0.5l0.1,0
	l0.3,0.1l0.4,0.1l0.3,0.1l2.4,0.4l3.3,0.6l0.5,0.1l0.6,0.1l2.8,0.4l0.4,0.1l0.4,0.1l0.1,0l6.6,0.8l0.3,0l0.3,0l0.5,0.1l5,0.5
	l0.7,0.1l0.3,0l0,0l0.1,0l5,0.3l1,0.1l0.6,0l0.5,0l9.4,0.1l2,0l0.4,0l0.7,0l1,0l1.1,0l4.5-0.2l0.7,0l0.7,0l0.5,0l2.6-0.2l2.1-0.1
	l0.5,0l3.9-0.3l1.4-0.1l0.1,0l0.9-0.1l3.1-0.3l0,0l0.1,0l0,0l0.1,0l5.7-0.8l0.1,0l0.4,0l0.4-0.1l0.1,0l0,0l1.6-0.3l5.3-0.9l1.5-0.2
	l0.3-0.1l0.2,0l0.4-0.1l1.3-0.3l2.6-0.6l2.5-0.5l1.4-0.3l1.1-0.3l3.9-1l1.6-0.4l0.1,0l0.7-0.2l0.2,0l2.6-0.7l2.2-0.6l2.5-0.7
	l3.7-1.2l0.6-0.2l2.4-0.8l1.4-0.5l2.9-1l4.3-1.6l0.5-0.2l0.8-0.3l1.1-0.4l0.9-0.3l0.5-0.2l0.5-0.2l0.8-0.3l0.7-0.3l6.2-2.6l5-2.1
	l0.6-0.3l1-0.5l0.7-0.3l4.2-2l2.9-1.4l0.7-0.3l0,0l0.2-0.1l0.1-0.1l0.4-0.2l1.3-0.7l3.8-2l0.4-0.2l1-0.6l0.8-0.4l2.8-1.5l0.7-0.4
	l3.4-2l3.6-2.2l1.1-0.7l0.1-0.1l2.9-2l3.6-2.4l0.7-0.5l1.2-0.9l3-2.2l0.6-0.4l4.6-3.6l0.7-0.5l0.4-0.3l1.5-1.2l3.7-3.1l0.6-0.5
	l0.1-0.1l0.8-0.7l0.9-0.8l4.2-3.7l0.5-0.5l4.5-4.2l0.2-0.2l0.1-0.1l0.2-0.2l0.6-0.6l4.8-4.8l0.9-0.9l3.5-3.8l0.3-0.3l0.7-0.7
	l7.7-8.8l1.5-1.8l3-3.5l2.6-3.1l0.8-0.9l2.7-3.3l0.9-1.2l0.2-0.3l0.2-0.2l4.8-6.4l0.1-0.1l0.6-0.8l2.5-3.5l0.2-0.4l0.6-0.9l0-0.1
	l0.2-0.2l0.1-0.1l0.3-0.5l0,0l0-0.1l0.2-0.3l0-0.1l5.6-8.3l0.1-0.1l0.1-0.1l0.2-0.3l0.2-0.3l0.5-0.7l0.5-0.9l0.5-0.7l0.9-1.5
	l0.3-0.5l2.3-3.7l0,0l2.7-4.7l0.2-0.4l0,0l0.2-0.4l0,0l2.1-3.8l0.2-0.4l0,0l0.2-0.4l0.4-0.7l0.5-1l2.4-4.5l0.3-0.6l0.1-0.3l0.1-0.3
	l1.9-4.3l0.3-0.7l0.1-0.3l1-2.5l0.1-0.3l0,0l0,0l0-0.1l0.1-0.3l0,0l0.1-0.2l0-0.1l0.5-1.5l0.6-1.7l0.3-0.9l0.1-0.2l1.4-4.3l0.6-1.8
	l0.1-0.3l0.1-0.4l1-3.6l0.1-0.4l0-0.1l0-0.1l0.2-0.6l0.1-0.2l0.1-0.2l0.8-3.1l0.1-0.3l0.1-0.4l1-5l0.1-0.4l0.1-0.4l0.2-1.4l0.5-3.1
	l0.1-0.6l0-0.3l0-0.2l0.3-2.3l0.3-1.8l0.3-2.6l0.1-1.1l0-0.1l0.3-3.2l0.1-0.7l0.3-3.2l0.1-1l0.1-0.6l0.2-2.9l0-0.4l0.1-2.2l0.1-2.5
	l0-1.4l0-5.4l0-0.3l0-0.4l0-1.1l0-0.6l-0.1-1.3l-0.1-1.4l-0.3-7l-0.1-0.8l0-0.1l-0.6-7.3l-0.2-1.8l-0.3-2.9l-0.3-3.1l-0.1-0.7
	l-1-8.3l-0.1-0.5l-0.2-1.4l-0.1-0.7l-0.2-1.4l-1.2-8l-0.2-1.7l-0.6-3.7l0-0.2l-0.4-2.1l-0.8-4.3l-0.8-4.8l-0.1-0.7l-1.3-6.5
	l-0.1-0.3l-0.4-2.1l-0.1-0.7l-1.6-7.9l-0.1-0.6l-0.1-0.4l0-0.2l-1.3-5.5l-0.1-0.4l0-0.2l-0.3-1.2l-0.8-3.3l-0.3-1.1l-0.8-3.2l0,0
	l-0.3-1.1l-0.4-1.6l-0.7-2.5l-0.8-2.7l-0.3-1.1l-0.4-1.5l-0.7-2.5l-0.3-1.2l-2.1-6.8l-1.9-6.2l-0.1-0.3l-0.4-1.2l-0.1-0.2l-0.2-0.7
	l-0.5-1.6l-0.3-0.8l-0.3-1l-3.8-10.8l-0.5-1.3l-0.1-0.4l-0.4-1l-0.3-1l-0.6-1.7l-0.2-0.5l-0.9-2.3l-2-5.2l-1.8-4.5l-0.2-0.4l0-0.1
	l-0.2-0.4l-0.8-2l0,0l-0.7-1.8l-0.8-1.8l-0.4-0.9l-1.6-3.7l-0.7-1.5l-0.1-0.1l-1.8-3.9l-0.8-1.7l-0.5-1l-0.9-1.9l-0.5-1l-2.2-4.5
	l-0.6-1.2l-0.1-0.2l-0.2-0.5l-1.4-2.7l-1.3-2.6l-0.5-1l-0.2-0.3l-0.1-0.1l-0.4-0.8l-1.8-3.3l-0.2-0.4l-0.1-0.2l-0.5-0.9l-0.3-0.6
	l-0.3-0.5l-0.8-1.4l-0.1-0.2l-4.8-8.5l-0.5-0.8l-0.4-0.7l-0.3-0.5l-0.2-0.3l-0.6-1l-0.3-0.5l-0.6-1l-0.8-1.3l-4.8-7.9l-0.1-0.2
	l-0.7-1.1l-0.1-0.1l-3.6-5.8l-1-1.5l-0.3-0.4l-0.3-0.4l-0.7-1l-0.3-0.4l-1.6-2.5l-3.8-5.8l-1-1.4l-3.4-4.8l-0.4-0.6l-1.1-1.6
	l-2.2-3.1l-4.8-6.8l-3.4-4.8l-3.3-4.6l-0.4-0.6l-0.5-0.8l-0.8-1.2l-0.7-1.2l-0.1-0.3l-0.6-1.2l-0.5-1.1l-0.6-1.4l-0.1-0.3l0,0l0,0
	l-0.1-0.2l-0.3-0.8l-0.1-0.2l-0.3-0.8l0-0.1l-0.3-1.2l-0.3-1.2l0-0.1l0-0.2l0-0.3l-0.1-1.3l0-0.1l0-0.4l0-0.4l0.1-1.3l0.1-0.8l0.2-1
	l0.3-0.9l0.1-0.5l0.3-0.6l0.3-0.8l0.1-0.2l0.1-0.1l0,0l0.5-0.9l0.1-0.2l0.3-0.5l0.2-0.3l0,0l0.5-0.7l0.3-0.4l0-0.1l0.3-0.4l1.1-1.2
	l0,0l0.3-0.3l0.1-0.2l0,0l0.1-0.1l0,0l0.6-0.6l0.6-0.5l0.5-0.4l0,0l0.4-0.3l0,0l0.4-0.3l0.3-0.2l0.9-0.5l0.1,0l0.2-0.1l0.5-0.2
	l0.6-0.3l0.8-0.3l0.2-0.1l0,0l0.3-0.1l0.1,0l1.8-0.5l0.7-0.2l0.1,0l0.1,0l0.4-0.1l0.4-0.1l0.6-0.1l0.6-0.1l0.4,0l0.6,0l0.4,0
	l0.8-0.1l0.1,0l0.1,0l0.2,0l0.7,0.1l0.5,0.1l0,0l0.3,0.1l0.2,0l0,0l0.3,0.1l0.5,0.2l0.5,0.2l0.8,0.2l0,0l0.6,0.3l0,0l0.3,0.1
	l0.3,0.1l0.5,0.3l0.3,0.2l0.2,0.2l0.7,0.5l0,0l0.2,0.2l0,0l0.3,0.2l0.2,0.2l0.3,0.4l0.1,0.1l0.5,0.5l0.2,0.3l0.6,0.8l0.1,0.1l0,0
	l0.1,0.1l0.1,0.1l0,0l0.2,0.3l0.9,1.5l0.2,0.4l0.2,0.3l0.2,0.4l0.1,0.1l0,0l0,0l0.2,0.7l0.1,0.3l0.1,0.2l0.1,0.5l0,0.3l0,0l0,0.1
	l0,0.4l-0.2,0.2l0,0l0,0.1l0,0l-0.3,0.2l-1.7,1.3l-1.1,0.8l-0.6,0.4l0,0l-0.5,0.4l-0.2,0.1l-0.1,0.1l0,0l-0.2,0.1l-0.2,0l0,0l0,0
	l-0.4-0.1l-0.2,0l-0.3-0.1l0,0l-0.2-0.1l-0.2-0.1l-0.3-0.1l-1.1-0.7l-1.2-0.8l-0.4-0.2l-0.9-0.5l-0.1-0.1l0,0l-0.1,0l0,0l0,0
	l-0.9-0.4l-0.2-0.1l-0.2-0.1l-0.3-0.1l-0.4-0.1l0,0l-0.4-0.1l-0.3,0l-0.4,0l0,0l-0.8,0.1l-0.2,0l-0.3,0l-0.1,0l-0.1,0.1l-0.5,0.2
	l-0.3,0.1l-0.1,0l0,0l-0.2,0.1l-1.3,1l0,0l0,0l0,0l-0.9,1.1l0,0l0,0l-0.2,0.3l-0.2,0.4l-0.3,0.8l0,0.2l-0.1,0.6l0,0.1l0,0.6l0,0.1
	l0,0l0,0.2l0,0.1l0,0.1l0.1,0.7l0.3,0.9l0,0l0.2,0.4l0.2,0.3l0,0l0.1,0.1L1154,158.1l-0.3-0.5l2.8,1.3"/>
<path class="st0" d="M1006.2,641l-29.7-0.1L973,636l-7.4-10.5l-9.8-14.7l-3.9-6.2l-5.7-9.5l-10.1-17.8l-0.9,0.4l-10.9-23.5
	l-7.5-16.6l-5.4-13l-1.5-3.8l-6.7-18.2l-2.9-8.7l-3.4-10.7l-4-13.9l-2.3-8.9l-1.5-6.1l-2.3-10.4l-3.7-18.5l-1.2-6.8l-1.7-11l-2-14.2
	l-1.2-10.6l-1-10.5l-0.9-12.9l-0.3-7.1l-0.2-6.6l-0.1-8l0.1-7.4l0.3-10.5l0.5-10l1.6-23.9l0.9-4l32.6-64.6l0-0.5l-0.3-0.7l0.1,0.3
	l0,0l-0.2-0.1l0,0l0-0.1l0,0l0,0l0,0l0-0.1l0,0l0-0.1l-0.1-0.1l-0.1-0.2l-0.2-0.1l-0.2-0.1l0,0l-0.1,0l-0.1,0l-0.3,0l-0.1,0l0,0
	l-0.1,0l-0.1,0.1l-0.3,0.2c-2.4,4.9-7.5,13.6-9.2,13c-2.2-0.8,0.3-12.8,3-19.9c2.7-7.1,6.6-12.2,8.8-11.4c1.5,0.5,2.1,1.8,1.3,6
	l1.8-1.3l0,0l0.7-2.5l0-0.1l0,0l0.4-1.3l0.2-0.5l-0.2,0.7l0.1-0.4l1.6-4.9l0.2-0.6l0.5-1.5l1-2.7l0.7-1.9l0.2-0.6l0.3-0.8l0.1-0.3
	l0.9-2.2l0.8-1.9l1.7-4l0.9-2.2l0.4-0.9l0.4-0.8l0.7-1.5l0.1-0.2l0.3-0.7l0.4-0.8l0,0l1.2-2.5l0.5-1l0.4-0.7l1.1-2.1l0.4-0.7
	l0.2-0.3l1.9-3.4l0.5-0.8l0.1-0.2l0.4-0.6l2.4-4.1l0.3-0.5l0.3-0.5l0.1-0.2l0.2-0.4l0.7-1l0.2-0.3l1.9-2.9l0,0l0,0l1-1.4l0.6-0.8
	l0.9-1.3l0.3-0.4l0.5-0.7l0.4-0.6l0.1-0.1l0.6-0.8l2-2.7l0.1-0.1l0.2-0.3l0,0l0.2-0.3l0,0l0,0l0.1-0.1l0,0l0.4-0.5l0.4-0.4l0.9-1.1
	l2.4-3l1.5-1.8l2-2.3l0.4-0.5l0.7-0.8l0.8-0.8l3.9-4.2l0.7-0.7l0.1-0.1l0.5-0.4l2.5-2.4l1.5-1.4l0.5-0.5l0.1-0.1l0.9-0.9l1.5-1.3
	l1.3-1.1l2.9-2.5l1.8-1.6l0.1-0.1l0.9-0.8l0.1-0.1l0.4-0.3l0.1-0.1l1.4-1.1l0.7-0.6l2.4-1.8l2-1.6l0.6-0.4l1.2-0.9l0.3-0.2l0,0l0,0
	l0.2-0.2l0.1-0.1l0.6-0.4l1.5-1l6.3-4.3l1.1-0.7l0.2-0.1l0.3-0.2l0,0l0.3-0.2l3.3-1.9l1.6-1l0.8-0.5l0.8-0.4l0,0l0.5-0.3l3.1-1.7
	l0.4-0.2l0.3-0.2l0.6-0.3l3.4-1.7l2-1l1.1-0.5l6.3-2.8l0,0l2.2-0.9l1.1-0.4l1.2-0.5l0.1,0l1.5-0.6l2.8-1l2.7-1l0.2-0.1l1-0.4
	l1.1-0.4l3.7-1.2l1.6-0.5l0.8-0.2l0.6-0.2l4.1-1.2l0,0l0.1,0l0.7-0.2l0.3-0.1l1.7-0.5l5.3-1.4l2-0.5l2.3-0.5l1.1-0.3l1-0.2l1.3-0.3
	l5.7-1.2l1.8-0.4l0.6-0.1l0.1,0l1.6-0.3l2-0.4l2.5-0.4l0.4-0.1l1.6-0.3l1-0.2l1.1-0.2l0.8-0.1l0.4-0.1l3.4-0.5l6.5-0.9l0,0l0.6-0.1
	l1.5-0.2l0.4,0l8.6-1l0,0l0.9-0.1l0.9-0.1l0.4,0l3.4-0.3l0.2,0l0.1,0l2.1-0.1l16.4-1l0.9,0l0.9,0l1.4,0l0.1,0l0.2,0l2.6-0.1l3.3-0.1
	l3.1-0.1l3.3-0.1l0,0l0.3-0.2l0.2-0.2h0.7l0.1-0.1l0.1-0.1l0.5-0.4l0.4-0.3l0,0l0.1-0.2l0,0l0,0l0,0l0.1-0.2l0-0.2l0,0l0,0l0,0
	l0-0.1l0-0.1l0,0l0-0.1l0-0.1l0,0l0,0.1l0.1,0c-5.6-0.5-9.6-2.1-9.6-3.9c0-2.3,6.3-4.1,14.2-4.1s14.2,1.8,14.2,4.1
	c0,1.6-3,2.9-7.4,3.6l0,0.1l0.1-0.1l-0.1,0.1l0,0.2l0,0.2l0,0.2v0l0,0l0,0l0,0l0.1,0.2l0,0l0,0l0,0.1l0,0l0,0l0,0l0,0l0,0l0.5,0.5
	l0.2,0.2l0,0l0.1,0.1l0.5,0.4l0.2,0.2h0.1h0.1h0h0.1l0.3,0.3l0.1,0.1l0,0l0.5,0l3.2,0l0.5,0l2,0.1l9.1,0.3l0.3,0l1.1,0l1.9,0.1
	l1.2,0l2.8,0.1l1.4,0.1l0,0l4.7,0.3l1.3,0.1l0.4,0h0l0.4,0l7.7,0.7l3.7,0.3l4.6,0.4l0,0l0.3,0l0.3,0l0.2,0l0.1,0l0,0l0.4,0l0.1,0
	l6,0.8l0,0l1.1,0.1l0.3,0l0.2,0l0.1,0l0.1,0l0,0l0.7,0.1l0.6,0.1l4.6,0.7l0.5,0.1l0,0l0.1,0l0,0l3.2,0.5l1.1,0.2l0.3,0l1.1,0.2
	l4.5,0.8l0.8,0.2l0.3,0l3.2,0.7l4.5,0.9l1,0.2l2.6,0.6l0.3,0.1l2.9,0.7l0,0l1.3,0.3l0,0l7,2l2.8,0.8l0.1,0l1.4,0.4l0,0l0,0l1.4,0.4
	l0,0l0.1,0l0.4,0.1l2.4,0.8l0.3,0.1l0.6,0.2l2,0.7l0.1,0l0,0l0,0l0.9,0.3l1.5,0.5l0.1,0l0.3,0.1l0.2,0.1l0.4,0.2l1.7,0.6l2.2,0.8
	l0,0l0.6,0.2l0.3,0.1l3.3,1.4l3.6,1.5l0,0l0.3,0.1l0,0l0.5,0.2l0.5,0.2l3.3,1.5l0.8,0.4l2.7,1.3l0.7,0.3l0.9,0.4l0.3,0.1l3.2,1.7
	l0.8,0.4l0.7,0.4l0.5,0.3l1.4,0.8l2.7,1.5l0.5,0.3l0,0l6.1,3.8l1.4,0.9l2.7,1.8l1,0.7l0.4,0.3l1.7,1.2l1.4,1l0.4,0.3l0.5,0.3
	l0.4,0.3l2.2,1.7l0.6,0.5l1.3,1l1,0.8l1.9,1.5l0.3,0.2l2.6,2.2l1,0.8l0.8,0.7l0.2,0.2l0.1,0.1l0.6,0.6l1.7,1.5l1,0.9l1.2,1.1
	l2.4,2.2l0,0l0.9,0.9l1.4,1.4l1,1l0.3,0.3l1.1,1.1l1.6,1.7l1.1,1.2l0.1,0.1l0,0l0,0l0,0l0.1,0.1l0.1,0.1l0.1,0.2l1.3,1.5l2,2.2
	l0.4,0.5l0.1,0.1l2.1,2.5l0.4,0.5l0.4,0.5l1.5,1.9l0.4,0.5l0.8,1l0.6,0.8l0.4,0.5l0.8,1l2.5,3.5l0.6,0.9l1.1,1.7l1,1.5l0.1,0.1
	l1.4,2.1l0.3,0.5l0,0.1l0.6,1l0.1,0.1l2,3.2l0.6,1.1l1.4,2.3l0.5,0.8l0.9,1.6l0.3,0.5l0.8,1.4l1.5,2.8l0.1,0.3l0.5,1l0.6,1.1
	l0.1,0.3l3.1,6.5l0.2,0.4l0.2,0.4l0.1,0.1l1,2.4l0.1,0.3l0.5,1.1l1.5,3.8l0.1,0.2l0.7,1.8l0,0.1l0,0l0.1,0.3l0.3,0.9l1.6,4.4l0,0.1
	l0.1,0.3l0,0.1l0,0l0.1,0.3l0.5,1.6l0.6,1.8l0,0.1l0,0l0,0.1l1.1,3.3l0,0.1l0,0.1l0.2,0.6v0c0.4-1.2,0.4-1.2,0.9-2.3
	c0.8-2.6,1.4-3.3,3.2-3.8c2.3-0.6,5.7,4.8,7.8,12.1c2,7.3,4.7,21.3,2.5,21.9c-1.6,0.4-6.6-9.7-8.4-13.6l0.4,0.3l-0.2-0.1l-0.3-0.1
	l-0.1,0l0,0l-0.2,0l-0.3,0.1l-0.2,0.1l-0.1,0.1l0,0l-0.1,0.1l-0.1,0.1l-0.1,0.1l0,0l0,0l0,0l0,0l0,0l0,0l-0.2,0.3l0,0l0,0.1l0.1,0.3
	l-0.1-0.3l0.1,0.3l1.9,9.2l0.4,1.2l-0.4-1.2l0.4,0.8l30.9,58.7l0.2,3.2l1,14.6l0.7,12.4l0.5,16.8l0,8l-0.3,14.8l-0.4,7.6l-1,13.8
	l-1.4,14.1l-0.9,7.1l-1.1,8.3l-1.6,10.6l0.1,0l-3,16.4l-1.8,9.3l-1.3,5.8l-2.5,10.8l-1.2,4.9l-1.9,7.1l-2.8,10l-1.7,5.6l-1.7,5.4
	l-2.5,7.7l-4.4,12.4l-6.4,16.6l-5.2,12.5l-5.1,11.4l-3.2,6.7l-5.5,10.9l-4.4,8.1l-6.2,11.2l-6.3,10.9l-7.1,11.4l-7.3,11.2l-4.3,6.4
	l-7.6,10.8l-28.2-2.4l2.2-0.7l-2.2,0.7l0.1-0.1l-0.1,0.1l-0.3,0.4l-0.7,1.1l-1,1.4l-0.3,0.5l-0.2,0.4l-0.4,0.7l-0.5,0.8l-0.3,0.7
	l0,0l-0.2,0.7l-0.1,0.3l-0.1,0.2l-0.1,0.2l0,0l0,0.4l0,0.2l0,0.1l0,0.1l0,0.1l0,0l0,0.2l0,0.4l0.1,0.3l0.1,0.5l0.1,0.3l0,0.1
	l0.2,0.5l0.1,0.3l0.4,0.6l0.1,0.2l0,0l0.2,0.2l0.7,0.8l0.1,0.1l0,0l0,0l0.1,0l0.8,0.6l0.1,0.1l0.1,0.1l0.1,0.1l0,0l0.3,0.1l0.8,0.3
	l0.1,0l0,0l0.4,0l0,0l0.3,0.1l0,0l0.5,0l0.5,0l0.1,0l0.4-0.1l0,0l0.4-0.1l0.1,0l1.2-0.4l0.1-0.1l0.6-0.3l1.5-0.8l0.7-0.4l0.2-0.1
	l1.6-1l0.7-0.3l0.1,0l0,0l0,0l0,0l0,0l0,0l0.1,0l0.1,0l0.3,0l0.1,0l0,0l0.2,0.1l0,0l0.1,0.1l0.4,0.3l0.1,0.1l0.4,0.3l0.6,0.5
	l2.4,1.9l0.1,0.1l0,0l0,0l0,0l0.1,0.1l0.2,0.2l0,0l0.1,0.1l0.1,0.3l0,0l0,0.1l0,0.1l0,0.1l0,0.2l0,0.1l0,0.3l-0.1,0.2l0,0.1
	l-0.2,0.5l-0.2,0.4l-0.6,1.2l-0.3,0.5l-0.1,0.1l-0.1,0.2l-0.1,0.2l0,0l-0.1,0.2l-0.5,0.7l-0.2,0.3l-0.1,0.1l-0.6,0.8l0,0l-0.6,0.7
	l-0.2,0.2l-0.1,0.1l0,0l0,0l0,0l-0.1,0.1l-0.2,0.1l-0.2,0.2l-0.6,0.5l-0.3,0.2l-0.8,0.5l-0.2,0.1l-0.6,0.4l-0.1,0.1l-0.4,0.2
	l-0.7,0.3l-0.3,0.1l-0.4,0.2l-0.1,0l-0.1,0l-0.6,0.1l-0.1,0l-0.5,0.1l-0.4,0.1l-0.1,0l-1.1,0.1l-0.4,0l-0.4,0l-0.2,0l0,0l-0.3,0
	l-0.3,0l-1,0l-0.1,0l-0.2,0l-0.2,0l-0.1,0l-0.4-0.1l-0.3-0.1l-0.3-0.1l-1.7-0.3l-0.1,0l-0.8-0.2l0,0l-0.5-0.2l-0.8-0.3l-0.1,0
	l-0.1-0.1l0,0l-0.1,0l-0.1,0l-0.1,0l-0.5-0.3l-0.2-0.1l-0.4-0.2l0,0l-0.1-0.1l-0.6-0.4l-0.2-0.1l-0.3-0.2l-0.4-0.3l-0.5-0.4
	l-0.5-0.4l0,0l0,0l-0.3-0.3l-0.8-0.7l-0.1-0.1l-0.1-0.1l-0.1-0.1l-0.2-0.3l-0.2-0.3l-0.3-0.4l-0.3-0.4l0,0l-0.1-0.1l-0.1-0.1
	l-0.2-0.3l-0.6-0.9l0,0l-0.3-0.5l0,0l0,0l-0.1-0.1l-0.4-0.8l-0.2-0.3l-0.4-0.7l-0.1-0.3l-0.2-0.4l-0.2-0.4l0,0l0,0l-0.2-0.5
	l-0.2-0.8l0-0.1l-0.1-0.2l-0.2-0.9l0-0.1l-0.2-1.5l0-0.2l0-0.2l0-0.9l0-0.3l0-0.1l0-0.1l0-0.5l0-0.4l0-0.1l0.2-1.1l0-0.1l0.1-0.6
	l0.5-2.1l0-0.1l0.4-1.2l0.6-1.6l0.1-0.1l0.9-1.9l0.1-0.2l0.3-0.7l0,0l0.1-0.2l0.7-1.1l1.1-1.8l0.4-0.7l3.3-4.6l3.2-4.5l0.3-0.4
	l1.6-2.2l0.5-0.7l0.5-0.6l0.1-0.2l0.4-0.5l0,0l5.1-7.1l0.3-0.4l0.2-0.3l0.6-0.8l0.6-0.9l2.8-4l0.4-0.6l0.5-0.7l2.2-3.4l0.4-0.6
	l0.1-0.1l0.6-1l0.2-0.4l2.7-4.3l2.3-3.6l0.2-0.3l0.2-0.3l0.1-0.1l1.6-2.6l0.2-0.4l5.3-8.7l0.8-1.4l0.5-0.9l0.3-0.6l0.2-0.3l0.2-0.3
	l3.1-5.3l0.6-1l2.9-5.2l0.3-0.5l0.3-0.5l0.2-0.3l0.2-0.3l0,0l0.2-0.4l0.9-1.7l2.5-4.7l0,0l0.1-0.2l0.1-0.2l1-1.9l0.8-1.5l0-0.1
	l0.6-1.3l3.9-8l0.5-1l0-0.1l0.2-0.4l0-0.1l0.6-1.2l0.9-1.8l1-2.2l0.3-0.6l0.2-0.4l0.3-0.7l1.1-2.5l0.4-0.8l1.2-2.7l0.1-0.3l0.8-1.8
	l0.3-0.6l2.2-5.4l0.3-0.8l0.6-1.5l0.8-2l0.3-0.7l0.6-1.6l1.8-4.7l0.2-0.5l0.4-1.1l1.2-3.4l0.2-0.4l0-0.1l0.1-0.4l0,0l2.4-6.6
	l0.7-1.9l0.9-2.6l2.3-6.9l0.4-1.3l1.2-3.8l1.4-4.6l0.6-1.8l0.2-0.7l0.1-0.5l1.2-4.3l0.3-0.9l0.9-3.2l0.1-0.3l0.3-1l0.2-0.9l0.2-1
	l1.2-4.7l1.5-6.1l0.1-0.3l0-0.1l0.7-3.1l0.5-2.5l0.1-0.5l0.4-2.1l0.7-3.2l0.2-1.1l1-5.3l1.1-5.7l0.2-0.9l0-0.1l0.2-0.9l0.5-3
	l0.1-0.7l0.1-0.7l0-0.1l0.2-1.4l0.9-5.4l0.8-5l0-0.3l0.2-1.1l1.3-9.1l0.2-1.4l0.1-0.5l1-8.3l0.2-1.4l0.2-2.1l0-0.3l0.7-7.1l0.1-0.9
	l0.3-4.1l0.2-2.9l0,0l0.2-2.7l0.1-0.8l0.1-1.1l0-0.9l0-2.3l0-1l0-0.1l0-1.3l0-2.2l0-0.4l0-3.4l0,0l0-0.6l-0.2-3.8l0,0l0-0.2l0-0.7
	l0-0.4l0-0.3l0-0.3l-0.1-1.9l-0.1-0.6l-0.1-0.6l-0.5-5.5l-0.1-0.5l-0.1-1.3l-0.3-2.9l-0.3-2.3l-0.4-3.2l-0.4-2.8l-0.1-0.7l0-0.1
	l-0.1-0.5l-0.1-0.5l-1.5-7.3l-0.1-0.5l0-0.1l-0.8-3.1l0,0l0-0.1l-0.2-0.7l-0.2-0.6l-0.4-1.3l-0.6-1.9l-0.8-2.7l-0.1-0.2l-0.1-0.3
	l-0.2-0.5l-0.1-0.4l-0.1-0.3l-1-3l-0.1-0.4l-1-2.8l-0.2-0.6l-0.9-2.3l-0.1-0.3l-0.1-0.3l-0.2-0.5l-0.5-1.2l-0.8-1.8l0-0.1l-0.1-0.2
	l-0.1-0.2l-0.4-0.7l-0.3-0.7l-0.5-0.9l-0.7-1.5l-1.2-2.4l-0.3-0.5l-0.3-0.6l-1.7-3.2l-1.1-1.9l-0.6-1.1l-1.5-2.6l-0.6-1.1l-2.8-4.7
	l-0.3-0.4l-0.1-0.2l-0.2-0.3l-0.2-0.3l-1.6-2.5l-1-1.6l-0.2-0.3l-0.1-0.2l-0.1-0.2l-0.1-0.1l-0.2-0.3l0,0l-0.2-0.2l-6.2-9.1
	l-0.2-0.3l-0.2-0.3l-0.2-0.2l-0.8-1.1l-0.9-1.2l-0.6-0.9l-0.2-0.3l-1.3-1.8l-1.1-1.5l-1.3-1.8l0,0l-0.7-0.9l-1.3-1.6l-2.2-2.8
	l-0.8-1l-2.8-3.4l-1-1.1l-0.6-0.8l-3.1-3.6l-6.3-7.2l-1.3-1.5l-2.5-2.7l-0.9-1l-0.8-0.9l-1.5-1.6l-1-1.1l-2.8-2.8l-0.8-0.8l-2.3-2.2
	l-2.1-2l-0.6-0.6l-0.2-0.2l-0.7-0.6l-2.9-2.7l-5-4.3l-0.9-0.8l0,0l-2.9-2.4l-0.1-0.1l-0.9-0.7l-0.1-0.1l-0.3-0.3l-1.7-1.4l-2.8-2.2
	l-1.3-1l-0.1-0.1l-0.6-0.4l-0.3-0.2l-5.2-3.8l-1.9-1.2l-1.1-0.8l-3.1-2l-1.1-0.7l-0.6-0.4l-0.2-0.1l-0.6-0.4l-3.7-2.2l-1.1-0.6
	l-0.2-0.1l-1.5-0.8l-2.5-1.4l-5.9-3.2l-1.2-0.7l-0.8-0.4l-3-1.5l-0.5-0.2l0,0l-0.1,0l-0.1-0.1l-4.3-2l-0.2-0.1l-0.5-0.2l-0.2-0.1
	l-0.4-0.2l-6-2.6l-3.4-1.5l-0.2-0.1l0,0l-0.1,0l-3.7-1.5l-1-0.4l-0.2-0.1l-0.2-0.1l-0.1,0l-0.7-0.3l-2-0.8l-1.3-0.5l-4.5-1.6
	l-1.5-0.5l-0.6-0.2l-3.7-1.2l-1.2-0.4l-0.7-0.2l-0.2-0.1l-6.6-2l-0.1,0l-0.2,0l-1.9-0.5l-0.7-0.2l-0.9-0.2l-2.5-0.7l0,0l-0.3-0.1
	l-4.5-1.1l-1.7-0.4l0,0l-1.6-0.3l-1.7-0.4l-2.6-0.5l-0.1,0l-0.3-0.1l-0.4-0.1l-0.3-0.1l-2.4-0.4l-3.3-0.6l-0.5-0.1l-0.6-0.1
	l-2.8-0.4l-0.4-0.1l-0.4-0.1l-0.1,0l-6.6-0.8l-0.3,0l-0.3,0l-0.5-0.1l-5-0.5l-0.7-0.1l-0.3,0l0,0l-0.1,0l-5-0.3l-1-0.1l-0.6,0
	l-0.5,0l-9.4-0.1l-2,0l-0.4,0l-0.7,0l-1,0l-1.1,0l-4.5,0.2l-0.7,0l-0.7,0l-0.5,0l-2.6,0.2l-2.1,0.1l-0.5,0l-3.9,0.3l-1.4,0.1l-0.1,0
	l-0.9,0.1l-3.1,0.3l0,0l-0.1,0l0,0l-0.1,0l-5.7,0.8l-0.1,0l-0.4,0l-0.4,0.1l-0.1,0l0,0l-1.6,0.3l-5.3,0.9l-1.5,0.2l-0.3,0.1l-0.2,0
	l-0.4,0.1l-1.3,0.3l-2.6,0.6l-2.5,0.5l-1.4,0.3l-1.1,0.3l-3.9,1l-1.6,0.4l-0.1,0l-0.7,0.2l-0.2,0l-2.6,0.7l-2.2,0.6l-2.5,0.7
	l-3.7,1.2l-0.6,0.2l-2.4,0.8l-1.4,0.5l-2.9,1l-4.3,1.6l-0.5,0.2l-0.8,0.3l-1.1,0.4l-0.9,0.3l-0.5,0.2l-0.5,0.2l-0.8,0.3l-0.7,0.3
	l-6.2,2.6l-5,2.1l-0.6,0.3l-1,0.5l-0.7,0.3l-4.2,2l-2.9,1.4l-0.7,0.3l0,0l-0.2,0.1l-0.1,0.1l-0.4,0.2l-1.3,0.7l-3.8,2l-0.4,0.2
	l-1,0.6l-0.8,0.4l-2.8,1.5l-0.7,0.4l-3.4,2l-3.6,2.2l-1.1,0.7l-0.1,0.1l-2.9,2l-3.6,2.4l-0.7,0.5l-1.2,0.9l-3,2.2l-0.6,0.4l-4.6,3.6
	l-0.7,0.5l-0.4,0.3l-1.5,1.2l-3.7,3.1l-0.6,0.5l-0.1,0.1l-0.8,0.7l-0.9,0.8l-4.2,3.7l-0.5,0.5l-4.5,4.2l-0.2,0.2l-0.1,0.1l-0.2,0.2
	l-0.6,0.6l-4.8,4.8l-0.9,0.9l-3.5,3.8l-0.3,0.3l-0.7,0.7l-7.7,8.8l-1.5,1.8l-3,3.5l-2.6,3.1l-0.8,0.9l-2.7,3.3l-0.9,1.2l-0.2,0.3
	l-0.2,0.2l-4.8,6.4l-0.1,0.1l-0.6,0.8l-2.5,3.5l-0.2,0.4l-0.6,0.9l0,0.1l-0.2,0.2l-0.1,0.1l-0.3,0.5l0,0l0,0.1l-0.2,0.3l0,0.1
	l-5.6,8.3l-0.1,0.1l-0.1,0.1l-0.2,0.3l-0.2,0.3l-0.5,0.7l-0.5,0.9l-0.5,0.7l-0.9,1.5l-0.3,0.5l-2.3,3.7l0,0l-2.7,4.7l-0.2,0.4l0,0
	l-0.2,0.4l0,0l-2.1,3.8l-0.2,0.4l0,0l-0.2,0.4l-0.4,0.7l-0.5,1l-2.4,4.5l-0.3,0.6l-0.1,0.3l-0.1,0.3l-1.9,4.3l-0.3,0.7l-0.1,0.3
	l-1,2.5l-0.1,0.3l0,0l0,0l0,0.1l-0.1,0.3l0,0l-0.1,0.2l0,0.1l-0.5,1.5l-0.6,1.7l-0.3,0.9l-0.1,0.2l-1.4,4.3l-0.6,1.8l-0.1,0.3
	l-0.1,0.4l-1,3.6l-0.1,0.4l0,0.1l0,0.1l-0.2,0.6l-0.1,0.2l-0.1,0.2l-0.8,3.1l-0.1,0.3l-0.1,0.4l-1,5l-0.1,0.4l-0.1,0.4l-0.2,1.4
	l-0.5,3.1l-0.1,0.6l0,0.3l0,0.2l-0.3,2.3l-0.3,1.8l-0.3,2.6l-0.1,1.1l0,0.1l-0.3,3.2l-0.1,0.7l-0.3,3.2l-0.1,1l-0.1,0.6l-0.2,2.9
	l0,0.4l-0.1,2.2l-0.1,2.5l0,1.4l0,5.4l0,0.3l0,0.4l0,1.1l0,0.6l0.1,1.3l0.1,1.4l0.3,7l0.1,0.8l0,0.1l0.6,7.3l0.2,1.8l0.3,2.9
	l0.3,3.1l0.1,0.7l1,8.3l0.1,0.5l0.2,1.4l0.1,0.7l0.2,1.4l1.1,8l0.2,1.7l0.6,3.7l0,0.2l0.4,2.1l0.8,4.3l0.8,4.8l0.1,0.7l1.3,6.5
	l0.1,0.3l0.4,2.1l0.1,0.7l1.6,7.9l0.1,0.6l0.1,0.4l0,0.2l1.3,5.5l0.1,0.4l0,0.2l0.3,1.2l0.8,3.3l0.3,1.1l0.8,3.2l0,0l0.3,1.1
	l0.4,1.6l0.7,2.5l0.8,2.7l0.3,1.1l0.4,1.5l0.7,2.5l0.3,1.2l2.1,6.8l1.9,6.2l0.1,0.3l0.4,1.2l0.1,0.2l0.2,0.7l0.5,1.6l0.3,0.8l0.3,1
	l3.8,10.8l0.5,1.3l0.1,0.4l0.4,1l0.3,1l0.6,1.7l0.2,0.5l0.9,2.3l2,5.2l1.8,4.5l0.2,0.4l0,0.1l0.2,0.4l0.8,2l0,0l0.7,1.8l0.8,1.8
	l0.4,0.9l1.6,3.7l0.7,1.5l0.1,0.1l1.8,3.9l0.8,1.7l0.5,1l0.9,1.9l0.5,1l2.2,4.5l0.6,1.2l0.1,0.2l0.2,0.5l1.4,2.7l1.3,2.6l0.5,1
	l0.2,0.3l0.1,0.1l0.4,0.8l1.8,3.3l0.2,0.4l0.1,0.2l0.5,0.9l0.3,0.6l0.3,0.5l0.8,1.4l0.1,0.2l4.8,8.5l0.5,0.8l0.4,0.7l0.3,0.5
	l0.2,0.3l0.6,1l0.3,0.5l0.6,1l0.8,1.3l4.8,7.9l0.1,0.2l0.7,1.1l0.1,0.1l3.6,5.8l1,1.5l0.3,0.4l0.3,0.4l0.7,1l0.3,0.4l1.6,2.5
	l3.8,5.8l1,1.4l3.4,4.8l0.4,0.6l1.1,1.6l2.2,3.1l4.8,6.8l3.4,4.8l3.3,4.6l0.4,0.6l0.5,0.8l0.8,1.2l0.7,1.2l0.1,0.3l0.6,1.2l0.5,1.1
	l0.6,1.4l0.1,0.3l0,0l0,0l0.1,0.2l0.3,0.8l0.1,0.2l0.3,0.8l0,0.1l0.3,1.2l0.3,1.2l0,0.1l0,0.2l0,0.3l0.1,1.3l0,0.1l0,0.4l0,0.4
	l-0.1,1.3l-0.1,0.8l-0.2,1l-0.3,0.9l-0.1,0.5l-0.3,0.6l-0.3,0.8l-0.1,0.2l-0.1,0.1l0,0l-0.5,0.9l-0.1,0.2l-0.3,0.5l-0.2,0.3l0,0
	l-0.5,0.7l-0.3,0.4l0,0.1l-0.3,0.4l-1.1,1.2l0,0l-0.3,0.3l-0.1,0.2l0,0l-0.1,0.1l0,0l-0.6,0.6l-0.6,0.5l-0.5,0.4l0,0l-0.4,0.3l0,0
	l-0.4,0.3l-0.3,0.2l-0.9,0.5l-0.1,0l-0.2,0.1l-0.5,0.2l-0.6,0.3l-0.8,0.3l-0.2,0.1l0,0l-0.3,0.1l-0.1,0l-1.8,0.5l-0.7,0.2l-0.1,0
	l-0.1,0l-0.4,0.1l-0.4,0.1l-0.6,0.1l-0.6,0.1l-0.4,0l-0.6,0l-0.4,0l-0.8,0.1l-0.1,0l-0.1,0l-0.2,0l-0.7-0.1l-0.5-0.1l0,0l-0.3-0.1
	l-0.2,0l0,0l-0.3-0.1l-0.5-0.2l-0.5-0.2l-0.8-0.2l0,0l-0.6-0.3l0,0l-0.3-0.1l-0.3-0.1l-0.5-0.3l-0.3-0.2l-0.2-0.2l-0.7-0.5l0,0
	l-0.2-0.2l0,0l-0.3-0.2l-0.2-0.2l-0.3-0.4l-0.1-0.1l-0.5-0.5l-0.2-0.3l-0.6-0.8l-0.1-0.1l0,0l-0.1-0.1l-0.1-0.1l0,0l-0.2-0.3
	l-0.9-1.5l-0.2-0.4l-0.2-0.3l-0.2-0.4l-0.1-0.1l0,0l0,0l-0.2-0.7l-0.1-0.3l-0.1-0.2l-0.1-0.5l0-0.3l0,0l0-0.1l0-0.4l0.2-0.2l0,0
	l0-0.1l0,0l0.3-0.2l1.7-1.3l1.1-0.8l0.6-0.4l0,0l0.5-0.3l0.2-0.1l0.1-0.1l0,0l0.2-0.1l0.2,0l0,0l0,0l0.4,0.1l0.2,0l0.3,0.1l0,0
	l0.2,0.1l0.2,0.1l0.3,0.1l1.1,0.7l1.2,0.8l0.4,0.2l0.9,0.5l0.1,0.1l0,0l0.1,0l0,0l0,0l0.9,0.4l0.2,0.1l0.2,0.1l0.3,0.1l0.4,0.1l0,0
	l0.4,0.1l0.3,0l0.4,0l0,0l0.8-0.1l0.2,0l0.3,0l0.1,0l0.1-0.1l0.5-0.2l0.3-0.1l0.1,0l0,0l0.2-0.1l1.3-1l0,0l0,0l0,0l0.9-1.1l0,0l0,0
	l0.2-0.3l0.2-0.4l0.3-0.8l0-0.2l0.1-0.6l0-0.1l0-0.6l0-0.1l0,0l0-0.2l0-0.1l0-0.1l-0.1-0.7l-0.3-0.9l0,0l-0.2-0.4l-0.2-0.3l0,0
	l-0.1-0.1L1006.2,641l0.3,0.5l-2.8-1.3"/>
<path class="st0" d="M475,154.3l29.7,0.1l3.5,4.9l7.4,10.5l9.8,14.7l3.9,6.2l5.7,9.5l10.1,17.8l0.9-0.4l10.9,23.5l7.5,16.6l5.4,13
	l1.5,3.8l6.7,18.2l2.9,8.7l3.4,10.7l4,13.9l2.3,8.9l1.5,6.1l2.3,10.4L598,370l1.2,6.8l1.7,11l2,14.2l1.2,10.6l1,10.5l0.9,12.9
	l0.3,7.1l0.2,6.6l0.1,8l-0.1,7.4l-0.3,10.5l-0.5,10l-1.6,23.9l-0.9,4l-32.6,64.6l0,0.5l0.3,0.7l-0.1-0.3l0,0l0.2,0.1l0,0l0,0.1l0,0
	l0,0l0,0l0,0.1l0,0l0,0.1l0.1,0.1l0.1,0.2l0.2,0.1l0.2,0.1l0,0l0.1,0l0.1,0l0.3,0l0.1,0l0,0l0.1,0l0.1-0.1l0.3-0.2
	c2.4-4.9,7.5-13.6,9.2-13c2.2,0.8-0.3,12.8-3,19.9c-2.7,7.1-6.6,12.2-8.8,11.4c-1.5-0.5-2.1-1.8-1.3-6l-1.8,1.3l0,0l-0.7,2.5l0,0.1
	l0,0l-0.4,1.3l-0.2,0.5l0.2-0.7l-0.1,0.4l-1.6,4.9l-0.2,0.6l-0.5,1.5l-1,2.7l-0.7,1.9l-0.2,0.6l-0.3,0.8l-0.1,0.3l-0.9,2.2l-0.8,1.9
	l-1.7,4l-0.9,2.2l-0.4,0.9l-0.4,0.8l-0.7,1.5l-0.1,0.2l-0.3,0.7l-0.4,0.8l0,0l-1.2,2.5l-0.5,1l-0.4,0.7l-1.1,2.1l-0.4,0.7l-0.2,0.3
	l-1.9,3.4l-0.5,0.8l-0.1,0.2l-0.4,0.6l-2.4,4.1l-0.3,0.5l-0.3,0.5l-0.1,0.2l-0.2,0.4l-0.7,1l-0.2,0.3l-1.9,2.9l0,0l0,0l-1,1.4
	l-0.6,0.8l-0.9,1.3l-0.3,0.4l-0.5,0.7l-0.4,0.6l-0.1,0.1l-0.6,0.8l-2,2.7l-0.1,0.1l-0.2,0.3l0,0l-0.2,0.3l0,0l0,0l-0.1,0.1l0,0
	l-0.4,0.5l-0.4,0.4l-0.9,1.1l-2.4,3l-1.5,1.8l-2,2.3l-0.4,0.5l-0.7,0.8l-0.8,0.8l-3.9,4.2l-0.7,0.7l-0.1,0.1l-0.5,0.4l-2.5,2.4
	l-1.5,1.4l-0.5,0.5l-0.1,0.1l-0.9,0.9l-1.5,1.3l-1.3,1.1l-2.9,2.5l-1.8,1.6l-0.1,0.1l-0.9,0.8l-0.1,0.1l-0.4,0.3l-0.1,0.1l-1.4,1.1
	l-0.7,0.6l-2.4,1.8l-2,1.6l-0.6,0.4l-1.2,0.9l-0.3,0.2l0,0l0,0l-0.2,0.2l-0.1,0.1l-0.6,0.4l-1.5,1l-6.3,4.3l-1.1,0.7l-0.2,0.1
	l-0.3,0.2l0,0l-0.3,0.2l-3.3,1.9l-1.6,1l-0.8,0.5l-0.8,0.4l0,0l-0.5,0.3l-3.1,1.7l-0.4,0.2l-0.3,0.2l-0.6,0.3l-3.4,1.7l-2,1
	l-1.1,0.5l-6.3,2.8l0,0l-2.2,0.9l-1.1,0.4l-1.2,0.5l-0.1,0l-1.5,0.6l-2.8,1l-2.7,1l-0.2,0.1l-1,0.4l-1.1,0.4l-3.7,1.2l-1.6,0.5
	l-0.8,0.2l-0.6,0.2l-4.1,1.2l0,0l-0.1,0l-0.7,0.2l-0.3,0.1l-1.7,0.5l-5.3,1.4l-2,0.5l-2.3,0.5l-1.1,0.3l-1,0.2l-1.3,0.3l-5.7,1.2
	l-1.8,0.4l-0.6,0.1l-0.1,0l-1.6,0.3l-2,0.4l-2.5,0.4l-0.4,0.1l-1.6,0.3l-1,0.2l-1.1,0.2l-0.8,0.1l-0.4,0.1l-3.4,0.5l-6.5,0.9l0,0
	l-0.6,0.1l-1.5,0.2l-0.4,0l-8.6,1l0,0l-0.9,0.1l-0.9,0.1l-0.4,0l-3.4,0.3l-0.2,0l-0.1,0l-2.1,0.1l-16.4,1l-0.9,0l-0.9,0l-1.4,0
	l-0.1,0l-0.2,0l-2.6,0.1l-3.3,0.1l-3.1,0.1l-3.3,0.1l0,0l-0.3,0.2l-0.2,0.2h-0.7l-0.1,0.1l-0.1,0.1l-0.5,0.4l-0.4,0.3l0,0l-0.1,0.2
	l0,0l0,0l0,0l-0.1,0.2l0,0.2l0,0l0,0l0,0l0,0.1l0,0.1l0,0l0,0.1l0,0.1l0,0l0-0.1l-0.1,0c5.6,0.5,9.6,2.1,9.6,3.9
	c0,2.3-6.3,4.1-14.2,4.1s-14.2-1.8-14.2-4.1c0-1.6,3-2.9,7.4-3.6l0-0.1l-0.1,0.1l0.1-0.1l0-0.2l0-0.2l0-0.2v0l0,0l0,0l0,0l-0.1-0.2
	l0,0l0,0l0-0.1l0,0l0,0l0,0l0,0l0,0l-0.5-0.5l-0.2-0.2l0,0l-0.1-0.1l-0.5-0.4l-0.2-0.2h-0.1h-0.1h0h-0.1l-0.3-0.3l-0.1-0.1l0,0
	l-0.5,0l-3.2,0l-0.5,0l-2-0.1l-9.1-0.3l-0.3,0l-1.1,0l-1.9-0.1l-1.2,0l-2.8-0.1l-1.4-0.1l0,0l-4.7-0.3l-1.3-0.1l-0.4,0h0l-0.4,0
	l-7.7-0.7l-3.7-0.3l-4.6-0.4l0,0l-0.3,0l-0.3,0l-0.2,0l-0.1,0l0,0l-0.4,0l-0.1,0l-6-0.8l0,0l-1.1-0.1l-0.3,0l-0.2,0l-0.1,0l-0.1,0
	l0,0l-0.7-0.1l-0.6-0.1l-4.6-0.7l-0.5-0.1l0,0l-0.1,0l0,0l-3.2-0.5l-1.1-0.2l-0.3,0l-1.1-0.2l-4.5-0.8l-0.8-0.2l-0.3,0l-3.2-0.7
	l-4.5-0.9l-1-0.2l-2.6-0.6l-0.3-0.1l-2.9-0.7l0,0l-1.3-0.3l0,0l-7-2l-2.8-0.8l-0.1,0l-1.4-0.4l0,0l0,0l-1.4-0.4l0,0l-0.1,0l-0.4-0.1
	l-2.4-0.8l-0.3-0.1l-0.6-0.2l-2-0.7l-0.1,0l0,0l0,0l-0.9-0.3l-1.5-0.5l-0.1,0l-0.3-0.1l-0.2-0.1l-0.4-0.2l-1.7-0.6l-2.2-0.8l0,0
	l-0.6-0.2l-0.3-0.1l-3.3-1.4l-3.6-1.5l0,0l-0.3-0.1l0,0l-0.5-0.2l-0.5-0.2l-3.3-1.5l-0.8-0.4l-2.7-1.3l-0.7-0.3l-0.9-0.4l-0.3-0.1
	l-3.2-1.7L187,707l-0.7-0.4l-0.5-0.3l-1.4-0.8l-2.7-1.5l-0.5-0.3l0,0L175,700l-1.4-0.9l-2.7-1.8l-1-0.7l-0.4-0.3l-1.7-1.2l-1.4-1
	l-0.4-0.3l-0.5-0.3l-0.4-0.3l-2.2-1.7l-0.6-0.5l-1.3-1l-1-0.8l-1.9-1.5l-0.3-0.2l-2.6-2.2l-1-0.8l-0.8-0.7l-0.2-0.2l-0.1-0.1
	l-0.6-0.6l-1.7-1.5l-1-0.9l-1.2-1.1l-2.4-2.2l0,0l-0.9-0.9L144,675l-1-1l-0.3-0.3l-1.1-1.1l-1.6-1.7l-1.1-1.2l-0.1-0.1l0,0l0,0l0,0
	l-0.1-0.1l-0.1-0.1l-0.1-0.2l-1.3-1.5l-2-2.2l-0.4-0.5l-0.1-0.1l-2.1-2.5l-0.4-0.5l-0.4-0.5l-1.5-1.9l-0.4-0.5l-0.8-1l-0.6-0.8
	l-0.4-0.5l-0.8-1l-2.5-3.5l-0.6-0.9l-1.1-1.7l-1-1.5l-0.1-0.1l-1.4-2.1l-0.3-0.5l0-0.1l-0.6-1l-0.1-0.1l-2-3.2l-0.6-1.1l-1.4-2.3
	l-0.5-0.8l-0.9-1.6l-0.3-0.5l-0.8-1.4l-1.5-2.8l-0.1-0.3l-0.5-1l-0.6-1.1l-0.1-0.3l-3.1-6.5l-0.2-0.4l-0.2-0.4l-0.1-0.1l-1-2.4
	l-0.1-0.3l-0.5-1.1l-1.5-3.8l-0.1-0.2l-0.7-1.8l0-0.1l0,0l-0.1-0.3l-0.3-0.9l-1.6-4.4l0-0.1l-0.1-0.3l0-0.1l0,0l-0.1-0.3l-0.5-1.6
	l-0.6-1.8l0-0.1l0,0l0-0.1l-1.1-3.3l0-0.1l0-0.1l-0.2-0.6l0,0c-0.4,1.2-0.4,1.2-0.9,2.3c-0.8,2.6-1.4,3.3-3.2,3.8
	c-2.3,0.6-5.7-4.8-7.8-12.1c-2-7.3-4.7-21.3-2.5-21.9c1.6-0.4,6.6,9.7,8.4,13.6l-0.4-0.3l0.2,0.1l0.3,0.1l0.1,0l0,0l0.2,0l0.3-0.1
	l0.2-0.1l0.1-0.1l0,0l0.1-0.1l0.1-0.1l0.1-0.1l0,0l0,0l0,0l0,0l0,0l0,0l0.2-0.3l0,0l0-0.1l-0.1-0.3l0.1,0.3l-0.1-0.3l-1.9-9.2
	l-0.4-1.2l0.4,1.2l-0.4-0.8l-30.9-58.7l-0.2-3.2L59,494l-0.7-12.4l-0.5-16.8l0-8L58,442l0.4-7.6l1-13.8l1.4-14.1l0.9-7.1l1.1-8.3
	l1.6-10.6l-0.1,0l3-16.4l1.8-9.3l1.3-5.8l2.5-10.8l1.2-4.9l1.9-7.1l2.8-10l1.7-5.6l1.7-5.4l2.5-7.7l4.4-12.4l6.4-16.6l5.2-12.5
	l5.1-11.4l3.2-6.7l5.5-10.9l4.4-8.1l6.2-11.2l6.3-10.9l7.1-11.4l7.3-11.2l4.3-6.4l7.6-10.8l28.2,2.4l-2.2,0.7l2.2-0.7l-0.1,0.1
	l0.1-0.1l0.3-0.4l0.7-1.1l1-1.4l0.3-0.5l0.2-0.4l0.4-0.7l0.5-0.8l0.3-0.7l0,0l0.2-0.7l0.1-0.3l0.1-0.2l0.1-0.2l0,0l0-0.4l0-0.2
	l0-0.1l0-0.1l0-0.1l0,0l0-0.2l0-0.4l-0.1-0.3l-0.1-0.5l-0.1-0.3l0-0.1l-0.2-0.5l-0.1-0.3l-0.4-0.6l-0.1-0.2l0,0l-0.2-0.2l-0.7-0.8
	l-0.1-0.1l0,0l0,0l-0.1,0l-0.8-0.6l-0.1-0.1l-0.1-0.1l-0.1-0.1l0,0l-0.3-0.1l-0.8-0.3l-0.1,0l0,0l-0.4,0l0,0l-0.3-0.1l0,0l-0.5,0
	l-0.5,0l-0.1,0l-0.4,0.1l0,0l-0.4,0.1l-0.1,0l-1.2,0.4l-0.1,0.1l-0.6,0.3l-1.5,0.8l-0.7,0.4l-0.2,0.1l-1.6,1l-0.7,0.3l-0.1,0l0,0
	l0,0l0,0l0,0l0,0l-0.1,0l-0.1,0l-0.3,0l-0.1,0l0,0l-0.2-0.1l0,0l-0.1-0.1l-0.4-0.3l-0.1-0.1l-0.4-0.3l-0.6-0.5l-2.4-1.9l-0.1-0.1
	l0,0l0,0l0,0l-0.1-0.1l-0.2-0.2l0,0l-0.1-0.1l-0.1-0.3l0,0l0-0.1l0-0.1l0-0.1l0-0.2l0-0.1l0-0.3l0.1-0.2l0-0.1l0.2-0.5l0.2-0.4
	l0.6-1.2l0.3-0.5l0.1-0.1l0.1-0.2l0.1-0.2l0,0l0.1-0.2l0.5-0.7l0.2-0.3l0.1-0.1l0.6-0.8l0,0l0.6-0.7l0.2-0.2l0.1-0.1l0,0l0,0l0,0
	l0.1-0.1l0.2-0.1l0.2-0.2l0.6-0.5l0.3-0.2l0.8-0.5l0.2-0.1l0.6-0.4l0.1-0.1l0.4-0.2l0.7-0.3l0.3-0.1l0.4-0.2l0.1,0l0.1,0l0.6-0.1
	l0.1,0l0.5-0.1l0.4-0.1l0.1,0l1.1-0.1l0.4,0l0.4,0l0.2,0l0,0l0.3,0l0.3,0l1,0l0.1,0l0.2,0l0.2,0l0.1,0l0.4,0.1l0.3,0.1l0.3,0.1
	l1.7,0.3l0.1,0l0.8,0.2l0,0l0.5,0.2l0.8,0.3l0.1,0l0.1,0.1l0,0l0.1,0.1l0.1,0l0.1,0l0.5,0.3l0.2,0.1l0.4,0.2l0,0l0.1,0.1l0.6,0.4
	l0.2,0.1l0.3,0.2l0.4,0.3l0.5,0.4l0.5,0.4l0,0l0,0l0.3,0.3l0.8,0.7l0.1,0.1l0.1,0.1l0.1,0.1l0.2,0.3l0.2,0.3l0.3,0.4l0.3,0.4l0,0
	l0.1,0.1l0.1,0.1l0.2,0.3l0.6,0.9l0,0l0.3,0.5l0,0l0,0l0.1,0.1l0.4,0.8l0.2,0.3l0.4,0.7l0.1,0.3l0.2,0.4l0.2,0.4l0,0l0,0l0.2,0.5
	l0.2,0.8l0,0.1l0.1,0.2l0.2,0.9l0,0.1l0.2,1.5l0,0.2l0,0.2l0,0.9l0,0.3l0,0.1l0,0.1l0,0.5l0,0.4l0,0.1l-0.2,1.1l0,0.1l-0.1,0.6
	l-0.5,2.1l0,0.1l-0.4,1.2l-0.6,1.6l-0.1,0.1l-0.9,1.9l-0.1,0.2l-0.3,0.7l0,0l-0.1,0.2l-0.7,1.1l-1.1,1.8l-0.4,0.7l-3.3,4.6l-3.2,4.5
	l-0.3,0.4l-1.6,2.2l-0.5,0.7l-0.5,0.6l-0.1,0.2l-0.4,0.5l0,0l-5.1,7.1l-0.3,0.4l-0.2,0.3l-0.6,0.8l-0.6,0.9l-2.8,4l-0.4,0.6
	l-0.5,0.7l-2.2,3.4l-0.4,0.6l-0.1,0.1l-0.6,1l-0.2,0.4l-2.7,4.3l-2.3,3.6l-0.2,0.3l-0.2,0.3l-0.1,0.1l-1.6,2.6l-0.2,0.4l-5.3,8.7
	l-0.8,1.4l-0.5,0.9L158,223l-0.2,0.3l-0.2,0.3l-3.1,5.3l-0.6,1l-2.9,5.2l-0.3,0.5l-0.3,0.5l-0.2,0.3l-0.2,0.3l0,0l-0.2,0.4l-0.9,1.7
	l-2.5,4.7l0,0l-0.1,0.2l-0.1,0.2l-1,1.9l-0.8,1.5l0,0.1l-0.6,1.3l-3.9,8l-0.5,1l0,0.1l-0.2,0.4l0,0.1l-0.6,1.2l-0.9,1.8l-1,2.2
	l-0.3,0.6l-0.2,0.4l-0.3,0.7l-1.1,2.5l-0.4,0.8l-1.2,2.7l-0.1,0.3l-0.8,1.8l-0.3,0.6l-2.2,5.4l-0.3,0.8l-0.6,1.5l-0.8,2l-0.3,0.7
	l-0.6,1.6l-1.8,4.7l-0.2,0.5l-0.4,1.1l-1.2,3.4l-0.2,0.4l0,0.1l-0.1,0.4l0,0l-2.4,6.6l-0.7,1.9l-0.9,2.6l-2.3,6.9l-0.4,1.3l-1.2,3.8
	l-1.4,4.6l-0.6,1.8l-0.2,0.7l-0.1,0.5l-1.2,4.3l-0.3,0.9l-0.9,3.2l-0.1,0.3l-0.3,1l-0.2,0.9l-0.2,1l-1.2,4.7l-1.5,6.1l-0.1,0.3
	l0,0.1l-0.7,3.1l-0.5,2.5l-0.1,0.5l-0.4,2.1l-0.7,3.2l-0.2,1.1l-1,5.3l-1.1,5.7l-0.2,0.9l0,0.1l-0.2,0.9l-0.5,3l-0.1,0.7l-0.1,0.7
	l0,0.1l-0.2,1.4l-0.9,5.4l-0.8,5l0,0.3l-0.2,1.1l-1.3,9.1l-0.2,1.4l-0.1,0.5l-1,8.3l-0.2,1.4l-0.2,2.1l0,0.3l-0.7,7.1l-0.1,0.9
	l-0.3,4.1l-0.2,2.9l0,0l-0.2,2.7l-0.1,0.8l-0.1,1.1l0,0.9l0,2.3l0,1l0,0.1l0,1.3l0,2.2l0,0.4l0,3.4l0,0l0,0.6l0.2,3.8l0,0l0,0.2
	l0,0.7l0,0.4l0,0.3l0,0.3l0.1,1.9l0.1,0.6l0.1,0.6l0.5,5.5l0.1,0.5l0.1,1.3l0.3,2.9l0.3,2.3l0.4,3.2l0.4,2.8l0.1,0.7l0,0.1l0.1,0.5
	l0.1,0.5L99,485l0.1,0.5l0,0.1l0.8,3.1l0,0l0,0.1l0.2,0.7l0.2,0.6l0.4,1.3l0.6,1.9l0.8,2.7l0.1,0.2l0.1,0.3l0.2,0.5l0.1,0.4l0.1,0.3
	l1,3l0.1,0.4l1,2.8l0.2,0.6l0.9,2.3l0.1,0.3l0.1,0.3l0.2,0.5l0.5,1.2l0.8,1.8l0,0.1l0.1,0.2l0.1,0.2l0.4,0.7l0.3,0.7l0.5,0.9
	l0.7,1.5l1.2,2.4l0.3,0.5l0.3,0.6l1.7,3.2l1.1,1.9l0.6,1.1l1.5,2.6l0.6,1.1l2.8,4.7l0.3,0.4l0.1,0.2l0.2,0.3l0.2,0.3l1.6,2.5l1,1.6
	l0.2,0.3l0.1,0.2l0.1,0.2l0.1,0.1l0.2,0.3l0,0l0.2,0.2l6.2,9.1l0.2,0.3l0.2,0.3l0.2,0.2l0.8,1.1l0.9,1.2l0.6,0.9l0.2,0.3l1.3,1.8
	l1.1,1.5l1.3,1.8l0,0l0.7,0.9l1.3,1.6l2.2,2.8l0.8,1l2.8,3.4l1,1.1l0.6,0.8l3.1,3.6l6.3,7.2l1.3,1.5l2.5,2.7l0.9,1l0.8,0.9l1.5,1.6
	l1,1.1l2.8,2.8l0.8,0.8l2.3,2.2l2.1,2l0.6,0.6l0.2,0.2l0.7,0.6l2.9,2.7l5,4.3l0.9,0.8l0,0l2.9,2.4l0.1,0.1l0.9,0.7l0.1,0.1l0.3,0.3
	l1.7,1.4l2.8,2.2l1.3,1l0.1,0.1l0.6,0.4l0.3,0.2l5.2,3.8l1.9,1.2l1.1,0.8l3.1,2l1.1,0.7l0.6,0.4l0.2,0.1l0.6,0.4l3.7,2.2l1.1,0.6
	l0.2,0.1l1.5,0.8l2.5,1.4l5.9,3.2l1.2,0.7l0.8,0.4l3,1.5l0.5,0.2l0,0l0.1,0l0.1,0.1l4.3,2l0.2,0.1l0.5,0.2l0.2,0.1l0.4,0.2l6,2.6
	l3.4,1.5l0.2,0.1l0,0l0.1,0l3.7,1.5l1,0.4l0.2,0.1l0.2,0.1l0.1,0l0.7,0.3l2,0.8l1.3,0.5l4.5,1.6l1.5,0.5l0.6,0.2l3.7,1.2l1.2,0.4
	l0.7,0.2l0.2,0.1l6.6,2l0.1,0l0.2,0l1.9,0.5l0.7,0.2l0.9,0.2l2.5,0.7l0,0l0.3,0.1l4.5,1.1l1.7,0.4l0,0l1.6,0.3l1.7,0.4l2.6,0.5
	l0.1,0l0.3,0.1l0.4,0.1l0.3,0.1l2.4,0.4l3.3,0.6l0.5,0.1l0.6,0.1l2.8,0.4l0.4,0.1l0.4,0.1l0.1,0l6.6,0.8l0.3,0l0.3,0l0.5,0.1l5,0.5
	l0.7,0.1l0.3,0l0,0l0.1,0l5,0.3l1,0.1l0.6,0l0.5,0l9.4,0.1l2,0l0.4,0l0.7,0l1,0l1.1,0l4.5-0.2l0.7,0l0.7,0l0.5,0l2.6-0.2l2.1-0.1
	l0.5,0l3.9-0.3l1.4-0.1l0.1,0l0.9-0.1l3.1-0.3l0,0l0.1,0l0,0l0.1,0l5.7-0.8l0.1,0l0.4,0l0.4-0.1l0.1,0l0,0l1.6-0.3l5.3-0.9l1.5-0.2
	l0.3-0.1l0.2,0l0.4-0.1l1.3-0.3l2.6-0.6l2.5-0.5l1.4-0.3l1.1-0.3l3.9-1l1.6-0.4l0.1,0l0.7-0.2l0.2,0l2.6-0.7l2.2-0.6l2.5-0.7
	l3.7-1.2l0.6-0.2l2.4-0.8l1.4-0.5l2.9-1l4.3-1.6l0.5-0.2l0.8-0.3l1.1-0.4l0.9-0.3l0.5-0.2l0.5-0.2l0.8-0.3l0.7-0.3l6.2-2.6l5-2.1
	l0.6-0.3l1-0.5l0.7-0.3l4.2-2l2.9-1.4l0.7-0.3l0,0l0.2-0.1l0.1-0.1l0.4-0.2l1.3-0.7l3.8-2l0.4-0.2l1-0.6l0.8-0.4l2.8-1.5l0.7-0.4
	l3.4-2l3.6-2.2l1.1-0.7l0.1-0.1l2.9-2l3.6-2.4l0.7-0.5l1.2-0.9l3-2.2l0.6-0.4l4.6-3.6l0.7-0.5l0.4-0.3l1.5-1.2l3.7-3.1l0.6-0.5
	l0.1-0.1l0.8-0.7l0.9-0.8l4.2-3.7l0.5-0.5l4.5-4.2l0.2-0.2l0.1-0.1l0.2-0.2l0.6-0.6l4.8-4.8l0.9-0.9l3.5-3.8l0.3-0.3l0.7-0.7
	l7.7-8.8l1.5-1.8l3-3.5l2.6-3.1l0.8-0.9l2.7-3.3l0.9-1.2l0.2-0.3l0.2-0.2l4.8-6.4l0.1-0.1l0.6-0.8l2.5-3.5l0.2-0.4l0.6-0.9l0-0.1
	l0.2-0.2l0.1-0.1l0.3-0.5l0,0l0-0.1l0.2-0.3l0-0.1l5.6-8.3l0.1-0.1l0.1-0.1l0.2-0.3l0.2-0.3l0.5-0.7l0.5-0.9l0.5-0.7l0.9-1.5
	l0.3-0.5l2.3-3.7l0,0l2.7-4.7l0.2-0.4l0,0l0.2-0.4l0,0l2.1-3.8l0.2-0.4l0,0l0.2-0.4l0.4-0.7l0.5-1l2.4-4.5l0.3-0.6l0.1-0.3l0.1-0.3
	l1.9-4.3l0.3-0.7l0.1-0.3l1-2.5l0.1-0.3l0,0l0,0l0-0.1l0.1-0.3l0,0l0.1-0.2l0-0.1l0.5-1.5l0.6-1.7l0.3-0.9l0.1-0.2l1.4-4.3l0.6-1.8
	l0.1-0.3l0.1-0.4l1-3.6l0.1-0.4l0-0.1l0-0.1l0.2-0.6l0.1-0.2l0.1-0.2l0.8-3.1l0.1-0.3l0.1-0.4l1-5l0.1-0.4l0.1-0.4l0.2-1.4l0.5-3.1
	l0.1-0.6l0-0.3l0-0.2l0.3-2.3l0.3-1.8l0.3-2.6l0.1-1.1l0-0.1l0.3-3.2l0.1-0.7l0.3-3.2l0.1-1l0.1-0.6l0.2-2.9l0-0.4l0.1-2.2l0.1-2.5
	l0-1.4l0-5.4l0-0.3l0-0.4l0-1.1l0-0.6l-0.1-1.3l-0.1-1.4l-0.3-7l-0.1-0.8l0-0.1l-0.6-7.3l-0.2-1.8l-0.3-2.9l-0.3-3.1l-0.1-0.7
	l-1-8.3l-0.1-0.5l-0.2-1.4l-0.1-0.7l-0.2-1.4l-1.1-8l-0.2-1.7l-0.6-3.7l0-0.2l-0.4-2.1l-0.8-4.3l-0.8-4.8l-0.1-0.7l-1.3-6.5
	l-0.1-0.3l-0.4-2.1l-0.1-0.7l-1.6-7.9l-0.1-0.6l-0.1-0.4l0-0.2l-1.3-5.5l-0.1-0.4l0-0.2l-0.3-1.2l-0.8-3.3l-0.3-1.1l-0.8-3.2l0,0
	l-0.3-1.1l-0.4-1.6l-0.7-2.5l-0.8-2.7l-0.3-1.1l-0.4-1.5l-0.7-2.5l-0.3-1.2l-2.1-6.8l-1.9-6.2l-0.1-0.3l-0.4-1.2l-0.1-0.2l-0.2-0.7
	l-0.5-1.6l-0.3-0.8l-0.3-1l-3.8-10.8l-0.5-1.3l-0.1-0.4l-0.4-1l-0.3-1l-0.6-1.7l-0.2-0.5l-0.9-2.3l-2-5.2l-1.8-4.5l-0.2-0.4l0-0.1
	l-0.2-0.4l-0.8-2l0,0l-0.7-1.8l-0.8-1.8l-0.4-0.9l-1.6-3.7l-0.7-1.5l-0.1-0.1l-1.8-3.9l-0.8-1.7l-0.5-1l-0.9-1.9l-0.5-1l-2.2-4.5
	l-0.6-1.2l-0.1-0.2l-0.2-0.5l-1.4-2.7l-1.3-2.6l-0.5-1l-0.2-0.3l-0.1-0.1l-0.4-0.8l-1.8-3.3l-0.2-0.4l-0.1-0.2l-0.5-0.9l-0.3-0.6
	l-0.3-0.5l-0.8-1.4l-0.1-0.2l-4.8-8.5l-0.5-0.8l-0.4-0.7l-0.3-0.5l-0.2-0.3l-0.6-1l-0.3-0.5l-0.6-1l-0.8-1.3l-4.8-7.9l-0.1-0.2
	l-0.7-1.1l-0.1-0.1l-3.6-5.8l-1-1.5l-0.3-0.4l-0.3-0.4l-0.7-1l-0.3-0.4l-1.6-2.5l-3.8-5.8l-1-1.4l-3.4-4.8l-0.4-0.6l-1.1-1.6
	l-2.2-3.1l-4.8-6.8l-3.4-4.8l-3.3-4.6l-0.4-0.6l-0.5-0.8l-0.8-1.2l-0.7-1.2l-0.1-0.3l-0.6-1.2l-0.5-1.1l-0.6-1.4l-0.1-0.3l0,0l0,0
	l-0.1-0.2l-0.3-0.8l-0.1-0.2l-0.3-0.8l0-0.1l-0.3-1.2l-0.3-1.2l0-0.1l0-0.2l0-0.3l-0.1-1.3l0-0.1l0-0.4l0-0.4l0.1-1.3l0.1-0.8l0.2-1
	l0.3-0.9l0.1-0.5l0.3-0.6l0.3-0.8l0.1-0.2l0.1-0.1l0,0l0.5-0.9l0.1-0.2l0.3-0.5l0.2-0.3l0,0l0.5-0.7l0.3-0.4l0-0.1l0.3-0.4l1.1-1.2
	l0,0l0.3-0.3l0.1-0.2l0,0l0.1-0.1l0,0l0.6-0.6l0.6-0.5l0.5-0.4l0,0l0.4-0.3l0,0l0.4-0.3l0.3-0.2l0.9-0.5l0.1,0l0.2-0.1l0.5-0.2
	l0.6-0.3l0.8-0.3l0.2-0.1l0,0l0.3-0.1l0.1,0l1.8-0.5l0.7-0.2l0.1,0l0.1,0l0.4-0.1l0.4-0.1l0.6-0.1l0.6-0.1l0.4,0l0.6,0l0.4,0
	l0.8-0.1l0.1,0l0.1,0l0.2,0l0.7,0.1l0.5,0.1l0,0l0.3,0.1l0.2,0l0,0l0.3,0.1l0.5,0.2l0.5,0.2l0.8,0.2l0,0l0.6,0.3l0,0l0.3,0.1
	l0.3,0.1l0.5,0.3l0.3,0.2l0.2,0.2l0.7,0.5l0,0l0.2,0.2l0,0l0.3,0.2l0.2,0.2l0.3,0.4l0.1,0.1l0.5,0.5l0.2,0.3l0.6,0.8l0.1,0.1l0,0
	l0.1,0.1l0.1,0.1l0,0l0.2,0.3l0.9,1.5l0.2,0.4l0.2,0.3l0.2,0.4l0.1,0.1l0,0l0,0l0.2,0.7l0.1,0.3l0.1,0.2l0.1,0.5l0,0.3l0,0l0,0.1
	l0,0.4l-0.2,0.2l0,0l0,0.1l0,0l-0.3,0.2l-1.7,1.3l-1.1,0.8l-0.6,0.4l0,0l-0.5,0.4l-0.2,0.1l-0.1,0.1l0,0l-0.2,0.1l-0.2,0l0,0l0,0
	l-0.4-0.1l-0.2,0l-0.3-0.1l0,0l-0.2-0.1l-0.2-0.1l-0.3-0.1l-1.1-0.7l-1.2-0.8l-0.4-0.2l-0.9-0.5L483,146l0,0l-0.1,0l0,0l0,0
	l-0.9-0.4l-0.2-0.1l-0.2-0.1l-0.3-0.1l-0.4-0.1l0,0l-0.4-0.1l-0.3,0l-0.4,0l0,0l-0.8,0.1l-0.2,0l-0.3,0l-0.1,0l-0.1,0.1l-0.5,0.2
	l-0.3,0.1l-0.1,0l0,0l-0.2,0.1l-1.3,1l0,0l0,0l0,0l-0.9,1.1l0,0l0,0l-0.2,0.3l-0.2,0.4l-0.3,0.8l0,0.2l-0.1,0.6l0,0.1l0,0.6l0,0.1
	l0,0l0,0.2l0,0.1l0,0.1l0.1,0.7l0.3,0.9l0,0l0.2,0.4l0.2,0.3l0,0l0.1,0.1L475,154.3l-0.3-0.5l2.8,1.3"/>
<path class="st0" d="M327.2,637.2l-29.7-0.1l-3.5-4.9l-7.4-10.5l-9.8-14.7l-3.9-6.2l-5.7-9.5l-10.1-17.8l-0.9,0.4l-10.9-23.5
	l-7.5-16.6l-5.4-13L231,517l-6.7-18.2l-2.9-8.7l-3.4-10.7l-4-13.9l-2.3-8.9l-1.5-6.1l-2.3-10.4l-3.7-18.5l-1.2-6.8l-1.7-11l-2-14.2
	l-1.2-10.6l-1-10.5l-0.9-12.9l-0.3-7.1l-0.2-6.6l-0.1-8l0.1-7.4l0.3-10.5l0.5-10l1.6-23.9l0.9-4l32.6-64.6l0-0.5l-0.3-0.7l0.1,0.3
	l0,0l-0.2-0.1l0,0l0-0.1l0,0l0,0l0,0l0-0.1l0,0l0-0.1l-0.1-0.1l-0.1-0.2l-0.2-0.1l-0.2-0.1l0,0l-0.1,0l-0.1,0l-0.3,0l-0.1,0l0,0
	l-0.1,0l-0.1,0.1l-0.3,0.2c-2.4,4.9-7.5,13.6-9.2,13c-2.2-0.8,0.3-12.8,3-19.9s6.6-12.2,8.8-11.4c1.5,0.5,2.1,1.8,1.3,6l1.8-1.3l0,0
	l0.7-2.5l0-0.1l0,0l0.4-1.3l0.2-0.5l-0.2,0.7l0.1-0.4l1.6-4.9l0.2-0.6l0.5-1.5l1-2.7l0.7-1.9l0.2-0.6l0.3-0.8l0.1-0.3l0.9-2.2
	l0.8-1.9l1.7-4l0.9-2.2l0.4-0.9l0.4-0.8l0.7-1.5l0.1-0.2l0.3-0.7l0.4-0.8l0,0l1.2-2.5l0.5-1l0.4-0.7l1.1-2.1l0.4-0.7l0.2-0.3
	l1.9-3.4l0.5-0.8l0.1-0.2l0.4-0.6l2.4-4.1l0.3-0.5l0.3-0.5l0.1-0.2l0.2-0.4l0.7-1l0.2-0.3l1.9-2.9l0,0l0,0l1-1.4l0.6-0.8l0.9-1.3
	l0.3-0.4l0.5-0.7l0.4-0.6l0.1-0.1l0.6-0.8l2-2.7l0.1-0.1l0.2-0.3l0,0l0.2-0.3l0,0l0,0l0.1-0.1l0,0l0.4-0.5l0.4-0.4l0.9-1.1l2.4-3
	l1.5-1.8l2-2.3l0.4-0.5l0.7-0.8l0.8-0.8l3.9-4.2l0.7-0.7l0.1-0.1l0.5-0.4l2.5-2.4l1.5-1.4l0.5-0.5l0.1-0.1l0.9-0.9l1.5-1.3l1.3-1.1
	l2.9-2.5l1.8-1.6l0.1-0.1l0.9-0.8l0.1-0.1l0.4-0.3l0.1-0.1l1.4-1.1l0.7-0.6l2.4-1.8l2-1.6l0.6-0.4l1.2-0.9l0.3-0.2l0,0l0,0l0.2-0.2
	l0.1-0.1l0.6-0.4l1.5-1l6.3-4.3l1.1-0.7l0.2-0.1l0.3-0.2l0,0l0.3-0.2l3.3-1.9l1.6-1l0.8-0.5l0.8-0.4l0,0l0.5-0.3L326,84l0.4-0.2
	l0.3-0.2l0.6-0.3l3.4-1.7l2-1l1.1-0.5l6.3-2.8l0,0l2.2-0.9l1.1-0.4l1.2-0.5l0.1,0l1.5-0.6l2.8-1l2.7-1l0.2-0.1l1-0.4l1.1-0.4
	l3.7-1.2l1.6-0.5l0.8-0.2l0.6-0.2l4.1-1.2l0,0l0.1,0l0.7-0.2l0.3-0.1l1.7-0.5l5.3-1.4l2-0.5l2.3-0.5l1.1-0.3l1-0.2l1.3-0.3l5.7-1.2
	l1.8-0.4l0.6-0.1l0.1,0l1.6-0.3l2-0.4l2.5-0.4l0.4-0.1l1.6-0.3l1-0.2l1.1-0.2l0.8-0.1l0.4-0.1l3.4-0.5l6.5-0.9l0,0l0.6-0.1l1.5-0.2
	l0.4,0l8.6-1l0,0l0.9-0.1l0.9-0.1l0.4,0l3.4-0.3l0.2,0l0.1,0l2.1-0.1l16.4-1l0.9,0l0.9,0l1.4,0l0.1,0l0.2,0l2.6-0.1l3.3-0.1l3.1-0.1
	l3.3-0.1l0,0l0.3-0.2l0.2-0.2h0.7L463,56l0.1-0.1l0.5-0.4l0.4-0.3l0,0l0.1-0.2l0,0l0,0l0,0l0.1-0.2l0-0.2l0,0l0,0l0,0l0-0.1l0-0.1
	l0,0l0-0.1l0-0.1l0,0l0,0.1l0.1,0c-5.6-0.5-9.6-2.1-9.6-3.9c0-2.3,6.3-4.1,14.2-4.1s14.2,1.8,14.2,4.1c0,1.6-3,2.9-7.4,3.6l0,0.1
	l0.1-0.1l-0.1,0.1l0,0.2l0,0.2l0,0.2v0l0,0l0,0l0,0l0.1,0.2l0,0l0,0l0,0.1l0,0l0,0l0,0l0,0l0,0l0.5,0.5l0.2,0.2l0,0l0.1,0.1l0.5,0.4
	l0.2,0.2h0.1h0.1h0h0.1l0.3,0.3l0.1,0.1l0,0l0.5,0l3.2,0l0.5,0l2,0.1l9.1,0.3l0.3,0l1.1,0l1.9,0.1l1.2,0l2.8,0.1l1.4,0.1l0,0
	l4.7,0.3l1.3,0.1l0.4,0h0l0.4,0l7.7,0.7l3.7,0.3l4.6,0.4l0,0l0.3,0l0.3,0l0.2,0l0.1,0l0,0l0.4,0l0.1,0l6,0.8l0,0l1.1,0.1l0.3,0
	l0.2,0l0.1,0l0.1,0l0,0l0.7,0.1l0.6,0.1l4.6,0.7l0.5,0.1l0,0l0.1,0l0,0l3.2,0.5l1.1,0.2l0.3,0l1.1,0.2l4.5,0.8l0.8,0.2l0.3,0
	l3.2,0.7l4.5,0.9l1,0.2l2.6,0.6l0.3,0.1l2.9,0.7l0,0l1.3,0.3l0,0l7,2l2.8,0.8l0.1,0l1.4,0.4l0,0l0,0l1.4,0.4l0,0l0.1,0l0.4,0.1
	l2.4,0.8l0.3,0.1l0.6,0.2l2,0.7l0.1,0l0,0l0,0l0.9,0.3l1.5,0.5l0.1,0l0.3,0.1l0.2,0.1l0.4,0.2l1.7,0.6l2.2,0.8l0,0l0.6,0.2l0.3,0.1
	l3.3,1.4l3.6,1.5l0,0l0.3,0.1l0,0l0.5,0.2l0.5,0.2L606,80l0.8,0.4l2.7,1.3l0.7,0.3l0.9,0.4l0.3,0.1l3.2,1.7l0.8,0.4l0.7,0.4l0.5,0.3
	l1.4,0.8l2.7,1.5l0.5,0.3l0,0l6.1,3.8l1.4,0.9l2.7,1.8l1,0.7l0.4,0.3l1.7,1.2l1.4,1l0.4,0.3l0.5,0.3l0.4,0.3l2.2,1.7l0.6,0.5l1.3,1
	l1,0.8l1.9,1.5l0.3,0.2l2.6,2.2l1,0.8l0.8,0.7l0.2,0.2l0.1,0.1l0.6,0.6l1.7,1.5l1,0.9l1.2,1.1l2.4,2.2l0,0l0.9,0.9l1.4,1.4l1,1
	l0.3,0.3l1.1,1.1l1.6,1.7l1.1,1.2l0.1,0.1l0,0l0,0l0,0l0,0.1l0.1,0.1l0.1,0.2l1.3,1.5l2,2.2l0.4,0.5l0.1,0.1l2.1,2.5l0.4,0.5
	l0.4,0.5l1.5,1.9l0.4,0.5l0.8,1l0.6,0.8l0.4,0.5l0.8,1l2.5,3.5l0.6,0.9l1.1,1.7l1,1.5l0.1,0.1l1.4,2.1l0.3,0.5l0,0.1l0.6,1l0.1,0.1
	l2,3.2l0.6,1.1l1.4,2.3l0.5,0.8l0.9,1.6l0.3,0.5l0.8,1.4l1.5,2.8l0.1,0.3l0.5,1l0.6,1.1l0.1,0.3l3.1,6.5l0.2,0.4l0.2,0.4l0.1,0.1
	l1,2.4l0.1,0.3l0.5,1.1l1.5,3.8l0.1,0.2l0.7,1.8l0,0.1l0,0l0.1,0.3l0.3,0.9l1.6,4.4l0,0.1l0.1,0.3l0,0.1l0,0l0.1,0.3l0.5,1.6
	l0.6,1.8l0,0.1l0,0l0,0.1l1.1,3.3l0,0.1l0,0.1l0.2,0.6v0c0.4-1.2,0.4-1.2,0.9-2.3c0.8-2.6,1.4-3.3,3.2-3.8c2.3-0.6,5.7,4.8,7.8,12.1
	c2,7.3,4.7,21.3,2.5,21.9c-1.6,0.4-6.6-9.7-8.4-13.6l0.4,0.3l-0.2-0.1l-0.3-0.1l-0.1,0l0,0l-0.2,0l-0.3,0.1l-0.2,0.1l-0.1,0.1l0,0
	L709,210l-0.1,0.1l-0.1,0.1l0,0l0,0l0,0l0,0l0,0l0,0l-0.2,0.3l0,0l0,0.1l0.1,0.3l-0.1-0.3l0.1,0.3l1.9,9.2l0.4,1.2l-0.4-1.2l0.4,0.8
	l30.9,58.7l0.2,3.2l1,14.6l0.7,12.4l0.5,16.8l0,8l-0.3,14.8l-0.4,7.6l-1,13.8l-1.4,14.1l-0.9,7.1l-1.1,8.3l-1.6,10.6l0.1,0l-3,16.4
	l-1.8,9.3l-1.3,5.8l-2.5,10.8l-1.2,4.9l-1.9,7.1l-2.8,10l-1.7,5.6l-1.7,5.4l-2.5,7.7l-4.4,12.4l-6.4,16.6l-5.2,12.5l-5.1,11.4
	l-3.2,6.7l-5.5,10.9l-4.4,8.1l-6.2,11.2l-6.3,10.9l-7.1,11.4l-7.3,11.2l-4.3,6.4l-7.6,10.8l-28.2-2.4l2.2-0.7l-2.2,0.7l0.1-0.1
	l-0.1,0.1l-0.3,0.4l-0.7,1.1l-1,1.4l-0.3,0.5l-0.2,0.4l-0.4,0.7l-0.5,0.8l-0.3,0.7l0,0l-0.2,0.7l-0.1,0.3l-0.1,0.2l-0.1,0.2l0,0
	l0,0.4l0,0.2l0,0.1l0,0.1l0,0.1l0,0l0,0.2l0,0.4l0.1,0.3l0.1,0.5l0.1,0.3l0,0.1l0.2,0.5l0.1,0.3l0.4,0.6l0.1,0.2l0,0l0.2,0.2
	l0.7,0.8l0.1,0.1l0,0l0,0l0.1,0l0.8,0.6l0.1,0.1l0.1,0.1l0.1,0.1l0,0l0.3,0.1l0.8,0.3l0.1,0l0,0l0.4,0l0,0l0.3,0.1l0,0l0.5,0l0.5,0
	l0.1,0l0.4-0.1l0,0l0.4-0.1l0.1,0l1.2-0.4l0.1-0.1l0.6-0.3l1.5-0.8l0.7-0.4l0.2-0.1l1.6-1l0.7-0.3l0.1,0l0,0l0,0l0,0l0,0l0,0l0.1,0
	l0.1,0l0.3,0l0.1,0l0,0l0.2,0.1l0,0l0.1,0.1l0.4,0.3l0.1,0.1l0.4,0.3l0.6,0.5l2.4,1.9l0.1,0.1l0,0l0,0l0,0l0.1,0.1l0.2,0.2l0,0
	l0.1,0.1l0.1,0.3l0,0l0,0.1l0,0.1l0,0.1l0,0.2l0,0.1l0,0.3l-0.1,0.2l0,0.1l-0.2,0.5l-0.2,0.4l-0.6,1.2l-0.3,0.5l-0.1,0.1l-0.1,0.2
	l-0.1,0.2l0,0l-0.1,0.2l-0.5,0.7l-0.2,0.3l-0.1,0.1l-0.6,0.8l0,0l-0.6,0.7l-0.2,0.2l-0.1,0.1l0,0l0,0l0,0l-0.1,0.1l-0.2,0.1
	l-0.2,0.2l-0.6,0.5l-0.3,0.2l-0.8,0.5l-0.2,0.1l-0.6,0.4l-0.1,0.1l-0.4,0.2l-0.7,0.3l-0.3,0.1l-0.4,0.2l-0.1,0l-0.1,0l-0.6,0.1
	l-0.1,0l-0.5,0.1l-0.4,0.1l-0.1,0l-1.1,0.1l-0.4,0l-0.4,0l-0.2,0l0,0l-0.3,0l-0.3,0l-1,0l-0.1,0l-0.2,0l-0.2,0l-0.1,0l-0.4-0.1
	l-0.3-0.1l-0.3-0.1l-1.7-0.3l-0.1,0l-0.8-0.2l0,0l-0.5-0.2l-0.8-0.3l-0.1,0l-0.1-0.1l0,0l-0.1,0l-0.1,0l-0.1,0l-0.5-0.3L610,656
	l-0.4-0.2l0,0l-0.1-0.1l-0.6-0.4l-0.2-0.1l-0.3-0.2l-0.4-0.3l-0.5-0.4L607,654l0,0l0,0l-0.3-0.3l-0.8-0.7l-0.1-0.1l-0.1-0.1
	l-0.1-0.1l-0.2-0.3l-0.2-0.3l-0.3-0.4l-0.3-0.4l0,0l-0.1-0.1l-0.1-0.1l-0.2-0.3l-0.6-0.9l0,0l-0.3-0.5l0,0l0,0l-0.1-0.1l-0.4-0.8
	l-0.2-0.3l-0.4-0.7l-0.1-0.3l-0.2-0.4l-0.2-0.4l0,0l0,0l-0.2-0.5L601,645l0-0.1l-0.1-0.2l-0.2-0.9l0-0.1l-0.2-1.5l0-0.2l0-0.2l0-0.9
	l0-0.3l0-0.1l0-0.1l0-0.5l0-0.4l0-0.1l0.2-1.1l0-0.1l0.1-0.6l0.5-2.1l0-0.1l0.4-1.2l0.6-1.6l0.1-0.1l0.9-1.9l0.1-0.2l0.3-0.7l0,0
	l0.1-0.2l0.7-1.1l1.1-1.8l0.4-0.7l3.3-4.6l3.2-4.5l0.3-0.4l1.6-2.2l0.5-0.7l0.5-0.6l0.1-0.2l0.4-0.5l0,0l5.1-7.1l0.3-0.4l0.2-0.3
	l0.6-0.8l0.6-0.9l2.8-4l0.4-0.6l0.5-0.7l2.2-3.4l0.4-0.6l0.1-0.1l0.6-1l0.2-0.4l2.7-4.3l2.3-3.6l0.2-0.3l0.2-0.3l0.1-0.1l1.6-2.6
	l0.2-0.4l5.3-8.7l0.8-1.4l0.5-0.9l0.3-0.6l0.2-0.3l0.2-0.3l3.1-5.3l0.6-1l2.9-5.2l0.3-0.5l0.3-0.5l0.2-0.3l0.2-0.3l0,0l0.2-0.4
	l0.9-1.7l2.5-4.7l0,0l0.1-0.2l0.1-0.2l1-1.9l0.8-1.5l0-0.1l0.6-1.3l3.9-8l0.5-1l0-0.1l0.2-0.4l0-0.1l0.6-1.2l0.9-1.8l1-2.2l0.3-0.6
	l0.2-0.4l0.3-0.7l1.1-2.5l0.4-0.8l1.2-2.7l0.1-0.3l0.8-1.8l0.3-0.6l2.2-5.4l0.3-0.8l0.6-1.5l0.8-2l0.3-0.7l0.6-1.6l1.8-4.7l0.2-0.5
	l0.4-1.1l1.2-3.4l0.2-0.4l0-0.1l0.1-0.4l0,0l2.4-6.6l0.7-1.9l0.9-2.6l2.3-6.9l0.4-1.3l1.2-3.8l1.4-4.6l0.6-1.8l0.2-0.7l0.1-0.5
	l1.2-4.3l0.3-0.9l0.9-3.2l0.1-0.3l0.3-1l0.2-0.9l0.2-1l1.2-4.7l1.5-6.1l0.1-0.3l0-0.1l0.7-3.1l0.5-2.5l0.1-0.5l0.4-2.1l0.7-3.2
	l0.2-1.1l1-5.3l1.1-5.7l0.2-0.9l0-0.1l0.2-0.9l0.5-3l0.1-0.7l0.1-0.7l0-0.1l0.2-1.4l0.9-5.4l0.8-5l0-0.3l0.2-1.1l1.3-9.1l0.2-1.4
	l0.1-0.5l1-8.3l0.2-1.4l0.2-2.1l0-0.3l0.7-7.1l0.1-0.9l0.3-4.1l0.2-2.9l0,0l0.2-2.7l0.1-0.8l0.1-1.1l0-0.9l0-2.3l0-1l0-0.1l0-1.3
	l0-2.2l0-0.4l0-3.4l0,0l0-0.6l-0.2-3.8l0,0l0-0.2l0-0.7l0-0.4l0-0.3l0-0.3l-0.1-1.9l-0.1-0.6l-0.1-0.6l-0.5-5.5l-0.1-0.5l-0.1-1.3
	l-0.3-2.9l-0.3-2.3l-0.4-3.2l-0.4-2.8L705,315l0-0.1l-0.1-0.5l-0.1-0.5l-1.5-7.3l-0.1-0.5l0-0.1l-0.8-3.1l0,0l0-0.1l-0.2-0.7
	l-0.2-0.6l-0.4-1.3l-0.6-1.9l-0.8-2.7l-0.1-0.2L700,295l-0.2-0.5l-0.1-0.4l-0.1-0.3l-1-3l-0.1-0.4l-1-2.8l-0.2-0.6l-0.9-2.3
	l-0.1-0.3l-0.1-0.3l-0.2-0.5l-0.5-1.2l-0.8-1.8l0-0.1l-0.1-0.2l-0.1-0.2l-0.4-0.7l-0.3-0.7l-0.5-0.9l-0.7-1.5l-1.2-2.4l-0.3-0.5
	l-0.3-0.6l-1.7-3.2l-1.1-1.9l-0.6-1.1l-1.5-2.6l-0.6-1.1l-2.8-4.7l-0.3-0.4l-0.1-0.2l-0.2-0.3l-0.2-0.3l-1.6-2.5l-1-1.6l-0.2-0.3
	l-0.1-0.2l-0.1-0.2l-0.1-0.1l-0.2-0.3l0,0l-0.2-0.2l-6.2-9.1l-0.2-0.3l-0.2-0.3l-0.2-0.2l-0.8-1.1l-0.9-1.2l-0.6-0.9l-0.2-0.3
	l-1.3-1.8l-1.1-1.5l-1.3-1.8l0,0l-0.7-0.9l-1.3-1.6l-2.2-2.8l-0.8-1l-2.8-3.4l-1-1.1l-0.6-0.8l-3.1-3.6l-6.3-7.2l-1.3-1.5l-2.5-2.7
	l-0.9-1l-0.8-0.9l-1.5-1.6l-1-1.1l-2.8-2.8l-0.8-0.8l-2.3-2.2l-2.1-2l-0.6-0.6l-0.2-0.2l-0.7-0.6l-2.9-2.7l-5-4.3l-0.9-0.8l0,0
	l-2.9-2.4l-0.1-0.1l-0.9-0.7l-0.1-0.1l-0.3-0.3l-1.7-1.4l-2.8-2.2l-1.3-1l-0.1-0.1l-0.6-0.4l-0.3-0.2l-5.2-3.8l-1.9-1.2l-1.1-0.8
	l-3.1-2l-1.1-0.7l-0.6-0.4l-0.2-0.1l-0.6-0.4l-3.7-2.2l-1.1-0.6l-0.2-0.1l-1.5-0.8l-2.5-1.4l-5.9-3.2l-1.2-0.7l-0.8-0.4l-3-1.5
	l-0.5-0.2l0,0l-0.1,0l-0.1-0.1l-4.3-2l-0.2-0.1l-0.5-0.2l-0.2-0.1l-0.4-0.2l-6-2.6l-3.4-1.5l-0.2-0.1l0,0l-0.1,0l-3.7-1.5l-1-0.4
	l-0.2-0.1l-0.2-0.1l-0.1,0l-0.7-0.3l-2-0.8l-1.3-0.5l-4.5-1.6l-1.5-0.5l-0.6-0.2l-3.7-1.2l-1.2-0.4l-0.7-0.2l-0.2-0.1l-6.6-2l-0.1,0
	l-0.2,0l-1.9-0.5l-0.7-0.2l-0.9-0.2l-2.5-0.7l0,0l-0.3-0.1l-4.5-1.1l-1.7-0.4l0,0l-1.6-0.3l-1.7-0.4l-2.6-0.5l-0.1,0l-0.3-0.1
	l-0.4-0.1l-0.3-0.1l-2.4-0.4l-3.3-0.6l-0.5-0.1l-0.6-0.1l-2.8-0.4l-0.4-0.1l-0.4-0.1l-0.1,0l-6.6-0.8l-0.3,0l-0.3,0l-0.5-0.1l-5-0.5
	l-0.7-0.1l-0.3,0l0,0l-0.1,0l-5-0.3l-1-0.1l-0.6,0l-0.5,0l-9.4-0.1l-2,0l-0.4,0l-0.7,0l-1,0l-1.1,0l-4.5,0.2l-0.7,0l-0.7,0l-0.5,0
	l-2.6,0.2l-2.1,0.1l-0.5,0l-3.9,0.3l-1.4,0.1l-0.1,0l-0.9,0.1l-3.1,0.3l0,0l-0.1,0l0,0l-0.1,0l-5.7,0.8l-0.1,0l-0.4,0l-0.4,0.1
	l-0.1,0l0,0l-1.6,0.3L430,134l-1.5,0.2l-0.3,0.1l-0.2,0l-0.4,0.1l-1.3,0.3l-2.6,0.6l-2.5,0.5l-1.4,0.3l-1.1,0.3l-3.9,1l-1.6,0.4
	l-0.1,0l-0.7,0.2l-0.2,0l-2.6,0.7l-2.2,0.6l-2.5,0.7l-3.7,1.2l-0.6,0.2l-2.4,0.8l-1.4,0.5l-2.9,1l-4.3,1.6l-0.5,0.2l-0.8,0.3
	l-1.1,0.4l-0.9,0.3l-0.5,0.2L385,147l-0.8,0.3l-0.7,0.3l-6.2,2.6l-5,2.1l-0.6,0.3l-1,0.5l-0.7,0.3l-4.2,2l-2.9,1.4l-0.7,0.3l0,0
	l-0.2,0.1l-0.1,0.1l-0.4,0.2l-1.3,0.7l-3.8,2l-0.4,0.2l-1,0.6l-0.8,0.4l-2.8,1.5l-0.7,0.4l-3.4,2l-3.6,2.2l-1.1,0.7l-0.1,0.1l-2.9,2
	l-3.6,2.4l-0.7,0.5l-1.2,0.9l-3,2.2l-0.6,0.4l-4.6,3.6l-0.7,0.5l-0.4,0.3l-1.5,1.2l-3.7,3.1l-0.6,0.5l-0.1,0.1l-0.8,0.7l-0.9,0.8
	l-4.2,3.7l-0.5,0.5l-4.5,4.2l-0.2,0.2l-0.1,0.1l-0.2,0.2l-0.6,0.6l-4.8,4.8l-0.9,0.9l-3.5,3.8l-0.3,0.3l-0.7,0.7l-7.7,8.8l-1.5,1.8
	l-3,3.5l-2.6,3.1l-0.8,0.9l-2.7,3.3l-0.9,1.2l-0.2,0.3l-0.2,0.2l-4.8,6.4l-0.1,0.1l-0.6,0.8l-2.5,3.5l-0.2,0.4l-0.6,0.9l0,0.1
	l-0.2,0.2l-0.1,0.1l-0.3,0.5l0,0l0,0.1l-0.2,0.3l0,0.1l-5.6,8.3l-0.1,0.1l-0.1,0.1l-0.2,0.3l-0.2,0.3l-0.5,0.7l-0.5,0.9l-0.5,0.7
	l-0.9,1.5l-0.3,0.5l-2.3,3.7l0,0l-2.7,4.7l-0.2,0.4l0,0l-0.2,0.4l0,0l-2.1,3.8l-0.2,0.4l0,0l-0.2,0.4l-0.4,0.7l-0.5,1l-2.4,4.5
	l-0.3,0.6l-0.1,0.3l-0.1,0.3l-1.9,4.3l-0.3,0.7l-0.1,0.3l-1,2.5l-0.1,0.3l0,0l0,0l0,0.1l-0.1,0.3l0,0l-0.1,0.2l0,0.1l-0.5,1.5
	l-0.6,1.7l-0.3,0.9l-0.1,0.2l-1.4,4.3l-0.6,1.8l-0.1,0.3l-0.1,0.4l-1,3.6l-0.1,0.4l0,0.1l0,0.1l-0.2,0.6l-0.1,0.2l-0.1,0.2l-0.8,3.1
	l-0.1,0.3l-0.1,0.4l-1,5l-0.1,0.4l-0.1,0.4l-0.2,1.4l-0.5,3.1l-0.1,0.6l0,0.3l0,0.2l-0.3,2.3l-0.3,1.8l-0.3,2.6l-0.1,1.1l0,0.1
	l-0.3,3.2l-0.1,0.7l-0.3,3.2l-0.1,1l-0.1,0.6l-0.2,2.9l0,0.4l-0.1,2.2l-0.1,2.5l0,1.4l0,5.4l0,0.3l0,0.4l0,1.1l0,0.6l0.1,1.3
	l0.1,1.4l0.3,7l0.1,0.8l0,0.1l0.6,7.3l0.2,1.8l0.3,2.9l0.3,3.1l0.1,0.7l1,8.3l0.1,0.5l0.2,1.4l0.1,0.7l0.2,1.4l1.1,8l0.2,1.7
	l0.6,3.7l0,0.2l0.4,2.1l0.8,4.3l0.8,4.8l0.1,0.7l1.3,6.5l0.1,0.3l0.4,2.1l0.1,0.7l1.6,7.9l0.1,0.6l0.1,0.4l0,0.2l1.3,5.5l0.1,0.4
	l0,0.2l0.3,1.2l0.8,3.3l0.3,1.1l0.8,3.2l0,0l0.3,1.1l0.4,1.6l0.7,2.5l0.8,2.7l0.3,1.1l0.4,1.5l0.7,2.5l0.3,1.2l2.1,6.8l1.9,6.2
	l0.1,0.3l0.4,1.2l0.1,0.2l0.2,0.7l0.5,1.6l0.3,0.8l0.3,1l3.8,10.8l0.5,1.3l0.1,0.4l0.4,1l0.3,1l0.6,1.7l0.2,0.5l0.9,2.3l2,5.2
	l1.8,4.5l0.2,0.4l0,0.1l0.2,0.4l0.8,2l0,0l0.7,1.8l0.8,1.8l0.4,0.9l1.6,3.7l0.7,1.5l0.1,0.1l1.8,3.9l0.8,1.7l0.5,1l0.9,1.9l0.5,1
	l2.2,4.5l0.6,1.2l0.1,0.2l0.2,0.5l1.4,2.7l1.3,2.6l0.5,1l0.2,0.3l0.1,0.1l0.4,0.8l1.8,3.3l0.2,0.4l0.1,0.2l0.5,0.9l0.3,0.6l0.3,0.5
	l0.8,1.4l0.1,0.2l4.8,8.5l0.5,0.8l0.4,0.7l0.3,0.5l0.2,0.3l0.6,1l0.3,0.5l0.6,1l0.8,1.3l4.8,7.9l0.1,0.2l0.7,1.1l0.1,0.1l3.6,5.8
	l1,1.5l0.3,0.4l0.3,0.4l0.7,1l0.3,0.4l1.6,2.5l3.8,5.8l1,1.4l3.4,4.8l0.4,0.6l1.1,1.6l2.2,3.1l4.8,6.8l3.4,4.8l3.3,4.6l0.4,0.6
	l0.5,0.8l0.8,1.2l0.7,1.2l0.1,0.3l0.6,1.2l0.5,1.1l0.6,1.4l0.1,0.3l0,0l0,0l0.1,0.2l0.3,0.8l0.1,0.2l0.3,0.8l0,0.1l0.3,1.2l0.3,1.2
	l0,0.1l0,0.2l0,0.3l0.1,1.3l0,0.1l0,0.4l0,0.4l-0.1,1.3l-0.1,0.8l-0.2,1l-0.3,0.9l-0.1,0.5l-0.3,0.6l-0.3,0.8l-0.1,0.2l-0.1,0.1l0,0
	l-0.5,0.9l-0.1,0.2l-0.3,0.5l-0.2,0.3l0,0l-0.5,0.7l-0.3,0.4l0,0.1l-0.3,0.4l-1.1,1.2l0,0l-0.3,0.3l-0.1,0.2l0,0l-0.1,0.1l0,0
	l-0.6,0.6l-0.6,0.5l-0.5,0.4l0,0l-0.4,0.3l0,0l-0.4,0.3l-0.3,0.2l-0.9,0.5l-0.1,0l-0.2,0.1l-0.5,0.2l-0.6,0.3l-0.8,0.3l-0.2,0.1l0,0
	l-0.3,0.1l-0.1,0l-1.8,0.5l-0.7,0.2l-0.1,0l-0.1,0l-0.4,0.1l-0.4,0.1L324,658l-0.6,0.1l-0.4,0l-0.6,0l-0.4,0l-0.8,0.1l-0.1,0l-0.1,0
	l-0.2,0l-0.7-0.1l-0.5-0.1l0,0l-0.3-0.1l-0.2,0l0,0l-0.3-0.1l-0.5-0.2l-0.5-0.2l-0.8-0.2l0,0l-0.6-0.3l0,0l-0.3-0.1l-0.3-0.1
	l-0.5-0.3l-0.3-0.2l-0.2-0.2l-0.7-0.5l0,0l-0.2-0.2l0,0l-0.3-0.2l-0.2-0.2l-0.3-0.4l-0.1-0.1l-0.5-0.5l-0.2-0.3l-0.6-0.8l-0.1-0.1
	l0,0l-0.1-0.1l-0.1-0.1l0,0l-0.2-0.3l-0.9-1.5L310,650l-0.2-0.3l-0.2-0.4l-0.1-0.1l0,0l0,0l-0.2-0.7l-0.1-0.3l-0.1-0.2l-0.1-0.5
	l0-0.3l0,0l0-0.1l0-0.4l0.2-0.2l0,0l0-0.1l0,0l0.3-0.2l1.7-1.3l1.1-0.8l0.6-0.4l0,0l0.5-0.3l0.2-0.1l0.1-0.1l0,0l0.2-0.1l0.2,0l0,0
	l0,0l0.4,0.1l0.2,0l0.3,0.1l0,0l0.2,0.1l0.2,0.1l0.3,0.1l1.1,0.7l1.2,0.8l0.4,0.2l0.9,0.5l0.1,0.1l0,0l0.1,0l0,0l0,0l0.9,0.4
	l0.2,0.1l0.2,0.1l0.3,0.1l0.4,0.1l0,0l0.4,0.1l0.3,0l0.4,0l0,0l0.8-0.1l0.2,0l0.3,0l0.1,0l0.1-0.1l0.5-0.2l0.3-0.1l0.1,0l0,0
	l0.2-0.1l1.3-1l0,0l0,0l0,0l0.9-1.1l0,0l0,0l0.2-0.3l0.2-0.4l0.3-0.8l0-0.2l0.1-0.6l0-0.1l0-0.6l0-0.1l0,0l0-0.2l0-0.1l0-0.1
	l-0.1-0.7l-0.3-0.9l0,0l-0.2-0.4l-0.2-0.3l0,0l-0.1-0.1L327.2,637.2l0.3,0.5l-2.8-1.3"/>
</svg>
