<?xml version="1.0" encoding="utf-8"?>
<!-- Generator: Adobe Illustrator 23.1.1, SVG Export Plug-In . SVG Version: 6.00 Build 0)  -->
<svg version="1.1" id="Layer_1" xmlns="http://www.w3.org/2000/svg" xmlns:xlink="http://www.w3.org/1999/xlink" x="0px" y="0px"
	 viewBox="0 0 1440 792" style="enable-background:new 0 0 1440 792;" xml:space="preserve">
<style type="text/css">
	.st0{fill:none;stroke:#000000;stroke-width:8.035216e-03;stroke-miterlimit:11.3386;}
</style>
<path class="st0" d="M163.7,336.7l0.1-29.7l4.9-3.5l10.5-7.4l14.7-9.8l6.2-3.9l9.5-5.7l17.8-10.1l-0.4-0.9l23.5-10.9l16.6-7.5
	l13-5.4l3.8-1.5l18.2-6.7l8.7-2.9l10.7-3.4l13.9-4l8.9-2.3l6.1-1.5l10.4-2.3l18.6-3.6l6.8-1.2l11-1.7l14.2-2l10.6-1.2l10.5-1
	l12.9-0.9l7.1-0.3l6.6-0.2l8-0.1l7.4,0.1l10.5,0.3l10,0.5l23.9,1.6l4,0.9l64.6,32.6h0.5l0.7-0.3l-0.3,0.1l0,0l0.1-0.2l0,0h0.1l0,0
	l0,0l0,0h0.1l0,0h0.1l0.1-0.1l0.2-0.1l0.1-0.2l0.1-0.2l0,0V240v-0.1v-0.3v-0.1l0,0v-0.1l-0.1-0.1L589,239c-4.9-2.4-13.6-7.5-13-9.2
	c0.8-2.2,12.8,0.3,19.9,3c7.1,2.7,12.2,6.6,11.4,8.8c-0.5,1.5-1.8,2.1-6,1.3l1.3,1.8l0,0l2.5,0.7h0.1l0,0l1.3,0.4l0.5,0.2l-0.7-0.2
	l0.4,0.1l4.9,1.6l0.6,0.2l1.5,0.5l2.7,1l1.9,0.7l0.6,0.2l0.8,0.3l0.3,0.1l2.2,0.9l1.9,0.8l4,1.7l2.2,0.9l0.9,0.4l0.8,0.4l1.5,0.7
	l0.2,0.1l0.7,0.3l0.8,0.4l0,0l2.5,1.2l1,0.5l0.7,0.4l2.1,1.1l0.7,0.4l0.3,0.2l3.4,1.9l0.8,0.5l0.2,0.1l0.6,0.4l4.1,2.4l0.5,0.3
	l0.5,0.3l0.2,0.1l0.4,0.2l1,0.7l0.3,0.2l2.9,1.9l0,0l0,0l1.4,1l0.8,0.6l1.3,0.9l0.4,0.3l0.7,0.5l0.6,0.4l0.1,0.1l0.8,0.6l2.7,2
	l0.1,0.1l0.3,0.2l0,0l0.3,0.2l0,0l0,0l0.1,0.1l0,0l0.5,0.4l0.4,0.4l1.1,0.9l3,2.4l1.8,1.5l2.3,2l0.5,0.4l0.8,0.7l0.8,0.8l4.2,3.9
	l0.7,0.7l0.1,0.1l0.4,0.5l2.4,2.5l1.4,1.5l0.5,0.5l0.1,0.1l0.9,0.9l1.3,1.5l1.1,1.3l2.5,2.9l1.6,1.8l0.1,0.1l0.8,0.9l0.1,0.1
	l0.3,0.4l0.1,0.1l1.1,1.4l0.6,0.7l1.8,2.4l1.6,2l0.4,0.6l0.9,1.2l0.2,0.3l0,0l0,0l0.2,0.2l0.1,0.1l0.4,0.6l1,1.5l4.3,6.3l0.7,1.1
	l0.1,0.2l0.2,0.3l0,0l0.2,0.3l1.9,3.3l1,1.6l0.5,0.8l0.4,0.8l0,0l0.3,0.5l1.7,3.1l0.2,0.4l0.2,0.3l0.3,0.6l1.7,3.4l1,2l0.5,1.1
	l2.8,6.3l0,0l0.9,2.2l0.4,1.1l0.5,1.2v0.1l0.6,1.5l1,2.8l1,2.7l0.1,0.2l0.4,1l0.4,1.1l1.2,3.7l0.5,1.6l0.2,0.8l0.2,0.6l1.2,4.1l0,0
	v0.1l0.2,0.7l0.1,0.3l0.5,1.7l1.4,5.3l0.5,2l0.5,2.3l0.3,1.1l0.2,1l0.3,1.3l1.2,5.7l0.4,1.8l0.1,0.6v0.1l0.3,1.6l0.4,2l0.4,2.5
	l0.1,0.4l0.3,1.6l0.2,1l0.2,1.1l0.1,0.8l0.1,0.4l0.5,3.4l0.9,6.5l0,0l0.1,0.6l0.2,1.5v0.4l1,8.6l0,0l0.1,0.9l0.1,0.9v0.4l0.3,3.4
	v0.2v0.1l0.1,2.1l1,16.4v0.9v0.9v1.4v0.1v0.2l0.1,2.6l0.1,3.3l0.1,3.1l0.1,3.3l0,0l0.2,0.3l0.2,0.2v0.7l0.1,0.1l0.1,0.1l0.4,0.5
	l0.3,0.4l0,0l0.2,0.1l0,0l0,0l0,0l0.2,0.1h0.2l0,0l0,0l0,0h0.1h0.1l0,0h0.1h0.1l0,0h-0.1v0.1c0.5-5.6,2.1-9.6,3.9-9.6
	c2.3,0,4.1,6.3,4.1,14.2s-1.8,14.2-4.1,14.2c-1.6,0-2.9-3-3.6-7.4h-0.1l0.1,0.1l-0.1-0.1h-0.2h-0.2H746l0,0l0,0l0,0l0,0l-0.2,0.1
	l0,0l0,0h-0.1l0,0l0,0l0,0l0,0l0,0l-0.5,0.5l-0.2,0.2l0,0l-0.1,0.1l-0.4,0.5l-0.2,0.2v0.1v0.1l0,0v0.1l-0.3,0.3l-0.1,0.1l0,0v0.5
	v3.2v0.5l-0.1,2l-0.3,9.1v0.3v1.1l-0.1,1.9v1.2l-0.1,2.8l-0.1,1.4l0,0l-0.3,4.7l-0.1,1.3v0.4l0,0v0.4l-0.7,7.7l-0.3,3.7l-0.4,4.6
	l0,0v0.3v0.3v0.2v0.1l0,0v0.4v0.1l-0.8,6l0,0l-0.1,1.1v0.3v0.2v0.1v0.1l0,0l-0.1,0.7l-0.1,0.6l-0.7,4.6l-0.1,0.5l0,0v0.1l0,0
	l-0.5,3.2l-0.2,1.1v0.3l-0.2,1.1l-0.8,4.5l-0.2,0.8v0.3l-0.7,3.2l-0.9,4.5l-0.2,1l-0.6,2.6l-0.1,0.3l-0.7,2.9l0,0l-0.3,1.3l0,0l-2,7
	l-0.8,2.8v0.1l-0.4,1.4l0,0l0,0l-0.4,1.4l0,0v0.1l-0.1,0.4l-0.8,2.4l-0.1,0.3l-0.2,0.6l-0.7,2v0.1l0,0l0,0l-0.3,0.9l-0.5,1.5v0.1
	l-0.1,0.3l-0.1,0.2l-0.2,0.4l-0.6,1.7l-0.8,2.2l0,0l-0.2,0.6l-0.1,0.3l-1.4,3.3l-1.5,3.6l0,0l-0.1,0.3l0,0l-0.2,0.5l-0.2,0.5
	l-1.5,3.3l-0.4,0.8l-1.3,2.7l-0.3,0.7l-0.4,0.9l-0.1,0.3l-1.7,3.2l-0.2,1l-0.4,0.7l-0.3,0.5l-0.8,1.4l-1.5,2.7l-0.3,0.5l0,0
	l-3.7,6.2l-0.9,1.4l-1.8,2.7l-0.7,1l-0.3,0.4l-1.2,1.7l-1,1.4l-0.3,0.4l-0.3,0.5l-0.3,0.4l-1.7,2.2l-0.5,0.6l-1,1.3l-0.8,1l-1.5,1.9
	l-0.2,0.3l-2.2,2.6l-0.8,1l-0.7,0.8l-0.2,0.2l-0.1,0.1l-0.6,0.6l-1.5,1.7l-0.9,1l-1.1,1.2l-2.2,2.4l0,0l-0.9,0.9l-1.3,1.3l-1,1
	l-0.3,0.3l-1.1,1.1l-1.7,1.6l-1.2,1.1l-0.1,0.1l0,0l0,0l0,0l-0.1,0.1l-0.1,0.1l-0.2,0.1l-1.5,1.3l-2.2,2l-0.5,0.4l-0.1,0.1l-2.5,2.1
	l-0.5,0.4l-0.5,0.4l-1.9,1.5l-0.5,0.4l-1,0.8l-0.8,0.6l-0.5,0.4l-1,0.8l-3.5,2.5l-0.9,0.6l-1.7,1.1l-1.5,1l-0.1,0.1l-2.1,1.4
	l-0.5,0.3h-0.1l-1,0.6l-0.1,0.1l-3.2,2l-1.1,0.6l-2.3,1.4l-0.8,0.5l-1.6,0.9l-0.5,0.3l-1.4,0.8l-2.8,1.5l-0.3,0.1l-1,0.5l-1.1,0.6
	l-0.3,0.1l-6.5,3.1l-0.4,0.2l-0.4,0.2l-0.1,0.1l-2.4,1l-0.3,0.1l-1.1,0.5l-3.8,1.5l-0.2,0.1l-1.8,0.7h-0.1l0,0l-0.3,0.1l-0.9,0.3
	l-4.4,1.6h-0.1l-0.3,0.1H614l0,0l-0.3,0.1l-1.6,0.5l-1.8,0.6h-0.1l0,0h-0.1l-3.3,1.1h-0.1h-0.1l-0.6,0.2l0,0
	c1.2,0.4,1.2,0.4,2.3,0.9c2.6,0.8,3.3,1.4,3.8,3.2c0.6,2.3-4.8,5.7-12.1,7.8c-7.3,2-21.3,4.7-21.9,2.5c-0.4-1.6,9.7-6.6,13.6-8.4
	l-0.3,0.4l0.1-0.2l0.1-0.3v-0.1l0,0v-0.2l-0.1-0.3l-0.1-0.2l-0.1-0.1l0,0l-0.1-0.1l-0.1-0.1l-0.1-0.1l0,0l0,0l0,0l0,0l0,0l0,0
	l-0.3-0.2l0,0h-0.1l-0.3,0.1l0.3-0.1l-0.3,0.1l-9.2,1.9l-1.2,0.4l1.2-0.4l-0.8,0.4l-58.7,30.9l-3.2,0.2l-15,1.2l-12.4,0.7l-16.8,0.5
	h-8l-14.8-0.2l-7.6-0.4l-13.8-1l-14.1-1.4l-7.1-0.9l-8.3-1.1l-10.6-1.6v0.1l-16.4-3l-9.3-1.8l-5.8-1.3l-10.8-2.5l-4.9-1.2l-7.1-1.9
	l-10-2.8l-5.6-1.7l-5.4-1.7l-7.7-2.5l-12.4-4.4l-16.6-6.4l-12.5-5.2l-11.4-5.1l-6.7-3.2l-10.9-5.5l-8.1-4.4l-11.2-6.2l-10.9-6.3
	l-11.4-7.1l-11.2-7.3l-6.4-4.3l-10.8-7.6l2.4-28.2l0.7,2.2l-0.7-2.2l0.1,0.1l-0.1-0.1l-0.4-0.3l-1.1-0.7l-1.4-1l-0.5-0.3l-0.4-0.2
	l-0.7-0.4l-0.8-0.5l-0.7-0.3l0,0l-0.7-0.2l-0.3-0.1l-0.2-0.1l-0.2-0.1l0,0H161h-0.2h-0.1h-0.1h-0.1l0,0h-0.2h-0.4l-0.3,0.1l-0.5,0.1
	l-0.3,0.1h-0.1l-0.5,0.2l-0.3,0.1l-0.6,0.4l-0.2,0.1l0,0l-0.2,0.2l-0.8,0.7l-0.1,0.1l0,0l0,0v0.1l-0.6,0.8l-0.1,0.1l-0.1,0.1
	l-0.1,0.1l0,0l-0.1,0.3l-0.3,0.8v0.1l0,0v0.4l0,0l-0.1,0.3l0,0v0.5v0.5v0.1l0.1,0.4l0,0l0.1,0.4v0.1l0.4,1.2l0.1,0.1l0.3,0.6
	l0.8,1.5l0.4,0.7l0.1,0.2l1,1.6l0.3,0.7v0.1l0,0l0,0l0,0l0,0l0,0v0.1v0.1v0.3v0.1l0,0l-0.1,0.2l0,0l-0.1,0.1l-0.3,0.4l-0.1,0.1
	l-0.3,0.4l-0.5,0.6l-1.9,2.4l-0.1,0.1l0,0l0,0l0,0l-0.1,0.1l-0.2,0.2l0,0l-0.1,0.1l-0.3,0.1l0,0H154h-0.1h-0.1h-0.2h-0.1h-0.3
	l-0.2-0.1h-0.1l-0.5-0.2l-0.4-0.2l-1.2-0.6l-0.5-0.3l-0.1-0.1l-0.2-0.1l-0.2-0.1l0,0l-0.2-0.1l-0.7-0.5l-0.3-0.2l-0.1-0.1l-0.8-0.6
	l0,0l-0.7-0.6l-0.2-0.2l-0.1-0.1l0,0l0,0l0,0l-0.1-0.1l-0.1-0.2l-0.2-0.2l-0.5-0.6l-0.2-0.3l-0.5-0.8l-0.1-0.2l-0.4-0.6l-0.1-0.1
	l-0.2-0.4l-0.3-0.7l-0.1-0.3l-0.2-0.4v-0.1v-0.1l-0.1-0.6V631l-0.1-0.5l-0.1-0.4V630l-0.1-1.1v-0.4v-0.4v-0.2l0,0v-0.3v-0.3v-1v-0.1
	V626v-0.2v-0.1l0.1-0.4l0.1-0.3l0.1-0.3l0.3-1.7v-0.1l0.2-0.8l0,0l0.2-0.5l0.3-0.8v-0.1l0.1-0.1l0,0l0.1-0.1v-0.1v-0.1l0.3-0.5
	l0.1-0.2l0.2-0.4l0,0l0.1-0.1l0.4-0.6l0.1-0.2l0.2-0.3l0.3-0.4l0.4-0.5l0.4-0.5l0,0l0,0l0.3-0.3l0.7-0.8l0.1-0.1l0.1-0.1l0.1-0.1
	l0.3-0.2l0.3-0.2l0.4-0.3l0.4-0.3l0,0l0.1-0.1l0.1-0.1l0.3-0.2l0.9-0.6l0,0l0.5-0.3l0,0l0,0l0.1-0.1l0.8-0.4l0.3-0.2l0.7-0.4
	l0.3-0.1l0.4-0.2l0.4-0.2l0,0l0,0l0.5-0.2l0.8-0.2h0.1l0.2-0.1l0.9-0.2h0.1l1.5-0.2h0.2h0.2h0.9h0.3h0.1h0.1h0.5h0.4h0.1l1.1,0.2
	h0.1l0.6,0.1l2.1,0.5h0.1l1.2,0.4l1.6,0.6l0.1,0.1l1.9,0.9l0.2,0.1l0.7,0.3l0,0l0.2,0.1l1.1,0.7l1.8,1.1l0.7,0.4l4.6,3.3l4.5,3.2
	l0.4,0.3l2.2,1.6l0.7,0.5l0.6,0.5l0.2,0.1l0.5,0.4l0,0l7.1,5.1l0.4,0.3l0.3,0.2l0.8,0.6l0.9,0.6l4,2.8l0.6,0.4l0.7,0.5l3.4,2.2
	l0.6,0.4l0.1,0.1l1,0.6l0.4,0.2l4.3,2.7l3.6,2.3l0.3,0.2l0.3,0.2l0.1,0.1l2.6,1.6l0.4,0.2l8.7,5.3l1.4,0.8l0.9,0.5l0.5,0l0.3,0.2
	l0.3,0.2l5.3,3.1l1,0.6l5.2,2.9l0.5,0.3l0.5,0.3l0.3,0.2l0.3,0.2l0,0l0.4,0.2l1.7,0.9l4.7,2.5l0,0l0.2,0.1l0.2,0.1l1.9,1l1.5,0.8
	h0.1l1.3,0.6l8,3.9l1,0.5h0.1l0.4,0.2h0.1l1.2,0.6l1.8,0.9l2.2,1l0.6,0.3l0.4,0.2l0.7,0.3l2.5,1.1l0.8,0.4l2.7,1.2l0.3,0.1l1.8,0.8
	l0.6,0.3l5.4,2.2l0.8,0.3l1.5,0.6l2,0.8l0.7,0.3l1.6,0.6l4.7,1.8l0.5,0.2l1.1,0.4l3.4,1.2l0.4,0.2h0.1l0.4,0.1l0,0l6.6,2.4l1.9,0.7
	l2.6,0.9l6.9,2.3l1.3,0.4l3.8,1.2l4.6,1.4l1.8,0.6l0.7,0.2l0.5,0.1l4.3,1.2l0.9,0.3l3.2,0.9l0.3,0.1l1,0.3l0.9,0.2l1,0.2l4.7,1.2
	l6.1,1.5l0.3,0.1h0.1l3.1,0.7l2.5,0.5l0.5,0.1l2.1,0.4l3.2,0.7l1.1,0.2l5.3,1l5.7,1.1l0.9,0.2h0.1l0.9,0.2l3,0.5l0.7,0.1l0.7,0.1
	h0.1l1.4,0.2l5.4,0.9l5,0.8h0.3l1.1,0.2l9.1,1.3l1.4,0.2l0.5,0.1l8.3,1l1.4,0.2l2.1,0.2h0.3l7.1,0.7l0.9,0.1l4.1,0.3l2.9,0.2l0,0
	l2.7,0.2l0.8,0.1l1.1,0.1h0.9h2.3h1h0.1h1.3h2.2h0.4h3.4l0,0h0.6l3.8-0.2l0,0h0.2h0.7h0.4h0.3h0.3l1.9-0.1l0.6-0.1l0.6-0.1l5.5-0.5
	l0.5-0.1l1.3-0.1l2.9-0.3l2.3-0.3l3.2-0.4l2.8-0.4l0.7-0.1h0.1l0.5-0.1l0.5-0.1l7.9-1.6l0.5-0.1h0.1l3.1-0.8l0,0h0.1l0.7-0.2
	l0.6-0.2l1.3-0.4l1.9-0.6l2.7-0.8l0.2-0.1l0.3-0.1l0.5-0.2l0.4-0.1l0.3-0.1l3-1l0.4-0.1l2.8-1l0.6-0.2l2.3-0.9l0.3-0.1l0.3-0.1
	l0.5-0.2l1.2-0.5l1.8-0.8h0.1l0.2-0.1l0.2-0.1l0.7-0.4l0.7-0.3l0.9-0.5l1.5-0.7l2.4-1.2l0.5-0.3l0.6-0.3l3.2-1.7l1.9-1.1l1.1-0.6
	l2.6-1.5l1.1-0.6l4.7-2.8l0.4-0.3l0.2-0.1l0.3-0.2l0.3-0.2l2.5-1.6l1.6-1l0.3-0.2l0.2-0.1l0.2-0.1l0.1-0.1l0.3-0.2l0,0l0.2-0.2
	l9.1-6.2l0.3-0.2l0.3-0.2l0.2-0.2l1.1-0.8l1.2-0.9l0.9-0.6l0.3-0.2l1.8-1.3l1.5-1.1l1.8-1.3l0,0l0.9-0.7l1.6-1.3l2.8-2.2l1-0.8
	l3.4-2.8l1.1-1l0.8-0.6l3.6-3.1l7.2-6.3l1.5-1.3l2.7-2.5l1-0.9l0.9-0.8l1.6-1.5l1.1-1l2.8-2.8l0.8-0.8l2.2-2.3l2-2.1l0.6-0.6
	l0.2-0.2l0.6-0.7l2.7-2.9l4.3-5l0.8-0.9l0,0l2.4-2.9l0.1-0.1l0.7-0.9l0.1-0.1l0.3-0.3l1.4-1.7l2.2-2.8l1-1.3l0.1-0.1l0.4-0.6
	l0.2-0.3l3.8-5.2l1.2-1.9l0.8-1.1l2-3.1l0.7-1.1l0.4-0.6l0.1-0.2l0.4-0.6l2.2-3.7l0.6-1.1l0.1-0.2l0.8-1.5l1.4-2.5l3.2-5.9l0.7-1.2
	l0.4-0.8l1.5-3l0.2-0.5l0,0v-0.1l0.1-0.1l2-4.3l0.1-0.2l0.2-0.5l0.1-0.2l0.2-0.4l2.6-6l1.5-3.4l0.1-0.2l0,0v-0.1l1.5-3.7l0.4-1
	l0.1-0.2l0.1-0.2v-0.1l0.3-0.7l0.8-2l0.5-1.3l1.6-4.5l0.5-1.5l0.2-0.6l1.2-3.7l0.4-1.2l0.2-0.7l0.1-0.2l2-6.6v-0.1v-0.2l0.5-1.9
	l0.2-0.7l0.2-0.9l0.7-2.5l0,0l0.1-0.3l1.1-4.5l0.4-1.7l0,0l0.3-1.6l0.4-1.7l0.5-2.6v-0.1l0.1-0.3l0.1-0.4l0.1-0.3l0.4-2.4l0.6-3.3
	l0.1-0.5l0.1-0.6l0.4-2.8l0.1-0.4l0.1-0.4v-0.1l0.8-6.6v-0.3V503l0.1-0.5l0.5-5l0.1-0.7v-0.3l0,0v-0.1l0.3-5l0.1-1v-0.6v-0.5
	l0.1-9.4v-2v-0.4v-0.7v-1v-1.1l-0.2-4.5v-0.7v-0.7v-0.5l-0.2-2.6l-0.1-2.1v-0.5l-0.3-3.9l-0.1-1.4v-0.1l-0.1-0.9l-0.3-3.1l0,0v-0.1
	l0,0v-0.1l-0.8-5.7v-0.1v-0.4l-0.1-0.4v-0.1l0,0l-0.3-1.6l-0.9-5.3l-0.2-1.5l-0.1-0.3v-0.2l-0.1-0.4l-0.3-1.3l-0.6-2.6l-0.5-2.5
	l-0.3-1.4l-0.3-1.1l-1-3.9l-0.4-1.6V423l-0.2-0.7v-0.2l-0.7-2.6l-0.6-2.2l-0.7-2.5l-1.2-3.7l-0.2-0.6l-0.8-2.4l-0.5-1.4l-1-2.9
	l-1.6-4.3l-0.2-0.5l-0.3-0.8l-0.4-1.1l-0.3-0.9l-0.2-0.5l-0.2-0.5l-0.3-0.8l-0.3-0.7l-2.6-6.2l-2.1-5l-0.3-0.6l-0.5-1l-0.3-0.7
	l-2-4.2l-1.4-2.9l-0.3-0.7l0,0l-0.1-0.2l-0.1-0.1l-0.2-0.4l-0.7-1.3l-2-3.8l-0.2-0.4l-0.6-1l-0.4-0.8l-1.5-2.8l-0.4-0.7l-2-3.4
	l-2.2-3.6l-0.7-1.1l-0.1-0.1l-2-2.9l-2.4-3.6l-0.5-0.7l-0.9-1.2l-2.2-3l-0.4-0.6l-3.6-4.6l-0.5-0.7l-0.3-0.4l-1.2-1.5l-3.1-3.7
	l-0.5-0.6l-0.1-0.1l-0.7-0.8l-0.8-0.9l-3.7-4.2l-0.5-0.5l-4.2-4.5l-0.2-0.2l-0.1-0.1l-0.2-0.2l-0.6-0.6l-4.8-4.8l-0.9-0.9l-3.8-3.5
	l-0.3-0.3l-0.7-0.7l-8.8-7.7l-1.8-1.5l-3.5-3l-3.1-2.6l-0.9-0.8l-3.3-2.7l-1.2-0.9l-0.3-0.2l-0.2-0.2l-6.4-4.8l-0.1-0.1l-0.8-0.6
	l-3.5-2.5l-0.4-0.2l-0.9-0.6h-0.1l-0.2-0.2l-0.1-0.1l-0.5-0.3l0,0h-0.1l-0.3-0.2h-0.1l-8.3-5.6l-0.1-0.1l-0.1-0.1l-0.3-0.2l-0.3-0.2
	l-0.7-0.5l-0.9-0.5l-0.7-0.5l-1.5-0.9l-0.5-0.3l-3.7-2.3l0,0l-4.7-2.7l-0.4-0.2l0,0l-0.4-0.2l0,0l-3.8-2.1l-0.4-0.2l0,0l-0.4-0.2
	l-0.7-0.4l-1-0.5l-4.5-2.4l-0.6-0.3l-0.3-0.1l-0.3-0.1l-4.3-1.9l-0.7-0.3l-0.3-0.1l-2.5-1l-0.3-0.1l0,0l0,0h-0.1l-0.3-0.1l0,0
	l-0.2-0.1h-0.1l-1.5-0.5l-1.7-0.6l-0.9-0.3l-0.2-0.1l-4.3-1.4l-1.8-0.6l-0.3-0.1l-0.4-0.1l-3.6-1l-0.4-0.1h-0.1h-0.1l-0.6-0.2
	l-0.2-0.1l-0.2-0.1l-3.1-0.8l-0.3-0.1l-0.4-0.1l-5-1l-0.4-0.1l-0.4-0.1l-1.4-0.2l-3.1-0.5l-0.6-0.1h-0.3h-0.2l-2.3-0.3l-1.8-0.3
	l-2.6-0.3l-1.1-0.1h-0.1l-3.2-0.3l-0.7-0.1l-3.2-0.3l-1-0.1l-0.6-0.1l-2.9-0.2h-0.4l-2.2-0.1l-2.5-0.1h-1.4H451h-0.3h-0.4h-1.1h-0.6
	l-1.3,0.1l-1.4,0.1l-7,0.3l-0.8,0.1H438l-7.3,0.6l-1.8,0.2l-2.9,0.3l-3.1,0.3l-0.7,0.1l-8.3,1l-0.5,0.1l-1.4,0.2l-0.7,0.1l-1.4,0.2
	l-8,1.1l-1.7,0.2l-3.7,0.6h-0.2l-2.1,0.4l-4.3,0.8l-4.8,0.8l-0.7,0.1l-6.5,1.3l-0.3,0.1l-2.1,0.4l-0.7,0.1l-7.9,1.6l-0.6,0.1
	l-0.4,0.1h-0.2l-5.5,1.3l-0.4,0.1h-0.2l-1.2,0.3l-3.3,0.8l-1.1,0.3l-3.2,0.8l0,0l-1.1,0.3l-1.6,0.4l-2.5,0.7l-2.7,0.8l-1.1,0.3
	l-1.5,0.4l-2.5,0.7l-1.2,0.3l-6.8,2.1l-6.2,1.9l-0.3,0.1l-1.2,0.4l-0.2,0.1l-0.7,0.2l-1.6,0.5l-0.8,0.3l-1,0.3l-10.8,3.8l-1.3,0.5
	l-0.4,0.1l-1,0.4l-1,0.3l-1.7,0.6l-0.5,0.2l-2.3,0.9l-5.2,2l-4.5,1.8l-0.4,0.2h-0.1l-0.4,0.2l-2,0.8l0,0l-1.8,0.7l-1.8,0.8l-0.9,0.4
	l-3.7,1.6l-1.5,0.7l-0.1,0.1l-3.9,1.8l-1.7,0.8l-1,0.5l-1.9,0.9l-1,0.5l-4.5,2.2l-1.2,0.6l-0.2,0.1l-0.5,0.2l-2.7,1.4l-2.6,1.3
	l-1,0.5l-0.3,0.2l-0.1,0.1l-0.8,0.4l-3.3,1.8l-0.4,0.2l-0.2,0.1l-0.9,0.5l-0.6,0.3l-0.5,0.3l-1.4,0.8l-0.2,0.1l-8.5,4.8l-0.8,0.5
	l-0.7,0.4l-0.5,0.3l-0.3,0.2l-1,0.6l-0.5,0.3l-1,0.6l-1.3,0.8l-7.9,4.8l-0.2,0.1l-1.1,0.7l-0.1,0.1l-5.8,3.6l-1.5,1l-0.4,0.3
	l-0.4,0.3l-1,0.7l-0.4,0.3l-2.5,1.6l-5.8,3.8l-1.4,1l-4.8,3.4l-0.6,0.4l-1.6,1.1l-3.1,2.2l-6.8,4.8l-4.8,3.4l-4.6,3.3l-0.6,0.4
	l-0.8,0.5l-1.2,0.8l-1.2,0.7l-0.3,0.1l-1.2,0.6l-1.1,0.5l-1.4,0.6l-0.3,0.1l0,0l0,0l-0.2,0.1l-0.8,0.3l-0.2,0.1L166,350h-0.1
	l-1.2,0.3l-1.2,0.3h-0.1h-0.2h-0.3l-1.3,0.1h-0.1h-0.4h-0.4l-1.3-0.1l-0.8-0.1l-1-0.2l-0.9-0.3l-0.5-0.1l-0.6-0.3l-0.8-0.3l-0.2-0.1
	l-0.1-0.1l0,0l-0.9-0.5l-0.2-0.1l-0.5-0.3l-0.3-0.2l0,0l-0.7-0.5l-0.4-0.3h-0.1l-0.4-0.3l-1.2-1.1l0,0l-0.3-0.3l-0.2-0.1l0,0
	l-0.1-0.1l0,0l-0.6-0.6l-0.5-0.6l-0.4-0.5l0,0l-0.3-0.4l0,0l-0.3-0.4l-0.2-0.3l-0.5-0.9v-0.1l-0.1-0.2l-0.2-0.5l-0.3-0.6l-0.3-0.8
	l-0.1-0.2l0,0l-0.1-0.3v-0.1l-0.5-1.8l-0.2-0.7v-0.1v-0.1l-0.1-0.4l-0.1-0.4l-0.1-0.6l-0.1-0.6v-0.4v-0.6v-0.4l-0.1-0.8v-0.1v-0.1
	v-0.2l0.1-0.7l0.1-0.5l0,0l0.1-0.3v-0.2l0,0l0.1-0.3l0.2-0.5l0.2-0.5l0.2-0.8l0,0l0.3-0.6l0,0l0.1-0.3l0.1-0.3l0.3-0.5l0.2-0.3
	l0.2-0.2l0.5-0.7l0,0l0.2-0.2l0,0l0.2-0.3l0.2-0.2l0.4-0.3l0.1-0.1l0.5-0.5l0.3-0.2l0.8-0.6l0.1-0.1l0,0l0.1-0.1l0.1-0.1l0,0
	l0.3-0.2l1.5-0.9l0.4-0.2l0.3-0.2l0.4-0.2l0.1-0.1l0,0l0,0l0.7-0.2l0.3-0.1l0.2-0.1l0.5-0.1h0.3l0,0h0.1h0.4l0.2,0.2l0,0h0.1l0,0
	l0.2,0.3l1.3,1.7l0.8,1.1l0.4,0.6l0,0l0.4,0.5l0.1,0.2l0.1,0.1l0,0l0.1,0.2v0.2l0,0l0,0l-0.1,0.4v0.2l-0.1,0.3l0,0l-0.1,0.2
	l-0.1,0.2l-0.1,0.3l-0.7,1.1l-0.8,1.2l-0.2,0.4l-0.5,0.9l-0.9-1.4l0,0v0.1l0,0l0,0l-0.4,0.9l-0.1,0.2l-0.1,0.2l-0.1,0.3l-0.1,0.4
	l0,0l-0.1,0.4v0.3v0.4l0,0l0.1,0.8v0.2v0.3v0.1l0.1,0.1l0.2,0.5l0.1,0.3v0.1l0,0l0.1,0.2l1,1.3l0,0l0,0l0,0l1.1,0.9l0,0l0,0l0.3,0.2
	l0.4,0.2l0.8,0.3h0.2l0.6,0.1h0.1h0.6h0.1l0,0h0.2h0.1h0.1l0.7-0.1l0.9-0.3l0,0l0.4-0.2l0.3-0.2l0,0l0.1-0.1L163.7,336.7l-0.5,0.3
	l1.3-2.8"/>
<path class="st0" d="M646.6,511.5l-0.1,29.7l-4.9,3.5l-10.5,7.4l-14.7,9.8l-6.2,3.9l-9.5,5.7l-17.8,10.1l0.4,0.9l-23.5,10.9
	l-16.6,7.5l-13,5.4l-3.8,1.4l-18.2,6.7l-8.7,2.9l-10.7,3.4l-13.9,4L466,627l-6.1,1.5l-10.4,2.3l-18.5,3.7l-6.8,1.2l-11,1.7l-14.2,2
	l-10.6,1.2l-10.5,1l-12.9,0.9l-7.1,0.3l-6.6,0.2l-8,0.1l-7.4-0.1l-10.5-0.3l-10-0.5l-23.9-1.6l-4-0.9l-64.6-32.6h-0.5l-0.7,0.3
	l0.3-0.1l0,0l-0.1,0.2l0,0h-0.1l0,0l0,0l0,0h-0.1l0,0h-0.1l-0.1,0.1l-0.2,0.1l-0.1,0.2l-0.1,0.2l0,0v0.1v0.1v0.3v0.1l0,0v0.1
	l0.1,0.1l0.2,0.3c4.9,2.4,13.6,7.5,13,9.2c-0.8,2.2-12.8-0.3-19.9-3c-7.1-2.7-12.2-6.6-11.4-8.8c0.5-1.5,1.8-2.1,6-1.3l-1.3-1.8l0,0
	l-2.5-0.7h-0.1l0,0l-1.3-0.4l-0.5-0.2l0.7,0.2l-0.4-0.1l-4.9-1.6l-0.6-0.2l-1.5-0.5l-2.7-1l-1.9-0.7l-0.6-0.2l-0.8-0.3l-0.3-0.1
	l-2.2-0.9l-1.9-0.8l-4-1.7l-2.2-0.9l-0.9-0.4l-0.8-0.4l-1.5-0.7l-0.2-0.1l-0.7-0.3l-0.8-0.4l0,0l-2.5-1.2l-1-0.5L171,589l-2.1-1.1
	l-0.7-0.4l-0.3-0.2l-3.4-1.9l-0.8-0.5l-0.2-0.1l-0.6-0.4l-4.1-2.4l-0.5-0.3l-0.5-0.3l-0.2-0.1l-0.4-0.2l-1-0.7l-0.3-0.2l-2.9-1.9
	l0,0l0,0l-1.4-1l-0.8-0.6l-1.3-0.9l-0.4-0.3l-0.7-0.5l-0.6-0.4l-0.1-0.1l-0.8-0.6l-2.7-2l-0.1-0.1l-0.3-0.2l0,0l-0.3-0.2l0,0l0,0
	l-0.1-0.1l0,0l-0.5-0.4l-0.4-0.4l-1.1-0.9l-3-2.4l-1.8-1.5l-2.3-2l-0.5-0.4l-0.8-0.7l-0.8-0.8l-4.2-3.9l-0.7-0.7l-0.1-0.1l-0.4-0.5
	l-2.4-2.5l-1.4-1.5l-0.5-0.5l-0.1-0.1l-0.9-0.9l-1.3-1.5l-1.1-1.3l-2.5-2.9l-1.6-1.8l-0.1-0.1l-0.8-0.9l-0.1-0.1l-0.3-0.4l-0.1-0.1
	l-1.1-1.4l-0.6-0.7l-1.8-2.4l-1.6-2l-0.4-0.6l-0.9-1.2l-0.2-0.3l0,0l0,0l-0.2-0.2l-0.1-0.1l-0.4-0.6l-1-1.5l-4.3-6.3l-0.7-1.1
	l-0.1-0.2l-0.2-0.3l0,0l-0.2-0.3l-1.9-3.3l-1-1.6l-0.5-0.8l-0.4-0.8l0,0l-0.3-0.5l-2.3-3.1l-0.2-0.4L93,512l-0.3-0.6L91,508l-1-2
	l-0.5-1.1l-2.8-6.3l0,0l-0.9-2.2l-0.4-1.1l-0.5-1.2V494l-0.6-1.5l-1-2.8l-1-2.7l-0.1-0.2l-0.4-1l-0.4-1.1l-1.2-3.7l-0.5-1.6
	l-0.2-0.8l-0.2-0.6l-1.2-4.1l0,0v-0.1l-0.2-0.7l-0.1-0.3l-0.5-1.7l-1.4-5.3l-0.5-2l-0.5-2.3l-0.3-1.1l-0.2-1l-0.3-1.3l-1.2-5.7
	l-0.4-1.8l-0.1-0.6v-0.1l-0.3-1.6l-0.4-2l-0.4-2.5l-0.1-0.4l-0.3-1.6l-0.2-1l-0.2-1.1l-0.1-0.8l-0.1-0.4l-0.5-3.4l-0.9-6.5l0,0
	l-0.1-0.6l-0.2-1.5v-0.4l-1-8.6l0,0l-0.1-0.9l-0.1-0.9v-0.4l-0.3-3.4v-0.2v-0.1l-0.1-2.1l-1-16.4v-0.9v-0.9v-1.4v-0.1v-0.2l-0.1-2.6
	l-0.1-3.3l-0.1-3.1l-0.1-3.3l0,0l-0.2-0.3l-0.2-0.2v-0.7l0.2-0.4l-0.1-0.1l-0.4-0.5l-0.3-0.4l0,0l-0.2-0.1l0,0l0,0l0,0l-0.2-0.1H64
	l0,0l0,0l0,0h-0.1h-0.1l0,0h-0.1h-0.1l0,0h0.1v-0.1c-0.5,5.6-2.1,9.6-3.9,9.6c-2.3,0-4.1-6.3-4.1-14.2s1.8-14.2,4.1-14.2
	c1.6,0,2.9,3,3.6,7.4h0.1l-0.1-0.1l0.1,0.1h0.2h0.2h0.2l0,0l0,0l0,0l0,0l0.2-0.1l0,0l0,0h0.1l0,0l0,0l0,0l0,0l0,0l0.5-0.5l0.2-0.2
	l0,0l0.1-0.1l0.4-0.5l0.2-0.2v-0.1v-0.1l0,0v-0.1l0.3-0.3l0.1-0.1l0,0v-0.5V357v-0.5l0.1-2l0.3-9.1v-0.3V344l0.1-1.9v-1.2l0.1-2.8
	l0.1-1.4l0,0l0.3-4.7l0.1-1.3v-0.4l0,0v-0.4l0.7-7.7l0.3-3.7l0.4-4.6l0,0v-0.3v-0.3v-0.2V313l0,0v-0.4v-0.1l0.8-6l0,0l0.1-1.1v-0.3
	v-0.2v-0.1v-0.1l0,0l0.1-0.7l0.1-0.6l0.7-4.6l0.1-0.5l0,0v-0.1l0,0l0.5-3.2l0.2-1.1v-0.3l0.2-1.1l0.8-4.5l0.2-0.8v-0.3l0.7-3.2
	l0.9-4.5l0.2-1l0.6-2.6l0.1-0.3l0.7-2.9l0,0l0.3-1.3l0,0l2-7l0.8-2.8v-0.1l0.4-1.4l0,0l0,0l0.4-1.4l0,0v-0.1l0.1-0.4l0.8-2.4
	l0.1-0.3l0.2-0.6l0.7-2v-0.1l0,0l0,0l0.3-0.9l0.5-1.5V250l0.1-0.3l0.1-0.2l0.2-0.4l0.6-1.7l0.8-2.2l0,0l0.2-0.6l0.1-0.3l1.4-3.3
	l1.5-3.6l0,0l0.1-0.3l0,0l0.2-0.5l0.2-0.5l1.6-3.4l0.4-0.8l1.3-2.7l0.3-0.7l0.4-0.9l0.1-0.3l1.7-3.2l0.4-0.8l0.4-0.7l0.3-0.5
	l0.8-1.4L97,218l0.3-0.5l0,0l3.8-6.1l0.9-1.4l1.8-2.7l0.7-1l0.3-0.4l1.2-1.7l1-1.4l0.3-0.4l0.3-0.5l0.3-0.4l1.7-2.2l0.5-0.6l1-1.3
	l0.8-1l1.5-1.9l0.2-0.3l2.2-2.6l0.8-1l0.7-0.8l0.2-0.2l0.1-0.1l0.6-0.6l1.5-1.7l0.9-1l1.1-1.2l2.2-2.4l0,0l0.9-0.9l1.4-1.4l1-1
	l0.3-0.3l1.1-1.1l1.7-1.6l1.2-1.1l0.1-0.1l0,0l0,0l0,0h0.1l0.1-0.1l0.2-0.1l1.5-1.3l2.2-2l0.5-0.4l0.1-0.1l2.5-2.1l0.5-0.4l0.5-0.4
	l1.9-1.5l0.5-0.4l1-0.8l0.8-0.6l0.5-0.4l1-0.8l3.5-2.5l0.9-0.6l1.7-1.1l1.5-1l0.1-0.1l2.1-1.4l0.5-0.3h0.1l1-0.6l0.1-0.1l3.2-2
	l1.1-0.6l2.3-1.4l0.8-0.5l1.6-0.9l0.5-0.3l1.4-0.8l2.8-1.5l0.3-0.1l1-0.5l1.1-0.6l0.3-0.1l6.5-3.1l0.4-0.2l0.4-0.2l0.1-0.1l2.4-1
	l0.3-0.1l1.1-0.5l3.8-1.5l0.2-0.1l1.8-0.7h0.1l0,0l0.3-0.1l0.9-0.3l4.4-1.6h0.1l0.3-0.1h0.1l0,0l0.3-0.1l1.6-0.5l1.8-0.6h0.1l0,0
	h0.1l3.3-1.1h0.1h0.1l0.6-0.2l0,0c-1.2-0.4-1.2-0.4-2.3-0.9c-2.6-0.8-3.3-1.4-3.8-3.2c-0.6-2.3,4.8-5.7,12.1-7.8
	c7.3-2,21.3-4.7,21.9-2.5c0.4,1.6-9.7,6.6-13.6,8.4l0.3-0.4l-0.1,0.2l-0.1,0.3v0.1l0,0v0.2l0.1,0.3l0.1,0.2l0.1,0.1l0,0l0.1,0.1
	l0.1,0.1l0.1,0.1l0,0l0,0l0,0l0,0l0,0l0,0l0.3,0.2l0,0h0.1l0.3-0.1l-0.3,0.1l0.3-0.1l9.2-1.9l1.2-0.4l-1.2,0.4l0.8-0.4L289,96.8
	l3.2-0.2l14.6-1l12.4-0.7l16.8-0.5h8l14.8,0.3l7.6,0.4l13.8,1l14.1,1.4l7.1,0.9l8.3,1.1l10.6,1.6V101l16.4,3l9.3,1.8l5.8,1.3
	l10.8,2.5l4.9,1.2l7.1,1.9l10,2.8l5.6,1.7l5.4,1.7l7.7,2.5l12.4,4.4l16.6,6.4l12.5,5.2l11.4,5.1l6.7,3.2l10.9,5.5l8.1,4.4l11.2,6.2
	l10.9,6.3l11.4,7.1l11.2,7.3l6.4,4.3l10.8,7.6l-2.4,28.2l-0.7-2.2l0.7,2.2l-0.1-0.1l0.1,0.1l0.4,0.3l1.1,0.7l1.4,1l0.5,0.3l0.4,0.2
	l0.7,0.4l0.8,0.5l0.7,0.3l0,0l0.7,0.2l0.3,0.1l0.2,0.1l0.2,0.1l0,0h0.4h0.2h0.1h0.1h0.1l0,0h0.2h0.4l0.3-0.1l0.5-0.1l0.3-0.1h0.1
	l0.5-0.2l0.3-0.1l0.6-0.4l0.2-0.1l0,0l0.2-0.2l0.8-0.7l0.1-0.1l0,0l0,0v-0.1l0.6-0.8l0.1-0.1l0.1-0.1l0.1-0.1l0,0l0.1-0.3l0.3-0.8
	v-0.1l0,0v-0.4l0,0l0.1-0.3l0,0v-0.5v-0.5v-0.1l-0.1-0.4l0,0l-0.1-0.4v-0.1l-0.4-1.2l-0.1-0.1l-0.3-0.6l-0.8-1.5l-0.4-0.7l-0.1-0.2
	l-1-1.6L652,213v-0.1l0,0l0,0l0,0l0,0l0,0v-0.1v-0.1v-0.3v-0.1l0,0l0.1-0.2l0,0l0.1-0.1l0.3-0.4l0.1-0.1l0.3-0.4l0.5-0.6l1.9-2.4
	l0.1-0.1l0,0l0,0l0,0l0.1-0.1l0.2-0.2l0,0l0.1-0.1l0.3-0.1l0,0h0.1h0.1h0.1h0.2h0.1h0.3l0.2,0.1h0.1l0.5,0.2l0.4,0.2l1.2,0.6
	l0.5,0.3l0.1,0.1l0.2,0.1l0.2,0.1l0,0l0.2,0.1l0.7,0.5l0.3,0.2l0.1,0.1l0.8,0.6l0,0l0.7,0.6l0.2,0.2l0.1,0.1l0,0l0,0l0,0l0.1,0.1
	l0.1,0.2l0.2,0.2l0.5,0.6l0.2,0.3l0.5,0.8l0.1,0.2l0.4,0.6l0.1,0.1l0.2,0.4l0.3,0.7l0.1,0.3l0.2,0.4v0.1v0.1l0.1,0.6v0.1l0.1,0.5
	l0.1,0.4v0.1l0.1,1.1v0.4v0.4v0.2l0,0v0.3v0.3v1v0.1v0.2v0.2v0.1l-0.1,0.4l-0.1,0.3l-0.1,0.3l-0.3,1.7v0.1l-0.2,0.8l0,0l-0.2,0.5
	l-0.3,0.8v0.1l-0.1,0.1l0,0v0.1v0.1v0.1l-0.3,0.5l0.2,0.1l-0.2,0.4l0,0l-0.1,0.1l-0.4,0.6l-0.1,0.2l-0.2,0.3l-0.3,0.4l-0.4,0.5
	l-0.3,0.5l0,0l0,0l-0.3,0.3l-0.7,0.8l-0.1,0.1l-0.1,0.1l-0.1,0.1l-0.3,0.2l-0.3,0.2l-0.4,0.3l-0.4,0.3l0,0l-0.1,0.1l-0.1,0.1
	l-0.3,0.2l-0.9,0.6l0,0l-0.5,0.3l0,0l0,0l-0.1,0.1l-0.8,0.4l-0.3,0.2l-0.7,0.4l-0.3,0.1l-0.4,0.2l-0.4,0.2l0,0l0,0l-0.5,0.2
	l-0.9,0.5h-0.1l-0.2,0.1l-0.9,0.2h-0.1l-1.5,0.2h-0.2h-0.2h-0.9H650h-0.1h-0.1h-0.5h-0.4h-0.1l-1.1-0.2h-0.1l-0.6-0.1l-2.1-0.5h-0.1
	l-1.2-0.4l-1.6-0.6l-0.1-0.1l-1.9-0.9l-0.2-0.1l-0.7-0.3l0,0l-0.2-0.1l-1.1-0.7l-1.8-1.1l-0.7-0.4l-4.6-3.3l-4.5-3.2l-0.4-0.3
	l-2.2-1.6l-0.7-0.5l-0.6-0.5l-0.2-0.1l-0.5-0.4l0,0l-7.1-5.1l-0.4-0.3l-0.3-0.2l-0.8-0.6l-0.9-0.6l-4-2.8l-0.6-0.4l-0.7-0.5
	l-3.4-2.2l-0.6-0.4l-0.1-0.1l-1-0.6l-0.4-0.2l-4.3-2.7l-3.6-2.3l-0.3-0.2l-0.3-0.2l-0.1-0.1l-2.6-1.6l-0.4-0.2l-8.7-5.3l-1.4-0.8
	l-0.9-0.5l-0.6-0.3l-0.3-0.2l-0.3-0.2l-5.3-3.1l-1-0.6l-5.2-2.9l-0.5-0.3L565,187l-0.3-0.2l-0.3-0.2l0,0l-0.4-0.2l-1.7-0.9l-4.7-2.5
	l0,0l-0.2-0.1l-0.2-0.1l-1.9-1l-1.5-0.8h-0.1l-1.3-0.6l-8-3.9l-1-0.5h-0.1l-0.4-0.2h-0.1l-1.2-0.6l-1.8-0.9l-2.2-1L537,173l-0.4-0.2
	l-0.7-0.3l-2.5-1.1l-0.8-0.4l-2.7-1.2l-0.3-0.1l-1.8-0.8l-0.6-0.3l-5.4-2.2l-0.8-0.3l-1.5-0.6l-2-0.8l-0.7-0.3l-1.6-0.6l-4.7-1.8
	l-0.5-0.2l-1.1-0.4l-3.4-1.2l-0.4-0.2H505l-0.4-0.1l0,0l-6.6-2.4l-1.9-0.7l-2.6-0.9l-6.9-2.3l-1.3-0.4l-3.8-1.2l-4.6-1.4l-1.8-0.6
	l-0.7-0.2l-0.5-0.1l-4.3-1.2l-0.9-0.3l-3.2-0.9l-0.3-0.1l-1-0.3l-0.9-0.2l-1-0.2l-4.7-1.2l-6.1-1.5l-0.3-0.1h-0.1L448,143l-2.5-0.5
	l-0.5-0.1l-2.1-0.4l-3.2-0.7l-1.1-0.2l-5.3-1l-5.7-1.1l-0.9-0.2h-0.1l-0.9-0.2l-3-0.5L422,138l-0.7-0.1h-0.1l-1.4-0.2l-5.4-0.9
	l-5-0.8h-0.3l-1.1-0.2l-9.1-1.3l-1.4-0.2l-0.5-0.1l-8.3-1l-1.4-0.2l-2.1-0.2h-0.3l-7.1-0.7l-0.9-0.1l-4.1-0.3l-2.9-0.2l0,0l-2.7-0.2
	l-0.8-0.1l-1.1-0.1h-0.9h-2.3h-1H361h-1.3h-2.2h-0.4h-3.4l0,0h-0.6l-3.8,0.2l0,0h-0.2h-0.7H348h-0.3h-0.3l-1.9,0.1l-0.6,0.1
	l-0.6,0.1l-5.5,0.5l-0.5,0.1l-1.3,0.1l-2.9,0.3l-2.3,0.3l-3.2,0.4l-2.8,0.4l-1.4,0h-0.1l-0.5,0.1l-0.5,0.1l-7.3,1.5l-0.5,0.1h-0.1
	l-3.1,0.8l0,0h-0.1l-0.7,0.2l-0.6,0.2l-1.3,0.4l-1.9,0.6l-2.7,0.8l-0.2,0.1l-0.4,0.1l-0.5,0.2l-0.4,0.1l-0.3,0.1l-3,1l-0.4,0.1
	l-2.8,1l-0.6,0.2l-2.3,0.9l-0.3,0.1l-0.3,0.1l-0.5,0.2l-1.2,0.5L290,144h-0.1l-0.2,0.1l-0.2,0.1l-0.7,0.4l-0.7,0.3l-0.9,0.5
	l-1.5,0.7l-2.4,1.2l-0.5,0.3l-0.6,0.3l-3.2,1.7l-1.9,1.1l-1.1,0.6l-2.6,1.5l-1.1,0.6l-4.7,2.8l-0.4,0.3l-0.2,0.1l-0.3,0.2l-0.3,0.2
	l-2.5,1.6l-1.6,1l-0.3,0.2l-0.2,0.1l-0.2,0.1l-0.1,0.1l-0.3,0.2l0,0l-0.2,0.2l-9.1,6.2l-0.3,0.2l-0.3,0.2l-0.2,0.2l-1.1,0.8
	l-1.2,0.9l-0.9,0.6l-0.3,0.2l-1.8,1.3l-1.5,1.1l-1.8,1.3l0,0l-0.9,0.7l-1.6,1.3l-2.8,2.2l-1,0.8l-3.4,2.8l-1.1,1l-0.8,0.6l-3.6,3.1
	l-7.2,6.3l-1.5,1.3l-2.7,2.5l-1,0.9l-0.9,0.8l-1.6,1.5l-1.1,1l-2.8,2.8l-0.8,0.8l-2.2,2.3l-2,2.1l-0.6,0.6l-0.2,0.2l-0.6,0.7
	l-2.7,2.9l-4.3,5l-0.8,0.9l0,0l-2.4,2.9l-0.1,0.1l-0.7,0.9l-0.1,0.1l-0.3,0.3l-1.4,1.7l-2.2,2.8l-1,1.3l-0.1,0.1l-0.4,0.6l-0.2,0.3
	l-3.8,5.2l-1.2,1.9l-0.8,1.1l-2,3.1l-0.7,1.1l-0.4,0.6l-0.1,0.2l-0.4,0.6l-2.2,3.7l-0.6,1.1l-0.1,0.2l-0.8,1.5l-1.4,2.5l-3.2,5.9
	l-0.7,1.2l-0.4,0.8l-1.5,3l-0.2,0.5l0,0v0.1l-0.1,0.1l-2,4.3l-0.1,0.2l-0.2,0.5l-0.1,0.2l-0.2,0.4l-2.6,6l-1.5,3.4l-0.1,0.2l0,0v0.1
	l-1.5,3.7l-0.4,1l-0.1,0.2l-0.1,0.2v0.1l-0.3,0.7l-0.8,2l-0.5,1.3l-1.6,4.5l-0.5,1.5l-0.2,0.6l-1.2,3.7l-0.4,1.2l-0.2,0.7l-0.1,0.2
	l-2,6.6v0.1v0.2l-0.5,1.9l-0.2,0.7l-0.2,0.9l-0.7,2.5l0,0l-0.1,0.3l-1.1,4.5l-0.4,1.7l0,0l-0.3,1.6l-0.4,1.7l-0.5,2.6v0.1l-0.1,0.3
	l-0.1,0.4l-0.1,0.3l-0.4,2.4l-0.6,3.3l-0.1,0.5l-0.1,0.6l-0.4,2.8l-0.1,0.4l-0.1,0.4v0.1l-0.8,6.6v0.3v0.3l-0.1,0.5l-0.5,5l-0.1,0.7
	v0.3l0,0v0.1l-0.3,5l-0.1,1v0.6v0.5l-0.1,9.4v2v0.4v0.7v1v1.1l0.2,4.5v0.7v0.7v0.5l0.2,2.6l0.1,2.1v0.5l0.3,3.9l0.1,1.4v0.1l0.1,0.9
	l0.3,3.1l0,0v0.1l0,0v0.1l0.8,5.7v0.1v0.4l0.1,0.4v0.1l0,0l0.3,1.6l1.3,5.8l0.2,1.5l0.1,0.3v0.2l0.1,0.4l0.3,1.3l0.6,2.6l0.5,2.5
	l0.3,1.4l0.3,1.1l1,3.9l0.4,1.6v0.1l0.2,0.7v0.2l0.7,2.6l0.6,2.2l0.7,2.5l1.2,3.7l0.2,0.6l0.8,2.4l0.5,1.4l1,2.9l1.6,4.3l0.2,0.5
	l0.3,0.8l0.4,1.1l0.3,0.9l0.2,0.5l0.3,0.8l0.3,0.8l0.3,0.7l2.6,6.2l2.1,5l0.3,0.6l0.5,1l0.3,0.7l2,4.2l1.4,2.9l0.3,0.7l0,0l0.1,0.2
	l0.1,0.1l0.2,0.4l0.7,1.3l2,3.8l0.2,0.4l0.6,1l0.4,0.8l1.5,2.8l0.4,0.7l2,3.4l2.2,3.6l0.7,1.1l0.1,0.1l2,2.9l2.4,3.6l0.5,0.7
	l0.9,1.2l2.2,3l0.4,0.6l3.6,4.6l0.5,0.7l0.3,0.4l1.2,1.5l3.1,3.7l0.5,0.6l0.1,0.1l0.7,0.8l0.8,0.9l3.7,4.2l0.5,0.5l4.2,4.5l0.2,0.2
	l0.1,0.1l0.2,0.2l0.6,0.6l4.8,4.8l0.9,0.9l3.8,3.5l0.3,0.3l0.7,0.7l8.8,7.7l1.8,1.5l3.5,3l3.1,2.6l0.9,0.8l3.3,2.7l1.2,0.9l0.3,0.2
	l0.2,0.2l6.4,4.8l0.1,0.1l0.8,0.6l3.5,2.5l0.4,0.2l0.9,0.6h0.1l0.2,0.2l0.1,0.1l0.5,0.3l0,0h0.1l0.3,0.2h0.1l8.3,5.6l0.1,0.1
	l0.1,0.1l0.3,0.2l0.3,0.2l0.7,0.5l0.9,0.5l0.7,0.5l1.5,0.9l0.5,0.3l3.7,2.3l0,0l4.7,2.7l0.4,0.2l0,0l0.4,0.2l0,0l3.8,2.1l0.4,0.2
	l0,0l0.4,0.2l0.7,0.4l1,0.5l4.5,2.4l0.6,0.3l0.3,0.1l0.3,0.1l4.3,1.9l0.7,0.3l0.3,0.1l2.5,1l0.3,0.1l0,0l0,0h0.1l0.3,0.1l0,0
	l0.2,0.1h0.1l1.5,0.5l1.7,0.6l0.9,0.3l0.2,0.1l4.3,1.4l1.8,0.6l0.3,0.1l0.4,0.1l3.6,1l0.4,0.1h0.1h0.1l0.6,0.2l0.2,0.1l0.2,0.1
	l3.1,0.8l0.3,0.1l0.4,0.1l5,1l0.4,0.1l0.4,0.1l1.4,0.2l3.1,0.5l0.6,0.1h0.3h0.2l2.3,0.3l1.8,0.3l2.6,0.3l1.1,0.1h0.1l3.2,0.3
	l0.7,0.1l3.2,0.3l1,0.1l0.6,0.1l2.9,0.2h0.4l2.2,0.1l2.5,0.1h1.4h5.4h0.3h0.4h1.1h0.6l1.3-0.1l1.4-0.1l7-0.3l0.8-0.1h0.1l7.3-0.6
	l1.8-0.2l2.9-0.3l3.1-0.3l0.7-0.1l8.3-1l0.5-0.1l1.4-0.2l0.7-0.1l1.4-0.2l8-1.1l1.7-0.2l3.7-0.6h0.2l2.1-0.4l4.3-0.8l4.8-0.8
	l0.7-0.1l6.5-1.3l0.3-0.1l2.1-0.4l0.7-0.1l7.9-1.6l0.6-0.1l0.4-0.1h0.2l5.5-1.3l0.4-0.1h0.2l1.2-0.3l3.3-0.8l1.1-0.3l3.2-0.8l0,0
	l1.1-0.3l1.6-0.4l2.5-0.7l2.7-0.8l1.1-0.3l1.5-0.4l2.5-0.7l1.2-0.3l6.8-2.1l6.2-1.9l0.3-0.1l1.2-0.4l0.2-0.1l0.7-0.2l1.6-0.5
	l0.8-0.3l1-0.3l10.8-3.8l1.3-0.5l0.4-0.1l1-0.4l1-0.3l1.7-0.6l0.5-0.2l2.3-0.9l5.2-2l4.5-1.8l0.4-0.2h0.1l0.4-0.2l2-0.8l0,0l1.8-0.7
	l1.8-0.8l0.9-0.4l3.7-1.6l1.5-0.7l0.1-0.1l3.9-1.8l1.7-0.8l1-0.5l1.9-0.9l1-0.5l4.5-2.2l1.2-0.6l0.2-0.1l0.5-0.2l2.7-1.4l2.6-1.3
	l1-0.5l0.3-0.2l0.1-0.1l0.8-0.4l3.3-1.8l0.4-0.2l0.2-0.1l0.9-0.5l0.6-0.3l0.5-0.3l1.4-0.8l0.2-0.1l8.5-4.8l0.8-0.5l0.7-0.4l0.5-0.3
	l0.3-0.2l1-0.6l0.5-0.3l1-0.6l1.3-0.8l7.9-4.8l0.2-0.1l1.1-0.7l0.1-0.1l5.8-3.6l1.5-1l0.4-0.3l0.4-0.3l1-0.7l0.4-0.3l2.5-1.6
	l5.8-3.8l1.4-1l4.8-3.4l0.6-0.4l1.6-1.1l3.1-2.2l6.8-4.8l4.8-3.4l4.6-3.3l0.6-0.4l0.8-0.5l1.2-0.8l1.2-0.7l0.3-0.1l1.2-0.6l1.1-0.5
	l1.4-0.6l0.3-0.1l0,0l0,0l0.2-0.1l0.8-0.3l0.2-0.1l0.8-0.3h0.1l1.2-0.3l1.2-0.3h0.1h0.2h0.3l1.3-0.1h0.1h0.4h0.4l1.3,0.1l0.8,0.1
	l1,0.2l0.9,0.3l0.5,0.1l0.6,0.3l0.8,0.3l0.2,0.1l0.1,0.1l0,0l0.9,0.5l0.2,0.1l0.5,0.3l0.3,0.2l0,0l0.7,0.5l0.4,0.3h0.1l0.4,0.3
	l1.2,1.1l0,0l0.3,0.3l0.2,0.1l0,0l0.1,0.1l0,0l0.6,0.6l0.5,0.6l0.4,0.5l0,0l0.3,0.4l0,0l0.3,0.4l0.2,0.3l0.5,0.9v0.1l0.1,0.2
	l0.2,0.5l0.3,0.6l0.3,0.8l0.1,0.2l0,0l0.1,0.3v0.1l0.5,1.8l0.2,0.7v0.1v0.1l0.1,0.4l0.1,0.4l1,1.1l0.1,0.6v0.4v0.6v0.4l0.1,0.8v0.1
	v0.1v0.2l-0.1,0.7l-0.1,0.5l0,0l-0.1,0.3v0.2l0,0l-0.1,0.3l-0.2,0.5l-0.2,0.5l-0.2,0.8l0,0l-0.3,0.6l0,0l-0.1,0.3l-0.1,0.3l-0.3,0.5
	l-0.2,0.3l-0.2,0.2l-0.5,0.7l0,0l-0.2,0.2l0,0l-0.2,0.3l-0.2,0.2l-0.4,0.3l-0.1,0.1l-0.5,0.5l-0.3,0.2l-0.8,0.6l-0.1,0.1l0,0
	l-0.1,0.1l-0.1,0.1l0,0l-0.3,0.2l-1.5,0.9l-0.7,0.3l-0.3,0.2l-0.4,0.2l-0.1,0.1l0,0l0,0l-0.7,0.2l-0.3,0.1l-0.2,0.1l-0.5,0.1h-0.3
	l0,0h-0.1h-0.4l-0.2-0.2l0,0h-0.1l0,0l-0.2-0.3l-1.3-1.7l-0.8-1.1l-0.4-0.6l0,0l-0.3-0.5l-0.1-0.2l-0.1-0.1l0,0l-0.1-0.2v-0.2l0,0
	l0,0l0.1-0.4V524l0.1-0.3l0,0l0.1-0.2l0.1-0.2l0.1-0.3l0.7-1.1l0.8-1.2l0.2-0.4l0.5-0.9l0.1-0.1l0,0v-0.1l0,0l0,0l0.4-0.9l0.1-0.2
	l0.1-0.2l0.1-0.3l0.1-0.4l0,0l0.1-0.4v-0.3v-0.4l0,0l-0.1-0.8v-0.2v-0.3v-0.1l-0.1-0.1l-0.2-0.5l-0.1-0.3v-0.1l0,0l-0.1-0.2l-1-1.3
	l0,0l0,0l0,0l-1.1-0.9l0,0l0,0l-0.3-0.2l-0.4-0.2l-0.8-0.3h-0.2l-0.6-0.1h-0.1h-0.6h-0.1l0,0h-0.2h-0.1H650l-0.7,0.1l-0.9,0.3l0,0
	l-0.4,0.2l-0.3,0.2l0,0l-0.1,0.1L646.6,511.5l0.5-0.3l-1.3,2.8"/>
<path class="st0" d="M834.7,315.3l0.1-29.7l4.9-3.5l10.5-7.4l14.7-9.8l6.2-3.9l9.5-5.7l17.8-10.1l-0.4-0.9l23.5-10.9l16.6-7.5
	l13-5.4l3.8-1.5l18.2-6.7l8.7-2.9l10.7-3.4l13.9-4l8.9-2.3l6.1-1.5l10.4-2.3l18.6-3.6l6.8-1.2l11-1.7l14.2-2l10.6-1.2l10.5-1
	l12.9-0.9l7.1-0.3l6.6-0.2l8-0.1l7.4,0.1l10.5,0.3l10,0.5l23.9,1.6l4,0.9l64.6,32.6h0.5l0.7-0.3l-0.3,0.1l0,0l0.1-0.2l0,0h0.1l0,0
	l0,0l0,0h0.1l0,0h0.1l0.1-0.1l0.2-0.1l0.1-0.2l0.1-0.2l0,0v-0.1v-0.1v-0.3v-0.1l0,0V218l-0.1-0.1l-0.2-0.3c-4.9-2.4-13.6-7.5-13-9.2
	c0.8-2.2,12.8,0.3,19.9,3c7.1,2.7,12.2,6.6,11.4,8.8c-0.5,1.5-1.8,2.1-6,1.3l1.3,1.8l0,0l2.5,0.7h0.1l0,0l1.3,0.4l0.5,0.2l-0.7-0.2
	l0.4,0.1l4.9,1.6l0.6,0.2l1.5,0.5l2.7,1l1.9,0.7l0.6,0.2l0.8,0.3l0.3,0.1l2.2,0.9l1.9,0.8l4,1.7l2.2,0.9l0.9,0.4l0.8,0.4l1.5,0.7
	l0.2,0.1l0.7,0.3l0.8,0.4l0,0l2.5,1.2l1,0.5l0.7,0.4l2.1,1.1l0.7,0.4l0.3,0.2l3.4,1.9l0.8,0.5l0.2,0.1l0.6,0.4l4.1,2.4l0.5,0.3
	l0.5,0.3l0.2,0.1l0.4,0.2l1,0.7l0.3,0.2l2.9,1.9l0,0l0,0l1.4,1l0.8,0.6l1.3,0.9l0.4,0.3l0.7,0.5l0.6,0.4l0.1,0.1l0.8,0.6l2.7,2
	l0.1,0.1l0.3,0.2l0,0l0.3,0.2l0,0l0,0l0.1,0.1l0,0l0.5,0.4l0.4,0.4l1.1,0.9l3,2.4l1.8,1.5l2.3,2l0.5,0.4l0.8,0.7l0.8,0.8l4.2,3.9
	l0.7,0.7l0.1,0.1l0.4,0.5l2.4,2.5l1.4,1.5l0.5,0.5l0.1,0.1l0.9,0.9l1.3,1.5l1.1,1.3l2.5,2.9l1.6,1.8l0.1,0.1l0.8,0.9l0.1,0.1
	l0.3,0.4l0.1,0.1l1.1,1.4l0.6,0.7l1.8,2.4l1.6,2l0.4,0.6l0.9,1.2l0.2,0.3l0,0l0,0l0.2,0.2l0.1,0.1l0.4,0.6l1,1.5l4.3,6.3l0.7,1.1
	l0.1,0.2l0.2,0.3l0,0l0.2,0.3l1.9,3.3l1,1.6l0.5,0.8l0.4,0.8l0,0l0.3,0.5l1.7,3.1l0.2,0.4l0.2,0.3l0.3,0.6l1.7,3.4l1,2l0.5,1.1
	l2.8,6.3l0,0l0.9,2.2l0.4,1.1l0.5,1.2v0.1l0.6,1.5l1,2.8l1,2.7l0.1,0.2l0.4,1l0.4,1.1l1.2,3.7l0.5,1.6l0.2,0.8l0.2,0.6l1.2,4.1l0,0
	v0.1l0.2,0.7l0.1,0.3l0.5,1.7l1.4,5.3l0.5,2l0.5,2.3l0.3,1.1l0.2,1l0.3,1.3l1.2,5.7l0.4,1.8l0.1,0.6v0.1l0.3,1.6l0.4,2l0.4,2.5
	l0.1,0.4l0.3,1.6l0.2,1l0.2,1.1l0.1,0.8l0.1,0.4l0.5,3.4l0.9,6.5l0,0l0.1,0.6l0.2,1.5v0.4l1,8.6l0,0l0.1,0.9l0.1,0.9v0.4l0.3,3.4
	v0.2v0.1l0.1,2.1l1,16.4v0.9v0.9v1.4v0.1v0.2l0.1,2.6l0.1,3.3l0.1,3.1l0.1,3.3l0,0l0.2,0.3l0.2,0.2v0.7l0.1,0.1l0.1,0.1l0.4,0.5
	l0.3,0.4l0,0l0.2,0.1l0,0l0,0l0,0l0.2,0.1h0.2l0,0l0,0l0,0h0.1h0.1l0,0h0.1h0.1l0,0h-0.1v0.1c0.5-5.6,2.1-9.6,3.9-9.6
	c2.3,0,4.1,6.3,4.1,14.2s-1.8,14.2-4.1,14.2c-1.6,0-2.9-3-3.6-7.4h-0.1l0.1,0.1l-0.1-0.1h-0.2h-0.2h-0.2l0,0l0,0l0,0l0,0l-0.2,0.1
	l0,0l0,0h-0.1l0,0l0,0l0,0l0,0l0,0l-0.5,0.5l-0.2,0.2l0,0l-0.1,0.1l-0.4,0.5l-0.2,0.2v0.1v0.1l0,0v0.1l-0.3,0.3l-0.1,0.1l0,0v0.5
	v3.2v0.5l-0.1,2l-0.3,9.1v0.3v1.1l-0.1,1.9v1.2l-0.1,2.8l-0.1,1.4l0,0l-0.3,4.7l-0.1,1.3v0.4l0,0v0.4l-0.7,7.7l-0.3,3.7l-0.4,4.6
	l0,0v0.3v0.3v0.2v0.1l0,0v0.4v0.1l-0.8,6l0,0l-0.1,1.1v0.3v0.2v0.1v0.1l0,0l-0.1,0.7l-0.1,0.6l-0.7,4.6l-0.1,0.5l0,0v0.1l0,0
	l-0.5,3.2l-0.2,1.1v0.3l-0.2,1.1l-0.8,4.5l-0.2,0.8v0.3l-0.7,3.2l-0.9,4.5l-0.2,1l-0.6,2.6l-0.1,0.3l-0.7,2.9l0,0l-0.3,1.3l0,0l-2,7
	l-0.8,2.8v0.1l-0.4,1.4l0,0l0,0l-0.4,1.4l0,0v0.1l-0.1,0.4l-0.8,2.4l-0.1,0.3l-0.2,0.6l-0.7,2v0.1l0,0l0,0l-0.3,0.9l-0.5,1.5v0.1
	l-0.1,0.3l-0.1,0.2l-0.2,0.4l-0.6,1.7l-0.8,2.2l0,0l-0.2,0.6l-0.1,0.3l-1.4,3.3l-1.5,3.6l0,0l-0.1,0.3l0,0l-0.2,0.5l-0.2,0.5
	l-1.5,3.3l-0.4,0.8l-1.3,2.7l-0.3,0.7l-0.4,0.9l-0.1,0.3l-1.7,3.2l-0.2,1l-0.4,0.7l-0.3,0.5l-0.8,1.4l-1.5,2.7l-0.3,0.5l0,0
	l-3.7,6.2l-0.9,1.4l-1.8,2.7l-0.7,1l-0.3,0.4l-1.2,1.7l-1,1.4l-0.3,0.4l-0.3,0.5l-0.3,0.4l-1.7,2.2l-0.5,0.6l-1,1.3l-0.8,1l-1.5,1.9
	l-0.2,0.3l-2.2,2.6l-0.8,1l-0.7,0.8l-0.2,0.2l-0.1,0.1l-0.6,0.6l-1.5,1.7l-0.9,1l-1.1,1.2l-2.2,2.4l0,0l-0.9,0.9l-1.3,1.3l-1,1
	l-0.3,0.3l-1.1,1.1l-1.7,1.6l-1.2,1.1l-0.1,0.1l0,0l0,0l0,0l-0.1,0.1l-0.1,0.1l-0.2,0.1l-1.5,1.3l-2.2,2l-0.5,0.4l-0.1,0.1l-2.5,2.1
	l-0.5,0.4l-0.5,0.4l-1.9,1.5l-0.5,0.4l-1,0.8l-0.8,0.6l-0.5,0.4l-1,0.8l-3.5,2.5l-0.9,0.6l-1.7,1.1l-1.5,1l-0.1,0.1l-2.1,1.4
	l-0.5,0.3h-0.1l-1,0.6l-0.1,0.1l-3.2,2l-1.1,0.6l-2.3,1.4l-0.8,0.5l-1.6,0.9l-0.5,0.3l-1.4,0.8l-2.8,1.5l-0.3,0.1l-1,0.5l-1.1,0.6
	l-0.3,0.1l-6.5,3.1l-0.4,0.2l-0.4,0.2l-0.1,0.1l-2.4,1l-0.3,0.1l-1.1,0.5l-3.8,1.5l-0.2,0.1l-1.8,0.7h-0.1l0,0l-0.3,0.1l-0.9,0.3
	l-4.4,1.6h-0.1l-0.3,0.1h-0.1l0,0l-0.3,0.1l-1.6,0.5l-1.8,0.6h-0.1l0,0h-0.1l-3.3,1.1h-0.1h-0.1l-0.6,0.2l0,0
	c1.2,0.4,1.2,0.4,2.3,0.9c2.6,0.8,3.3,1.4,3.8,3.2c0.6,2.3-4.8,5.7-12.1,7.8c-7.3,2-21.3,4.7-21.9,2.5c-0.4-1.6,9.7-6.6,13.6-8.4
	l-0.3,0.4l0.1-0.2l0.1-0.3v-0.1l0,0v-0.2l-0.1-0.3l-0.1-0.2l-0.1-0.1l0,0l-0.1-0.1l-0.1-0.1l-0.1-0.1l0,0l0,0l0,0l0,0l0,0l0,0
	l-0.3-0.2l0,0h-0.1l-0.3,0.1l0.3-0.1l-0.3,0.1l-9.2,1.9l-1.2,0.4l1.2-0.4l-0.8,0.4l-58.7,30.9l-3.2,0.2l-15,1.2L1162,732l-16.8,0.5
	h-8l-14.8-0.2l-7.6-0.4l-13.8-1l-14.1-1.4l-7.1-0.9l-8.3-1.1l-10.6-1.6v0.1l-16.4-3l-9.3-1.8l-5.8-1.3l-10.8-2.5l-4.9-1.2l-7.1-1.9
	l-10-2.8l-5.6-1.7l-5.4-1.7l-7.7-2.5l-12.4-4.4l-16.6-6.4l-12.5-5.2l-11.4-5.1l-6.7-3.2l-10.9-5.5l-8.1-4.4l-11.2-6.2l-10.9-6.3
	l-11.4-7.1l-11.2-7.3l-6.4-4.3l-10.8-7.6l2.4-28.2l0.7,2.2l-0.7-2.2l0.1,0.1l-0.1-0.1l-0.4-0.3l-1.1-0.7l-1.4-1l-0.5-0.3l-0.4-0.2
	l-0.7-0.4l-0.8-0.5l-0.7-0.3l0,0l-0.7-0.2l-0.3-0.1l-0.2-0.1l-0.2-0.1l0,0H832h-0.2h-0.1h-0.1h-0.1l0,0h-0.2h-0.4l-0.3,0.1l-0.5,0.1
	l-0.3,0.1h-0.1l-0.5,0.2l-0.3,0.1l-0.6,0.4l-0.2,0.1l0,0l-0.2,0.2l-0.8,0.7l-0.1,0.1l0,0l0,0v0.1l-0.6,0.8l-0.1,0.1l-0.1,0.1
	l-0.1,0.1l0,0l-0.1,0.3l-0.3,0.8v0.1l0,0v0.4l0,0l-0.1,0.3l0,0v0.5v0.5v0.1l0.1,0.4l0,0l0.1,0.4v0.1l0.4,1.2l0.1,0.1l0.3,0.6
	l0.8,1.5l0.4,0.7l0.1,0.2l1,1.6l0.3,0.7v0.1l0,0l0,0l0,0l0,0l0,0v0.1v0.1v0.3v0.1l0,0l-0.1,0.2l0,0L829,615l-0.3,0.4l-0.1,0.1
	l-0.3,0.4l-0.5,0.6l-1.9,2.4l-0.1,0.1l0,0l0,0l0,0l-0.1,0.1l-0.2,0.2l0,0l-0.1,0.1l-0.3,0.1l0,0H825h-0.1h-0.1h-0.2h-0.1h-0.3
	l-0.2-0.1h-0.1l-0.5-0.2L823,619l-1.2-0.6l-0.5-0.3l-0.1-0.1l-0.2-0.1l-0.2-0.1l0,0l-0.2-0.1l-0.7-0.5l-0.3-0.2l-0.1-0.1l-0.8-0.6
	l0,0l-0.7-0.6l-0.2-0.2l-0.1-0.1l0,0l0,0l0,0l-0.1-0.1l-0.1-0.2l-0.2-0.2l-0.5-0.6l-0.2-0.3l-0.5-0.8L816,613l-0.4-0.6l-0.1-0.1
	l-0.2-0.4l-0.3-0.7l-0.1-0.3l-0.2-0.4v-0.1v-0.1l-0.1-0.6v-0.1l-0.1-0.5l-0.1-0.4v-0.1l-0.1-1.1v-0.4v-0.4v-0.2l0,0v-0.3v-0.3v-1
	v-0.1v-0.2v-0.2v-0.1l0.1-0.4l0.1-0.3l0.1-0.3l0.3-1.7v-0.1l0.2-0.8l0,0l0.2-0.5l0.3-0.8v-0.1l0.1-0.1l0,0l0.1-0.1V599v-0.1l0.3-0.5
	l0.1-0.2l0.2-0.4l0,0l0.1-0.1l0.4-0.6l0.1-0.2l0.2-0.3l0.3-0.4l0.4-0.5l0.4-0.5l0,0l0,0l0.3-0.3l0.7-0.8l0.1-0.1l0.1-0.1l0.1-0.1
	l0.3-0.2l0.3-0.2l0.4-0.3l0.4-0.3l0,0l0.1-0.1l0.1-0.1l0.3-0.2l0.9-0.6l0,0l0.5-0.3l0,0l0,0l0.1-0.1l0.8-0.4l0.3-0.2l0.7-0.4
	l0.3-0.1l0.4-0.2l0.4-0.2l0,0l0,0l0.5-0.2l0.8-0.2h0.1l0.2-0.1l0.9-0.2h0.1l1.5-0.2h0.2h0.2h0.9h0.3h0.1h0.1h0.5h0.4h0.1l1.1,0.2
	h0.1l0.6,0.1l2.1,0.5h0.1l1.2,0.4l1.6,0.6l0.1,0.1l1.9,0.9l0.2,0.1l0.7,0.3l0,0l0.2,0.1l1.1,0.7l1.8,1.1l0.7,0.4l4.6,3.3l4.5,3.2
	l0.4,0.3l2.2,1.6l0.7,0.5l0.6,0.5l0.2,0.1l0.5,0.4l0,0l7.1,5.1l0.4,0.3l0.3,0.2l0.8,0.6l0.9,0.6l4,2.8l0.6,0.4l0.7,0.5l3.4,2.2
	l0.6,0.4l0.1,0.1l1,0.6l0.4,0.2l4.3,2.7l3.6,2.3l0.3,0.2l0.3,0.2l0.1,0.1l2.6,1.6l0.4,0.2l8.7,5.3l1.4,0.8l0.9,0.5l0.5,0l0.3,0.2
	l0.3,0.2l5.3,3.1l1,0.6l5.2,2.9l0.5,0.3l0.5,0.3l0.3,0.2l0.3,0.2l0,0l0.4,0.2l1.7,0.9l4.7,2.5l0,0l0.2,0.1l0.2,0.1l1.9,1l1.5,0.8
	h0.1l1.3,0.6l8,3.9l1,0.5h0.1l0.4,0.2h0.1l1.2,0.6l1.8,0.9l2.2,1l0.6,0.3l0.4,0.2l0.7,0.3l2.5,1.1l0.8,0.4l2.7,1.2l0.3,0.1l1.8,0.8
	l0.6,0.3l5.4,2.2l0.8,0.3l1.5,0.6l2,0.8l0.7,0.3l1.6,0.6l4.7,1.8l0.5,0.2l1.1,0.4l3.4,1.2l0.4,0.2h0.1l0.4,0.1l0,0l6.6,2.4l1.9,0.7
	l2.6,0.9l6.9,2.3l1.3,0.4l3.8,1.2l4.6,1.4l1.8,0.6l0.7,0.2l0.5,0.1l4.3,1.2l0.9,0.3l3.2,0.9l0.3,0.1l1,0.3l0.9,0.2l1,0.2l4.7,1.2
	l6.1,1.5l0.3,0.1h0.1l3.1,0.7l2.5,0.5l0.5,0.1l2.1,0.4l3.2,0.7l1.1,0.2l5.3,1l5.7,1.1l0.9,0.2h0.1l0.9,0.2l3,0.5l0.7,0.1l0.7,0.1
	h0.1l1.4,0.2l5.4,0.9l5,0.8h0.3l1.1,0.2l9.1,1.3l1.4,0.2l0.5,0.1l8.3,1l1.4,0.2l2.1,0.2h0.3l7.1,0.7l0.9,0.1l4.1,0.3l2.9,0.2l0,0
	l2.7,0.2l0.8,0.1l1.1,0.1h0.9h2.3h1h0.1h1.3h2.2h0.4h3.4l0,0h0.6l3.8-0.2l0,0h0.2h0.7h0.4h0.3h0.3l1.9-0.1l0.6-0.1l0.6-0.1l5.5-0.5
	l0.5-0.1l1.3-0.1l2.9-0.3l2.3-0.3l3.2-0.4l2.8-0.4l0.7-0.1h0.1l0.5-0.1l0.5-0.1l7.9-1.6l0.5-0.1h0.1l3.1-0.8l0,0h0.1l0.7-0.2
	l0.6-0.2l1.3-0.4l1.9-0.6l2.7-0.8l0.2-0.1l0.3-0.1l0.5-0.2l0.4-0.1l0.3-0.1l3-1l0.4-0.1l2.8-1l0.6-0.2l2.3-0.9l0.3-0.1l0.3-0.1
	l0.5-0.2l1.2-0.5l1.8-0.8h0.1l0.2-0.1l0.2-0.1l0.7-0.4l0.7-0.3l0.9-0.5l1.5-0.7l2.4-1.2l0.5-0.3l0.6-0.3l3.2-1.7l1.9-1.1l1.1-0.6
	l2.6-1.5l1.1-0.6l4.7-2.8l0.4-0.3l0.2-0.1l0.3-0.2l0.3-0.2l2.5-1.6l1.6-1l0.3-0.2l0.2-0.1l0.2-0.1l0.1-0.1l0.3-0.2l0,0l0.2-0.2
	l9.1-6.2l0.3-0.2l0.3-0.2l0.2-0.2l1.1-0.8l1.2-0.9l0.9-0.6l0.3-0.2l1.8-1.3l1.5-1.1l1.8-1.3l0,0l0.9-0.7l1.6-1.3l2.8-2.2l1-0.8
	l3.4-2.8l1.1-1l0.8-0.6l3.6-3.1l7.2-6.3l1.5-1.3l2.7-2.5l1-0.9l0.9-0.8l1.6-1.5l1.1-1l2.8-2.8l0.8-0.8l2.2-2.3l2-2.1l0.6-0.6
	l0.2-0.2l0.6-0.7l2.7-2.9l4.3-5l0.8-0.9l0,0l2.4-2.9l0.1-0.1l0.7-0.9l0.1-0.1l0.3-0.3l1.4-1.7l2.2-2.8l1-1.3l0.1-0.1l0.4-0.6
	l0.2-0.3l3.8-5.2l1.2-1.9l0.8-1.1l2-3.1l0.7-1.1l0.4-0.6l0.1-0.2l0.4-0.6l2.2-3.7l0.6-1.1l0.1-0.2l0.8-1.5l1.4-2.5l3.2-5.9l0.7-1.2
	l0.4-0.8l1.5-3l0.2-0.5l0,0v-0.1l0.1-0.1l2-4.3l0.1-0.2l0.2-0.5l0.1-0.2l0.2-0.4l2.6-6l1.5-3.4l0.1-0.2l0,0v-0.1l1.5-3.7l0.4-1
	l0.1-0.2l0.1-0.2v-0.1l0.3-0.7l0.8-2l0.5-1.3l1.6-4.5l0.5-1.5l0.2-0.6l1.2-3.7l0.4-1.2l0.2-0.7l0.1-0.2l2-6.6V519v-0.2l0.5-1.9
	l0.2-0.7l0.2-0.9l0.7-2.5l0,0l0.1-0.3l1.1-4.5l0.4-1.7l0,0l0.3-1.6l0.4-1.7l0.5-2.6v-0.1l0.1-0.3l0.1-0.4l0.1-0.3l0.4-2.4l0.6-3.3
	l0.1-0.5l0.1-0.6l0.4-2.8l0.1-0.4l0.1-0.4v-0.1l0.8-6.6v-0.3v-0.3l0.1-0.5l0.5-5l0.1-0.7v-0.3l0,0V475l0.3-5l0.1-1v-0.6v-0.5
	l0.1-9.4v-2v-0.4v-0.7v-1v-1.1l-0.2-4.5v-0.7v-0.7v-0.5l-0.2-2.6l-0.1-2.1v-0.5l-0.3-3.9l-0.1-1.4v-0.1l-0.1-0.9l-0.3-3.1l0,0v-0.1
	l0,0v-0.1l-0.8-5.7v-0.1v-0.4l-0.1-0.4v-0.1l0,0l-0.3-1.6l-0.9-5.3l-0.2-1.5l-0.1-0.3v-0.2l-0.1-0.4l-0.3-1.3l-0.6-2.6l-0.5-2.5
	l-0.3-1.4l-0.3-1.1l-1-3.9l-0.4-1.6v-0.1l-0.2-0.7v-0.2l-0.7-2.6l-0.6-2.2l-0.7-2.5l-1.2-3.7l-0.2-0.6l-0.8-2.4l-0.5-1.4l-1-2.9
	l-1.6-4.3l-0.2-0.5l-0.3-0.8l-0.4-1.1l-0.3-0.9l-0.2-0.5l-0.2-0.5l-0.3-0.8l-0.3-0.7l-2.6-6.2l-2.1-5l-0.3-0.6l-0.5-1l-0.3-0.7
	l-2-4.2l-1.4-2.9l-0.3-0.7l0,0l-0.1-0.2l-0.1-0.1l-0.2-0.4l-0.7-1.3l-2-3.8l-0.2-0.4l-0.6-1l-0.4-0.8l-1.5-2.8l-0.4-0.7l-2-3.4
	l-2.2-3.6l-0.7-1.1l-0.1-0.1l-2-2.9l-2.4-3.6l-0.5-0.7l-0.9-1.2l-2.2-3l-0.4-0.6l-3.6-4.6l-0.5-0.7l-0.3-0.4l-1.2-1.5l-3.1-3.7
	l-0.5-0.6l-0.1-0.1l-0.7-0.8l-0.8-0.9l-3.7-4.2l-0.5-0.5l-4.2-4.5l-0.2-0.2l-0.1-0.1l-0.2-0.2l-0.6-0.6l-4.8-4.8l-0.9-0.9l-3.8-3.5
	l-0.3-0.3l-0.7-0.7l-8.8-7.7l-1.8-1.5l-3.5-3l-3.1-2.6l-0.9-0.8l-3.3-2.7l-1.2-0.9l-0.3-0.2l-0.2-0.2l-6.4-4.8l-0.1-0.1l-0.8-0.6
	l-3.5-2.5l-0.4-0.2l-0.9-0.6h-0.1l-0.2-0.2l-0.1-0.1l-0.5-0.3l0,0h-0.1l-0.3-0.2h-0.1l-8.3-5.6l-0.1-0.1l-0.1-0.1l-0.3-0.2l-0.3-0.2
	l-0.7-0.5l-0.9-0.5l-0.7-0.5l-1.5-0.9l-0.5-0.3l-3.7-2.3l0,0l-4.7-2.7l-0.4-0.2l0,0l-0.4-0.2l0,0l-3.8-2.1l-0.4-0.2l0,0l-0.4-0.2
	l-0.7-0.4l-1-0.5l-4.5-2.4l-0.6-0.3l-0.3-0.1l-0.3-0.1l-4.3-1.9l-0.7-0.3l-0.3-0.1l-2.5-1l-0.3-0.1l0,0l0,0h-0.1l-0.3-0.1l0,0
	l-0.2-0.1h-0.1l-1.5-0.5l-1.7-0.6l-0.9-0.3l-0.2-0.1l-4.3-1.4l-1.8-0.6l-0.3-0.1l-0.4-0.1l-3.6-1l-0.4-0.1h-0.1h-0.1l-0.6-0.2
	l-0.2-0.1l-0.2-0.1l-3.1-0.8l-0.3-0.1l-0.4-0.1l-5-1l-0.4-0.1l-0.4-0.1l-1.4-0.2l-3.1-0.5l-0.6-0.1h-0.3h-0.2l-2.3-0.3l-1.8-0.3
	l-2.6-0.3l-1.1-0.1h-0.1l-3.2-0.3l-0.7-0.1l-3.2-0.3l-1-0.1l-0.6-0.1l-2.9-0.2h-0.4l-2.2-0.1l-2.5-0.1h-1.4h-5.4h-0.3h-0.4h-1.1
	h-0.6l-1.3,0.1l-1.4,0.1l-7,0.3l-0.8,0.1h-0.1l-7.3,0.6l-1.8,0.2l-2.9,0.3l-3.1,0.3l-0.7,0.1l-8.3,1l-0.5,0.1l-1.4,0.2l-0.7,0.1
	l-1.4,0.2l-8,1.1l-1.7,0.2l-3.7,0.6h-0.2l-2.1,0.4l-4.3,0.8l-4.8,0.8l-0.7,0.1l-6.5,1.3l-0.3,0.1l-2.1,0.4l-0.7,0.1l-7.9,1.6
	l-0.6,0.1l-0.4,0.1h-0.2l-5.5,1.3l-0.4,0.1h-0.2l-1.2,0.3l-3.3,0.8l-1.1,0.3l-3.2,0.8l0,0l-1.1,0.3l-1.6,0.4l-2.5,0.7l-2.7,0.8
	l-1.1,0.3l-1.5,0.4l-2.5,0.7l-1.2,0.3l-6.8,2.1l-6.2,1.9l-0.3,0.1l-1.2,0.4l-0.2,0.1l-0.7,0.2l-1.6,0.5l-0.8,0.3l-1,0.3l-10.8,3.8
	l-1.3,0.5l-0.4,0.1l-1,0.4l-1,0.3l-1.7,0.6l-0.5,0.2l-2.3,0.9l-5.2,2l-4.5,1.8l-0.4,0.2h-0.1l-0.4,0.2l-2,0.8l0,0l-1.8,0.7l-1.8,0.8
	l-0.9,0.4l-3.7,1.6l-1.5,0.7l-0.1,0.1l-3.9,1.8l-1.7,0.8l-1,0.5l-1.9,0.9l-1,0.5l-4.5,2.2l-1.2,0.6l-0.2,0.1l-0.5,0.2l-2.7,1.4
	l-2.6,1.3l-1,0.5l-0.3,0.2l-0.1,0.1L924,274l-3.3,1.8l-0.4,0.2l-0.2,0.1l-0.9,0.5l-0.6,0.3l-0.5,0.3l-1.4,0.8l-0.2,0.1l-8.5,4.8
	l-0.8,0.5l-0.7,0.4l-0.5,0.3l-0.3,0.2l-1,0.6l-0.5,0.3l-1,0.6l-1.3,0.8l-7.9,4.8l-0.2,0.1l-1.1,0.7l-0.1,0.1l-5.8,3.6l-1.5,1
	l-0.4,0.3l-0.4,0.3l-1,0.7l-0.4,0.3l-2.5,1.6l-5.8,3.8l-1.4,1l-4.8,3.4l-0.6,0.4l-1.6,1.1l-3.1,2.2l-6.8,4.8l-4.8,3.4l-4.6,3.3
	l-0.6,0.4l-0.8,0.5l-1.2,0.8l-1.2,0.7L843,326l-1.2,0.6l-1.1,0.5l-1.4,0.6l-0.3,0.1l0,0l0,0l-0.2,0.1l-0.8,0.3l-0.2,0.1l-0.8,0.3
	h-0.1l-1.2,0.3l-1.2,0.3h-0.1h-0.2h-0.3l-1.3,0.1h-0.1h-0.4h-0.4l-1.3-0.1l-0.8-0.1l-1-0.2l-0.9-0.3l-0.5-0.1l-0.6-0.3l-0.8-0.3
	l-0.2-0.1l-0.1-0.1l0,0l-0.9-0.5l-0.2-0.1l-0.5-0.3l-0.3-0.2l0,0l-0.7-0.5l-0.4-0.3h-0.1l-0.4-0.3l-1.2-1.1l0,0l-0.3-0.3l-0.2-0.1
	l0,0l-0.1-0.1l0,0l-0.6-0.6l-0.5-0.6l-0.4-0.5l0,0l-0.3-0.4l0,0l-0.3-0.4l-0.2-0.3l-0.5-0.9v-0.1l-0.1-0.2l-0.2-0.5l-0.3-0.6
	l-0.3-0.8l-0.1-0.2l0,0l-0.1-0.3v-0.1l-0.5-1.8l-0.2-0.7v-0.1v-0.1l-0.1-0.4l-0.1-0.4l-0.1-0.6l-0.1-0.6v-0.4v-0.6v-0.4l-0.1-0.8
	v-0.1v-0.1v-0.2l0.1-0.7l0.1-0.5l0,0l0.1-0.3v-0.2l0,0l0.1-0.3l0.2-0.5l0.2-0.5l0.2-0.8l0,0l0.3-0.6l0,0l0.1-0.3l0.1-0.3l0.3-0.5
	l0.2-0.3l0.2-0.2l0.5-0.7l0,0l0.2-0.2l0,0l0.2-0.3l0.2-0.2l0.4-0.3l0.1-0.1l0.5-0.5l0.3-0.2l0.8-0.6l0.1-0.1l0,0l0.1-0.1l0.1-0.1
	l0,0l0.3-0.2l1.5-0.9l0.4-0.2l0.3-0.2l0.4-0.2l0.1-0.1l0,0l0,0l0.7-0.2l0.3-0.1l0.2-0.1l0.5-0.1h0.3l0,0h0.1h0.4l0.2,0.2l0,0h0.1
	l0,0l0.2,0.3l1.3,1.7l0.8,1.1l0.4,0.6l0,0l0.4,0.5l0.1,0.2l0.1,0.1l0,0l0.1,0.2v0.2l0,0l0,0l-0.1,0.4v0.2l-0.1,0.3l0,0l-0.1,0.2
	l-0.1,0.2l-0.1,0.3l-0.7,1.1l-0.8,1.2l-0.2,0.4l-0.5,0.9l-0.9-1.4l0,0v0.1l0,0l0,0l-0.4,0.9l-0.1,0.2l-0.1,0.2l-0.1,0.3l-0.1,0.4
	l0,0l-0.1,0.4v0.3v0.4l0,0l0.1,0.8v0.2v0.3v0.1l0.1,0.1l0.2,0.5l0.1,0.3v0.1l0,0l0.1,0.2l1,1.3l0,0l0,0l0,0l1.1,0.9l0,0l0,0l0.3,0.2
	l0.4,0.2l0.8,0.3h0.2l0.6,0.1h0.1h0.6h0.1l0,0h0.2h0.1h0.1l0.7-0.1l0.9-0.3l0,0l0.4-0.2l0.3-0.2l0,0l0.1-0.1L834.7,315.3l-0.5,0.3
	l1.3-2.8"/>
<path class="st0" d="M1317.6,490.1l-0.1,29.7l-4.9,3.5l-10.5,7.4l-14.7,9.8l-6.2,3.9l-9.5,5.7l-17.8,10.1l0.4,0.9l-23.5,10.9
	l-16.6,7.5l-13,5.4l-3.8,1.4l-18.2,6.7l-8.7,2.9l-10.7,3.4l-13.9,4l-8.9,2.3l-6.1,1.5l-10.4,2.3l-18.5,3.7l-6.8,1.2l-11,1.7l-14.2,2
	l-10.6,1.2l-10.5,1l-12.9,0.9l-7.1,0.3l-6.6,0.2l-8,0.1l-7.4-0.1l-10.5-0.3l-10-0.5l-23.9-1.6l-4-0.9l-64.6-32.6h-0.5l-0.7,0.3
	l0.3-0.1l0,0l-0.1,0.2l0,0h-0.1l0,0l0,0l0,0h-0.1l0,0h-0.1l-0.1,0.1l-0.2,0.1l-0.1,0.2l-0.1,0.2l0,0v0.1v0.1v0.3v0.1l0,0v0.1
	l0.1,0.1l0.2,0.3c4.9,2.4,13.6,7.5,13,9.2c-0.8,2.2-12.8-0.3-19.9-3c-7.1-2.7-12.2-6.6-11.4-8.8c0.5-1.5,1.8-2.1,6-1.3l-1.3-1.8l0,0
	l-2.5-0.7h-0.1l0,0l-1.3-0.4l-0.5-0.2l0.7,0.2l-0.4-0.1l-4.9-1.6l-0.6-0.2l-1.5-0.5l-2.7-1l-1.9-0.7l-0.6-0.2l-0.8-0.3l-0.3-0.1
	l-2.2-0.9l-1.9-0.8l-4-1.7l-2.2-0.9l-0.9-0.4l-0.8-0.4l-1.5-0.7l-0.2-0.1l-0.7-0.3l-0.8-0.4l0,0l-2.5-1.2l-1-0.5l-0.7-0.4l-2.1-1.1
	l-0.7-0.4l-0.3-0.2l-3.4-1.9l-0.8-0.5l-0.2-0.1l-0.6-0.4l-4.1-2.4l-0.5-0.3l-0.5-0.3l-0.2-0.1l-0.4-0.2l-1-0.7l-0.3-0.2l-2.9-1.9
	l0,0l0,0l-1.4-1l-0.8-0.6l-1.3-0.9l-0.4-0.3l-0.7-0.5l-0.6-0.4l-0.1-0.1l-0.8-0.6l-2.7-2l-0.1-0.1l-0.3-0.2l0,0l-0.3-0.2l0,0l0,0
	l-0.1-0.1l0,0l-0.5-0.4l-0.4-0.4l-1.1-0.9l-3-2.4l-1.8-1.5l-2.3-2l-0.5-0.4l-0.8-0.7l-0.8-0.8l-4.2-3.9l-0.7-0.7l-0.1-0.1l-0.4-0.5
	l-2.4-2.5l-1.4-1.5l-0.5-0.5l-0.1-0.1l-0.9-0.9l-1.3-1.5l-1.1-1.3l-2.5-2.9l-1.6-1.8l-0.1-0.1l-0.8-0.9l-0.1-0.1l-0.3-0.4l-0.1-0.1
	l-1.1-1.4l-0.6-0.7l-1.8-2.4l-1.6-2l-0.4-0.6l-0.9-1.2L778,512l0,0l0,0l-0.2-0.2l-0.1-0.1l-0.4-0.6l-1-1.5l-4.3-6.3l-0.7-1.1
	l-0.1-0.2l-0.2-0.3l0,0l-0.2-0.3l-1.9-3.3l-1-1.6l-0.5-0.8l-0.4-0.8l0,0l-0.3-0.5l-2.3-3.1l-0.2-0.4l-0.2-0.3l-0.3-0.6l-1.7-3.4
	l-1-2l-0.5-1.1l-2.8-6.3l0,0l-0.9-2.2l-0.4-1.1l-0.5-1.2v-0.1l-0.6-1.5l-1-2.8l-1-2.7l-0.1-0.2l-0.4-1l-0.4-1.1l-1.2-3.7l-0.5-1.6
	l-0.2-0.8l-0.2-0.6l-1.2-4.1l0,0v-0.1l-0.2-0.7l-0.1-0.3l-0.5-1.7l-1.4-5.3l-0.5-2l-0.5-2.3l-0.3-1.1l-0.2-1l-0.3-1.3l-1.2-5.7
	l-0.4-1.8l-0.1-0.6v-0.1l-0.3-1.6l-0.4-2l-0.4-2.5l-0.1-0.4l-0.3-1.6l-0.2-1l-0.2-1.1l-0.1-0.8l-0.1-0.4l-0.5-3.4l-0.9-6.5l0,0
	l-0.1-0.6l-0.2-1.5v-0.4l-1-8.6l0,0l-0.1-0.9l-0.1-0.9v-0.4l-0.3-3.4v-0.2v-0.1l-0.1-2.1l-1-16.4v-0.9v-0.9v-1.4v-0.1v-0.2l-0.1-2.6
	l-0.1-3.3l-0.1-3.1l-0.1-3.3l0,0l-0.2-0.3l-0.2-0.2v-0.7l0.2-0.4l-0.1-0.1l-0.4-0.5l-0.3-0.4l0,0l-0.2-0.1l0,0l0,0l0,0l-0.2-0.1H735
	l0,0l0,0l0,0h-0.1h-0.1l0,0h-0.1h-0.1l0,0h0.1V353c-0.5,5.6-2.1,9.6-3.9,9.6c-2.3,0-4.1-6.3-4.1-14.2s1.8-14.2,4.1-14.2
	c1.6,0,2.9,3,3.6,7.4h0.1l-0.1-0.1l0.1,0.1h0.2h0.2h0.2l0,0l0,0l0,0l0,0l0.2-0.1l0,0l0,0h0.1l0,0l0,0l0,0l0,0l0,0l0.5-0.5l0.2-0.2
	l0,0l0.1-0.1l0.4-0.5l0.2-0.2v-0.1v-0.1l0,0v-0.1l0.3-0.3l0.1-0.1l0,0v-0.5v-3.2v-0.5l0.1-2l0.3-9.1v-0.3v-1.1l0.1-1.9v-1.2l0.1-2.8
	l0.1-1.4l0,0l0.3-4.7l0.1-1.3v-0.4l0,0v-0.4l0.7-7.7l0.3-3.7l0.4-4.6l0,0v-0.3v-0.3v-0.2v-0.1l0,0v-0.4v-0.1l0.8-6l0,0l0.1-1.1v-0.3
	v-0.2v-0.1v-0.1l0,0l0.1-0.7l0.1-0.6l0.7-4.6l0.1-0.5l0,0v-0.1l0,0l0.5-3.2l0.2-1.1v-0.3l0.2-1.1l0.8-4.5l0.2-0.8v-0.3l0.7-3.2
	l0.9-4.5l0.2-1l0.6-2.6l0.1-0.3l0.7-2.9l0,0l0.3-1.3l0,0l2-7l0.8-2.8v-0.1l0.4-1.4l0,0l0,0l0.4-1.4l0,0v-0.1l0.1-0.4l0.8-2.4
	l0.1-0.3l0.2-0.6l0.7-2v-0.1l0,0l0,0l0.3-0.9l0.5-1.5v-0.1l0.1-0.3l0.1-0.2l0.2-0.4l0.6-1.7l0.8-2.2l0,0l0.2-0.6l0.1-0.3l1.4-3.3
	l1.5-3.6l0,0l0.1-0.3l0,0l0.2-0.5l0.2-0.5l1.6-3.4l0.4-0.8l1.3-2.7l0.3-0.7l0.4-0.9l0.1-0.3l1.7-3.2l0.4-0.8l0.4-0.7l0.3-0.5
	l0.8-1.4l1.5-2.7l0.3-0.5l0,0l3.8-6.1l0.9-1.4l1.8-2.7l0.7-1l0.3-0.4l1.2-1.7l1-1.4l0.3-0.4l0.3-0.5l0.3-0.4l1.7-2.2l0.5-0.6l1-1.3
	l0.8-1l1.5-1.9l0.2-0.3l2.2-2.6l0.8-1l0.7-0.8l0.2-0.2l0.1-0.1l0.6-0.6l1.5-1.7l0.9-1l1.1-1.2l2.2-2.4l0,0l0.9-0.9l1.4-1.4l1-1
	l0.3-0.3l1.1-1.1l1.7-1.6l1.2-1.1l0.1-0.1l0,0l0,0l0,0h0.1l0.1-0.1l0.2-0.1l1.5-1.3l2.2-2l0.5-0.4l0.1-0.1l2.5-2.1l0.5-0.4l0.5-0.4
	l1.9-1.5l0.5-0.4l1-0.8l0.8-0.6l0.5-0.4l1-0.8l3.5-2.5l0.9-0.6l1.7-1.1l1.5-1l0.1-0.1l2.1-1.4l0.5-0.3h0.1l1-0.6l0.1-0.1l3.2-2
	l1.1-0.6l2.3-1.4l0.8-0.5l1.6-0.9l0.5-0.3l1.4-0.8l2.8-1.5l0.3-0.1l1-0.5l1.1-0.6l0.3-0.1l6.5-3.1l0.4-0.2l0.4-0.2l0.1-0.1l2.4-1
	l0.3-0.1l1.1-0.5l3.8-1.5l0.2-0.1l1.8-0.7h0.1l0,0l0.3-0.1l0.9-0.3l4.4-1.6h0.1l0.3-0.1h0.1l0,0l0.3-0.1l1.6-0.5l1.8-0.6h0.1l0,0
	h0.1l3.3-1.1h0.1h0.1l0.6-0.2l0,0c-1.2-0.4-1.2-0.4-2.3-0.9c-2.6-0.8-3.3-1.4-3.8-3.2c-0.6-2.3,4.8-5.7,12.1-7.8
	c7.3-2,21.3-4.7,21.9-2.5c0.4,1.6-9.7,6.6-13.6,8.4l0.3-0.4l-0.1,0.2l-0.1,0.3v0.1l0,0v0.2l0.1,0.3l0.1,0.2l0.1,0.1l0,0l0.1,0.1
	l0.1,0.1l0.1,0.1l0,0l0,0l0,0l0,0l0,0l0,0l0.3,0.2l0,0h0.1l0.3-0.1l-0.3,0.1l0.3-0.1l9.2-1.9l1.2-0.4l-1.2,0.4l0.8-0.4L960,75.4
	l3.2-0.2l14.6-1l12.4-0.7L1007,73h8l14.8,0.3l7.6,0.4l13.8,1l14.1,1.4l7.1,0.9l8.3,1.1l10.6,1.6v-0.1l16.4,3l9.3,1.8l5.8,1.3
	l10.8,2.5l4.9,1.2l7.1,1.9l10,2.8l5.6,1.7l5.4,1.7l7.7,2.5l12.4,4.4l16.6,6.4l12.5,5.2l11.4,5.1l6.7,3.2l10.9,5.5l8.1,4.4l11.2,6.2
	l10.9,6.3l11.4,7.1l11.2,7.3l6.4,4.3l10.8,7.6l-2.4,28.2l-0.7-2.2l0.7,2.2l-0.1-0.1l0.1,0.1l0.4,0.3l1.1,0.7l1.4,1l0.5,0.3l0.4,0.2
	l0.7,0.4l0.8,0.5l0.7,0.3l0,0l0.7,0.2l0.3,0.1l0.2,0.1l0.2,0.1l0,0h0.4h0.2h0.1h0.1h0.1l0,0h0.2h0.4l0.3-0.1l0.5-0.1l0.3-0.1h0.1
	l0.5-0.2l0.3-0.1l0.6-0.4l0.2-0.1l0,0l0.2-0.2l0.8-0.7l0.1-0.1l0,0l0,0v-0.1l0.6-0.8l0.1-0.1l0.1-0.1l0.1-0.1l0,0l0.1-0.3l0.3-0.8
	v-0.1l0,0v-0.4l0,0l0.1-0.3l0,0v-0.5v-0.5v-0.1l-0.1-0.4l0,0l-0.1-0.4v-0.1l-0.4-1.2l-0.1-0.1l-0.3-0.6l-0.8-1.5l-0.4-0.7l-0.1-0.2
	l-1-1.6l-0.3-0.7v-0.1l0,0l0,0l0,0l0,0l0,0v-0.1v-0.1V191v-0.1l0,0l0.1-0.2l0,0l0.1-0.1l0.3-0.4l0.1-0.1l0.3-0.4l0.5-0.6l1.9-2.4
	l0.1-0.1l0,0l0,0l0,0l0.1-0.1l0.2-0.2l0,0l0.1-0.1l0.3-0.1l0,0h0.1h0.1h0.1h0.2h0.1h0.3l0.2,0.1h0.1l0.5,0.2l0.4,0.2l1.2,0.6
	l0.5,0.3l0.1,0.1l0.2,0.1l0.2,0.1l0,0l0.2,0.1l0.7,0.5l0.3,0.2l0.1,0.1l0.8,0.6l0,0l0.7,0.6l0.2,0.2l0.1,0.1l0,0l0,0l0,0l0.1,0.1
	l0.1,0.2l0.2,0.2l0.5,0.6l0.2,0.3l0.5,0.8l0.1,0.2l0.4,0.6l0.1,0.1l0.2,0.4l0.3,0.7l0.1,0.3l0.2,0.4v0.1v0.1l0.1,0.6v0.1l0.1,0.5
	l0.1,0.4v0.1l0.1,1.1v0.4v0.4v0.2l0,0v0.3v0.3v1v0.1v0.2v0.2v0.1l-0.1,0.4l-0.1,0.3l-0.1,0.3l-0.3,1.7v0.1l-0.2,0.8l0,0l-0.2,0.5
	l-0.3,0.8v0.1l-0.1,0.1l0,0v0.1v0.1v0.1l-0.3,0.5l0.2,0.1l-0.2,0.4l0,0l-0.1,0.1l-0.4,0.6l-0.1,0.2l-0.2,0.3l-0.3,0.4l-0.4,0.5
	l-0.3,0.5l0,0l0,0l-0.3,0.3l-0.7,0.8l-0.1,0.1l-0.1,0.1l-0.1,0.1l-0.3,0.2l-0.3,0.2l-0.4,0.3l-0.4,0.3l0,0l-0.1,0.1l-0.1,0.1
	l-0.3,0.2l-0.9,0.6l0,0l-0.5,0.3l0,0l0,0l-0.1,0.1l-0.8,0.4l-0.3,0.2l-0.7,0.4l-0.3,0.1l-0.4,0.2l-0.4,0.2l0,0l0,0l-0.5,0.2
	l-0.9,0.5h-0.1l-0.2,0.1l-0.9,0.2h-0.1l-1.5,0.2h-0.2h-0.2h-0.9h-0.3h-0.1h-0.1h-0.5h-0.4h-0.1l-1.1-0.2h-0.1l-0.6-0.1l-2.1-0.5
	h-0.1l-1.2-0.4l-1.6-0.6l-0.1-0.1l-1.9-0.9l-0.2-0.1l-0.7-0.3l0,0l-0.2-0.1l-1.1-0.7l-1.8-1.1l-0.7-0.4l-4.6-3.3l-4.5-3.2l-0.4-0.3
	l-2.2-1.6l-0.7-0.5l-0.6-0.5l-0.2-0.1l-0.5-0.4l0,0l-7.1-5.1l-0.4-0.3l-0.3-0.2l-0.8-0.6l-0.9-0.6l-4-2.8l-0.6-0.4l-0.7-0.5
	l-3.4-2.2l-0.6-0.4l-0.1-0.1l-1-0.6l-0.4-0.2l-4.3-2.7l-3.6-2.3l-0.3-0.2l-0.3-0.2l-0.1-0.1l-2.6-1.6l-0.4-0.2l-8.7-5.3l-1.4-0.8
	l-0.9-0.5l-0.6-0.3l-0.3-0.2l-0.3-0.2l-5.3-3.1l-1-0.6l-5.2-2.9l-0.5-0.3l-0.5-0.3l-0.3-0.2l-0.3-0.2l0,0l-0.4-0.2l-1.7-0.9
	l-4.7-2.5l0,0l-0.2-0.1l-0.2-0.1l-1.9-1l-1.5-0.8h-0.1l-1.3-0.6l-8-3.9l-1-0.5h-0.1l-0.4-0.2h-0.1l-1.2-0.6l-1.8-0.9l-2.2-1
	l-0.6-0.3l-0.4-0.2l-0.7-0.3l-2.5-1.1l-0.8-0.4l-2.7-1.2l-0.3-0.1l-1.8-0.8l-0.6-0.3l-5.4-2.2l-0.8-0.3l-1.5-0.6l-2-0.8l-0.7-0.3
	l-1.6-0.6l-4.7-1.8l-0.5-0.2l-1.1-0.4l-3.4-1.2l-0.4-0.2h-0.1l-0.4-0.1l0,0l-6.6-2.4l-1.9-0.7l-2.6-0.9l-6.9-2.3l-1.3-0.4l-3.8-1.2
	l-4.6-1.4l-1.8-0.6l-0.7-0.2l-0.5-0.1l-4.3-1.2l-0.9-0.3l-3.2-0.9l-0.3-0.1l-1-0.3l-0.9-0.2l-1-0.2l-4.7-1.2l-6.1-1.5l-0.3-0.1h-0.1
	l-3.1-0.7l-2.5-0.5l-0.5-0.1l-2.1-0.4l-3.2-0.7l-1.1-0.2l-5.3-1l-5.7-1.1l-0.9-0.2h-0.1l-0.9-0.2l-3-0.5l-0.7-0.1l-0.7-0.1h-0.1
	l-1.4-0.2l-5.4-0.9l-5-0.8h-0.3l-1.1-0.2l-9.1-1.3l-1.4-0.2l-0.5-0.1l-8.3-1l-1.4-0.2l-2.1-0.2h-0.3l-7.1-0.7l-0.9-0.1l-4.1-0.3
	l-2.9-0.2l0,0l-2.7-0.2l-0.8-0.1l-1.1-0.1h-0.9h-2.3h-1h-0.1h-1.3h-2.2h-0.4h-3.4l0,0h-0.6l-3.8,0.2l0,0h-0.2h-0.7h-0.4h-0.3h-0.3
	l-1.9,0.1l-0.6,0.1l-0.6,0.1l-5.5,0.5l-0.5,0.1l-1.3,0.1l-2.9,0.3l-2.3,0.3l-3.2,0.4l-2.8,0.4l-1.4,0h-0.1l-0.5,0.1l-0.5,0.1
	L987,114l-0.5,0.1h-0.1l-3.1,0.8l0,0h-0.1l-0.7,0.2l-0.6,0.2l-1.3,0.4l-1.9,0.6l-2.7,0.8l-0.2,0.1l-0.4,0.1l-0.5,0.2l-0.4,0.1
	l-0.3,0.1l-3,1l-0.4,0.1l-2.8,1l-0.6,0.2l-2.3,0.9l-0.3,0.1l-0.3,0.1l-0.5,0.2l-1.2,0.5l-1.8,0.8h-0.1l-0.2,0.1l-0.2,0.1l-0.7,0.4
	l-0.7,0.3l-0.9,0.5l-1.5,0.7l-2.4,1.2l-0.5,0.3l-0.6,0.3l-3.2,1.7l-1.9,1.1l-1.1,0.6l-2.6,1.5l-1.1,0.6l-4.7,2.8l-0.4,0.3l-0.2,0.1
	l-0.3,0.2l-0.3,0.2l-2.5,1.6l-1.6,1l-0.3,0.2l-0.2,0.1l-0.2,0.1l-0.1,0.1l-0.3,0.2l0,0l-0.2,0.2l-9.1,6.2l-0.3,0.2l-0.3,0.2
	l-0.2,0.2l-1.1,0.8l-1.2,0.9l-0.9,0.6l-0.3,0.2l-1.8,1.3l-1.5,1.1l-1.8,1.3l0,0l-0.9,0.7l-1.6,1.3l-2.8,2.2l-1,0.8l-3.4,2.8l-1.1,1
	l-0.8,0.6l-3.6,3.1l-7.2,6.3l-1.5,1.3l-2.7,2.5l-1,0.9l-0.9,0.8l-1.6,1.5l-1.1,1l-2.8,2.8l-0.8,0.8l-2.2,2.3l-2,2.1l-0.6,0.6
	l-0.2,0.2l-0.6,0.7l-2.7,2.9l-4.3,5l-0.8,0.9l0,0l-2.4,2.9l-0.1,0.1l-0.7,0.9l-0.1,0.1l-0.3,0.3l-1.4,1.7l-2.2,2.8l-1,1.3l-0.1,0.1
	l-0.4,0.6l-0.2,0.3l-3.8,5.2l-1.2,1.9l-0.8,1.1l-2,3.1l-0.7,1.1l-0.4,0.6l-0.1,0.2l-0.4,0.6l-2.2,3.7l-0.6,1.1l-0.1,0.2l-0.8,1.5
	l-1.4,2.5l-3.2,5.9l-0.7,1.2l-0.4,0.8l-1.5,3l-0.2,0.5l0,0v0.1l-0.1,0.1l-2,4.3l-0.1,0.2l-0.2,0.5l-0.1,0.2l-0.2,0.4l-2.6,6
	l-1.5,3.4l-0.1,0.2l0,0v0.1l-1.5,3.7l-0.4,1l-0.1,0.2l-0.1,0.2v0.1l-0.3,0.7l-0.8,2l-0.5,1.3l-1.6,4.5l-0.5,1.5l-0.2,0.6l-1.2,3.7
	l-0.4,1.2l-0.2,0.7l-0.1,0.2l-2,6.6v0.1v0.2l-0.5,1.9l-0.2,0.7l-0.2,0.9l-0.7,2.5l0,0l-0.1,0.3l-1.1,4.5l-0.4,1.7l0,0l-0.3,1.6
	l-0.4,1.7l-0.5,2.6v0.1l-0.1,0.3l-0.1,0.4l-0.1,0.3l-0.4,2.4l-0.6,3.3l-0.1,0.5l-0.1,0.6l-0.4,2.8l-0.1,0.4l-0.1,0.4v0.1l-0.8,6.6
	v0.3v0.3l-0.1,0.5l-0.5,5l-0.1,0.7v0.3l0,0v0.1l-0.3,5l-0.1,1v0.6v0.5l-0.1,9.4v2v0.4v0.7v1v1.1l0.2,4.5v0.7v0.7v0.5l0.2,2.6
	l0.1,2.1v0.5l0.3,3.9l0.1,1.4v0.1l0.1,0.9l0.3,3.1l0,0v0.1l0,0v0.1l0.8,5.7v0.1v0.4l0.1,0.4v0.1l0,0l0.3,1.6l1.3,5.8l0.2,1.5
	l0.1,0.3v0.2l0.1,0.4l0.3,1.3l0.6,2.6l0.5,2.5l0.3,1.4l0.3,1.1l1,3.9l0.4,1.6v0.1l0.2,0.7v0.2l0.7,2.6l0.6,2.2l0.7,2.5l1.2,3.7
	l0.2,0.6l0.8,2.4l0.5,1.4l1,2.9l1.6,4.3l0.2,0.5l0.3,0.8l0.4,1.1l0.3,0.9l0.2,0.5l0.3,0.8l0.3,0.8l0.3,0.7l2.6,6.2l2.1,5l0.3,0.6
	l0.5,1l0.3,0.7l2,4.2l1.4,2.9l0.3,0.7l0,0l0.1,0.2l0.1,0.1l0.2,0.4l0.7,1.3l2,3.8l0.2,0.4l0.6,1l0.4,0.8l1.5,2.8l0.4,0.7l2,3.4
	l2.2,3.6l0.7,1.1l0.1,0.1l2,2.9l2.4,3.6l0.5,0.7l0.9,1.2l2.2,3l0.4,0.6l3.6,4.6l0.5,0.7l0.3,0.4l1.2,1.5l3.1,3.7l0.5,0.6l0.1,0.1
	l0.7,0.8l0.8,0.9l3.7,4.2l0.5,0.5l4.2,4.5l0.2,0.2l0.1,0.1l0.2,0.2l0.6,0.6l4.8,4.8l0.9,0.9l3.8,3.5l0.3,0.3l0.7,0.7l8.8,7.7
	l1.8,1.5l3.5,3l3.1,2.6l0.9,0.8l3.3,2.7l1.2,0.9l0.3,0.2l0.2,0.2l6.4,4.8l0.1,0.1l0.8,0.6l3.5,2.5l0.4,0.2l0.9,0.6h0.1l0.2,0.2
	l0.1,0.1l0.5,0.3l0,0h0.1l0.3,0.2h0.1l8.3,5.6l0.1,0.1l0.1,0.1l0.3,0.2l0.3,0.2l0.7,0.5l0.9,0.5l0.7,0.5l1.5,0.9l0.5,0.3l3.7,2.3
	l0,0l4.7,2.7l0.4,0.2l0,0l0.4,0.2l0,0l3.8,2.1l0.4,0.2l0,0l0.4,0.2l0.7,0.4l1,0.5l4.5,2.4l0.6,0.3l0.3,0.1l0.3,0.1l4.3,1.9l0.7,0.3
	l0.3,0.1l2.5,1l0.3,0.1l0,0l0,0h0.1l0.3,0.1l0,0l0.2,0.1h0.1l1.5,0.5l1.7,0.6l0.9,0.3l0.2,0.1l4.3,1.4l1.8,0.6l0.3,0.1l0.4,0.1
	l3.6,1l0.4,0.1h0.1h0.1l0.6,0.2l0.2,0.1l0.2,0.1l3.1,0.8l0.3,0.1l0.4,0.1l5,1l0.4,0.1l0.4,0.1l1.4,0.2l3.1,0.5l0.6,0.1h0.3h0.2
	l2.3,0.3l1.8,0.3l2.6,0.3l1.1,0.1h0.1l3.2,0.3l0.7,0.1l3.2,0.3l1,0.1l0.6,0.1l2.9,0.2h0.4l2.2,0.1l2.5,0.1h1.4h5.4h0.3h0.4h1.1h0.6
	l1.3-0.1l1.4-0.1l7-0.3l0.8-0.1h0.1l7.3-0.6l1.8-0.2l2.9-0.3l3.1-0.3l0.7-0.1l8.3-1l0.5-0.1l1.4-0.2l0.7-0.1l1.4-0.2l8-1.1l1.7-0.2
	l3.7-0.6h0.2l2.1-0.4l4.3-0.8l4.8-0.8l0.7-0.1l6.5-1.3l0.3-0.1l2.1-0.4l0.7-0.1l7.9-1.6l0.6-0.1l0.4-0.1h0.2l5.5-1.3l0.4-0.1h0.2
	l1.2-0.3l3.3-0.8l1.1-0.3l3.2-0.8l0,0l1.1-0.3l1.6-0.4l2.5-0.7l2.7-0.8l1.1-0.3l1.5-0.4l2.5-0.7l1.2-0.3l6.8-2.1l6.2-1.9l0.3-0.1
	l1.2-0.4l0.2-0.1l0.7-0.2l1.6-0.5l0.8-0.3l1-0.3l10.8-3.8l1.3-0.5l0.4-0.1l1-0.4l1-0.3l1.7-0.6l0.5-0.2l2.3-0.9l5.2-2l4.5-1.8
	l0.4-0.2h0.1l0.4-0.2l2-0.8l0,0l1.8-0.7l1.8-0.8l0.9-0.4l3.7-1.6l1.5-0.7l0.1-0.1l3.9-1.8l1.7-0.8l1-0.5l1.9-0.9l1-0.5l4.5-2.2
	l1.2-0.6l0.2-0.1l0.5-0.2l2.7-1.4l2.6-1.3l1-0.5l0.3-0.2l0.1-0.1l0.8-0.4l3.3-1.8l0.4-0.2l0.2-0.1l0.9-0.5l0.6-0.3l0.5-0.3l1.4-0.8
	l0.2-0.1l8.5-4.8l0.8-0.5l0.7-0.4l0.5-0.3l0.3-0.2l1-0.6l0.5-0.3l1-0.6l1.3-0.8l7.9-4.8l0.2-0.1l1.1-0.7l0.1-0.1l5.8-3.6l1.5-1
	l0.4-0.3l0.4-0.3l1-0.7l0.4-0.3l2.5-1.6l5.8-3.8l1.4-1l4.8-3.4l0.6-0.4l1.6-1.1l3.1-2.2l6.8-4.8l4.8-3.4l4.6-3.3l0.6-0.4l0.8-0.5
	l1.2-0.8l1.2-0.7l0.3-0.1l1.2-0.6l1.1-0.5l1.4-0.6l0.3-0.1l0,0l0,0l0.2-0.1l0.8-0.3l0.2-0.1l0.8-0.3h0.1l1.2-0.3l1.2-0.3h0.1h0.2
	h0.3l1.3-0.1h0.1h0.4h0.4l1.3,0.1l0.8,0.1l1,0.2l0.9,0.3l0.5,0.1l0.6,0.3l0.8,0.3l0.2,0.1l0.1,0.1l0,0l0.9,0.5l0.2,0.1l0.5,0.3
	l0.3,0.2l0,0l0.7,0.5l0.4,0.3h0.1l0.4,0.3l1.2,1.1l0,0l0.3,0.3l0.2,0.1l0,0l0.1,0.1l0,0l0.6,0.6l0.5,0.6l0.4,0.5l0,0l0.3,0.4l0,0
	l0.3,0.4l0.2,0.3l0.5,0.9v0.1l0.1,0.2l0.2,0.5l0.3,0.6l0.3,0.8l0.1,0.2l0,0l0.1,0.3v0.1l0.5,1.8l0.2,0.7v0.1v0.1l0.1,0.4l0.1,0.4
	l1,1.1l0.1,0.6v0.4v0.6v0.4l0.1,0.8v0.1v0.1v0.2l-0.1,0.7l-0.1,0.5l0,0l-0.1,0.3v0.2l0,0l-0.1,0.3l-0.2,0.5l-0.2,0.5l-0.2,0.8l0,0
	l-0.3,0.6l0,0l-0.1,0.3l-0.1,0.3l-0.3,0.5l-0.2,0.3l-0.2,0.2l-0.5,0.7l0,0l-0.2,0.2l0,0l-0.2,0.3l-0.2,0.2l-0.4,0.3l-0.1,0.1
	l-0.5,0.5l-0.3,0.2l-0.8,0.6l-0.1,0.1l0,0l-0.1,0.1l-0.1,0.1l0,0l-0.3,0.2l-1.5,0.9l-0.7,0.3l-0.3,0.2l-0.4,0.2l-0.1,0.1l0,0l0,0
	l-0.7,0.2l-0.3,0.1l-0.2,0.1l-0.5,0.1h-0.3l0,0h-0.1h-0.4l-0.2-0.2l0,0h-0.1l0,0l-0.2-0.3l-1.3-1.7l-0.8-1.1l-0.4-0.6l0,0l-0.3-0.5
	l-0.1-0.2l-0.1-0.1l0,0l-0.1-0.2v-0.2l0,0l0,0l0.1-0.4v-0.2l0.1-0.3l0,0l0.1-0.2l0.1-0.2l0.1-0.3l0.7-1.1l0.8-1.2l0.2-0.4l0.5-0.9
	l0.1-0.1l0,0v-0.1l0,0l0,0l0.4-0.9l0.1-0.2l0.1-0.2l0.1-0.3l0.1-0.4l0,0l0.1-0.4v-0.3v-0.4l0,0l-0.1-0.8v-0.2v-0.3v-0.1l-0.1-0.1
	l-0.2-0.5l-0.1-0.3v-0.1l0,0l-0.1-0.2l-1-1.3l0,0l0,0l0,0l-1.1-0.9l0,0l0,0l-0.3-0.2l-0.4-0.2l-0.8-0.3h-0.2l-0.6-0.1h-0.1h-0.6
	h-0.1l0,0h-0.2h-0.1h-0.1l-0.7,0.1l-0.9,0.3l0,0l-0.4,0.2l-0.3,0.2l0,0l-0.1,0.1L1317.6,490.1l0.5-0.3l-1.3,2.8"/>
</svg>
