<?xml version="1.0" encoding="utf-8"?>
<!-- Generator: Adobe Illustrator 23.1.1, SVG Export Plug-In . SVG Version: 6.00 Build 0)  -->
<svg version="1.1" id="Layer_1" xmlns="http://www.w3.org/2000/svg" xmlns:xlink="http://www.w3.org/1999/xlink" x="0px" y="0px"
	 viewBox="0 0 1296 792" style="enable-background:new 0 0 1296 792;" xml:space="preserve">
<style type="text/css">
	.st0{fill:none;stroke:#000000;stroke-width:8.035216e-03;stroke-miterlimit:11.3386;}
</style>
<path class="st0" d="M-74.8,246.6l0.1-29.7l5.1-3.5l10.9-7.4l15.3-9.8l6.4-3.9l9.9-5.7l18.5-10.1l-0.5-0.9l24.4-10.9l17.2-7.5
	l13.5-5.4l4-1.5l18.9-6.7l9-2.9l11.1-3.4l14.5-4l9.3-2.3l6.3-1.5l10.8-2.3l19.2-3.7l7.1-1.2l11.4-1.7l14.8-2l11.1-1.2l10.9-1
	l13.4-0.9l7.4-0.3l6.9-0.2l8.3-0.1l7.7,0.1l10.9,0.3l10.4,0.5l24.9,1.6l4.2,0.9l67.1,32.6l0.5,0l0.7-0.3l-0.3,0.1l0,0l0.1-0.2l0,0
	l0.1,0l0,0l0,0l0,0l0.1,0l0,0l0.1,0l0.1-0.1l0.2-0.1l0.1-0.2l0.1-0.2l0,0l0-0.1l0-0.1l0-0.3l0-0.1l0,0l0-0.1l-0.1-0.1l-0.2-0.3
	c-5.1-2.4-14.2-7.5-13.5-9.2c0.8-2.2,13.3,0.3,20.6,3s12.7,6.6,11.9,8.8c-0.6,1.5-1.9,2.1-6.3,1.3l1.4,1.8l0,0l2.6,0.7l0.1,0l0,0
	l1.3,0.4l0.6,0.2l-0.7-0.2l0.4,0.1l5.1,1.6l0.6,0.2l1.6,0.5l2.8,1l2,0.7l0.6,0.2l0.9,0.3l0.3,0.1l2.3,0.9l2,0.8l4.1,1.7l2.3,0.9
	l0.9,0.4l0.8,0.4l1.5,0.7l0.2,0.1l0.7,0.3l0.8,0.4l0,0l2.5,1.2l1.1,0.5l0.7,0.4l2.1,1.1l0.7,0.4l0.3,0.2l3.5,1.9l0.9,0.5l0.2,0.1
	l0.7,0.4l4.2,2.4l0.5,0.3l0.6,0.3l0.2,0.1l0.4,0.2l1.1,0.7l0.3,0.2l3,1.9l0,0l0,0l1.4,1l0.9,0.6l1.4,0.9l0.4,0.3l0.8,0.5l0.6,0.4
	l0.1,0.1l0.9,0.6l2.8,2l0.1,0.1l0.3,0.2l0,0l0.3,0.2l0,0l0,0l0.2,0.1l0,0l0.5,0.4l0.5,0.4l1.2,0.9l3.2,2.4l1.8,1.5l2.4,2l0.5,0.4
	l0.8,0.7l0.8,0.8l4.3,3.9l0.8,0.7l0.1,0.1l0.5,0.5l2.5,2.5l1.5,1.5l0.5,0.5l0.1,0.1l0.9,0.9l1.4,1.5l1.2,1.3l2.6,2.9l1.6,1.8
	l0.1,0.1l0.8,0.9l0.1,0.1l0.3,0.4l0.1,0.1l1.2,1.4l0.6,0.7l1.9,2.4l1.6,2l0.5,0.6l0.9,1.2l0.2,0.3l0,0l0,0l0.2,0.2l0.1,0.1l0.4,0.6
	l1,1.5l4.4,6.3l0.7,1.1l0.1,0.2l0.2,0.3l0,0l0.2,0.3l2,3.3l1,1.6l0.5,0.8l0.5,0.8l0,0l0.3,0.5l1.7,3.1l0.2,0.4l0.2,0.3l0.3,0.6
	l1.8,3.4l1,2l0.5,1.1l2.9,6.3l0,0l0.9,2.2l0.4,1.1l0.5,1.2l0,0.1l0.6,1.5l1.1,2.8l1,2.7l0.1,0.2l0.4,1l0.4,1.1l1.3,3.7l0.5,1.6
	l0.3,0.8l0.2,0.6l1.3,4.1l0,0l0,0.1l0.2,0.7l0.1,0.3l0.5,1.7l1.5,5.3l0.5,2l0.6,2.3l0.3,1.1l0.2,1l0.3,1.3l1.2,5.7l0.4,1.8l0.1,0.6
	l0,0.1l0.3,1.6l0.4,2l0.5,2.5l0.1,0.4l0.3,1.6l0.2,1l0.2,1.1l0.1,0.8l0.1,0.4l0.5,3.4l0.9,6.5l0,0l0.1,0.6l0.2,1.5l0,0.4l1,8.6l0,0
	l0.1,0.9l0.1,0.9l0,0.4l0.3,3.4l0,0.2l0,0.1l0.1,2.1l1,16.4l0,0.9l0,0.9l0,1.4l0,0.1l0,0.2l0.1,2.6l0.1,3.3l0.1,3.1l0.1,3.3l0,0
	l0.2,0.3l0.2,0.2v0.7l0.1,0.1l0.1,0.1l0.5,0.5l0.3,0.4l0,0l0.2,0.1l0,0l0,0l0,0l0.2,0.1l0.2,0l0.1,0l0,0l0,0l0.1,0l0.1,0l0,0l0.1,0
	l0.1,0l0,0l-0.1,0l0,0.1c0.6-5.6,2.2-9.6,4-9.6c2.3,0,4.3,6.3,4.3,14.2s-1.9,14.2-4.3,14.2c-1.6,0-3-3-3.7-7.4l-0.1,0l0.2,0.1
	l-0.2-0.1l-0.2,0l-0.2,0l-0.2,0h0l0,0l0,0l0,0l-0.2,0.1l0,0l0,0l-0.1,0l0,0l0,0l0,0l0,0l0,0l-0.5,0.5l-0.2,0.2l0,0l-0.1,0.1
	l-0.4,0.5l-0.2,0.2v0.1v0.1v0v0.1l-0.3,0.3l-0.1,0.1l0,0l0,0.5l-0.1,3.2l0,0.5l-0.1,2l-0.3,9.1l0,0.3l0,1.1l-0.1,1.9l0,1.2l-0.1,2.8
	l-0.1,1.4l0,0l-0.3,4.7l-0.1,1.3l0,0.4v0l0,0.4l-0.8,7.7l-0.4,3.7l-0.4,4.6l0,0l0,0.3l0,0.3l0,0.2l0,0.1l0,0l0,0.4l0,0.1l-0.8,6l0,0
	l-0.1,1.1l0,0.3l0,0.2l0,0.1l0,0.1l0,0l-0.1,0.7l-0.1,0.6l-0.7,4.6l-0.1,0.5l0,0l0,0.1l0,0l-0.5,3.2l-0.2,1.1l0,0.3l-0.2,1.1
	l-0.8,4.5l-0.2,0.8l-0.1,0.3l-0.7,3.2l-1,4.5l-0.2,1l-0.6,2.6l-0.1,0.3l-0.7,2.9l0,0l-0.3,1.3l0,0l-2.1,7l-0.8,2.8l0,0.1l-0.4,1.4
	l0,0l0,0l-0.5,1.4l0,0l0,0.1l-0.1,0.4l-0.8,2.4l-0.1,0.3l-0.2,0.6l-0.7,2l0,0.1l0,0l0,0l-0.3,0.9l-0.5,1.5l0,0.1l-0.1,0.3l-0.1,0.2
	L511,509l-0.6,1.7l-0.9,2.2l0,0l-0.2,0.6l-0.1,0.3l-1.4,3.3l-1.5,3.6l0,0l-0.1,0.3l0,0l-0.2,0.5l-0.2,0.5l-1.5,3.3l-0.4,0.8
	l-1.3,2.7l-0.3,0.7l-0.4,0.9l-0.1,0.3l-1.7,3.2l-0.4,0.8l-0.4,0.7l-0.3,0.5l-0.8,1.4l-1.5,2.7l-0.3,0.5l0,0l-3.9,6.1l-0.9,1.4
	l-1.8,2.7l-0.8,1l-0.3,0.4l-1.3,1.7l-1,1.4l-0.3,0.4l-0.3,0.5l-0.3,0.4l-1.8,2.2l-0.5,0.6l-1,1.3l-0.9,1l-1.6,1.9l-0.2,0.3l-2.2,2.6
	l-0.9,1l-0.7,0.8l-0.2,0.2l-0.1,0.1l-0.6,0.6l-1.6,1.7l-0.9,1l-1.1,1.2l-2.3,2.4l0,0l-0.9,0.9l-1.4,1.4l-1,1l-0.3,0.3l-1.1,1.1
	l-1.7,1.6l-1.2,1.1l-0.1,0.1l0,0l0,0l0,0l-0.1,0.1l-0.1,0.1l-0.2,0.1l-1.5,1.3l-2.3,2l-0.5,0.4l-0.2,0.1l-2.6,2.1l-0.5,0.4l-0.5,0.4
	l-1.9,1.5l-0.5,0.4l-1.1,0.8l-0.9,0.6l-0.5,0.4l-1.1,0.8l-3.6,2.5l-1,0.6l-1.7,1.1l-1.6,1l-0.1,0.1l-2.2,1.4l-0.6,0.3l-0.1,0l-1,0.6
	l-0.1,0.1l-3.3,2l-1.1,0.6l-2.4,1.4l-0.8,0.5l-1.6,0.9l-0.5,0.3l-1.5,0.8l-2.9,1.5l-0.3,0.1l-1,0.5l-1.2,0.6l-0.3,0.1l-6.8,3.1
	l-0.4,0.2l-0.5,0.2l-0.1,0.1l-2.5,1l-0.3,0.1l-1.2,0.5l-4,1.5l-0.2,0.1l-1.9,0.7l-0.1,0l0,0l-0.3,0.1l-0.9,0.3l-4.5,1.6l-0.1,0
	l-0.3,0.1l-0.1,0l0,0l-0.3,0.1l-1.6,0.5l-1.9,0.6l-0.1,0l0,0l-0.1,0l-3.4,1.1l-0.1,0l-0.1,0l-0.6,0.2h0c1.2,0.4,1.2,0.4,2.4,0.9
	c2.7,0.8,3.4,1.4,3.9,3.2c0.6,2.3-5,5.7-12.6,7.8c-7.6,2-22.2,4.7-22.8,2.5c-0.4-1.6,10.1-6.6,14.2-8.4l-0.3,0.4l0.1-0.2l0.1-0.3
	l0-0.1l0,0l0-0.2l-0.1-0.3l-0.2-0.2l-0.1-0.1l0,0l-0.1-0.1l-0.1-0.1l-0.1-0.1l0,0l0,0l0,0l0,0l0,0l0,0l-0.4-0.2l0,0l-0.1,0l-0.3,0.1
	l0.3-0.1l-0.3,0.1l-9.6,1.9l-1.2,0.4l1.2-0.4l-0.8,0.4l-61,30.9l-3.3,0.2l-15.2,1l-12.9,0.7l-17.5,0.5l-8.3,0l-15.4-0.3l-7.9-0.4
	l-14.4-1l-14.6-1.4l-7.3-0.9l-8.6-1.1l-11-1.6l0,0.1l-17-3l-9.6-1.8l-6.1-1.3l-11.2-2.5l-5.1-1.2l-7.4-1.9l-10.4-2.8l-5.8-1.7
	l-5.6-1.7l-8-2.5l-12.9-4.4l-17.3-6.4l-13-5.2l-11.9-5.1l-6.9-3.2l-11.4-5.5l-8.4-4.4l-11.6-6.2l-11.3-6.3l-11.9-7.1l-11.6-7.3
	l-6.6-4.3l-11.2-7.6l2.5-28.2l0.7,2.2l-0.7-2.2l0.1,0.1l-0.1-0.1l-0.4-0.3l-1.1-0.7l-1.5-1l-0.5-0.3l-0.4-0.2l-0.7-0.4l-0.9-0.5
	l-0.7-0.3l0,0l-0.7-0.2l-0.3-0.1l-0.2-0.1l-0.2-0.1l0,0l-0.4,0l-0.2,0l-0.1,0l-0.1,0l-0.1,0l0,0l-0.2,0l-0.4,0l-0.3,0.1l-0.5,0.1
	l-0.4,0.1l-0.1,0l-0.5,0.2l-0.3,0.1l-0.6,0.4l-0.2,0.1l0,0l-0.2,0.2l-0.8,0.7l-0.1,0.1l0,0l0,0l0,0.1l-0.7,0.8l-0.1,0.1l-0.1,0.1
	l-0.1,0.1l0,0l-0.1,0.3l-0.3,0.8l0,0.1l0,0l0,0.4l0,0l-0.1,0.3l0,0l0,0.5l0,0.5l0,0.1l0.1,0.4l0,0l0.1,0.4l0,0.1l0.4,1.2l0.1,0.1
	l0.3,0.6l0.8,1.5l0.4,0.7l0.2,0.2l1,1.6l0.3,0.7l0,0.1l0,0l0,0l0,0l0,0l0,0l0,0.1l0,0.1l0,0.3l0,0.1l0,0l-0.1,0.2l0,0l-0.1,0.1
	l-0.3,0.4l-0.1,0.1l-0.3,0.4l-0.5,0.6l-1.9,2.4l-0.1,0.1l0,0l0,0l0,0l-0.1,0.1l-0.2,0.2l0,0l-0.1,0.1l-0.3,0.1l0,0l-0.1,0l-0.1,0
	l-0.1,0l-0.2,0l-0.1,0l-0.4,0l-0.2-0.1l-0.1,0l-0.5-0.2l-0.4-0.2l-1.3-0.6l-0.6-0.3l-0.2-0.1l-0.2-0.1l-0.2-0.1l0,0l-0.2-0.1
	l-0.8-0.5l-0.3-0.2l-0.1-0.1l-0.9-0.6l0,0l-0.7-0.6l-0.2-0.2l-0.1-0.1l0,0l0,0l0,0l-0.1-0.1l-0.1-0.2l-0.2-0.2l-0.6-0.6l-0.2-0.3
	l-0.5-0.8l-0.1-0.2l-0.4-0.6l-0.1-0.1l-0.2-0.4l-0.3-0.7l-0.1-0.3l-0.2-0.4l0-0.1l0-0.1l-0.1-0.6l0-0.1l-0.1-0.5l-0.1-0.4l0-0.1
	l-0.1-1.1l0-0.4l0-0.4l0-0.2l0,0l0-0.3l0-0.3l0-1l0-0.1l0-0.2l0-0.2l0-0.1l0.1-0.4l0.1-0.3l0.1-0.3l0.3-1.7l0-0.1l0.2-0.8l0,0
	l0.2-0.5l0.3-0.8l0-0.1l0.1-0.1l0,0l0.1-0.1l0-0.1l0-0.1l0.3-0.5l0.1-0.2l0.2-0.4l0,0l0.1-0.1l0.4-0.6l0.1-0.2l0.2-0.3l0.3-0.4
	l0.4-0.5l0.4-0.5l0,0l0,0l0.3-0.3l0.7-0.8l0.1-0.1l0.1-0.1l0.1-0.1l0.3-0.2l0.3-0.2l0.4-0.3l0.4-0.3l0,0l0.1-0.1l0.2-0.1l0.3-0.2
	l0.9-0.6l0,0l0.5-0.3l0.1,0l0,0l0.1-0.1l0.8-0.4l0.3-0.2l0.7-0.4l0.3-0.1l0.4-0.2l0.4-0.2l0,0l0,0l0.5-0.2l0.8-0.2l0.1,0l0.2-0.1
	l0.9-0.2l0.1,0l1.5-0.2l0.2,0l0.2,0l0.9,0l0.4,0l0.1,0l0.1,0l0.5,0l0.4,0l0.1,0l1.2,0.2l0.1,0l0.6,0.1l2.1,0.5l0.1,0l1.2,0.4
	l1.7,0.6l0.1,0.1l1.9,0.9l0.2,0.1l0.7,0.3l0,0l0.2,0.1l1.2,0.7l1.9,1.1l0.7,0.4l4.8,3.3l4.7,3.2l0.5,0.3l2.3,1.6l0.7,0.5l0.7,0.5
	l0.2,0.1l0.6,0.4l0,0l7.4,5.1l0.4,0.3l0.3,0.2l0.8,0.6l0.9,0.6l4.2,2.8l0.6,0.4l0.7,0.5l3.5,2.2l0.7,0.4l0.1,0.1l1,0.6l0.4,0.2
	l4.5,2.7l3.8,2.3l0.4,0.2l0.3,0.2l0.1,0.1l2.7,1.6l0.4,0.2l9,5.3l1.4,0.8l0.9,0.5l0.6,0.3l0.3,0.2l0.3,0.2l5.5,3.1l1,0.6l5.4,2.9
	l0.5,0.3l0.6,0.3l0.3,0.2l0.3,0.2l0,0l0.4,0.2l1.7,0.9l4.9,2.5l0,0l0.3,0.1l0.3,0.1l2,1l1.6,0.8l0.1,0l1.3,0.6l8.3,3.9l1,0.5l0.1,0
	l0.4,0.2l0.1,0l1.2,0.6l1.9,0.9l2.3,1l0.6,0.3l0.5,0.2l0.7,0.3l2.6,1.1l0.8,0.4l2.8,1.2l0.3,0.1l1.9,0.8l0.6,0.3l5.6,2.2l0.9,0.3
	l1.5,0.6l2,0.8l0.8,0.3l1.7,0.6l4.9,1.8l0.5,0.2l1.1,0.4l3.5,1.2l0.4,0.2l0.1,0l0.4,0.1l0,0l6.8,2.4l2,0.7l2.7,0.9l7.1,2.3l1.4,0.4
	l4,1.2l4.8,1.4l1.9,0.6l0.8,0.2l0.5,0.1l4.5,1.2l1,0.3l3.3,0.9l0.3,0.1l1.1,0.3l1,0.2l1.1,0.2l4.9,1.2l6.3,1.5l0.3,0.1l0.1,0
	l3.2,0.7l2.6,0.5l0.5,0.1l2.2,0.4l3.3,0.7l1.1,0.2l5.5,1l5.9,1.1l0.9,0.2l0.1,0l0.9,0.2l3.1,0.5l0.7,0.1l0.8,0.1l0.1,0l1.5,0.2
	l5.6,0.9l5.2,0.8l0.3,0l1.2,0.2l9.4,1.3l1.5,0.2l0.5,0.1l8.6,1l1.4,0.2l2.1,0.2l0.3,0l7.3,0.7l0.9,0.1l4.3,0.3l3,0.2l0,0l2.9,0.2
	l0.8,0.1l1.2,0.1l0.9,0l2.4,0l1.1,0l0.1,0l1.3,0l2.3,0l0.4,0l3.5,0l0,0l0.7,0l4-0.2l0,0l0.2,0l0.7,0l0.4,0l0.3,0l0.3,0l2-0.1
	l0.6-0.1l0.6-0.1l5.7-0.5l0.6-0.1l1.4-0.1l3-0.3l2.4-0.3l3.4-0.4l2.9-0.4l0.7-0.1l0.2,0l0.5-0.1l0.5-0.1l7.6-1.5l0.5-0.1l0.1,0
	l3.2-0.8l0,0l0.1,0l0.8-0.2l0.6-0.2l1.3-0.4l2-0.6l2.8-0.8l0.3-0.1l0.3-0.1l0.5-0.2l0.4-0.1l0.4-0.1l3.1-1l0.4-0.1l2.9-1l0.6-0.2
	l2.4-0.9l0.4-0.1l0.3-0.1l0.5-0.2l1.2-0.5l1.9-0.8l0.1,0l0.2-0.1l0.2-0.1l0.8-0.4l0.7-0.3l1-0.5l1.5-0.7l2.5-1.2l0.5-0.3l0.6-0.3
	l3.3-1.7l2-1.1l1.2-0.6l2.7-1.5l1.1-0.6l4.9-2.8l0.5-0.3l0.2-0.1l0.3-0.2l0.3-0.2l2.6-1.6l1.7-1l0.3-0.2l0.2-0.1l0.2-0.1l0.1-0.1
	l0.3-0.2l0,0l0.2-0.2l9.5-6.2l0.3-0.2l0.3-0.2l0.2-0.2l1.1-0.8l1.3-0.9l0.9-0.6l0.3-0.2l1.9-1.3l1.6-1.1l1.8-1.3l0,0l0.9-0.7
	l1.7-1.3l2.9-2.2l1-0.8l3.6-2.8l1.2-1l0.8-0.6l3.7-3.1l7.5-6.3l1.6-1.3l2.8-2.5l1.1-0.9l0.9-0.8l1.7-1.5l1.1-1l2.9-2.8l0.8-0.8
	l2.3-2.3l2.1-2.1l0.6-0.6l0.2-0.2l0.7-0.7l2.8-2.9l4.5-5l0.8-0.9l0,0l2.5-2.9l0.1-0.1l0.8-0.9l0.1-0.1l0.3-0.3l1.5-1.7l2.2-2.8
	l1-1.3l0.1-0.1l0.4-0.6l0.2-0.3l3.9-5.2l1.3-1.9l0.8-1.1l2.1-3.1l0.8-1.1l0.4-0.6l0.1-0.2l0.4-0.6l2.3-3.7l0.6-1.1l0.1-0.2l0.9-1.5
	l1.4-2.5l3.3-5.9l0.7-1.2l0.4-0.8l1.5-3l0.2-0.5l0,0l0-0.1l0.1-0.1l2.1-4.3l0.1-0.2l0.2-0.5l0.1-0.2l0.2-0.4l2.7-6l1.5-3.4l0.1-0.2
	l0,0l0-0.1l1.6-3.7l0.4-1l0.1-0.2l0.1-0.2l0-0.1l0.3-0.7l0.8-2l0.5-1.3l1.7-4.5l0.6-1.5l0.2-0.6l1.3-3.7l0.4-1.2l0.2-0.7l0.1-0.2
	l2.1-6.6l0-0.1l0.1-0.2l0.5-1.9l0.2-0.7l0.3-0.9l0.7-2.5l0,0l0.1-0.3l1.1-4.5l0.4-1.7l0,0l0.3-1.6l0.4-1.7l0.6-2.6l0-0.1l0.1-0.3
	l0.1-0.4l0.1-0.3l0.4-2.4l0.6-3.3l0.1-0.5l0.1-0.6l0.4-2.8l0.1-0.4l0.1-0.4l0-0.1l0.8-6.6l0-0.3l0-0.3l0.1-0.5l0.5-5l0.1-0.7l0-0.3
	l0,0l0-0.1l0.3-5l0.1-1l0-0.6l0-0.5l0.1-9.4l0-2l0-0.4l0-0.7l0-1l0-1.1l-0.2-4.5l0-0.7l0-0.7l0-0.5l-0.2-2.6l-0.1-2.1l0-0.5
	l-0.4-3.9l-0.1-1.4l0-0.1l-0.1-0.9l-0.3-3.1l0,0l0-0.1l0,0l0-0.1l-0.8-5.7l0-0.1l0-0.4l-0.1-0.4l0-0.1l0,0l-0.3-1.6l-1-5.3l-0.3-1.5
	l-0.1-0.3l0-0.2l-0.1-0.4l-0.3-1.3l-0.6-2.6l-0.6-2.5l-0.3-1.4l-0.3-1.1l-1-3.9l-0.4-1.6l0-0.1l-0.2-0.7l0-0.2l-0.7-2.6l-0.6-2.2
	l-0.8-2.5l-1.2-3.7l-0.2-0.6l-0.8-2.4L439,316l-1.1-2.9l-1.7-4.3l-0.2-0.5l-0.3-0.8l-0.4-1.1l-0.4-0.9l-0.2-0.5l-0.2-0.5l-0.4-0.8
	l-0.3-0.7l-2.7-6.2l-2.2-5l-0.3-0.6l-0.5-1l-0.3-0.7l-2.1-4.2l-1.4-2.9l-0.3-0.7l0,0l-0.1-0.2l-0.1-0.1l-0.2-0.4l-0.7-1.3l-2.1-3.8
	l-0.2-0.4l-0.6-1l-0.4-0.8l-1.6-2.8l-0.4-0.7l-2.1-3.4l-2.3-3.6l-0.7-1.1l-0.1-0.1l-2-2.9l-2.5-3.6l-0.5-0.7l-0.9-1.2l-2.3-3
	l-0.4-0.6l-3.7-4.6l-0.5-0.7l-0.3-0.4l-1.3-1.5l-3.2-3.7l-0.5-0.6l-0.1-0.1l-0.7-0.8l-0.9-0.9l-3.8-4.2l-0.5-0.5l-4.4-4.5l-0.2-0.2
	l-0.1-0.1l-0.2-0.2l-0.6-0.6l-5-4.8l-1-0.9l-3.9-3.5l-0.3-0.3l-0.8-0.7l-9.1-7.7l-1.8-1.5l-3.7-3l-3.3-2.6l-1-0.8l-3.4-2.7l-1.2-0.9
	l-0.3-0.2l-0.2-0.2l-6.7-4.8l-0.1-0.1l-0.8-0.6l-3.6-2.5l-0.4-0.2l-0.9-0.6l-0.1,0l-0.3-0.2l-0.2-0.1l-0.5-0.3l0,0l-0.1,0l-0.3-0.2
	l-0.1,0l-8.6-5.6L325,181l-0.1-0.1l-0.3-0.2l-0.4-0.2l-0.7-0.5l-0.9-0.5l-0.8-0.5l-1.5-0.9l-0.5-0.3l-3.9-2.3l0,0l-4.9-2.7l-0.4-0.2
	l0,0l-0.4-0.2l0,0l-3.9-2.1l-0.5-0.2l0,0l-0.5-0.2l-0.7-0.4l-1-0.5l-4.7-2.4l-0.6-0.3l-0.3-0.1l-0.3-0.1l-4.5-1.9l-0.7-0.3l-0.3-0.1
	l-2.6-1l-0.3-0.1l0,0l0,0l-0.1,0l-0.3-0.1l0,0l-0.2-0.1l-0.1,0l-1.6-0.5l-1.8-0.6l-0.9-0.3l-0.3-0.1l-4.5-1.4l-1.9-0.6l-0.3-0.1
	l-0.5-0.1l-3.7-1l-0.4-0.1l-0.1,0l-0.1,0l-0.6-0.2l-0.2-0.1l-0.2-0.1l-3.2-0.8l-0.4-0.1l-0.4-0.1l-5.2-1L262,155l-0.5-0.1l-1.5-0.2
	l-3.2-0.5l-0.7-0.1l-0.3,0l-0.2,0l-2.3-0.3l-1.9-0.3l-2.7-0.3l-1.1-0.1l-0.1,0l-3.3-0.3l-0.7-0.1l-3.3-0.3l-1.1-0.1l-0.6-0.1l-3-0.2
	l-0.4,0l-2.2-0.1l-2.6-0.1l-1.4,0l-5.6,0l-0.3,0l-0.4,0l-1.1,0l-0.6,0l-1.4,0.1L218,152l-7.2,0.3l-0.8,0.1l-0.1,0l-7.6,0.6l-1.8,0.2
	l-3,0.3l-3.2,0.3l-0.7,0.1l-8.6,1l-0.6,0.1l-1.4,0.2l-0.8,0.1l-1.4,0.2l-8.3,1.1l-1.7,0.2l-3.8,0.6l-0.3,0l-2.2,0.4l-4.5,0.8l-5,0.8
	l-0.7,0.1l-6.8,1.3l-0.3,0.1l-2.2,0.4l-0.7,0.1l-8.2,1.6l-0.7,0.1l-0.5,0.1l-0.2,0l-5.7,1.3l-0.5,0.1l-0.2,0l-1.3,0.3l-3.4,0.8
	l-1.2,0.3l-3.3,0.8l0,0l-1.1,0.3l-1.6,0.4l-2.6,0.7l-2.8,0.8l-1.1,0.3l-1.5,0.4l-2.6,0.7l-1.3,0.3l-7.1,2.1l-6.5,1.9l-0.3,0.1
	l-1.2,0.4l-0.3,0.1l-0.8,0.2l-1.6,0.5l-0.8,0.3l-1,0.3l-11.2,3.8l-1.3,0.5l-0.4,0.1l-1.1,0.4l-1,0.3l-1.7,0.6l-0.5,0.2l-2.4,0.9
	l-5.4,2l-4.7,1.8l-0.5,0.2l-0.1,0l-0.4,0.2l-2.1,0.8l0,0l-1.8,0.7l-1.9,0.8l-1,0.4l-3.8,1.6l-1.6,0.7l-0.1,0.1l-4.1,1.8l-1.8,0.8
	l-1.1,0.5l-1.9,0.9l-1,0.5l-4.7,2.2l-1.3,0.6l-0.2,0.1l-0.5,0.2l-2.9,1.4l-2.7,1.3l-1,0.5l-0.3,0.2l-0.2,0.1l-0.8,0.4l-3.5,1.8
	l-0.4,0.2l-0.2,0.1l-0.9,0.5l-0.6,0.3l-0.5,0.3l-1.5,0.8l-0.2,0.1l-8.8,4.8l-0.8,0.5l-0.7,0.4l-0.5,0.3l-0.4,0.2l-1.1,0.6l-0.5,0.3
	l-1,0.6l-1.3,0.8l-8.3,4.8l-0.2,0.1l-1.1,0.7l-0.1,0.1l-6,3.6l-1.6,1l-0.4,0.3l-0.4,0.3l-1.1,0.7l-0.4,0.3l-2.6,1.6l-6,3.8l-1.5,1
	l-5,3.4l-0.6,0.4l-1.7,1.1l-3.2,2.2l-7,4.8l-5,3.4l-4.8,3.3l-0.6,0.4l-0.8,0.5l-1.3,0.8l-1.3,0.7L-67,256l-1.2,0.6l-1.1,0.5
	l-1.5,0.6l-0.3,0.1l0,0l0,0l-0.2,0.1l-0.8,0.3l-0.2,0.1l-0.8,0.3l-0.1,0l-1.3,0.3l-1.2,0.3l-0.1,0l-0.2,0l-0.3,0l-1.4,0.1l-0.1,0
	l-0.4,0l-0.4,0l-1.4-0.1l-0.8-0.1l-1.1-0.2l-1-0.3l-0.5-0.1l-0.7-0.3l-0.9-0.3l-0.2-0.1l-0.2-0.1l0,0l-0.9-0.5l-0.2-0.1l-0.5-0.3
	l-0.3-0.2l0,0l-0.7-0.5l-0.4-0.3l-0.1,0l-0.5-0.3l-1.3-1.1l0,0l-0.3-0.3l-0.2-0.1l0,0l-0.1-0.1l0,0l-0.6-0.6l-0.5-0.6l-0.4-0.5l0,0
	l-0.3-0.4l0,0l-0.3-0.4l-0.2-0.3l-0.6-0.9l0-0.1l-0.1-0.2l-0.3-0.5l-0.3-0.6l-0.3-0.8l-0.1-0.2l0,0l-0.1-0.3l-0.1-0.1l-0.5-1.8
	l-0.2-0.7l0-0.1l0-0.1l-0.1-0.4l-0.1-0.4l-0.1-0.6l-0.1-0.6l0-0.4l0-0.6l0-0.4l-0.1-0.8l0-0.1l0-0.1l0-0.2l0.1-0.7l0.1-0.5l0,0
	l0.1-0.3l0-0.2l0,0l0.1-0.3l0.2-0.5l0.2-0.5l0.2-0.8l0,0l0.3-0.6l0,0l0.2-0.3l0.2-0.3l0.3-0.5l0.2-0.3l0.2-0.2l0.5-0.7l0,0l0.2-0.2
	l0,0l0.2-0.3l0.2-0.2l0.4-0.3l0.1-0.1l0.6-0.5l0.3-0.2l0.9-0.6l0.1-0.1l0,0l0.1-0.1l0.1-0.1l0,0l0.3-0.2l1.6-0.9l0.4-0.2l0.3-0.2
	l0.5-0.2l0.1-0.1l0,0l0,0l0.8-0.2l0.3-0.1l0.2-0.1l0.5-0.1l0.3,0l0,0l0.1,0l0.4,0l0.3,0.2l0,0l0.1,0l0,0l0.2,0.3l1.3,1.7l0.9,1.1
	l0.5,0.6l0,0l0.4,0.5l0.1,0.2l0.1,0.1l0,0l0.1,0.2l0,0.2l0,0l0,0l-0.1,0.4l0,0.2l-0.1,0.3l0,0l-0.1,0.2l-0.1,0.2l-0.1,0.3l-0.7,1.1
	l-0.8,1.2l-0.3,0.4l-0.5,0.9l-0.1,0.1l0,0l0,0.1l0,0l0,0l-0.4,0.9L-84,240l-0.1,0.2l-0.1,0.3l-0.1,0.4l0,0l-0.1,0.4l0,0.3l0,0.4l0,0
	l0.1,0.8l0,0.2l0,0.3l0,0.1l0.1,0.1l0.2,0.5l0.1,0.3l0,0.1l0,0l0.1,0.2l1,1.3l0,0l0,0l0,0l1.1,0.9l0,0l0,0l0.3,0.2l0.5,0.2l0.8,0.3
	l0.2,0l0.6,0.1l0.1,0l0.6,0l0.1,0l0,0l0.2,0l0.1,0l0.1,0l0.8-0.1l0.9-0.3l0,0l0.4-0.2l0.4-0.2l0,0l0.1-0.1L-74.8,246.6l-0.5,0.3
	l1.3-2.8"/>
<path class="st0" d="M384.8,646.4l-0.1,29.7l-5.1,3.5l-10.9,7.4l-15.3,9.8l-6.4,3.9l-9.9,5.7l-18.5,10.1l0.5,0.9l-24.4,10.9
	l-17.2,7.5l-13.5,5.4l-4,1.5l-18.9,6.7l-9,2.9l-11.1,3.4l-14.5,4l-9.3,2.3l-6.3,1.5l-10.8,2.3l-19.2,3.7l-7.1,1.2l-11.4,1.7l-14.8,2
	l-11.1,1.2l-10.9,1l-13.4,0.9l-7.4,0.3l-6.9,0.2l-8.3,0.1l-7.7-0.1l-10.9-0.3l-10.4-0.5l-24.9-1.6l-4.2-0.9L-55.7,742l-0.5,0
	l-0.7,0.3l0.3-0.1l0,0l-0.1,0.2l0,0l-0.1,0l0,0l0,0l0,0l-0.1,0l0,0l-0.1,0l-0.1,0.1l-0.2,0.1l-0.1,0.2l-0.1,0.2l0,0l0,0.1l0,0.1
	l0,0.3l0,0.1l0,0l0,0.1l0.1,0.1l0.2,0.3c5.1,2.4,14.2,7.5,13.5,9.2c-0.8,2.2-13.3-0.3-20.6-3c-7.4-2.7-12.7-6.6-11.9-8.8
	c0.6-1.5,1.9-2.1,6.3-1.3l-1.4-1.8l0,0l-2.6-0.7l-0.1,0l0,0l-1.3-0.4l-0.6-0.2l0.7,0.2l-0.4-0.1l-5.1-1.6l-0.6-0.2l-1.6-0.5l-2.8-1
	l-2-0.7l-0.6-0.2l-0.9-0.3l-0.3-0.1l-2.3-0.9l-2-0.8l-4.1-1.7l-2.3-0.9l-0.9-0.4l-0.8-0.4l-1.5-0.7l-0.2-0.1l-0.7-0.3l-0.8-0.4l0,0
	l-2.5-1.2l-1.1-0.5l-0.7-0.4l-2.1-1.1l-0.7-0.4l-0.3-0.2l-3.5-1.9l-0.9-0.5l-0.2-0.1l-0.7-0.4l-4.2-2.4l-0.5-0.3l-0.6-0.3l-0.2-0.1
	l-0.4-0.2l-1.1-0.7l-0.3-0.2l-3-1.9l0,0l0,0l-1.4-1l-0.9-0.6l-1.4-0.9l-0.4-0.3l-0.8-0.5l-0.6-0.4l-0.1-0.1l-0.9-0.6l-2.8-2
	l-0.1-0.1l-0.3-0.2l0,0l-0.3-0.2l0,0l0,0l-0.2-0.1l0,0l-0.5-0.4l-0.5-0.4l-1.2-0.9l-3.2-2.4l-1.8-1.5l-2.4-2l-0.5-0.4l-0.8-0.7
	l-0.8-0.8l-4.3-3.9l-0.8-0.7l-0.1-0.1l-0.5-0.5l-2.5-2.5l-1.5-1.5l-0.5-0.5l-0.1-0.1l-0.9-0.9l-1.4-1.5l-1.2-1.3l-2.6-2.9l-1.6-1.8
	l-0.1-0.1l-0.8-0.9l-0.1-0.1l-0.3-0.4l-0.1-0.1l-1.2-1.4l-0.6-0.7l-1.9-2.4l-1.6-2l-0.5-0.6l-0.9-1.2l-0.2-0.3l0,0l0,0l-0.2-0.2
	l-0.1-0.1l-0.4-0.6l-1-1.5l-4.4-6.3l-0.7-1.1l-0.1-0.2l-0.2-0.3l0,0l-0.2-0.3l-2-3.3l-1-1.6l-0.5-0.8l-0.5-0.8l0,0l-0.3-0.5
	l-1.7-3.1l-0.2-0.4l-0.2-0.3l-0.3-0.6l-1.8-3.4l-1-2l-0.5-1.1l-2.9-6.3l0,0l-0.9-2.2l-0.4-1.1l-0.5-1.2l0-0.1l-0.6-1.5l-1.1-2.8
	l-1-2.7l-0.1-0.2l-0.4-1l-0.4-1.1l-1.3-3.7l-0.5-1.6l-0.3-0.8l-0.2-0.6l-1.3-4.1l0,0l0-0.1l-0.2-0.7l-0.1-0.3l-0.5-1.7l-1.5-5.3
	l-0.5-2l-0.6-2.3l-0.3-1.1l-0.2-1l-0.3-1.3l-1.2-5.7l-0.4-1.8l-0.1-0.6l0-0.1l-0.3-1.6l-0.4-2l-0.5-2.5l-0.1-0.4l-0.3-1.6l-0.2-1
	l-0.2-1.1l-0.1-0.8l-0.1-0.4l-0.5-3.4l-0.9-6.5l0,0l-0.1-0.6l-0.2-1.5l0-0.4l-1-8.6l0,0l-0.1-0.9l-0.1-0.9l0-0.4l-0.3-3.4l0-0.2
	l0-0.1l-0.1-2.1l-1-16.4l0-0.9l0-0.9l0-1.4l0-0.1l0-0.2l-0.1-2.6l-0.1-3.3l-0.1-3.1l-0.1-3.3l0,0l-0.2-0.3l-0.2-0.2v-0.7l-0.1-0.1
	l-0.1-0.1l-0.5-0.5l-0.3-0.4l0,0l-0.2-0.1l0,0l0,0l0,0l-0.2-0.1l-0.2,0l-0.1,0l0,0l0,0l-0.1,0l-0.1,0l0,0l-0.1,0l-0.1,0l0,0l0.1,0
	l0-0.1c-0.6,5.6-2.2,9.6-4,9.6c-2.3,0-4.3-6.3-4.3-14.2s1.9-14.2,4.3-14.2c1.6,0,3,3,3.7,7.4l0.1,0l-0.2-0.1l0.2,0.1l0.2,0l0.2,0
	l0.2,0h0l0,0l0,0l0,0l0.2-0.1l0,0l0,0l0.1,0l0,0l0,0l0,0l0,0l0,0l0.5-0.5l0.2-0.2l0,0l0.1-0.1l0.4-0.5l0.2-0.2v-0.1v-0.1v0V496
	l0.3-0.3l0.1-0.1l0,0l0-0.5l0.1-3.2l0-0.5l0.1-2l0.3-9.1l0-0.3l0-1.1l0.1-1.9l0-1.2l0.1-2.8l0.1-1.4l0,0l0.3-4.7l0.1-1.3l0-0.4v0
	l0-0.4l0.8-7.7l0.4-3.7l0.4-4.6l0,0l0-0.3l0-0.3l0-0.2l0-0.1l0,0l0-0.4l0-0.1l0.8-6l0,0l0.1-1.1l0-0.3l0-0.2l0-0.1l0-0.1l0,0
	l0.1-0.7l0.1-0.6l0.7-4.6l0.1-0.5l0,0l0-0.1l0,0l0.5-3.2l0.2-1.1l0-0.3l0.2-1.1l0.8-4.5l0.2-0.8l0.1-0.3l0.7-3.2l1-4.5l0.2-1
	l0.6-2.6l0.1-0.3l0.7-2.9l0,0l0.3-1.3l0,0l2.1-7l0.8-2.8l0-0.1l0.4-1.4l0,0l0,0l0.5-1.4l0,0l0-0.1l0.1-0.4l0.8-2.4l0.1-0.3l0.2-0.6
	l0.7-2l0-0.1l0,0l0,0l0.3-0.9l0.5-1.5l0-0.1l0.1-0.3l0.1-0.2l0.2-0.4l0.6-1.7l0.9-2.2l0,0l0.2-0.6l0.1-0.3l1.4-3.3l1.5-3.6l0,0
	l0.1-0.3l0,0l0.2-0.5l0.2-0.5l1.5-3.3l0.4-0.8l1.3-2.7l0.3-0.7l0.4-0.9l0.1-0.3l1.7-3.2l0.4-0.8l0.4-0.7l0.3-0.5l0.8-1.4l1.5-2.7
	l0.3-0.5l0,0l3.9-6.1l0.9-1.4l1.8-2.7l0.8-1l0.3-0.4l1.3-1.7l1-1.4l0.3-0.4l0.3-0.5l0.3-0.4l1.8-2.2l0.5-0.6l1-1.3l0.9-1l1.6-1.9
	l0.2-0.3l2.2-2.6l0.9-1l0.7-0.8l0.2-0.2l0.1-0.1l0.6-0.6l1.6-1.7l0.9-1l1.1-1.2l2.3-2.4l0,0l0.9-0.9l1.4-1.4l1-1l0.3-0.3l1.1-1.1
	l1.7-1.6l1.2-1.1l0.1-0.1l0,0l0,0l0,0l0.1-0.1l0.1-0.1l0.2-0.1l1.5-1.3l2.3-2l0.5-0.4l0.2-0.1l2.6-2.1l0.5-0.4l0.5-0.4l1.9-1.5
	l0.5-0.4l1.1-0.8l0.9-0.6l0.5-0.4l1.1-0.8l3.6-2.5l1-0.6l1.7-1.1l1.6-1l0.1-0.1l2.2-1.4l0.6-0.3l0.1,0l1-0.6l0.1-0.1l3.3-2l1.1-0.6
	l2.4-1.4l0.8-0.5l1.6-0.9l0.5-0.3l1.5-0.8l2.9-1.5l0.3-0.1l1-0.5l1.2-0.6l0.3-0.1l6.8-3.1l0.4-0.2l0.5-0.2l0.1-0.1l2.5-1l0.3-0.1
	l1.2-0.5l4-1.5l0.2-0.1l1.9-0.7l0.1,0l0,0l0.3-0.1l0.9-0.3l4.5-1.6l0.1,0l0.3-0.1l0.1,0l0,0l0.3-0.1l1.6-0.5l1.9-0.6l0.1,0l0,0
	l0.1,0l3.4-1.1l0.1,0l0.1,0l0.6-0.2l0,0c-1.2-0.4-1.2-0.4-2.4-0.9c-2.7-0.8-3.4-1.4-3.9-3.2c-0.6-2.3,5-5.7,12.6-7.8
	c7.6-2,22.2-4.7,22.8-2.5c0.4,1.6-10.1,6.6-14.2,8.4l0.3-0.4l-0.1,0.2l-0.1,0.3l0,0.1l0,0l0,0.2l0.1,0.3l0.2,0.2l0.1,0.1l0,0
	l0.1,0.1l0.1,0.1l0.1,0.1l0,0l0,0l0,0l0,0l0,0l0,0l0.4,0.2l0,0l0.1,0l0.3-0.1l-0.3,0.1l0.3-0.1l9.6-1.9l1.2-0.4l-1.2,0.4l0.8-0.4
	l61-30.9l3.3-0.2l15.2-1l12.9-0.7l17.5-0.5l8.3,0l15.4,0.3l7.9,0.4l14.4,1l14.6,1.4l7.3,0.9l8.6,1.1l11,1.6l0-0.1l17,3l9.6,1.8
	l6.1,1.3l11.2,2.5l5.1,1.2l7.4,1.9l10.4,2.8l5.8,1.7l5.6,1.7l8,2.5l12.9,4.4l17.3,6.4l13,5.2l11.9,5.1l6.9,3.2l11.4,5.5l8.4,4.4
	l11.6,6.2l11.3,6.3l11.9,7.1l11.6,7.3l6.6,4.3l11.2,7.6l-2.5,28.2l-0.7-2.2l0.7,2.2l-0.1-0.1l0.1,0.1l0.4,0.3l1.1,0.7l1.5,1l0.5,0.3
	l0.4,0.2l0.7,0.4l0.9,0.5l0.7,0.3l0,0l0.7,0.2l0.3,0.1l0.2,0.1l0.2,0.1l0,0l0.4,0l0.2,0l0.1,0l0.1,0l0.1,0l0,0l0.2,0l0.4,0l0.3-0.1
	l0.5-0.1l0.4-0.1l0.1,0l0.5-0.2l0.3-0.1l0.6-0.4l0.2-0.1l0,0l0.2-0.2l0.8-0.7l0.1-0.1l0,0l0,0l0-0.1l0.7-0.8l0.1-0.1l0.1-0.1
	l0.1-0.1l0,0l0.1-0.3l0.3-0.8l0-0.1l0,0l0-0.4l0,0l0.1-0.3l0,0l0-0.5l0-0.5l0-0.1l-0.1-0.4l0,0l-0.1-0.4l0-0.1l-0.4-1.2l-0.1-0.1
	l-0.3-0.6l-0.8-1.5l-0.4-0.7l-0.2-0.2l-1-1.6l-0.3-0.7l0-0.1l0,0l0,0l0,0l0,0l0,0l0-0.1l0-0.1l0-0.3l0-0.1l0,0l0.1-0.2l0,0l0.1-0.1
	l0.3-0.4l0.1-0.1l0.3-0.4l0.5-0.6l1.9-2.4l0.1-0.1l0,0l0,0l0,0l0.1-0.1l0.2-0.2l0,0l0.1-0.1l0.3-0.1l0,0l0.1,0l0.1,0l0.1,0l0.2,0
	l0.1,0l0.4,0l0.2,0.1l0.1,0l0.5,0.2l0.4,0.2l1.3,0.6l0.6,0.3l0.2,0.1l0.2,0.1l0.2,0.1l0,0l0.2,0.1l0.8,0.5l0.3,0.2l0.1,0.1l0.9,0.6
	l0,0l0.7,0.6l0.2,0.2l0.1,0.1l0,0l0,0l0,0l0.1,0.1l0.1,0.2l0.2,0.2l0.6,0.6l0.2,0.3l0.5,0.8l0.1,0.2l0.4,0.6l0.1,0.1l0.2,0.4
	l0.3,0.7l0.1,0.3l0.2,0.4l0,0.1l0,0.1l0.1,0.6l0,0.1l0.1,0.5l0.1,0.4l0,0.1l0.1,1.1l0,0.4l0,0.4l0,0.2l0,0l0,0.3l0,0.3l0,1l0,0.1
	l0,0.2l0,0.2l0,0.1l-0.1,0.4l-0.1,0.3l-0.1,0.3l-0.3,1.7l0,0.1l-0.2,0.8l0,0l-0.2,0.5l-0.3,0.8l0,0.1l-0.1,0.1l0,0l-0.1,0.1l0,0.1
	l0,0.1l-0.3,0.5l-0.1,0.2L404,364l0,0l-0.1,0.1l-0.4,0.6l-0.1,0.2l-0.2,0.3l-0.3,0.4l-0.4,0.5l-0.4,0.5l0,0l0,0l-0.3,0.3l-0.7,0.8
	l-0.1,0.1l-0.1,0.1l-0.1,0.1l-0.3,0.2l-0.3,0.2l-0.4,0.3l-0.4,0.3l0,0l-0.1,0.1l-0.2,0.1l-0.3,0.2l-0.9,0.6l0,0l-0.5,0.3l-0.1,0l0,0
	l-0.1,0.1l-0.8,0.4l-0.3,0.2l-0.7,0.4l-0.3,0.1l-0.4,0.2l-0.4,0.2l0,0l0,0l-0.5,0.2l-0.8,0.2l-0.1,0l-0.2,0.1l-0.9,0.2l-0.1,0
	l-1.5,0.2l-0.2,0l-0.2,0l-0.9,0l-0.4,0l-0.1,0l-0.1,0l-0.5,0l-0.4,0l-0.1,0l-1.2-0.2l-0.1,0l-0.6-0.1l-2.1-0.5l-0.1,0l-1.2-0.4
	l-1.7-0.6l-0.1-0.1l-1.9-0.9l-0.2-0.1l-0.7-0.3l0,0l-0.2-0.1l-1.2-0.7l-1.9-1.1l-0.7-0.4l-4.8-3.3l-4.7-3.2l-0.5-0.3l-2.3-1.6
	l-0.7-0.5l-0.7-0.5l-0.2-0.1l-0.6-0.4l0,0l-7.4-5.1l-0.4-0.3l-0.3-0.2l-0.8-0.6l-0.9-0.6l-4.2-2.8l-0.6-0.4l-0.7-0.5l-3.5-2.2
	l-0.7-0.4l-0.1-0.1l-1-0.6l-0.4-0.2l-4.5-2.7l-3.8-2.3l-0.4-0.2l-0.3-0.2l-0.1-0.1l-2.7-1.6l-0.4-0.2l-9-5.3l-1.4-0.8l-0.9-0.5
	l-0.6-0.3l-0.3-0.2l-0.3-0.2l-5.5-3.1l-1-0.6l-5.4-2.9l-0.5-0.3l-0.6-0.3l-0.3-0.2l-0.3-0.2l0,0l-0.4-0.2l-1.7-0.9l-4.9-2.5l0,0
	l-0.3-0.1l-0.3-0.1l-2-1l-1.6-0.8l-0.1,0l-1.3-0.6l-8.3-3.9l-1-0.5l-0.1,0l-0.4-0.2l-0.1,0l-1.2-0.6l-1.9-0.9l-2.3-1l-0.6-0.3
	l-0.5-0.2l-0.7-0.3l-2.6-1.1l-0.8-0.4l-2.8-1.2l-0.3-0.1l-1.9-0.8l-0.6-0.3l-5.6-2.2l-0.9-0.3l-1.5-0.6l-2-0.8l-0.8-0.3l-1.7-0.6
	l-4.9-1.8l-0.5-0.2l-1.1-0.4l-3.5-1.2l-0.4-0.2l-0.1,0l-0.4-0.1l0,0l-6.8-2.4l-2-0.7l-2.7-0.9l-7.1-2.3l-1.4-0.4l-4-1.2l-4.8-1.4
	l-1.9-0.6l-0.8-0.2l-0.5-0.1l-4.5-1.2l-1-0.3L196,282l-0.3-0.1l-1.1-0.3l-1-0.2l-1.1-0.2l-4.9-1.2l-6.3-1.5l-0.3-0.1l-0.1,0
	l-3.2-0.7l-2.6-0.5l-0.5-0.1l-2.2-0.4l-3.3-0.7l-1.1-0.2l-5.5-1l-5.9-1.1l-0.9-0.2l-0.1,0l-0.9-0.2l-3.1-0.5l-0.7-0.1l-0.8-0.1
	l-0.1,0l-1.5-0.2l-5.6-0.9l-5.2-0.8l-0.3,0l-1.2-0.2L127,269l-1.5-0.2l-0.5-0.1l-8.6-1l-1.4-0.2l-2.1-0.2l-0.3,0l-7.3-0.7l-0.9-0.1
	l-4.3-0.3l-3-0.2l0,0l-2.9-0.2l-0.8-0.1l-1.2-0.1l-0.9,0l-2.4,0l-1.1,0l-0.1,0l-1.3,0l-2.3,0l-0.4,0l-3.5,0l0,0l-0.7,0l-4,0.2l0,0
	l-0.2,0l-0.7,0l-0.4,0l-0.3,0l-0.3,0l-2,0.1l-0.6,0.1l-0.6,0.1l-5.7,0.5l-0.6,0.1l-1.4,0.1l-3,0.3l-2.4,0.3l-3.4,0.4l-2.9,0.4
	l-0.7,0.1l-0.2,0l-0.5,0.1l-0.5,0.1l-7.6,1.5l-0.5,0.1l-0.1,0l-3.2,0.8l0,0l-0.1,0l-0.8,0.2l-0.6,0.2l-1.3,0.4l-2,0.6l-2.8,0.8
	l-0.3,0.1l-0.3,0.1l-0.5,0.2l-0.4,0.1l-0.4,0.1l-3.1,1l-0.4,0.1l-2.9,1l-0.6,0.2l-2.4,0.9l-0.4,0.1l-0.3,0.1l-0.5,0.2l-1.2,0.5
	l-1.9,0.8l-0.1,0l-0.2,0.1l-0.2,0.1l-0.8,0.4l-0.7,0.3l-1,0.5l-1.5,0.7l-2.5,1.2l-0.5,0.3l-0.6,0.3l-3.3,1.7l-2,1.1l-1.2,0.6
	l-2.7,1.5l-1.1,0.6l-4.9,2.8l-0.5,0.3l-0.2,0.1l-0.3,0.2l-0.3,0.2l-2.6,1.6l-1.7,1l-0.3,0.2l-0.2,0.1l-0.2,0.1l-0.1,0.1l-0.3,0.2
	l0,0l-0.2,0.2l-9.5,6.2l-0.3,0.2l-0.3,0.2l-0.2,0.2l-1.1,0.8l-1.3,0.9l-0.9,0.6l-0.3,0.2l-1.9,1.3l-1.6,1.1l-1.8,1.3l0,0l-0.9,0.7
	l-1.7,1.3l-2.9,2.2l-1,0.8l-3.6,2.8l-1.2,1l-0.8,0.6l-3.7,3.1l-7.5,6.3l-1.6,1.3l-2.8,2.5l-1.1,0.9l-0.9,0.8l-1.7,1.5l-1.1,1
	l-2.9,2.8l-0.8,0.8l-2.3,2.3l-2.1,2.1l-0.6,0.6l-0.2,0.2l-0.7,0.7l-2.8,2.9l-4.5,5l-0.8,0.9l0,0l-2.5,2.9l-0.1,0.1l-0.8,0.9
	l-0.1,0.1l-0.3,0.3l-1.5,1.7l-2.2,2.8l-1,1.3l-0.1,0.1l-0.4,0.6l-0.2,0.3l-3.9,5.2l-1.3,1.9l-0.8,1.1l-2.1,3.1l-0.8,1.1l-0.4,0.6
	l-0.1,0.2l-0.4,0.6l-2.3,3.7l-0.6,1.1l-0.1,0.2l-0.9,1.5l-1.4,2.5l-3.3,5.9l-0.7,1.2l-0.4,0.8l-1.5,3l-0.2,0.5l0,0l0,0.1l-0.1,0.1
	l-2.1,4.3l-0.1,0.2l-0.2,0.5l-0.1,0.2l-0.2,0.4l-2.7,6l-1.5,3.4l-0.1,0.2l0,0l0,0.1l-1.6,3.7l-0.4,1l-0.1,0.2l-0.1,0.2l0,0.1
	l-0.3,0.7l-0.8,2l-0.5,1.3l-1.7,4.5l-0.6,1.5l-0.2,0.6l-1.3,3.7l-0.4,1.2l-0.2,0.7l-0.1,0.2l-2.1,6.6l0,0.1l-0.1,0.2l-0.5,1.9
	l-0.2,0.7l-0.3,0.9l-0.7,2.5l0,0l-0.1,0.3l-1.1,4.5l-0.4,1.7l0,0l-0.3,1.6l-0.4,1.7l-0.6,2.6l0,0.1l-0.1,0.3l-0.1,0.4l-0.1,0.3
	l-0.4,2.4l-0.6,3.3l-0.1,0.5l-0.1,0.6l-0.4,2.8l-0.1,0.4l-0.1,0.4l0,0.1l-0.8,6.6l0,0.3l0,0.3l-0.1,0.5l-0.5,5l-0.1,0.7l0,0.3l0,0
	l0,0.1l-0.3,5l-0.1,1l0,0.6l0,0.5l-0.1,9.4l0,2l0,0.4l0,0.7l0,1l0,1.1l0.2,4.5l0,0.7l0,0.7l0,0.5l0.2,2.6l0.1,2.1l0,0.5l0.4,3.9
	l0.1,1.4l0,0.1l0.1,0.9l0.3,3.1l0,0l0,0.1l0,0l0,0.1l0.8,5.7l0,0.1l0,0.4l0.1,0.4l0,0.1l0,0l0.3,1.6l1,5.3l0.3,1.5l0.1,0.3l0,0.2
	l0.1,0.4l0.3,1.3l0.6,2.6l0.6,2.5l0.3,1.4l0.3,1.1l1,3.9l0.4,1.6l0,0.1l0.2,0.7l0,0.2l0.7,2.6l0.6,2.2l0.8,2.5l1.2,3.7l0.2,0.6
	l0.8,2.4l0.5,1.4l1.1,2.9l1.7,4.3l0.2,0.5l0.3,0.8l0.4,1.1l0.4,0.9l0.2,0.5l0.2,0.5l0.4,0.8l0.3,0.7l2.7,6.2l2.2,5l0.3,0.6l0.5,1
	l0.3,0.7l2.1,4.2l1.4,2.9l0.3,0.7l0,0l0.1,0.2l0.1,0.1l0.2,0.4l0.7,1.3l2.1,3.8l0.2,0.4l0.6,1l0.4,0.8l1.6,2.8l0.4,0.7l2.1,3.4
	l2.3,3.6l0.7,1.1l0.1,0.1l2,2.9l2.5,3.6l0.5,0.7l0.9,1.2l2.3,3l0.4,0.6l3.7,4.6l0.5,0.7l0.3,0.4l1.3,1.5l3.2,3.7l0.5,0.6l0.1,0.1
	l0.7,0.8l0.9,0.9l3.8,4.2l0.5,0.5l4.4,4.5l0.2,0.2l0.1,0.1l0.2,0.2l0.6,0.6l5,4.8l1,0.9l3.9,3.5l0.3,0.3l0.8,0.7l9.1,7.7l1.8,1.5
	l3.7,3l3.3,2.6l1,0.8l3.4,2.7l1.2,0.9l0.3,0.2l0.2,0.2l6.7,4.8l0.1,0.1l0.8,0.6l3.6,2.5l0.4,0.2l0.9,0.6l0.1,0l0.3,0.2l0.2,0.1
	l0.5,0.3l0,0l0.1,0l0.3,0.2l0.1,0l8.6,5.6l0.1,0.1l0.1,0.1l0.3,0.2l0.4,0.2l0.7,0.5l0.9,0.5l0.8,0.5l1.5,0.9l0.5,0.3l3.9,2.3l0,0
	l4.9,2.7l0.4,0.2l0,0l0.4,0.2l0,0l3.9,2.1l0.5,0.2l0,0l0.5,0.2l0.7,0.4l1,0.5l4.7,2.4l0.6,0.3l0.3,0.1l0.3,0.1l4.5,1.9l0.7,0.3
	l0.3,0.1l2.6,1l0.3,0.1l0,0l0,0l0.1,0l0.3,0.1l0,0l0.2,0.1l0.1,0l1.6,0.5l1.8,0.6l0.9,0.3l0.3,0.1l4.5,1.4l1.9,0.6l0.3,0.1l0.5,0.1
	l3.7,1l0.4,0.1l0.1,0l0.1,0l0.6,0.2l0.2,0.1l0.2,0.1l3.2,0.8l0.4,0.1l0.4,0.1l5.2,1L48,738l0.5,0.1l1.5,0.2l3.2,0.5l0.7,0.1l0.3,0
	l0.2,0l2.3,0.3l1.9,0.3l2.7,0.3l1.1,0.1l0.1,0l3.3,0.3l0.7,0.1l3.3,0.3l1.1,0.1l0.6,0.1l3,0.2l0.4,0l2.2,0.1l2.6,0.1l1.4,0l5.6,0
	l0.3,0l0.4,0l1.1,0l0.6,0l1.4-0.1L92,741l7.2-0.3l0.8-0.1l0.1,0l7.6-0.6l1.8-0.2l3-0.3l3.2-0.3l0.7-0.1l8.6-1l0.6-0.1l1.4-0.2
	l0.8-0.1l1.4-0.2l8.3-1.1l1.7-0.2l3.8-0.6l0.3,0l2.2-0.4l4.5-0.8l5-0.8l0.7-0.1l6.8-1.3l0.3-0.1l2.2-0.4l0.7-0.1l8.2-1.6l0.7-0.1
	l0.5-0.1l0.2,0l5.7-1.3l0.5-0.1l0.2,0l1.3-0.3l3.4-0.8l1.2-0.3l3.3-0.8l0,0l1.1-0.3l1.6-0.4l2.6-0.7l2.8-0.8l1.1-0.3l1.5-0.4
	l2.6-0.7l1.3-0.3l7.1-2.1l6.5-1.9l0.3-0.1l1.2-0.4l0.3-0.1l0.8-0.2l1.6-0.5l0.8-0.3l1-0.3l11.2-3.8l1.3-0.5l0.4-0.1l1.1-0.4l1-0.3
	l1.7-0.6l0.5-0.2l2.4-0.9l5.4-2l4.7-1.8l0.5-0.2l0.1,0l0.4-0.2l2.1-0.8l0,0l1.8-0.7l1.9-0.8l1-0.4l3.8-1.6l1.6-0.7l0.1-0.1l4.1-1.8
	l1.8-0.8l1.1-0.5l1.9-0.9l1-0.5l4.7-2.2l1.3-0.6l0.2-0.1l0.5-0.2l2.9-1.4l2.7-1.3l1-0.5l0.3-0.2l0.2-0.1l0.8-0.4l3.5-1.8l0.4-0.2
	l0.2-0.1l0.9-0.5l0.6-0.3l0.5-0.3l1.5-0.8l0.2-0.1l8.8-4.8l0.8-0.5l0.7-0.4l0.5-0.3l0.4-0.2l1.1-0.6l0.5-0.3l1-0.6l1.3-0.8l8.3-4.8
	l0.2-0.1l1.1-0.7l0.1-0.1l6-3.6l1.6-1l0.4-0.3l0.4-0.3l1.1-0.7l0.4-0.3l2.6-1.6l6-3.8l1.5-1l5-3.4l0.6-0.4l1.7-1.1l3.2-2.2l7-4.8
	l5-3.4l4.8-3.3l0.6-0.4l0.8-0.5l1.3-0.8l1.3-0.7l0.3-0.1l1.2-0.6l1.1-0.5l1.5-0.6l0.3-0.1l0,0l0,0l0.2-0.1l0.8-0.3l0.2-0.1l0.8-0.3
	l0.1,0l1.3-0.3l1.2-0.3l0.1,0l0.2,0l0.3,0l1.4-0.1l0.1,0l0.4,0l0.4,0l1.4,0.1l0.8,0.1l1.1,0.2l1,0.3l0.5,0.1l0.7,0.3l0.9,0.3
	l0.2,0.1l0.2,0.1l0,0l0.9,0.5l0.2,0.1l0.5,0.3l0.3,0.2l0,0l0.7,0.5l0.4,0.3l0.1,0l0.5,0.3l1.3,1.1l0,0l0.3,0.3l0.2,0.1l0,0l0.1,0.1
	l0,0l0.6,0.6l0.5,0.6l0.4,0.5l0,0l0.3,0.4l0,0l0.3,0.4l0.2,0.3l0.6,0.9l0,0.1l0.1,0.2l0.3,0.5l0.3,0.6l0.3,0.8l0.1,0.2l0,0l0.1,0.3
	l0.1,0.1l0.5,1.8l0.2,0.7l0,0.1l0,0.1l0.1,0.4l0.1,0.4l0.1,0.6l0.1,0.6l0,0.4l0,0.6l0,0.4l0.1,0.8l0,0.1l0,0.1l0,0.2l-0.1,0.7
	l-0.1,0.5l0,0l-0.1,0.3l0,0.2l0,0l-0.1,0.3l-0.2,0.5l-0.2,0.5l-0.2,0.8l0,0l-0.3,0.6l0,0l-0.2,0.3l-0.2,0.3l-0.3,0.5l-0.2,0.3
	l-0.2,0.2l-0.5,0.7l0,0l-0.2,0.2l0,0l-0.2,0.3l-0.2,0.2l-0.4,0.3l-0.1,0.1l-0.6,0.5l-0.3,0.2l-0.9,0.6l-0.1,0.1l0,0l-0.1,0.1
	l-0.1,0.1l0,0l-0.3,0.2l-1.6,0.9l-0.4,0.2l-0.3,0.2l-0.5,0.2l-0.1,0.1l0,0l0,0l-0.8,0.2l-0.3,0.1l-0.2,0.1l-0.5,0.1l-0.3,0l0,0
	l-0.1,0l-0.4,0l-0.3-0.2l0,0l-0.1,0l0,0l-0.2-0.3l-1.3-1.7l-0.9-1.1l-0.5-0.6l0,0l-0.4-0.5l-0.1-0.2l-0.1-0.1l0,0l-0.1-0.2l0-0.2
	l0,0l0,0l0.1-0.4l0-0.2l0.1-0.3l0,0l0.1-0.2l0.1-0.2l0.1-0.3l0.7-1.1l0.8-1.2l0.3-0.4l0.5-0.9l0.1-0.1l0,0l0-0.1l0,0l0,0l0.4-0.9
	l0.1-0.2l0.1-0.2l0.1-0.3l0.1-0.4l0,0l0.1-0.4l0-0.3l0-0.4l0,0l-0.1-0.8l0-0.2l0-0.3l0-0.1l-0.1-0.1L394,649l-0.1-0.3l0-0.1l0,0
	l-0.1-0.2l-1-1.3l0,0l0,0l0,0l-1.1-0.9l0,0l0,0l-0.3-0.2l-0.5-0.2l-0.8-0.3l-0.2,0l-0.6-0.1l-0.1,0l-0.6,0l-0.1,0l0,0l-0.2,0l-0.1,0
	l-0.1,0l-0.8,0.1l-0.9,0.3l0,0l-0.4,0.2l-0.4,0.2l0,0l-0.1,0.1L384.8,646.4l0.5-0.3l-1.3,2.8"/>
<path class="st0" d="M673.4,241.3l0.1-29.7l5.1-3.5l10.9-7.4l15.3-9.8l6.4-3.9l9.9-5.7l18.5-10.1l-0.5-0.9l24.4-10.9l17.2-7.5
	l13.5-5.4l4-1.5l18.9-6.7l9-2.9l11.1-3.4l14.5-4l9.3-2.3l6.3-1.5l10.8-2.3l19.2-3.7l7.1-1.2l11.4-1.7l14.8-2l11.1-1.2l10.9-1
	l13.4-0.9l7.4-0.3l6.9-0.2l8.3-0.1l7.7,0.1l10.9,0.3l10.4,0.5l24.9,1.6l4.2,0.9l67.1,32.6l0.5,0l0.7-0.3l-0.3,0.1l0,0l0.1-0.2l0,0
	l0.1,0l0,0l0,0l0,0l0.1,0l0,0l0.1,0l0.1-0.1l0.2-0.1l0.1-0.2l0.1-0.2l0,0l0-0.1l0-0.1l0-0.3l0-0.1l0,0l0-0.1l-0.1-0.1l-0.2-0.3
	c-5.1-2.4-14.2-7.5-13.5-9.2c0.8-2.2,13.3,0.3,20.6,3c7.4,2.7,12.7,6.6,11.9,8.8c-0.6,1.5-1.9,2.1-6.3,1.3l1.4,1.8l0,0l2.6,0.7
	l0.1,0l0,0l1.3,0.4l0.6,0.2l-0.7-0.2l0.4,0.1l5.1,1.6l0.6,0.2l1.6,0.5l2.8,1l2,0.7l0.6,0.2l0.9,0.3l0.3,0.1l2.3,0.9l2,0.8l4.1,1.7
	l2.3,0.9l0.9,0.4l0.8,0.4l1.5,0.7l0.2,0.1l0.7,0.3l0.8,0.4l0,0l2.5,1.2l1.1,0.5l0.7,0.4l2.1,1.1l0.7,0.4l0.3,0.2l3.5,1.9l0.9,0.5
	l0.2,0.1l0.7,0.4l4.2,2.4l0.5,0.3l0.6,0.3l0.2,0.1l0.4,0.2l1.1,0.7l0.3,0.2l3,1.9l0,0l0,0l1.4,1l0.9,0.6l1.4,0.9l0.4,0.3l0.8,0.5
	l0.6,0.4l0.1,0.1l0.9,0.6l2.8,2l0.1,0.1l0.3,0.2l0,0l0.3,0.2l0,0l0,0l0.2,0.1l0,0l0.5,0.4l0.5,0.4l1.2,0.9l3.2,2.4l1.8,1.5l2.4,2
	l0.5,0.4l0.8,0.7l0.8,0.8l4.3,3.9l0.8,0.7l0.1,0.1l0.5,0.5l2.5,2.5l1.5,1.5l0.5,0.5l0.1,0.1l0.9,0.9l1.4,1.5l1.2,1.3l2.6,2.9
	l1.6,1.8l0.1,0.1l0.8,0.9l0.1,0.1l0.3,0.4l0.1,0.1l1.2,1.4l0.6,0.7l1.9,2.4l1.6,2l0.5,0.6l0.9,1.2l0.2,0.3l0,0l0,0l0.2,0.2l0.1,0.1
	l0.4,0.6l1,1.5l4.4,6.3l0.7,1.1l0.1,0.2l0.2,0.3l0,0l0.2,0.3l2,3.3l1,1.6l0.5,0.8l0.5,0.8l0,0l0.3,0.5l1.7,3.1l0.2,0.4l0.2,0.3
	l0.3,0.6l1.8,3.4l1,2l0.5,1.1l2.9,6.3l0,0l0.9,2.2l0.4,1.1l0.5,1.2l0,0.1l0.6,1.5l1.1,2.8l1,2.7l0.1,0.2l0.4,1l0.4,1.1l1.3,3.7
	l0.5,1.6l0.3,0.8l0.2,0.6l1.3,4.1l0,0l0,0.1l0.2,0.7l0.1,0.3l0.5,1.7l1.5,5.3l0.5,2l0.6,2.3l0.3,1.1l0.2,1l0.3,1.3l1.2,5.7l0.4,1.8
	l0.1,0.6l0,0.1l0.3,1.6l0.4,2l0.5,2.5l0.1,0.4l0.3,1.6l0.2,1l0.2,1.1l0.1,0.8l0.1,0.4l0.5,3.4l0.9,6.5l0,0l0.1,0.6l0.2,1.5l0,0.4
	l1,8.6l0,0l0.1,0.9l0.1,0.9l0,0.4l0.3,3.4l0,0.2l0,0.1l0.1,2.1l1,16.4l0,0.9l0,0.9l0,1.4l0,0.1l0,0.2l0.1,2.6l0.1,3.3l0.1,3.1
	l0.1,3.3l0,0l0.2,0.3l0.2,0.2v0.7l0.1,0.1l0.1,0.1l0.5,0.5l0.3,0.4l0,0l0.2,0.1l0,0l0,0l0,0l0.2,0.1l0.2,0l0.1,0l0,0l0,0l0.1,0
	l0.1,0l0,0l0.1,0l0.1,0l0,0l-0.1,0l0,0.1c0.6-5.6,2.2-9.6,4-9.6c2.3,0,4.3,6.3,4.3,14.2s-1.9,14.2-4.3,14.2c-1.6,0-3-3-3.7-7.4
	l-0.1,0l0.2,0.1l-0.2-0.1l-0.2,0l-0.2,0l-0.2,0h0l0,0l0,0l0,0l-0.2,0.1l0,0l0,0l-0.1,0l0,0l0,0l0,0l0,0l0,0l-0.5,0.5l-0.2,0.2l0,0
	l-0.1,0.1l-0.4,0.5l-0.2,0.2v0.1v0.1v0v0.1l-0.3,0.3l-0.1,0.1l0,0l0,0.5l-0.1,3.2l0,0.5l-0.1,2l-0.3,9.1l0,0.3l0,1.1l-0.1,1.9l0,1.2
	l-0.1,2.8l-0.1,1.4l0,0l-0.3,4.7l-0.1,1.3l0,0.4v0l0,0.4l-0.8,7.7l-0.4,3.7l-0.4,4.6l0,0l0,0.3l0,0.3l0,0.2l0,0.1l0,0l0,0.4l0,0.1
	l-0.8,6l0,0l-0.1,1.1l0,0.3l0,0.2l0,0.1l0,0.1l0,0l-0.1,0.7l-0.1,0.6l-0.7,4.6l-0.1,0.5l0,0l0,0.1l0,0l-0.5,3.2l-0.2,1.1l0,0.3
	l-0.2,1.1l-0.8,4.5l-0.2,0.8l-0.1,0.3l-0.7,3.2l-1,4.5l-0.2,1l-0.6,2.6l-0.1,0.3l-0.7,2.9l0,0l-0.3,1.3l0,0l-2.1,7l-0.8,2.8l0,0.1
	l-0.4,1.4l0,0l0,0l-0.5,1.4l0,0l0,0.1l-0.1,0.4l-0.8,2.4l-0.1,0.3l-0.2,0.6l-0.7,2l0,0.1l0,0l0,0l-0.3,0.9l-0.5,1.5l0,0.1l-0.1,0.3
	l-0.1,0.2l-0.2,0.4l-0.6,1.7l-0.9,2.2l0,0l-0.2,0.6l-0.1,0.3l-1.4,3.3l-1.5,3.6l0,0l-0.1,0.3l0,0l-0.2,0.5l-0.2,0.5l-1.5,3.3
	l-0.4,0.8l-1.3,2.7l-0.3,0.7l-0.4,0.9l-0.1,0.3l-1.7,3.2l-0.4,0.8l-0.4,0.7l-0.3,0.5l-0.8,1.4l-1.5,2.7l-0.3,0.5l0,0l-3.9,6.1
	l-0.9,1.4l-1.8,2.7l-0.8,1l-0.3,0.4l-1.3,1.7l-1,1.4l-0.3,0.4l-0.3,0.5l-0.3,0.4l-1.8,2.2l-0.5,0.6l-1,1.3l-0.9,1l-1.6,1.9l-0.2,0.3
	l-2.2,2.6l-0.9,1l-0.7,0.8l-0.2,0.2l-0.1,0.1l-0.6,0.6l-1.6,1.7l-0.9,1l-1.1,1.2l-2.3,2.4l0,0l-0.9,0.9l-1.4,1.4l-1,1l-0.3,0.3
	l-1.1,1.1l-1.7,1.6l-1.2,1.1l-0.1,0.1l0,0l0,0l0,0l-0.1,0.1l-0.1,0.1l-0.2,0.1l-1.5,1.3l-2.3,2l-0.5,0.4l-0.2,0.1l-2.6,2.1l-0.5,0.4
	l-0.5,0.4l-1.9,1.5l-0.5,0.4l-1.1,0.8l-0.9,0.6l-0.5,0.4l-1.1,0.8l-3.6,2.5l-1,0.6l-1.7,1.1l-1.6,1l-0.1,0.1l-2.2,1.4l-0.6,0.3
	l-0.1,0l-1,0.6l-0.1,0.1l-3.3,2l-1.1,0.6l-2.4,1.4l-0.8,0.5l-1.6,0.9l-0.5,0.3l-1.5,0.8l-2.9,1.5l-0.3,0.1l-1,0.5l-1.2,0.6l-0.3,0.1
	l-6.8,3.1l-0.4,0.2l-0.5,0.2l-0.1,0.1l-2.5,1l-0.3,0.1l-1.2,0.5l-4,1.5l-0.2,0.1l-1.9,0.7l-0.1,0l0,0l-0.3,0.1l-0.9,0.3l-4.5,1.6
	l-0.1,0l-0.3,0.1l-0.1,0l0,0l-0.3,0.1l-1.6,0.5l-1.9,0.6l-0.1,0l0,0l-0.1,0l-3.4,1.1l-0.1,0l-0.1,0l-0.6,0.2v0
	c1.2,0.4,1.2,0.4,2.4,0.9c2.7,0.8,3.4,1.4,3.9,3.2c0.6,2.3-5,5.7-12.6,7.8c-7.6,2-22.2,4.7-22.8,2.5c-0.4-1.6,10.1-6.6,14.2-8.4
	l-0.3,0.4l0.1-0.2l0.1-0.3l0-0.1l0,0l0-0.2l-0.1-0.3l-0.2-0.2l-0.1-0.1l0,0l-0.1-0.1l-0.1-0.1l-0.1-0.1l0,0l0,0l0,0l0,0l0,0l0,0
	l-0.4-0.2l0,0l-0.1,0l-0.3,0.1l0.3-0.1l-0.3,0.1l-9.6,1.9l-1.2,0.4l1.2-0.4l-0.8,0.4l-61,30.9l-3.3,0.2l-15.2,1l-12.9,0.7l-17.5,0.5
	l-8.3,0l-15.4-0.3l-7.9-0.4l-14.4-1l-14.6-1.4l-7.3-0.9l-8.6-1.1l-11-1.6l0,0.1l-17-3l-9.6-1.8l-6.1-1.3l-11.2-2.5l-5.1-1.2
	l-7.4-1.9l-10.4-2.8l-5.8-1.7l-5.6-1.7l-8-2.5l-12.9-4.4l-17.3-6.4l-13-5.2l-11.9-5.1l-6.9-3.2l-11.4-5.5l-8.4-4.4l-11.6-6.2
	l-11.3-6.3l-11.9-7.1l-11.6-7.3l-6.6-4.3l-11.2-7.6l2.5-28.2l0.7,2.2l-0.7-2.2l0.1,0.1l-0.1-0.1l-0.4-0.3l-1.1-0.7l-1.5-1l-0.5-0.3
	l-0.4-0.2l-0.7-0.4l-0.9-0.5l-0.7-0.3l0,0l-0.7-0.2l-0.3-0.1l-0.2-0.1l-0.2-0.1l0,0l-0.4,0l-0.2,0l-0.1,0l-0.1,0l-0.1,0l0,0l-0.2,0
	l-0.4,0l-0.3,0.1l-0.5,0.1l-0.4,0.1l-0.1,0l-0.5,0.2l-0.3,0.1l-0.6,0.4l-0.2,0.1l0,0l-0.2,0.2l-0.8,0.7l-0.1,0.1l0,0l0,0l0,0.1
	l-0.7,0.8l-0.1,0.1l-0.1,0.1l-0.1,0.1l0,0l-0.1,0.3l-0.3,0.8l0,0.1l0,0l0,0.4l0,0l-0.1,0.3l0,0l0,0.5l0,0.5l0,0.1l0.1,0.4l0,0
	l0.1,0.4l0,0.1l0.4,1.2l0.1,0.1l0.3,0.6l0.8,1.5l0.4,0.7l0.2,0.2l1,1.6l0.3,0.7l0,0.1l0,0l0,0l0,0l0,0l0,0l0,0.1l0,0.1l0,0.3l0,0.1
	l0,0l-0.1,0.2l0,0l-0.1,0.1l-0.3,0.4l-0.1,0.1l-0.3,0.4l-0.5,0.6l-1.9,2.4l-0.1,0.1l0,0l0,0l0,0l-0.1,0.1l-0.2,0.2l0,0l-0.1,0.1
	l-0.3,0.1l0,0l-0.1,0l-0.1,0l-0.1,0l-0.2,0l-0.1,0l-0.4,0l-0.2-0.1l-0.1,0l-0.5-0.2l-0.4-0.2l-1.3-0.6l-0.6-0.3l-0.2-0.1l-0.2-0.1
	l-0.2-0.1l0,0l-0.2-0.1l-0.8-0.5l-0.3-0.2l-0.1-0.1l-0.9-0.6l0,0l-0.7-0.6l-0.2-0.2l-0.1-0.1l0,0l0,0l0,0l-0.1-0.1l-0.1-0.2
	l-0.2-0.2l-0.6-0.6l-0.2-0.3l-0.5-0.8l-0.1-0.2l-0.4-0.6l-0.1-0.1l-0.2-0.4l-0.3-0.7l-0.1-0.3l-0.2-0.4l0-0.1l0-0.1l-0.1-0.6l0-0.1
	l-0.1-0.5l-0.1-0.4l0-0.1l-0.1-1.1l0-0.4l0-0.4l0-0.2l0,0l0-0.3l0-0.3l0-1l0-0.1l0-0.2l0-0.2l0-0.1l0.1-0.4l0.1-0.3l0.1-0.3l0.3-1.7
	l0-0.1l0.2-0.8l0,0l0.2-0.5l0.3-0.8l0-0.1l0.1-0.1l0,0l0.1-0.1l0-0.1l0-0.1l0.3-0.5l0.1-0.2l0.2-0.4l0,0l0.1-0.1l0.4-0.6l0.1-0.2
	l0.2-0.3l0.3-0.4l0.4-0.5l0.4-0.5l0,0l0,0l0.3-0.3l0.7-0.8l0.1-0.1l0.1-0.1l0.1-0.1l0.3-0.2l0.3-0.2l0.4-0.3l0.4-0.3l0,0l0.1-0.1
	l0.2-0.1l0.3-0.2l0.9-0.6l0,0l0.5-0.3l0.1,0l0,0l0.1-0.1l0.8-0.4l0.3-0.2l0.7-0.4l0.3-0.1l0.4-0.2l0.4-0.2l0,0l0,0l0.5-0.2l0.8-0.2
	l0.1,0l0.2-0.1l0.9-0.2l0.1,0l1.5-0.2l0.2,0l0.2,0l0.9,0l0.4,0l0.1,0l0.1,0l0.5,0l0.4,0l0.1,0l1.2,0.2l0.1,0l0.6,0.1l2.1,0.5l0.1,0
	l1.2,0.4l1.7,0.6l0.1,0.1l1.9,0.9l0.2,0.1l0.7,0.3l0,0l0.2,0.1l1.2,0.7l1.9,1.1l0.7,0.4l4.8,3.3l4.7,3.2l0.5,0.3l2.3,1.6l0.7,0.5
	l0.7,0.5l0.2,0.1l0.6,0.4l0,0l7.4,5.1l0.4,0.3l0.3,0.2l0.8,0.6l0.9,0.6l4.2,2.8l0.6,0.4l0.7,0.5l3.5,2.2l0.7,0.4l0.1,0.1l1,0.6
	l0.4,0.2l4.5,2.7l3.8,2.3l0.4,0.2l0.3,0.2l0.1,0.1l2.7,1.6l0.4,0.2l9,5.3l1.4,0.8l0.9,0.5l0.6,0.3l0.3,0.2l0.3,0.2l5.5,3.1l1,0.6
	l5.4,2.9l0.5,0.3l0.6,0.3l0.3,0.2l0.3,0.2l0,0l0.4,0.2l1.7,0.9l4.9,2.5l0,0l0.3,0.1l0.3,0.1l2,1l1.6,0.8l0.1,0l1.3,0.6l8.3,3.9
	l1,0.5l0.1,0l0.4,0.2l0.1,0l1.2,0.6l1.9,0.9l2.3,1l0.6,0.3l0.5,0.2l0.7,0.3l2.6,1.1l0.8,0.4l2.8,1.2l0.3,0.1l1.9,0.8l0.6,0.3
	l5.6,2.2l0.9,0.3l1.5,0.6l2,0.8l0.8,0.3l1.7,0.6l4.9,1.8l0.5,0.2l1.1,0.4l3.5,1.2l0.4,0.2l0.1,0l0.4,0.1l0,0l6.8,2.4l2,0.7l2.7,0.9
	l7.1,2.3l1.4,0.4l4,1.2l4.8,1.4l1.9,0.6l0.8,0.2l0.5,0.1l4.5,1.2l1,0.3l3.3,0.9l0.3,0.1l1.1,0.3l1,0.2l1.1,0.2l4.9,1.2l6.3,1.5
	l0.3,0.1l0.1,0l3.2,0.7l2.6,0.5l0.5,0.1l2.2,0.4l3.3,0.7l1.1,0.2l5.5,1l5.9,1.1l0.9,0.2l0.1,0l0.9,0.2l3.1,0.5l0.7,0.1l0.8,0.1
	l0.1,0l1.5,0.2l5.6,0.9l5.2,0.8l0.3,0l1.2,0.2l9.4,1.3l1.5,0.2l0.5,0.1l8.6,1l1.4,0.2l2.1,0.2l0.3,0l7.3,0.7l0.9,0.1l4.3,0.3l3,0.2
	l0,0l2.9,0.2l0.8,0.1l1.2,0.1l0.9,0l2.4,0l1.1,0l0.1,0l1.3,0l2.3,0l0.4,0l3.5,0l0,0l0.7,0l4-0.2l0,0l0.2,0l0.7,0l0.4,0l0.3,0l0.3,0
	l2-0.1l0.6-0.1l0.6-0.1l5.7-0.5l0.6-0.1l1.4-0.1l3-0.3l2.4-0.3l3.4-0.4l2.9-0.4l0.7-0.1l0.2,0l0.5-0.1l0.5-0.1l7.6-1.5l0.5-0.1
	l0.1,0l3.2-0.8l0,0l0.1,0l0.8-0.2l0.6-0.2l1.3-0.4l2-0.6l2.8-0.8l0.3-0.1l0.3-0.1l0.5-0.2l0.4-0.1l0.4-0.1l3.1-1l0.4-0.1l2.9-1
	l0.6-0.2l2.4-0.9l0.4-0.1l0.3-0.1l0.5-0.2l1.2-0.5l1.9-0.8l0.1,0l0.2-0.1l0.2-0.1l0.8-0.4l0.7-0.3l1-0.5l1.5-0.7l2.5-1.2l0.5-0.3
	l0.6-0.3l3.3-1.7l2-1.1l1.2-0.6l2.7-1.5l1.1-0.6l4.9-2.8l0.5-0.3l0.2-0.1l0.3-0.2l0.3-0.2l2.6-1.6l1.7-1l0.3-0.2l0.2-0.1l0.2-0.1
	l0.1-0.1l0.3-0.2l0,0l0.2-0.2l9.5-6.2l0.3-0.2l0.3-0.2l0.2-0.2l1.1-0.8l1.3-0.9l0.9-0.6l0.3-0.2l1.9-1.3l1.6-1.1l1.8-1.3l0,0
	l0.9-0.7l1.7-1.3l2.9-2.2l1-0.8l3.6-2.8l1.2-1l0.8-0.6l3.7-3.1l7.5-6.3l1.6-1.3l2.8-2.5l1.1-0.9l0.9-0.8l1.7-1.5l1.1-1l2.9-2.8
	l0.8-0.8l2.3-2.3l2.1-2.1l0.6-0.6l0.2-0.2l0.7-0.7l2.8-2.9l4.5-5l0.8-0.9l0,0l2.5-2.9l0.1-0.1l0.8-0.9l0.1-0.1l0.3-0.3l1.5-1.7
	l2.2-2.8l1-1.3l0.1-0.1l0.4-0.6l0.2-0.3l3.9-5.2l1.3-1.9l0.8-1.1l2.1-3.1l0.8-1.1l0.4-0.6l0.1-0.2l0.4-0.6l2.3-3.7l0.6-1.1l0.1-0.2
	l0.9-1.5l1.4-2.5l3.3-5.9l0.7-1.2l0.4-0.8l1.5-3l0.2-0.5l0,0l0-0.1l0.1-0.1l2.1-4.3l0.1-0.2l0.2-0.5l0.1-0.2l0.2-0.4l2.7-6l1.5-3.4
	l0.1-0.2l0,0l0-0.1l1.6-3.7l0.4-1l0.1-0.2l0.1-0.2l0-0.1l0.3-0.7l0.8-2l0.5-1.3l1.7-4.5l0.6-1.5l0.2-0.6l1.3-3.7l0.4-1.2l0.2-0.7
	l0.1-0.2l2.1-6.6l0-0.1l0.1-0.2l0.5-1.9l0.2-0.7l0.3-0.9l0.7-2.5l0,0l0.1-0.3l1.1-4.5l0.4-1.7l0,0l0.3-1.6l0.4-1.7l0.6-2.6l0-0.1
	l0.1-0.3l0.1-0.4l0.1-0.3l0.4-2.4l0.6-3.3l0.1-0.5l0.1-0.6l0.4-2.8l0.1-0.4l0.1-0.4l0-0.1l0.8-6.6l0-0.3l0-0.3l0.1-0.5l0.5-5
	l0.1-0.7l0-0.3l0,0l0-0.1l0.3-5l0.1-1l0-0.6l0-0.5l0.1-9.4l0-2l0-0.4l0-0.7l0-1l0-1.1l-0.2-4.5l0-0.7l0-0.7l0-0.5l-0.2-2.6l-0.1-2.1
	l0-0.5l-0.4-3.9l-0.1-1.4l0-0.1l-0.1-0.9l-0.3-3.1l0,0l0-0.1l0,0l0-0.1l-0.8-5.7l0-0.1l0-0.4l-0.1-0.4l0-0.1l0,0l-0.3-1.6l-1-5.3
	l-0.3-1.5l-0.1-0.3l0-0.2l-0.1-0.4l-0.3-1.3l-0.6-2.6l-0.6-2.5l-0.3-1.4l-0.3-1.1l-1-3.9l-0.4-1.6l0-0.1l-0.2-0.7l0-0.2l-0.7-2.6
	l-0.6-2.2l-0.8-2.5l-1.2-3.7l-0.2-0.6l-0.8-2.4l-0.5-1.4l-1.1-2.9l-1.7-4.3l-0.2-0.5l-0.3-0.8l-0.4-1.1l-0.4-0.9l-0.2-0.5l-0.2-0.5
	l-0.4-0.8l-0.3-0.7l-2.7-6.2l-2.2-5l-0.3-0.6l-0.5-1l-0.3-0.7l-2.1-4.2l-1.4-2.9l-0.3-0.7l0,0l-0.1-0.2l-0.1-0.1l-0.2-0.4l-0.7-1.3
	l-2.1-3.8l-0.2-0.4l-0.6-1l-0.4-0.8l-1.6-2.8l-0.4-0.7l-2.1-3.4l-2.3-3.6l-0.7-1.1l-0.1-0.1l-2-2.9l-2.5-3.6l-0.5-0.7l-0.9-1.2
	l-2.3-3l-0.4-0.6l-3.7-4.6l-0.5-0.7l-0.3-0.4l-1.3-1.5l-3.2-3.7l-0.5-0.6l-0.1-0.1l-0.7-0.8l-0.9-0.9l-3.8-4.2l-0.5-0.5l-4.4-4.5
	l-0.2-0.2l-0.1-0.1l-0.2-0.2l-0.6-0.6l-5-4.8l-1-0.9l-3.9-3.5l-0.3-0.3l-0.8-0.7l-9.1-7.7l-1.8-1.5l-3.7-3l-3.3-2.6l-1-0.8l-3.4-2.7
	l-1.2-0.9l-0.3-0.2l-0.2-0.2l-6.7-4.8l-0.1-0.1l-0.8-0.6l-3.6-2.5l-0.4-0.2l-0.9-0.6l-0.1,0l-0.3-0.2l-0.2-0.1l-0.5-0.3l0,0l-0.1,0
	l-0.3-0.2l-0.1,0l-8.6-5.6l-0.1-0.1l-0.1-0.1l-0.3-0.2l-0.4-0.2l-0.7-0.5l-0.9-0.5l-0.8-0.5l-1.5-0.9l-0.5-0.3l-3.9-2.3l0,0
	l-4.9-2.7l-0.4-0.2l0,0l-0.4-0.2l0,0l-3.9-2.1l-0.5-0.2l0,0l-0.5-0.2l-0.7-0.4l-1-0.5l-4.7-2.4l-0.6-0.3l-0.3-0.1l-0.3-0.1l-4.5-1.9
	l-0.7-0.3l-0.3-0.1l-2.6-1l-0.3-0.1l0,0l0,0l-0.1,0l-0.3-0.1l0,0l-0.2-0.1l-0.1,0l-1.6-0.5l-1.8-0.6l-0.9-0.3l-0.3-0.1l-4.5-1.4
	l-1.9-0.6l-0.3-0.1l-0.5-0.1l-3.7-1l-0.4-0.1l-0.1,0l-0.1,0l-0.6-0.2l-0.2-0.1l-0.2-0.1l-3.2-0.8l-0.4-0.1l-0.4-0.1l-5.2-1l-0.4-0.1
	l-0.5-0.1l-1.5-0.2l-3.2-0.5l-0.7-0.1l-0.3,0l-0.2,0l-2.3-0.3l-1.9-0.3l-2.7-0.3l-1.1-0.1l-0.1,0l-3.3-0.3l-0.7-0.1l-3.3-0.3
	l-1.1-0.1l-0.6-0.1l-3-0.2l-0.4,0l-2.2-0.1l-2.6-0.1l-1.4,0l-5.6,0l-0.3,0l-0.4,0l-1.1,0l-0.6,0l-1.4,0.1l-1.4,0.1l-7.2,0.3
	l-0.8,0.1l-0.1,0l-7.6,0.6l-1.8,0.2l-3,0.3l-3.2,0.3l-0.7,0.1l-8.6,1l-0.6,0.1l-1.4,0.2l-0.8,0.1l-1.4,0.2l-8.3,1.1l-1.7,0.2
	l-3.8,0.6l-0.3,0l-2.2,0.4l-4.5,0.8l-5,0.8l-0.7,0.1l-6.8,1.3l-0.3,0.1l-2.2,0.4l-0.7,0.1l-8.2,1.6l-0.7,0.1l-0.5,0.1l-0.2,0
	l-5.7,1.3l-0.5,0.1l-0.2,0l-1.3,0.3l-3.4,0.8l-1.2,0.3l-3.3,0.8l0,0l-1.1,0.3l-1.6,0.4l-2.6,0.7l-2.8,0.8l-1.1,0.3l-1.5,0.4
	l-2.6,0.7l-1.3,0.3l-7.1,2.1l-6.5,1.9l-0.3,0.1l-1.2,0.4l-0.3,0.1l-0.8,0.2l-1.6,0.5l-0.8,0.3l-1,0.3l-11.2,3.8l-1.3,0.5l-0.4,0.1
	l-1.1,0.4l-1,0.3l-1.7,0.6l-0.5,0.2l-2.4,0.9l-5.4,2l-4.7,1.8l-0.5,0.2l-0.1,0l-0.4,0.2l-2.1,0.8l0,0l-1.8,0.7l-1.9,0.8l-1,0.4
	l-3.8,1.6l-1.6,0.7l-0.1,0.1l-4.1,1.8l-1.8,0.8l-1.1,0.5l-1.9,0.9l-1,0.5l-4.7,2.2l-1.3,0.6l-0.2,0.1l-0.5,0.2l-2.9,1.4l-2.7,1.3
	l-1,0.5l-0.3,0.2l-0.2,0.1l-0.8,0.4l-3.5,1.8l-0.4,0.2l-0.2,0.1l-0.9,0.5l-0.6,0.3l-0.5,0.3l-1.5,0.8l-0.2,0.1l-8.8,4.8l-0.8,0.5
	l-0.7,0.4l-0.5,0.3l-0.4,0.2l-1.1,0.6l-0.5,0.3l-1,0.6l-1.3,0.8l-8.3,4.8l-0.2,0.1l-1.1,0.7l-0.1,0.1l-6,3.6l-1.6,1l-0.4,0.3
	l-0.4,0.3l-1.1,0.7l-0.4,0.3l-2.6,1.6l-6,3.8l-1.5,1l-5,3.4l-0.6,0.4l-1.7,1.1l-3.2,2.2l-7,4.8l-5,3.4l-4.8,3.3l-0.6,0.4l-0.8,0.5
	l-1.3,0.8l-1.3,0.7l-0.3,0.1l-1.2,0.6l-1.1,0.5l-1.5,0.6l-0.3,0.1l0,0l0,0l-0.2,0.1l-0.8,0.3l-0.2,0.1l-0.8,0.3l-0.1,0l-1.3,0.3
	l-1.2,0.3l-0.1,0l-0.2,0l-0.3,0l-1.4,0.1l-0.1,0l-0.4,0l-0.4,0L668,254l-0.8-0.1l-1.1-0.2l-1-0.3l-0.5-0.1L664,253l-0.9-0.3
	l-0.2-0.1l-0.2-0.1l0,0l-0.9-0.5l-0.2-0.1l-0.5-0.3l-0.3-0.2l0,0l-0.7-0.5l-0.4-0.3l-0.1,0l-0.5-0.3l-1.3-1.1l0,0l-0.3-0.3l-0.2-0.1
	l0,0l-0.1-0.1l0,0l-0.6-0.6l-0.5-0.6l-0.4-0.5l0,0l-0.3-0.4l0,0l-0.3-0.4l-0.2-0.3l-0.6-0.9l0-0.1l-0.1-0.2l-0.3-0.5l-0.3-0.6
	l-0.3-0.8l-0.1-0.2l0,0l-0.1-0.3l-0.1-0.1l-0.5-1.8l-0.2-0.7l0-0.1l0-0.1l-0.1-0.4l-0.1-0.4l-0.1-0.6l-0.1-0.6l0-0.4l0-0.6l0-0.4
	l-0.1-0.8l0-0.1l0-0.1l0-0.2l0.1-0.7l0.1-0.5l0,0l0.1-0.3l0-0.2l0,0l0.1-0.3l0.2-0.5l0.2-0.5l0.2-0.8l0,0l0.3-0.6l0,0l0.2-0.3
	l0.2-0.3l0.3-0.5l0.2-0.3l0.2-0.2l0.5-0.7l0,0l0.2-0.2l0,0l0.2-0.3l0.2-0.2l0.4-0.3l0.1-0.1l0.6-0.5l0.3-0.2l0.9-0.6l0.1-0.1l0,0
	l0.1-0.1l0.1-0.1l0,0l0.3-0.2l1.6-0.9l0.4-0.2l0.3-0.2l0.5-0.2l0.1-0.1l0,0l0,0l0.8-0.2l0.3-0.1l0.2-0.1l0.5-0.1l0.3,0l0,0l0.1,0
	l0.4,0l0.3,0.2l0,0l0.1,0l0,0l0.2,0.3l1.3,1.7l0.9,1.1l0.5,0.6l0,0l0.4,0.5l0.1,0.2l0.1,0.1l0,0l0.1,0.2l0,0.2l0,0l0,0l-0.1,0.4
	l0,0.2l-0.1,0.3l0,0l-0.1,0.2l-0.1,0.2l-0.1,0.3l-0.7,1.1l-0.8,1.2l-0.3,0.4l-0.5,0.9l-0.1,0.1l0,0l0,0.1l0,0l0,0l-0.4,0.9l-0.1,0.2
	l-0.1,0.2l-0.1,0.3l-0.1,0.4l0,0l-0.1,0.4l0,0.3l0,0.4l0,0l0.1,0.8l0,0.2l0,0.3l0,0.1l0.1,0.1l0.2,0.5l0.1,0.3l0,0.1l0,0l0.1,0.2
	l1,1.3l0,0l0,0l0,0l1.1,0.9l0,0l0,0l0.3,0.2l0.5,0.2l0.8,0.3l0.2,0l0.6,0.1l0.1,0l0.6,0l0.1,0l0,0l0.2,0l0.1,0l0.1,0l0.8-0.1
	l0.9-0.3l0,0l0.4-0.2l0.4-0.2l0,0l0.1-0.1L673.4,241.3l-0.5,0.3l1.3-2.8"/>
<path class="st0" d="M1133,641.1l-0.1,29.7l-5.1,3.5l-10.9,7.4l-15.3,9.8l-6.4,3.9l-9.9,5.7l-18.5,10.1l0.5,0.9l-24.4,10.9
	l-17.2,7.5l-13.5,5.4l-4,1.5l-18.9,6.7l-9,2.9l-11.1,3.4l-14.5,4l-9.3,2.3l-6.3,1.5l-10.8,2.3l-19.2,3.7l-7.1,1.2l-11.4,1.7l-14.8,2
	l-11.1,1.2l-10.9,1l-13.4,0.9l-7.4,0.3l-6.9,0.2l-8.3,0.1l-7.7-0.1l-10.9-0.3l-10.4-0.5l-24.9-1.6l-4.2-0.9l-67.1-32.6l-0.5,0
	l-0.7,0.3l0.3-0.1l0,0l-0.1,0.2l0,0l-0.1,0l0,0l0,0l0,0l-0.1,0l0,0l-0.1,0l-0.1,0.1l-0.2,0.1l-0.1,0.2l-0.1,0.2l0,0l0,0.1l0,0.1
	l0,0.3l0,0.1l0,0l0,0.1l0.1,0.1l0.2,0.3c5.1,2.4,14.2,7.5,13.5,9.2c-0.8,2.2-13.3-0.3-20.6-3c-7.4-2.7-12.7-6.6-11.9-8.8
	c0.6-1.5,1.9-2.1,6.3-1.3l-1.4-1.8l0,0l-2.6-0.7l-0.1,0l0,0l-1.3-0.4l-0.6-0.2l0.7,0.2l-0.4-0.1l-5.1-1.6l-0.6-0.2l-1.6-0.5l-2.8-1
	l-2-0.7l-0.6-0.2l-0.9-0.3l-0.3-0.1l-2.3-0.9l-2-0.8l-4.1-1.7l-2.3-0.9l-0.9-0.4l-0.8-0.4l-1.5-0.7l-0.2-0.1l-0.7-0.3l-0.8-0.4l0,0
	l-2.5-1.2l-1.1-0.5l-0.7-0.4l-2.1-1.1l-0.7-0.4l-0.3-0.2l-3.5-1.9l-0.9-0.5l-0.2-0.1l-0.7-0.4l-4.2-2.4l-0.5-0.3l-0.6-0.3l-0.2-0.1
	l-0.4-0.2l-1.1-0.7l-0.3-0.2l-3-1.9l0,0l0,0l-1.4-1l-0.9-0.6l-1.4-0.9l-0.4-0.3l-0.8-0.5l-0.6-0.4l-0.1-0.1l-0.9-0.6l-2.8-2
	l-0.1-0.1l-0.3-0.2l0,0l-0.3-0.2l0,0l0,0l-0.2-0.1l0,0l-0.5-0.4l-0.5-0.4l-1.2-0.9l-3.2-2.4l-1.8-1.5l-2.4-2l-0.5-0.4l-0.8-0.7
	l-0.8-0.8l-4.3-3.9l-0.8-0.7l-0.1-0.1l-0.5-0.5l-2.5-2.5l-1.5-1.5l-0.5-0.5l-0.1-0.1l-0.9-0.9l-1.4-1.5l-1.2-1.3l-2.6-2.9l-1.6-1.8
	l-0.1-0.1l-0.8-0.9l-0.1-0.1l-0.3-0.4l-0.1-0.1l-1.2-1.4l-0.6-0.7l-1.9-2.4l-1.6-2l-0.5-0.6l-0.9-1.2l-0.2-0.3l0,0l0,0l-0.2-0.2
	l-0.1-0.1l-0.4-0.6l-1-1.5l-4.4-6.3l-0.7-1.1l-0.1-0.2l-0.2-0.3l0,0l-0.2-0.3l-2-3.3l-1-1.6l-0.5-0.8l-0.5-0.8l0,0l-0.3-0.5
	l-1.7-3.1l-0.2-0.4l-0.2-0.3l-0.3-0.6l-1.8-3.4l-1-2l-0.5-1.1l-2.9-6.3l0,0l-0.9-2.2l-0.4-1.1l-0.5-1.2l0-0.1l-0.6-1.5l-1.1-2.8
	l-1-2.7l-0.1-0.2l-0.4-1l-0.4-1.1l-1.3-3.7l-0.5-1.6l-0.3-0.8l-0.2-0.6l-1.3-4.1l0,0l0-0.1l-0.2-0.7l-0.1-0.3l-0.5-1.7l-1.5-5.3
	l-0.5-2l-0.6-2.3l-0.3-1.1l-0.2-1l-0.3-1.3l-1.2-5.7l-0.4-1.8l-0.1-0.6l0-0.1l-0.3-1.6l-0.4-2l-0.5-2.5l-0.1-0.4l-0.3-1.6l-0.2-1
	l-0.2-1.1l-0.1-0.8l-0.1-0.4l-0.5-3.4l-0.9-6.5l0,0l-0.1-0.6l-0.2-1.5l0-0.4l-1-8.6l0,0l-0.1-0.9l-0.1-0.9l0-0.4l-0.3-3.4l0-0.2
	l0-0.1l-0.1-2.1l-1-16.4l0-0.9l0-0.9l0-1.4l0-0.1l0-0.2l-0.1-2.6l-0.1-3.3l-0.1-3.1l-0.1-3.3l0,0l-0.2-0.3l-0.2-0.2v-0.7l-0.1-0.1
	l-0.1-0.1l-0.5-0.5l-0.3-0.4l0,0l-0.2-0.1l0,0l0,0l0,0l-0.2-0.1l-0.2,0l-0.1,0l0,0l0,0l-0.1,0l-0.1,0l0,0l-0.1,0l-0.1,0l0,0l0.1,0
	l0-0.1c-0.6,5.6-2.2,9.6-4,9.6c-2.3,0-4.3-6.3-4.3-14.2s1.9-14.2,4.3-14.2c1.6,0,3,3,3.7,7.4l0.1,0l-0.2-0.1l0.2,0.1l0.2,0l0.2,0
	l0.2,0h0l0,0l0,0l0,0l0.2-0.1l0,0l0,0l0.1,0l0,0l0,0l0,0l0,0l0,0l0.5-0.5l0.2-0.2l0,0l0.1-0.1l0.4-0.5l0.2-0.2v-0.1v-0.1v0v-0.1
	l0.3-0.3l0.1-0.1l0,0l0-0.5l0.1-3.2l0-0.5l0.1-2l0.3-9.1l0-0.3l0-1.1l0.1-1.9l0-1.2l0.1-2.8l0.1-1.4l0,0l0.3-4.7l0.1-1.3l0-0.4v0
	l0-0.4l0.8-7.7l0.4-3.7l0.4-4.6l0,0l0-0.3l0-0.3l0-0.2l0-0.1l0,0l0-0.4l0-0.1l0.8-6l0,0l0.1-1.1l0-0.3l0-0.2l0-0.1l0-0.1l0,0
	l0.1-0.7l0.1-0.6l0.7-4.6l0.1-0.5l0,0l0-0.1l0,0l0.5-3.2l0.2-1.1l0-0.3l0.2-1.1l0.8-4.5l0.2-0.8l0.1-0.3l0.7-3.2l1-4.5l0.2-1
	l0.6-2.6l0.1-0.3l0.7-2.9l0,0l0.3-1.3l0,0l2.1-7l0.8-2.8l0-0.1l0.4-1.4l0,0l0,0l0.5-1.4l0,0l0-0.1l0.1-0.4l0.8-2.4l0.1-0.3l0.2-0.6
	l0.7-2l0-0.1l0,0l0,0l0.3-0.9l0.5-1.5l0-0.1l0.1-0.3l0.1-0.2l0.2-0.4l0.6-1.7l0.9-2.2l0,0l0.2-0.6l0.1-0.3l1.4-3.3l1.5-3.6l0,0
	l0.1-0.3l0,0l0.2-0.5l0.2-0.5l1.5-3.3l0.4-0.8l1.3-2.7l0.3-0.7l0.4-0.9l0.1-0.3l1.7-3.2l0.4-0.8l0.4-0.7l0.3-0.5l0.8-1.4l1.5-2.7
	l0.3-0.5l0,0l3.9-6.1l0.9-1.4l1.8-2.7l0.8-1l0.3-0.4l1.3-1.7l1-1.4l0.3-0.4l0.3-0.5l0.3-0.4l1.8-2.2l0.5-0.6l1-1.3l0.9-1l1.6-1.9
	l0.2-0.3l2.2-2.6l0.9-1l0.7-0.8l0.2-0.2l0.1-0.1l0.6-0.6l1.6-1.7l0.9-1l1.1-1.2l2.3-2.4l0,0l0.9-0.9l1.4-1.4l1-1l0.3-0.3l1.1-1.1
	l1.7-1.6l1.2-1.1l0.1-0.1l0,0l0,0l0,0l0.1-0.1l0.1-0.1l0.2-0.1l1.5-1.3l2.3-2l0.5-0.4l0.2-0.1l2.6-2.1l0.5-0.4l0.5-0.4l1.9-1.5
	l0.5-0.4l1.1-0.8l0.9-0.6l0.5-0.4l1.1-0.8l3.6-2.5l1-0.6l1.7-1.1l1.6-1l0.1-0.1l2.2-1.4l0.6-0.3l0.1,0l1-0.6l0.1-0.1l3.3-2l1.1-0.6
	l2.4-1.4l0.8-0.5l1.6-0.9l0.5-0.3l1.5-0.8l2.9-1.5l0.3-0.1l1-0.5l1.2-0.6l0.3-0.1l6.8-3.1l0.4-0.2l0.5-0.2l0.1-0.1l2.5-1l0.3-0.1
	l1.2-0.5l4-1.5l0.2-0.1l1.9-0.7l0.1,0l0,0l0.3-0.1l0.9-0.3l4.5-1.6l0.1,0l0.3-0.1l0.1,0l0,0l0.3-0.1l1.6-0.5l1.9-0.6l0.1,0l0,0
	l0.1,0l3.4-1.1l0.1,0l0.1,0l0.6-0.2l0,0c-1.2-0.4-1.2-0.4-2.4-0.9c-2.7-0.8-3.4-1.4-3.9-3.2c-0.6-2.3,5-5.7,12.6-7.8
	c7.6-2,22.2-4.7,22.8-2.5c0.4,1.6-10.1,6.6-14.2,8.4l0.3-0.4l-0.1,0.2l-0.1,0.3l0,0.1l0,0l0,0.2l0.1,0.3l0.2,0.2l0.1,0.1l0,0
	l0.1,0.1l0.1,0.1l0.1,0.1l0,0l0,0l0,0l0,0l0,0l0,0l0.4,0.2l0,0l0.1,0l0.3-0.1l-0.3,0.1l0.3-0.1l9.6-1.9l1.2-0.4l-1.2,0.4l0.8-0.4
	l61-30.9l3.3-0.2l15.2-1l12.9-0.7l17.5-0.5l8.3,0l15.4,0.3l7.9,0.4l14.4,1l14.6,1.4l7.3,0.9l8.6,1.1l11,1.6l0-0.1l17,3l9.6,1.8
	l6.1,1.3l11.2,2.5l5.1,1.2l7.4,1.9l10.4,2.8l5.8,1.7l5.6,1.7l8,2.5l12.9,4.4l17.3,6.4l13,5.2l11.9,5.1l6.9,3.2l11.4,5.5l8.4,4.4
	l11.6,6.2l11.3,6.3l11.9,7.1l11.6,7.3l6.6,4.3l11.2,7.6l-2.5,28.2l-0.7-2.2l0.7,2.2l-0.1-0.1l0.1,0.1l0.4,0.3l1.1,0.7l1.5,1l0.5,0.3
	l0.4,0.2l0.7,0.4l0.9,0.5l0.7,0.3l0,0l0.7,0.2l0.3,0.1l0.2,0.1l0.2,0.1l0,0l0.4,0l0.2,0l0.1,0l0.1,0l0.1,0l0,0l0.2,0l0.4,0l0.3-0.1
	l0.5-0.1l0.4-0.1l0.1,0l0.5-0.2l0.3-0.1l0.6-0.4l0.2-0.1l0,0l0.2-0.2l0.8-0.7l0.1-0.1l0,0l0,0l0-0.1l0.7-0.8l0.1-0.1l0.1-0.1
	l0.1-0.1l0,0l0.1-0.3l0.3-0.8l0-0.1l0,0l0-0.4l0,0l0.1-0.3l0,0l0-0.5l0-0.5l0-0.1l-0.1-0.4l0,0l-0.1-0.4l0-0.1l-0.4-1.2l-0.1-0.1
	l-0.3-0.6l-0.8-1.5l-0.4-0.7l-0.2-0.2l-1-1.6l-0.3-0.7l0-0.1l0,0l0,0l0,0l0,0l0,0l0-0.1l0-0.1l0-0.3l0-0.1l0,0l0.1-0.2l0,0l0.1-0.1
	l0.3-0.4l0.1-0.1l0.3-0.4l0.5-0.6l1.9-2.4l0.1-0.1l0,0l0,0l0,0l0.1-0.1l0.2-0.2l0,0l0.1-0.1l0.3-0.1l0,0l0.1,0l0.1,0l0.1,0l0.2,0
	l0.1,0l0.4,0l0.2,0.1l0.1,0l0.5,0.2l0.4,0.2l1.3,0.6l0.6,0.3l0.2,0.1l0.2,0.1l0.2,0.1l0,0l0.2,0.1l0.8,0.5l0.3,0.2l0.1,0.1l0.9,0.6
	l0,0l0.7,0.6l0.2,0.2l0.1,0.1l0,0l0,0l0,0l0.1,0.1l0.1,0.2l0.2,0.2l0.6,0.6l0.2,0.3l0.5,0.8l0.1,0.2l0.4,0.6l0.1,0.1l0.2,0.4
	l0.3,0.7l0.1,0.3l0.2,0.4l0,0.1l0,0.1l0.1,0.6l0,0.1l0.1,0.5l0.1,0.4l0,0.1l0.1,1.1l0,0.4l0,0.4l0,0.2l0,0l0,0.3l0,0.3l0,1l0,0.1
	l0,0.2l0,0.2l0,0.1l-0.1,0.4l-0.1,0.3l-0.1,0.3l-0.3,1.7l0,0.1l-0.2,0.8l0,0l-0.2,0.5l-0.3,0.8l0,0.1l-0.1,0.1l0,0l-0.1,0.1l0,0.1
	l0,0.1l-0.3,0.5l-0.1,0.2l-0.2,0.4l0,0l-0.1,0.1l-0.4,0.6l-0.1,0.2l-0.2,0.3l-0.3,0.4l-0.4,0.5l-0.4,0.5l0,0l0,0l-0.3,0.3l-0.7,0.8
	l-0.1,0.1l-0.1,0.1l-0.1,0.1l-0.3,0.2l-0.3,0.2l-0.4,0.3l-0.4,0.3l0,0l-0.1,0.1l-0.2,0.1l-0.3,0.2l-0.9,0.6l0,0l-0.5,0.3l-0.1,0l0,0
	l-0.1,0.1l-0.8,0.4l-0.3,0.2l-0.7,0.4l-0.3,0.1l-0.4,0.2l-0.4,0.2l0,0l0,0l-0.5,0.2l-0.8,0.2l-0.1,0l-0.2,0.1l-0.9,0.2l-0.1,0
	l-1.5,0.2l-0.2,0l-0.2,0l-0.9,0l-0.4,0l-0.1,0l-0.1,0l-0.5,0l-0.4,0l-0.1,0l-1.2-0.2l-0.1,0l-0.6-0.1l-2.1-0.5l-0.1,0l-1.2-0.4
	l-1.7-0.6l-0.1-0.1l-1.9-0.9l-0.2-0.1l-0.7-0.3l0,0l-0.2-0.1l-1.2-0.7l-1.9-1.1l-0.7-0.4l-4.8-3.3l-4.7-3.2l-0.5-0.3l-2.3-1.6
	l-0.7-0.5l-0.7-0.5l-0.2-0.1l-0.6-0.4l0,0l-7.4-5.1l-0.4-0.3l-0.3-0.2l-0.8-0.6l-0.9-0.6l-4.2-2.8l-0.6-0.4l-0.7-0.5l-3.5-2.2
	l-0.7-0.4l-0.1-0.1l-1-0.6l-0.4-0.2l-4.5-2.7l-3.8-2.3l-0.4-0.2l-0.3-0.2l-0.1-0.1l-2.7-1.6l-0.4-0.2l-9-5.3l-1.4-0.8l-0.9-0.5
	l-0.6-0.3l-0.3-0.2l-0.3-0.2l-5.5-3.1l-1-0.6l-5.4-2.9l-0.5-0.3l-0.6-0.3l-0.3-0.2l-0.3-0.2l0,0l-0.4-0.2l-1.7-0.9l-4.9-2.5l0,0
	l-0.3-0.1l-0.3-0.1l-2-1l-1.6-0.8l-0.1,0l-1.3-0.6l-8.3-3.9l-1-0.5l-0.1,0l-0.4-0.2l-0.1,0l-1.2-0.6l-1.9-0.9l-2.3-1l-0.6-0.3
	l-0.5-0.2l-0.7-0.3l-2.6-1.1l-0.8-0.4l-2.8-1.2l-0.3-0.1l-1.9-0.8l-0.6-0.3l-5.6-2.2l-0.9-0.3l-1.5-0.6l-2-0.8l-0.8-0.3l-1.7-0.6
	l-4.9-1.8l-0.5-0.2l-1.1-0.4l-3.5-1.2l-0.4-0.2l-0.1,0l-0.4-0.1l0,0l-6.8-2.4l-2-0.7l-2.7-0.9l-7.1-2.3l-1.4-0.4l-4-1.2l-4.8-1.4
	l-1.9-0.6l-0.8-0.2l-0.5-0.1l-4.5-1.2l-1-0.3l-3.3-0.9l-0.3-0.1l-1.1-0.3l-1-0.2l-1.1-0.2l-4.9-1.2l-6.3-1.5l-0.3-0.1l-0.1,0
	l-3.2-0.7l-2.6-0.5l-0.5-0.1l-2.2-0.4l-3.3-0.7l-1.1-0.2l-5.5-1l-5.9-1.1l-0.9-0.2l-0.1,0l-0.9-0.2l-3.1-0.5l-0.7-0.1l-0.8-0.1
	l-0.1,0l-1.5-0.2l-5.6-0.9l-5.2-0.8l-0.3,0l-1.2-0.2l-9.4-1.3l-1.5-0.2l-0.5-0.1l-8.6-1l-1.4-0.2l-2.1-0.2l-0.3,0l-7.3-0.7l-0.9-0.1
	l-4.3-0.3l-3-0.2l0,0l-2.9-0.2l-0.8-0.1l-1.2-0.1l-0.9,0l-2.4,0l-1.1,0l-0.1,0l-1.3,0l-2.3,0l-0.4,0l-3.5,0l0,0l-0.7,0l-4,0.2l0,0
	l-0.2,0l-0.7,0l-0.4,0l-0.3,0l-0.3,0l-2,0.1l-0.6,0.1l-0.6,0.1l-5.7,0.5l-0.6,0.1l-1.4,0.1l-3,0.3l-2.4,0.3l-3.4,0.4l-2.9,0.4
	l-0.7,0.1l-0.2,0l-0.5,0.1l-0.5,0.1l-7.6,1.5l-0.5,0.1l-0.1,0l-3.2,0.8l0,0l-0.1,0l-0.8,0.2l-0.6,0.2l-1.3,0.4l-2,0.6l-2.8,0.8
	l-0.3,0.1l-0.3,0.1l-0.5,0.2l-0.4,0.1l-0.4,0.1l-3.1,1l-0.4,0.1l-2.9,1l-0.6,0.2l-2.4,0.9l-0.4,0.1l-0.3,0.1l-0.5,0.2l-1.2,0.5
	l-1.9,0.8l-0.1,0l-0.2,0.1l-0.2,0.1l-0.8,0.4l-0.7,0.3l-1,0.5l-1.5,0.7l-2.5,1.2l-0.5,0.3l-0.6,0.3l-3.3,1.7l-2,1.1l-1.2,0.6
	l-2.7,1.5l-1.1,0.6l-4.9,2.8l-0.5,0.3l-0.2,0.1l-0.3,0.2l-0.3,0.2l-2.6,1.6l-1.7,1l-0.3,0.2l-0.2,0.1l-0.2,0.1l-0.1,0.1l-0.3,0.2
	l0,0l-0.2,0.2l-9.5,6.2l-0.3,0.2l-0.3,0.2l-0.2,0.2l-1.1,0.8l-1.3,0.9l-0.9,0.6l-0.3,0.2l-1.9,1.3l-1.6,1.1l-1.8,1.3l0,0l-0.9,0.7
	l-1.7,1.3l-2.9,2.2l-1,0.8l-3.6,2.8l-1.2,1l-0.8,0.6l-3.7,3.1l-7.5,6.3l-1.6,1.3l-2.8,2.5l-1.1,0.9l-0.9,0.8l-1.7,1.5l-1.1,1
	l-2.9,2.8l-0.8,0.8l-2.3,2.3l-2.1,2.1l-0.6,0.6l-0.2,0.2l-0.7,0.7l-2.8,2.9l-4.5,5l-0.8,0.9l0,0l-2.5,2.9l-0.1,0.1l-0.8,0.9
	l-0.1,0.1l-0.3,0.3l-1.5,1.7l-2.2,2.8l-1,1.3l-0.1,0.1l-0.4,0.6l-0.2,0.3l-3.9,5.2l-1.3,1.9l-0.8,1.1l-2.1,3.1l-0.8,1.1l-0.4,0.6
	l-0.1,0.2l-0.4,0.6l-2.3,3.7l-0.6,1.1l-0.1,0.2l-0.9,1.5l-1.4,2.5l-3.3,5.9l-0.7,1.2l-0.4,0.8l-1.5,3l-0.2,0.5l0,0l0,0.1l-0.1,0.1
	l-2.1,4.3l-0.1,0.2l-0.2,0.5l-0.1,0.2l-0.2,0.4l-2.7,6l-1.5,3.4l-0.1,0.2l0,0l0,0.1l-1.6,3.7l-0.4,1l-0.1,0.2l-0.1,0.2l0,0.1
	l-0.3,0.7l-0.8,2l-0.5,1.3l-1.7,4.5l-0.6,1.5l-0.2,0.6l-1.3,3.7l-0.4,1.2l-0.2,0.7l-0.1,0.2l-2.1,6.6l0,0.1l-0.1,0.2l-0.5,1.9
	l-0.2,0.7l-0.3,0.9l-0.7,2.5l0,0l-0.1,0.3l-1.1,4.5l-0.4,1.7l0,0l-0.3,1.6l-0.4,1.7l-0.6,2.6l0,0.1l-0.1,0.3l-0.1,0.4l-0.1,0.3
	l-0.4,2.4l-0.6,3.3l-0.1,0.5l-0.1,0.6l-0.4,2.8l-0.1,0.4l-0.1,0.4l0,0.1l-0.8,6.6l0,0.3l0,0.3l-0.1,0.5l-0.5,5l-0.1,0.7l0,0.3l0,0
	l0,0.1l-0.3,5l-0.1,1l0,0.6l0,0.5l-0.1,9.4l0,2l0,0.4l0,0.7l0,1l0,1.1l0.2,4.5l0,0.7l0,0.7l0,0.5l0.2,2.6l0.1,2.1l0,0.5l0.4,3.9
	l0.1,1.4l0,0.1l0.1,0.9l0.3,3.1l0,0l0,0.1l0,0l0,0.1l0.8,5.7l0,0.1l0,0.4l0.1,0.4l0,0.1l0,0l0.3,1.6l1,5.3l0.3,1.5l0.1,0.3l0,0.2
	l0.1,0.4l0.3,1.3l0.6,2.6l0.6,2.5l0.3,1.4l0.3,1.1l1,3.9l0.4,1.6l0,0.1l0.2,0.7l0,0.2l0.7,2.6l0.6,2.2l0.8,2.5l1.2,3.7l0.2,0.6
	l0.8,2.4l0.5,1.4l1.1,2.9l1.7,4.3l0.2,0.5l0.3,0.8l0.4,1.1l0.4,0.9l0.2,0.5l0.2,0.5l0.4,0.8l0.3,0.7l2.7,6.2l2.2,5l0.3,0.6l0.5,1
	l0.3,0.7l2.1,4.2l1.4,2.9l0.3,0.7l0,0l0.1,0.2l0.1,0.1l0.2,0.4l0.7,1.3l2.1,3.8l0.2,0.4l0.6,1l0.4,0.8l1.6,2.8l0.4,0.7l2.1,3.4
	l2.3,3.6l0.7,1.1l0.1,0.1l2,2.9l2.5,3.6l0.5,0.7l0.9,1.2l2.3,3l0.4,0.6l3.7,4.6l0.5,0.7l0.3,0.4l1.3,1.5l3.2,3.7l0.5,0.6l0.1,0.1
	l0.7,0.8l0.9,0.9l3.8,4.2l0.5,0.5l4.4,4.5l0.2,0.2l0.1,0.1l0.2,0.2l0.6,0.6l5,4.8l1,0.9l3.9,3.5l0.3,0.3l0.8,0.7l9.1,7.7l1.8,1.5
	l3.7,3l3.3,2.6l1,0.8l3.4,2.7l1.2,0.9l0.3,0.2l0.2,0.2l6.7,4.8l0.1,0.1l0.8,0.6l3.6,2.5l0.4,0.2l0.9,0.6l0.1,0l0.3,0.2l0.2,0.1
	l0.5,0.3l0,0l0.1,0l0.3,0.2l0.1,0l8.6,5.6l0.1,0.1l0.1,0.1l0.3,0.2l0.4,0.2l0.7,0.5l0.9,0.5l0.8,0.5l1.5,0.9l0.5,0.3l3.9,2.3l0,0
	l4.9,2.7l0.4,0.2l0,0l0.4,0.2l0,0l3.9,2.1l0.5,0.2l0,0l0.5,0.2l0.7,0.4l1,0.5l4.7,2.4l0.6,0.3l0.3,0.1l0.3,0.1l4.5,1.9l0.7,0.3
	l0.3,0.1l2.6,1l0.3,0.1l0,0l0,0l0.1,0l0.3,0.1l0,0l0.2,0.1l0.1,0l1.6,0.5l1.8,0.6l0.9,0.3l0.3,0.1l4.5,1.4l1.9,0.6l0.3,0.1l0.5,0.1
	l3.7,1l0.4,0.1l0.1,0l0.1,0l0.6,0.2l0.2,0.1l0.2,0.1l3.2,0.8l0.4,0.1l0.4,0.1l5.2,1l0.4,0.1l0.5,0.1l1.5,0.2l3.2,0.5l0.7,0.1l0.3,0
	l0.2,0l2.3,0.3l1.9,0.3l2.7,0.3l1.1,0.1l0.1,0l3.3,0.3l0.7,0.1l3.3,0.3l1.1,0.1l0.6,0.1l3,0.2l0.4,0l2.2,0.1l2.6,0.1l1.4,0l5.6,0
	l0.3,0l0.4,0l1.1,0l0.6,0l1.4-0.1l1.4-0.1l7.2-0.3l0.8-0.1l0.1,0l7.6-0.6l1.8-0.2l3-0.3l3.2-0.3l0.7-0.1l8.6-1l0.6-0.1l1.4-0.2
	l0.8-0.1l1.4-0.2l8.3-1.1l1.7-0.2l3.8-0.6l0.3,0l2.2-0.4l4.5-0.8l5-0.8l0.7-0.1l6.8-1.3l0.3-0.1l2.2-0.4l0.7-0.1l8.2-1.6l0.7-0.1
	l0.5-0.1l0.2,0l5.7-1.3l0.5-0.1l0.2,0l1.3-0.3l3.4-0.8l1.2-0.3l3.3-0.8l0,0l1.1-0.3l1.6-0.4l2.6-0.7l2.8-0.8l1.1-0.3l1.5-0.4
	l2.6-0.7l1.3-0.3l7.1-2.1l6.5-1.9l0.3-0.1l1.2-0.4l0.3-0.1l0.8-0.2l1.6-0.5l0.8-0.3l1-0.3l11.2-3.8l1.3-0.5l0.4-0.1l1.1-0.4l1-0.3
	l1.7-0.6l0.5-0.2l2.4-0.9l5.4-2l4.7-1.8l0.5-0.2l0.1,0l0.4-0.2l2.1-0.8l0,0l1.8-0.7l1.9-0.8l1-0.4l3.8-1.6l1.6-0.7l0.1-0.1l4.1-1.8
	l1.8-0.8l1.1-0.5l1.9-0.9l1-0.5l4.7-2.2l1.3-0.6l0.2-0.1l0.5-0.2l2.9-1.4l2.7-1.3l1-0.5l0.3-0.2l0.2-0.1l0.8-0.4l3.5-1.8l0.4-0.2
	l0.2-0.1l0.9-0.5l0.6-0.3l0.5-0.3l1.5-0.8l0.2-0.1l8.8-4.8l0.8-0.5l0.7-0.4l0.5-0.3l0.4-0.2l1.1-0.6l0.5-0.3l1-0.6l1.3-0.8l8.3-4.8
	l0.2-0.1l1.1-0.7l0.1-0.1l6-3.6l1.6-1l0.4-0.3l0.4-0.3l1.1-0.7l0.4-0.3l2.6-1.6l6-3.8l1.5-1l5-3.4l0.6-0.4l1.7-1.1l3.2-2.2l7-4.8
	l5-3.4l4.8-3.3l0.6-0.4l0.8-0.5l1.3-0.8l1.3-0.7l0.3-0.1l1.2-0.6l1.1-0.5l1.5-0.6l0.3-0.1l0,0l0,0l0.2-0.1l0.8-0.3l0.2-0.1l0.8-0.3
	l0.1,0l1.3-0.3l1.2-0.3l0.1,0l0.2,0l0.3,0l1.4-0.1l0.1,0l0.4,0l0.4,0l1.4,0.1l0.8,0.1l1.1,0.2l1,0.3l0.5,0.1l0.7,0.3l0.9,0.3
	l0.2,0.1l0.2,0.1l0,0l0.9,0.5l0.2,0.1l0.5,0.3l0.3,0.2l0,0l0.7,0.5l0.4,0.3l0.1,0l0.5,0.3l1.3,1.1l0,0l0.3,0.3l0.2,0.1l0,0l0.1,0.1
	l0,0l0.6,0.6l0.5,0.6l0.4,0.5l0,0l0.3,0.4l0,0l0.3,0.4l0.2,0.3l0.6,0.9l0,0.1l0.1,0.2l0.3,0.5l0.3,0.6l0.3,0.8l0.1,0.2l0,0l0.1,0.3
	l0.1,0.1l0.5,1.8l0.2,0.7l0,0.1l0,0.1l0.1,0.4l0.1,0.4l0.1,0.6l0.1,0.6l0,0.4l0,0.6l0,0.4l0.1,0.8l0,0.1l0,0.1l0,0.2l-0.1,0.7
	l-0.1,0.5l0,0l-0.1,0.3l0,0.2l0,0l-0.1,0.3l-0.2,0.5l-0.2,0.5l-0.2,0.8v0l-0.3,0.6l0,0l-0.2,0.3l-0.2,0.3l-0.3,0.5l-0.2,0.3
	l-0.2,0.2l-0.5,0.7l0,0l-0.2,0.2l0,0l-0.2,0.3l-0.2,0.2l-0.4,0.3l-0.1,0.1l-0.6,0.5l-0.3,0.2l-0.9,0.6l-0.1,0.1l0,0l-0.1,0.1
	l-0.1,0.1l0,0l-0.3,0.2l-1.6,0.9l-0.4,0.2l-0.3,0.2l-0.5,0.2l-0.1,0.1l0,0l0,0l-0.8,0.2l-0.3,0.1l-0.2,0.1l-0.5,0.1l-0.3,0l0,0
	l-0.1,0l-0.4,0l-0.3-0.2l0,0l-0.1,0l0,0l-0.2-0.3l-1.3-1.7l-0.9-1.1l-0.5-0.6l0,0l-0.4-0.5l-0.1-0.2l-0.1-0.1l0,0l-0.1-0.2l0-0.2
	l0,0l0,0l0.1-0.4l0-0.2l0.1-0.3l0,0l0.1-0.2l0.1-0.2l0.1-0.3l0.7-1.1l0.8-1.2l0.3-0.4l0.5-0.9l0.1-0.1l0,0l0-0.1l0,0l0,0l0.4-0.9
	l0.1-0.2l0.1-0.2l0.1-0.3l0.1-0.4l0,0l0.1-0.4l0-0.3l0-0.4l0,0l-0.1-0.8l0-0.2l0-0.3l0-0.1l-0.1-0.1l-0.2-0.5l-0.1-0.3l0-0.1l0,0
	l-0.1-0.2l-1-1.3l0,0l0,0l0,0l-1.1-0.9l0,0l0,0l-0.3-0.2l-0.5-0.2l-0.8-0.3l-0.2,0l-0.6-0.1l-0.1,0l-0.6,0l-0.1,0l0,0l-0.2,0l-0.1,0
	l-0.1,0l-0.8,0.1l-0.9,0.3l0,0l-0.4,0.2l-0.4,0.2l0,0l-0.1,0.1L1133,641.1l0.5-0.3l-1.3,2.8"/>
</svg>
