<?xml version="1.0" encoding="utf-8"?>
<!-- Generator: Adobe Illustrator 23.1.1, SVG Export Plug-In . SVG Version: 6.00 Build 0)  -->
<svg version="1.1" id="Layer_1" xmlns="http://www.w3.org/2000/svg" xmlns:xlink="http://www.w3.org/1999/xlink" x="0px" y="0px"
	 viewBox="0 0 1296 792" style="enable-background:new 0 0 1296 792;" xml:space="preserve">
<style type="text/css">
	.st0{fill:none;stroke:#000000;stroke-width:8.035216e-03;stroke-miterlimit:11.3386;}
</style>
<path class="st0" d="M1150.9,165.2l29.7,0.1l3.5,5.1l7.4,10.9l9.8,15.3l3.9,6.4l5.7,9.9l10.1,18.5l0.9-0.5l10.9,24.4l7.5,17.2
	l5.4,13.5l1.5,4l6.7,18.9l2.9,9l3.4,11.1l4,14.5l2.3,9.3l1.5,6.3l2.3,10.8l3.7,19.2l1.2,7.1l1.7,11.4l2,14.8l1.2,11.1l1,10.9
	l0.9,13.4l0.3,7.4l0.2,6.9l0.1,8.3l-0.1,7.7l-0.3,10.9l-0.5,10.4l-1.6,24.9l-0.9,4.2l-32.6,67.1l0,0.5l0.3,0.7l-0.1-0.3l0,0l0.2,0.1
	l0,0l0,0.1l0,0l0,0l0,0l0,0.1l0,0l0,0.1l0.1,0.1l0.1,0.2l0.2,0.1l0.2,0.1l0,0l0.1,0l0.1,0l0.3,0l0.1,0l0,0l0.1,0l0.1-0.1l0.3-0.2
	c2.4-5.1,7.5-14.2,9.2-13.5c2.2,0.8-0.3,13.3-3,20.6c-2.7,7.4-6.6,12.7-8.8,11.9c-1.5-0.6-2.1-1.9-1.3-6.3l-1.8,1.4l0,0l-0.7,2.6
	l0,0.1l0,0l-0.4,1.3l-0.2,0.6l0.2-0.7l-0.1,0.4l-1.6,5.1l-0.2,0.6l-0.5,1.6l-1,2.8l-0.7,2l-0.2,0.6l-0.3,0.9l-0.1,0.3l-0.9,2.3
	l-0.8,2l-1.7,4.1l-0.9,2.3l-0.4,0.9l-0.4,0.8l-0.7,1.5l-0.1,0.2l-0.3,0.7l-0.4,0.8l0,0l-1.2,2.5l-0.5,1.1l-0.4,0.7l-1.1,2.1
	l-0.4,0.7l-0.2,0.3l-1.9,3.5l-0.5,0.9l-0.1,0.2l-0.4,0.7l-2.4,4.2l-0.3,0.5l-0.3,0.6l-0.1,0.2l-0.2,0.4l-0.7,1.1l-0.2,0.3l-1.9,3
	l0,0l0,0l-1,1.4l-0.6,0.9l-0.9,1.4l-0.3,0.4l-0.5,0.8l-0.4,0.6l-0.1,0.1l-0.6,0.9l-2,2.8l-0.1,0.1l-0.2,0.3l0,0l-0.2,0.3l0,0l0,0
	l-0.1,0.2l0,0l-0.4,0.5l-0.4,0.5l-0.9,1.2l-2.4,3.2l-1.5,1.8l-2,2.4l-0.4,0.5l-0.7,0.8l-0.8,0.8l-3.9,4.3l-0.7,0.8l-0.1,0.1
	l-0.5,0.5l-2.5,2.5l-1.5,1.5l-0.5,0.5l-0.1,0.1l-0.9,0.9l-1.5,1.4l-1.3,1.2l-2.9,2.6l-1.8,1.6l-0.1,0.1l-0.9,0.8l-0.1,0.1l-0.4,0.3
	l-0.1,0.1l-1.4,1.2l-0.7,0.6l-2.4,1.9l-2,1.6l-0.6,0.5l-1.2,0.9l-0.3,0.2l0,0l0,0l-0.2,0.2l-0.1,0.1l-0.6,0.4l-1.5,1l-6.3,4.4
	l-1.1,0.7l-0.2,0.1l-0.3,0.2l0,0l-0.3,0.2l-3.3,2l-1.6,1l-0.8,0.5l-0.8,0.5l0,0l-0.5,0.3l-3.1,1.7l-0.4,0.2l-0.3,0.2l-0.6,0.3
	l-3.4,1.8l-2,1l-1.1,0.5l-6.3,2.9l0,0l-2.2,0.9l-1.1,0.4l-1.2,0.5l-0.1,0l-1.5,0.6l-2.8,1.1l-2.7,1l-0.2,0.1l-1,0.4l-1.1,0.4
	l-3.7,1.3l-1.6,0.5l-0.8,0.3l-0.6,0.2l-4.1,1.3l0,0l-0.1,0l-0.7,0.2l-0.3,0.1l-1.7,0.5l-5.3,1.5l-2,0.5l-2.3,0.6l-1.1,0.3l-1,0.2
	l-1.3,0.3l-5.7,1.2l-1.8,0.4l-0.6,0.1l-0.1,0l-1.6,0.3l-2,0.4l-2.5,0.5l-0.4,0.1l-1.6,0.3l-1,0.2l-1.1,0.2l-0.8,0.1l-0.4,0.1
	l-3.4,0.5l-6.5,0.9l0,0l-0.6,0.1l-1.5,0.2l-0.4,0l-8.6,1l0,0l-0.9,0.1l-0.9,0.1l-0.4,0l-3.4,0.3l-0.2,0l-0.1,0l-2.1,0.1l-16.4,1
	l-0.9,0l-0.9,0l-1.4,0l-0.1,0l-0.2,0l-2.6,0.1l-3.3,0.1l-3.1,0.1l-3.3,0.1l0,0l-0.3,0.2l-0.2,0.2h-0.7l-0.1,0.1l-0.1,0.1l-0.5,0.5
	l-0.4,0.3l0,0l-0.1,0.2l0,0l0,0l0,0l-0.1,0.2l0,0.2l0,0.1l0,0l0,0l0,0.1l0,0.1l0,0l0,0.1l0,0.1l0,0l0-0.1l-0.1,0
	c5.6,0.6,9.6,2.2,9.6,4c0,2.3-6.3,4.3-14.2,4.3c-7.8,0-14.2-1.9-14.2-4.3c0-1.6,3-3,7.4-3.7l0-0.1l-0.1,0.2l0.1-0.2l0-0.2l0-0.2
	l0-0.2v0l0,0l0,0l0,0l-0.1-0.2l0,0l0,0l0-0.1l0,0l0,0l0,0l0,0l0,0l-0.5-0.5l-0.2-0.2l0,0l-0.1-0.1l-0.5-0.4l-0.2-0.2h-0.1h-0.1h0
	h-0.1l-0.3-0.3l-0.1-0.1l0,0l-0.5,0l-3.2-0.1l-0.5,0l-2-0.1l-9.1-0.3l-0.3,0l-1.1,0l-1.9-0.1l-1.2,0l-2.8-0.1l-1.4-0.1l0,0l-4.7-0.3
	l-1.3-0.1l-0.4,0h0l-0.4,0l-7.7-0.8l-3.7-0.4l-4.6-0.4l0,0l-0.3,0l-0.3,0l-0.2,0l-0.1,0l0,0l-0.4,0l-0.1,0l-6-0.8l0,0l-1.1-0.1
	l-0.3,0l-0.2,0l-0.1,0l-0.1,0l0,0l-0.7-0.1l-0.6-0.1l-4.6-0.7l-0.5-0.1l0,0l-0.1,0l0,0l-3.2-0.5l-1.1-0.2l-0.3,0l-1.1-0.2l-4.5-0.8
	l-0.8-0.2l-0.3-0.1l-3.2-0.7l-4.5-1l-1-0.2l-2.6-0.6l-0.3-0.1l-2.9-0.7l0,0l-1.3-0.3l0,0l-7-2.1l-2.8-0.8l-0.1,0l-1.4-0.4l0,0l0,0
	l-1.4-0.5l0,0l-0.1,0l-0.4-0.1l-2.4-0.8l-0.3-0.1L894,753l-2-0.7l-0.1,0l0,0l0,0l-0.9-0.3l-1.5-0.5l-0.1,0l-0.3-0.1l-0.2-0.1
	l-0.4-0.2l-1.7-0.6l-2.2-0.9l0,0l-0.6-0.2l-0.3-0.1l-3.3-1.4l-3.6-1.5l0,0l-0.3-0.1l0,0l-0.5-0.2l-0.5-0.2l-3.3-1.5l-0.8-0.4
	l-2.7-1.3l-0.7-0.3l-0.9-0.4l-0.3-0.1l-3.2-1.7l-0.8-0.4l-0.7-0.4l-0.5-0.3l-1.4-0.8l-2.7-1.5l-0.5-0.3l0,0l-6.1-3.9l-1.4-0.9
	l-2.7-1.8l-1-0.8l-0.4-0.3l-1.7-1.3l-1.4-1l-0.4-0.3l-0.5-0.3l-0.4-0.3l-2.2-1.8l-0.6-0.5l-1.3-1l-1-0.9l-1.9-1.6l-0.3-0.2l-2.6-2.2
	l-1-0.9l-0.8-0.7l-0.2-0.2l-0.1-0.1l-0.6-0.6l-1.7-1.6l-1-0.9l-1.2-1.1l-2.4-2.3l0,0l-0.9-0.9l-1.4-1.4l-1-1l-0.3-0.3l-1.1-1.1
	l-1.6-1.7l-1.1-1.2l-0.1-0.1l0,0l0,0l0,0l-0.1-0.1l-0.1-0.1l-0.1-0.2l-1.3-1.5l-2-2.3l-0.4-0.5l-0.1-0.2l-2.1-2.6l-0.4-0.5l-0.4-0.5
	l-1.5-1.9l-0.4-0.5l-0.8-1.1l-0.6-0.9l-0.4-0.5l-0.8-1.1l-2.5-3.6l-0.6-1l-1.1-1.7l-1-1.6l-0.1-0.1l-1.4-2.2l-0.3-0.6l0-0.1l-0.6-1
	l-0.1-0.1l-2-3.3l-0.6-1.1l-1.4-2.4l-0.5-0.8l-0.9-1.6l-0.3-0.5l-0.8-1.5l-1.5-2.9l-0.1-0.3l-0.5-1l-0.6-1.2l-0.1-0.3l-3.1-6.8
	l-0.2-0.4l-0.2-0.5l-0.1-0.1l-1-2.5l-0.1-0.3l-0.5-1.2l-1.5-4l-0.1-0.2l-0.7-1.9l0-0.1l0,0l-0.1-0.3l-0.3-0.9l-1.6-4.5l0-0.1
	l-0.1-0.3l0-0.1l0,0l-0.1-0.3l-0.5-1.6l-0.6-1.9l0-0.1l0,0l0-0.1l-1.1-3.4l0-0.1l0-0.1l-0.2-0.6l0,0c-0.4,1.2-0.4,1.2-0.9,2.4
	c-0.8,2.7-1.4,3.4-3.2,3.9c-2.3,0.6-5.7-5-7.8-12.6c-2-7.6-4.7-22.2-2.5-22.8c1.6-0.4,6.6,10.1,8.4,14.2l-0.4-0.3l0.2,0.1l0.3,0.1
	l0.1,0l0,0l0.2,0l0.3-0.1l0.2-0.2l0.1-0.1l0,0l0.1-0.1l0.1-0.1l0.1-0.1l0,0l0,0l0,0l0,0l0,0l0,0l0.2-0.4l0,0l0-0.1l-0.1-0.3l0.1,0.3
	l-0.1-0.3l-1.9-9.6l-0.4-1.2l0.4,1.2l-0.4-0.8l-30.9-61l-0.2-3.3l-1-15.2l-0.7-12.9l-0.5-17.5l0-8.3l0.3-15.4l0.4-7.9l1-14.4
	l1.4-14.6l0.9-7.3l1.1-8.6l1.6-11l-0.1,0l3-17l1.8-9.6l1.3-6.1l2.5-11.2l1.2-5.1l1.9-7.4l2.8-10.4l1.7-5.8l1.7-5.6l2.5-8l4.4-12.9
	l6.4-17.3l5.2-13l5.1-11.9l3.2-6.9l5.5-11.4l4.4-8.4l6.2-11.6l6.3-11.3l7.1-11.9l7.3-11.6l4.3-6.6l7.6-11.2l28.2,2.5l-2.2,0.7
	l2.2-0.7l-0.1,0.1l0.1-0.1l0.3-0.4l0.7-1.1l1-1.5l0.3-0.5l0.2-0.4l0.4-0.7l0.5-0.9l0.3-0.7l0,0l0.2-0.7l0.1-0.3l0.1-0.2l0.1-0.2l0,0
	l0-0.4l0-0.2l0-0.1l0-0.1l0-0.1l0,0l0-0.2l0-0.4l-0.1-0.3l-0.1-0.5l-0.1-0.4l0-0.1l-0.2-0.5l-0.1-0.3l-0.4-0.6l-0.1-0.2l0,0
	l-0.2-0.2l-0.7-0.8l-0.1-0.1l0,0l0,0l-0.1,0l-0.8-0.7l-0.1-0.1l-0.1-0.1l-0.1-0.1l0,0l-0.3-0.1l-0.8-0.3l-0.1,0l0,0l-0.4,0l0,0
	l-0.3-0.1l0,0l-0.5,0l-0.5,0l-0.1,0l-0.4,0.1l0,0l-0.4,0.1l-0.1,0l-1.2,0.4l-0.1,0.1l-0.6,0.3l-1.5,0.8l-0.7,0.4l-0.2,0.2l-1.6,1
	l-0.7,0.3l-0.1,0l0,0l0,0l0,0l0,0l0,0l-0.1,0l-0.1,0l-0.3,0l-0.1,0l0,0l-0.2-0.1l0,0l-0.1-0.1l-0.4-0.3l-0.1-0.1l-0.4-0.3l-0.6-0.5
	l-2.4-1.9l-0.1-0.1l0,0l0,0l0,0l-0.1-0.1l-0.2-0.2l0,0l-0.1-0.1l-0.1-0.3l0,0l0-0.1l0-0.1l0-0.1l0-0.2l0-0.1l0-0.4l0.1-0.2l0-0.1
	l0.2-0.5l0.2-0.4l0.6-1.3l0.3-0.6l0.1-0.2l0.1-0.2l0.1-0.2l0,0l0.1-0.2l0.5-0.8l0.2-0.3l0.1-0.1l0.6-0.9l0,0l0.6-0.7l0.2-0.2
	l0.1-0.1l0,0l0,0l0,0l0.1-0.1l0.2-0.1l0.2-0.2l0.6-0.6l0.3-0.2l0.8-0.5l0.2-0.1l0.6-0.4l0.1-0.1l0.4-0.2l0.7-0.3l0.3-0.1l0.4-0.2
	l0.1,0l0.1,0l0.6-0.1l0.1,0l0.5-0.1l0.4-0.1l0.1,0l1.1-0.1l0.4,0l0.4,0l0.2,0l0,0l0.3,0l0.3,0l1,0l0.1,0l0.2,0l0.2,0l0.1,0l0.4,0.1
	l0.3,0.1l0.3,0.1l1.7,0.3l0.1,0l0.8,0.2l0,0l0.5,0.2l0.8,0.3l0.1,0l0.1,0.1l0,0l0.1,0.1l0.1,0l0.1,0l0.5,0.3l0.2,0.1l0.4,0.2l0,0
	l0.1,0.1l0.6,0.4l0.2,0.1l0.3,0.2l0.4,0.3l0.5,0.4l0.5,0.4l0,0l0,0l0.3,0.3l0.8,0.7l0.1,0.1l0.1,0.1l0.1,0.1l0.2,0.3l0.2,0.3
	l0.3,0.4l0.3,0.4l0,0l0.1,0.1l0.1,0.2l0.2,0.3l0.6,0.9l0,0l0.3,0.5l0,0.1l0,0l0.1,0.1l0.4,0.8l0.2,0.3l0.4,0.7l0.1,0.3l0.2,0.4
	l0.2,0.4l0,0l0,0l0.2,0.5l0.2,0.8l0,0.1l0.1,0.2l0.2,0.9l0,0.1l0.2,1.5l0,0.2l0,0.2l0,0.9l0,0.4l0,0.1l0,0.1l0,0.5l0,0.4l0,0.1
	l-0.2,1.2l0,0.1l-0.1,0.6l-0.5,2.1l0,0.1l-0.4,1.2l-0.6,1.7l-0.1,0.1l-0.9,1.9l-0.1,0.2l-0.3,0.7l0,0l-0.1,0.2l-0.7,1.2l-1.1,1.9
	l-0.4,0.7l-3.3,4.8l-3.2,4.7l-0.3,0.5l-1.6,2.3l-0.5,0.7l-0.5,0.7l-0.1,0.2l-0.4,0.6l0,0l-5.1,7.4l-0.3,0.4l-0.2,0.3l-0.6,0.8
	l-0.6,0.9l-2.8,4.2l-0.4,0.6l-0.5,0.7l-2.2,3.5l-0.4,0.7l-0.1,0.1l-0.6,1l-0.2,0.4l-2.7,4.5l-2.3,3.8l-0.2,0.4l-0.2,0.3l-0.1,0.1
	l-1.6,2.7l-0.2,0.4l-5.3,9l-0.8,1.4l-0.5,0.9l-0.3,0.6l-0.2,0.3l-0.2,0.3l-3.1,5.5l-0.6,1l-2.9,5.4l-0.3,0.5l-0.3,0.6l-0.2,0.3
	l-0.2,0.3l0,0l-0.2,0.4l-0.9,1.7l-2.5,4.9l0,0l-0.1,0.3l-0.1,0.3l-1,2l-0.8,1.6l0,0.1l-0.6,1.3l-3.9,8.3l-0.5,1l0,0.1l-0.2,0.4
	l0,0.1l-0.6,1.2l-0.9,1.9l-1,2.3l-0.3,0.6L812,280l-0.3,0.7l-1.1,2.6l-0.4,0.8l-1.2,2.8l-0.1,0.3l-0.8,1.9l-0.3,0.6l-2.2,5.6
	l-0.3,0.9l-0.6,1.5l-0.8,2l-0.3,0.8l-0.6,1.7l-1.8,4.9l-0.2,0.5l-0.4,1.1l-1.2,3.5l-0.2,0.4l0,0.1l-0.1,0.4l0,0l-2.4,6.8l-0.7,2
	l-0.9,2.7l-2.3,7.1l-0.4,1.4l-1.2,4l-1.4,4.8l-0.6,1.9l-0.2,0.8l-0.1,0.5l-1.2,4.5l-0.3,1l-0.9,3.3l-0.1,0.3l-0.3,1.1l-0.2,1
	l-0.2,1.1l-1.2,4.9l-1.5,6.3l-0.1,0.3l0,0.1l-0.7,3.2l-0.5,2.6l-0.1,0.5l-0.4,2.2l-0.7,3.3l-0.2,1.1l-1,5.5l-1.1,5.9l-0.2,0.9l0,0.1
	l-0.2,0.9l-0.5,3.1L777,399l-0.1,0.8l0,0.1l-0.2,1.5l-0.9,5.6l-0.8,5.2l0,0.3l-0.2,1.2l-1.3,9.4l-0.2,1.5l-0.1,0.5l-1,8.6l-0.2,1.4
	l-0.2,2.1l0,0.3l-0.7,7.3l-0.1,0.9l-0.3,4.3l-0.2,3l0,0l-0.2,2.9l-0.1,0.8l-0.1,1.2l0,0.9l0,2.4l0,1.1l0,0.1l0,1.3l0,2.3l0,0.4
	l0,3.5l0,0l0,0.7l0.2,4l0,0l0,0.2l0,0.7l0,0.4l0,0.3l0,0.3l0.1,2l0.1,0.6l0.1,0.6l0.5,5.7l0.1,0.6l0.1,1.4l0.3,3l0.3,2.4l0.4,3.4
	l0.4,2.9l0.1,0.7l0,0.2l0.1,0.5l0.1,0.5l1.5,7.6l0.1,0.5l0,0.1l0.8,3.2l0,0l0,0.1l0.2,0.8l0.2,0.6l0.4,1.3l0.6,2l0.8,2.8l0.1,0.3
	l0.1,0.3l0.2,0.5l0.1,0.4l0.1,0.4l1,3.1l0.1,0.4l1,2.9l0.2,0.6l0.9,2.4l0.1,0.4l0.1,0.3l0.2,0.5l0.5,1.2l0.8,1.9l0,0.1l0.1,0.2
	l0.1,0.2l0.4,0.8l0.3,0.7l0.5,1l0.7,1.5l1.2,2.5l0.3,0.5l0.3,0.6l1.7,3.3l1.1,2l0.6,1.2l1.5,2.7l0.6,1.1l2.8,4.9l0.3,0.5l0.1,0.2
	l0.2,0.3l0.2,0.3l1.6,2.6l1,1.7l0.2,0.3l0.1,0.2l0.1,0.2l0.1,0.1l0.2,0.3l0,0l0.2,0.2l6.2,9.5l0.2,0.3l0.2,0.3l0.2,0.2l0.8,1.1
	l0.9,1.3l0.6,0.9l0.2,0.3l1.3,1.9l1.1,1.6l1.3,1.8l0,0l0.7,0.9l1.3,1.7l2.2,2.9l0.8,1l2.8,3.6l1,1.2l0.6,0.8l3.1,3.7l6.3,7.5
	l1.3,1.6l2.5,2.8l0.9,1.1l0.8,0.9l1.5,1.7l1,1.1l2.8,2.9l0.8,0.8l2.3,2.3l2.1,2.1l0.6,0.6l0.2,0.2l0.7,0.7l2.9,2.8l5,4.5l0.9,0.8
	l0,0l2.9,2.5l0.1,0.1l0.9,0.8l0.1,0.1l0.3,0.3l1.7,1.5l2.8,2.2l1.3,1l0.1,0.1l0.6,0.4l0.3,0.2l5.2,3.9l1.9,1.3l1.1,0.8l3.1,2.1
	l1.1,0.8l0.6,0.4l0.2,0.1l0.6,0.4l3.7,2.3l1.1,0.6l0.2,0.1l1.5,0.9l2.5,1.4l5.9,3.3l1.2,0.7l0.8,0.4l3,1.5l0.5,0.2l0,0l0.1,0
	l0.1,0.1l4.3,2.1l0.2,0.1l0.5,0.2l0.2,0.1l0.4,0.2l6,2.7l3.4,1.5l0.2,0.1l0,0l0.1,0l3.7,1.6l1,0.4l0.2,0.1l0.2,0.1l0.1,0l0.7,0.3
	l2,0.8l1.3,0.5l4.5,1.7l1.5,0.6l0.6,0.2l3.7,1.3l1.2,0.4l0.7,0.2l0.2,0.1l6.6,2.1l0.1,0l0.2,0.1l1.9,0.5l0.7,0.2l0.9,0.3l2.5,0.7
	l0,0l0.3,0.1l4.5,1.1l1.7,0.4l0,0l1.6,0.3l1.7,0.4l2.6,0.6l0.1,0l0.3,0.1l0.4,0.1l0.3,0.1l2.4,0.4l3.3,0.6l0.5,0.1l0.6,0.1l2.8,0.4
	l0.4,0.1l0.4,0.1l0.1,0l6.6,0.8l0.3,0l0.3,0l0.5,0.1l5,0.5l0.7,0.1l0.3,0l0,0l0.1,0l5,0.3l1,0.1l0.6,0l0.5,0l9.4,0.1l2,0l0.4,0
	l0.7,0l1,0l1.1,0l4.5-0.2l0.7,0l0.7,0l0.5,0l2.6-0.2l2.1-0.1l0.5,0l3.9-0.4l1.4-0.1l0.1,0l0.9-0.1l3.1-0.3l0,0l0.1,0l0,0l0.1,0
	l5.7-0.8l0.1,0l0.4,0l0.4-0.1l0.1,0l0,0l1.6-0.3l5.3-1l1.5-0.3l0.3-0.1l0.2,0l0.4-0.1l1.3-0.3l2.6-0.6l2.5-0.6l1.4-0.3l1.1-0.3
	l3.9-1l1.6-0.4l0.1,0l0.7-0.2l0.2,0l2.6-0.7l2.2-0.6l2.5-0.8l3.7-1.2l0.6-0.2l2.4-0.8l1.4-0.5l2.9-1.1l4.3-1.7l0.5-0.2l0.8-0.3
	l1.1-0.4l0.9-0.4l0.5-0.2l0.5-0.2l0.8-0.4l0.7-0.3l6.2-2.7l5-2.2l0.6-0.3l1-0.5l0.7-0.3l4.2-2.1l2.9-1.4l0.7-0.3l0,0l0.2-0.1
	l0.1-0.1l0.4-0.2l1.3-0.7l3.8-2.1l0.4-0.2l1-0.6l0.8-0.4l2.8-1.6l0.7-0.4l3.4-2.1l3.6-2.3l1.1-0.7l0.1-0.1l2.9-2l3.6-2.5l0.7-0.5
	l1.2-0.9l3-2.3l0.6-0.4l4.6-3.7l0.7-0.5l0.4-0.3l1.5-1.3l3.7-3.2l0.6-0.5l0.1-0.1l0.8-0.7l0.9-0.9l4.2-3.8l0.5-0.5l4.5-4.4l0.2-0.2
	l0.1-0.1l0.2-0.2l0.6-0.6l4.8-5l0.9-1l3.5-3.9l0.3-0.3l0.7-0.8l7.7-9.1l1.5-1.8l3-3.7l2.6-3.3l0.8-1l2.7-3.4l0.9-1.2l0.2-0.3
	l0.2-0.2l4.8-6.7l0.1-0.1l0.6-0.8l2.5-3.6l0.2-0.4l0.6-0.9l0-0.1l0.2-0.3l0.1-0.2l0.3-0.5l0,0l0-0.1l0.2-0.3l0-0.1l5.6-8.6l0.1-0.1
	l0.1-0.1l0.2-0.3l0.2-0.4l0.5-0.7l0.5-0.9l0.5-0.8l0.9-1.5l0.3-0.5l2.3-3.9l0,0l2.7-4.9l0.2-0.4l0,0l0.2-0.4l0,0l2.1-3.9l0.2-0.5
	l0,0l0.2-0.5l0.4-0.7l0.5-1l2.4-4.7l0.3-0.6l0.1-0.3l0.1-0.3l1.9-4.5l0.3-0.7l0.1-0.3l1-2.6l0.1-0.3l0,0l0,0l0-0.1l0.1-0.3l0,0
	l0.1-0.2l0-0.1l0.5-1.6l0.6-1.8l0.3-0.9l0.1-0.3l1.4-4.5l0.6-1.9l0.1-0.3l0.1-0.5l1-3.7l0.1-0.4l0-0.1l0-0.1l0.2-0.6l0.1-0.2
	l0.1-0.2l0.8-3.2l0.1-0.4l0.1-0.4l1-5.2l0.1-0.4l0.1-0.5l0.2-1.5l0.5-3.2l0.1-0.7l0-0.3l0-0.2l0.3-2.3l0.3-1.9l0.3-2.7l0.1-1.1
	l0-0.1l0.3-3.3l0.1-0.7l0.3-3.3l0.1-1.1l0.1-0.6l0.2-3l0-0.4l0.1-2.2l0.1-2.6l0-1.4l0-5.6l0-0.3l0-0.4l0-1.1l0-0.6l-0.1-1.4
	l-0.1-1.4l-0.3-7.2l-0.1-0.8l0-0.1l-0.6-7.6l-0.2-1.8l-0.3-3l-0.3-3.2l-0.1-0.7l-1-8.6l-0.1-0.6l-0.2-1.4l-0.1-0.8l-0.2-1.4
	l-1.2-8.3l-0.2-1.7l-0.6-3.8l0-0.3l-0.4-2.2l-0.8-4.5l-0.8-5l-0.1-0.7l-1.3-6.8l-0.1-0.3l-0.4-2.2l-0.1-0.7l-1.6-8.2l-0.1-0.7
	l-0.1-0.5l0-0.2l-1.3-5.7l-0.1-0.5l0-0.2l-0.3-1.3l-0.8-3.4l-0.3-1.2l-0.8-3.3l0,0l-0.3-1.1l-0.4-1.6l-0.7-2.6l-0.8-2.8l-0.3-1.1
	l-0.4-1.5l-0.7-2.6l-0.3-1.3l-2.1-7.1l-1.9-6.5l-0.1-0.3l-0.4-1.2l-0.1-0.3l-0.2-0.8l-0.5-1.6l-0.3-0.8l-0.3-1l-3.8-11.2l-0.5-1.3
	l-0.1-0.4l-0.4-1.1l-0.3-1l-0.6-1.7l-0.2-0.5l-0.9-2.4l-2-5.4l-1.8-4.7l-0.2-0.5l0-0.1l-0.2-0.4l-0.8-2.1l0,0l-0.7-1.8l-0.8-1.9
	l-0.4-1l-1.6-3.8l-0.7-1.6l-0.1-0.1l-1.8-4.1l-0.8-1.8l-0.5-1.1l-0.9-1.9l-0.5-1l-2.2-4.7l-0.6-1.3l-0.1-0.2l-0.2-0.5l-1.4-2.9
	l-1.3-2.7l-0.5-1l-0.2-0.3l-0.1-0.2l-0.4-0.8l-1.8-3.5l-0.2-0.4l-0.1-0.2l-0.5-0.9l-0.3-0.6l-0.3-0.5l-0.8-1.5l-0.1-0.2l-4.8-8.8
	l-0.5-0.8l-0.4-0.7l-0.3-0.5l-0.2-0.4l-0.6-1.1l-0.3-0.5l-0.6-1l-0.8-1.3l-4.8-8.3l-0.1-0.2l-0.7-1.1l-0.1-0.1l-3.6-6l-1-1.6
	l-0.3-0.4l-0.3-0.4l-0.7-1.1l-0.3-0.4l-1.6-2.6l-3.8-6l-1-1.5l-3.4-5l-0.4-0.6l-1.1-1.7l-2.2-3.2l-4.8-7l-3.4-5l-3.3-4.8l-0.4-0.6
	l-0.5-0.8l-0.8-1.3l-0.7-1.3l-0.1-0.3l-0.6-1.2l-0.5-1.1l-0.6-1.5l-0.1-0.3l0,0l0,0l-0.1-0.2l-0.3-0.8l-0.1-0.2l-0.3-0.8l0-0.1
	l-0.3-1.3l-0.3-1.2l0-0.1l0-0.2l0-0.3l-0.1-1.4l0-0.1l0-0.4l0-0.4l0.1-1.4l0.1-0.8l0.2-1.1l0.3-1l0.1-0.5l0.3-0.7l0.3-0.9l0.1-0.2
	l0.1-0.2l0,0l0.5-0.9l0.1-0.2l0.3-0.5l0.2-0.3l0,0l0.5-0.7l0.3-0.4l0-0.1l0.3-0.5l1.1-1.3l0,0l0.3-0.3l0.1-0.2l0,0l0.1-0.1l0,0
	l0.6-0.6l0.6-0.5l0.5-0.4l0,0l0.4-0.3l0,0l0.4-0.3l0.3-0.2l0.9-0.6l0.1,0l0.2-0.1l0.5-0.3l0.6-0.3l0.8-0.3l0.2-0.1l0,0l0.3-0.1
	l0.1-0.1l1.8-0.5l0.7-0.2l0.1,0l0.1,0l0.4-0.1l0.4-0.1l0.6-0.1l0.6-0.1l0.4,0l0.6,0l0.4,0l0.8-0.1l0.1,0l0.1,0l0.2,0l0.7,0.1
	l0.5,0.1l0,0l0.3,0.1l0.2,0l0,0l0.3,0.1l0.5,0.2l0.5,0.2l0.8,0.2l0,0l0.6,0.3l0,0l0.3,0.2l0.3,0.2l0.5,0.3l0.3,0.2l0.2,0.2l0.7,0.5
	l0,0l0.2,0.2l0,0l0.3,0.2l0.2,0.2l0.3,0.4l0.1,0.1l0.5,0.6l0.2,0.3l0.6,0.9l0.1,0.1l0,0l0.1,0.1l0.1,0.1l0,0l0.2,0.3l0.9,1.6
	l0.2,0.4l0.2,0.3l0.2,0.5l0.1,0.1l0,0l0,0l0.2,0.8l0.1,0.3l0.1,0.2l0.1,0.5l0,0.3l0,0l0,0.1l0,0.4l-0.2,0.3l0,0l0,0.1l0,0l-0.3,0.2
	l-1.7,1.3l-1.1,0.9l-0.6,0.5l0,0l-0.5,0.4l-0.2,0.1l-0.1,0.1l0,0l-0.2,0.1l-0.2,0l0,0l0,0l-0.4-0.1l-0.2,0l-0.3-0.1l0,0l-0.2-0.1
	l-0.2-0.1l-0.3-0.1l-1.1-0.7l-1.2-0.8l-0.4-0.3l-0.9-0.5l-0.1-0.1l0,0l-0.1,0l0,0l0,0l-0.9-0.4l-0.2-0.1l-0.2-0.1l-0.3-0.1l-0.4-0.1
	l0,0l-0.4-0.1l-0.3,0l-0.4,0l0,0l-0.8,0.1l-0.2,0l-0.3,0l-0.1,0l-0.1,0.1l-0.5,0.2l-0.3,0.1l-0.1,0l0,0l-0.2,0.1l-1.3,1l0,0l0,0l0,0
	l-0.9,1.1l0,0l0,0l-0.2,0.3l-0.2,0.5l-0.3,0.8l0,0.2l-0.1,0.6l0,0.1l0,0.6l0,0.1l0,0l0,0.2l0,0.1l0,0.1l0.1,0.8l0.3,0.9l0,0l0.2,0.4
	l0.2,0.4l0,0l0.1,0.1L1150.9,165.2l-0.3-0.5l2.8,1.3"/>
<path class="st0" d="M600.9,165.2l29.7,0.1l3.5,5.1l7.4,10.9l9.8,15.3l3.9,6.4l5.7,9.9l10.1,18.5l0.9-0.5l10.9,24.4l7.5,17.2
	l5.4,13.5l1.5,4l6.7,18.9l2.9,9l3.4,11.1l4,14.5l2.3,9.3l1.5,6.3l2.3,10.8l3.7,19.2l1.2,7.1l1.7,11.4l2,14.8l1.2,11.1l1,10.9
	l0.9,13.4l0.3,7.4l0.2,6.9l0.1,8.3l-0.1,7.7l-0.3,10.9l-0.5,10.4l-1.6,24.9l-0.9,4.2l-32.6,67.1l0,0.5l0.3,0.7l-0.1-0.3l0,0l0.2,0.1
	l0,0l0,0.1l0,0l0,0l0,0l0,0.1l0,0l0,0.1l0.1,0.1l0.1,0.2l0.2,0.1l0.2,0.1l0,0l0.1,0l0.1,0l0.3,0l0.1,0l0,0l0.1,0l0.1-0.1l0.3-0.2
	c2.4-5.1,7.5-14.2,9.2-13.5c2.2,0.8-0.3,13.3-3,20.6c-2.7,7.4-6.6,12.7-8.8,11.9c-1.5-0.6-2.1-1.9-1.3-6.3l-1.8,1.4l0,0l-0.7,2.6
	l0,0.1l0,0l-0.4,1.3l-0.2,0.6l0.2-0.7l-0.1,0.4l-1.6,5.1l-0.2,0.6l-0.5,1.6l-1,2.8l-0.7,2l-0.2,0.6l-0.3,0.9l-0.1,0.3l-0.9,2.3
	l-0.8,2l-1.7,4.1l-0.9,2.3l-0.4,0.9l-0.4,0.8l-0.7,1.5l-0.1,0.2l-0.3,0.7l-0.4,0.8l0,0l-1.2,2.5l-0.5,1.1l-0.4,0.7l-1.1,2.1
	l-0.4,0.7l-0.2,0.3l-1.9,3.5l-0.5,0.9l-0.1,0.2l-0.4,0.7l-2.4,4.2l-0.3,0.5l-0.3,0.6l-0.1,0.2l-0.2,0.4L670,675l-0.2,0.3l-1.9,3l0,0
	l0,0l-1,1.4l-0.6,0.9l-0.9,1.4l-0.3,0.4l-0.5,0.8l-0.4,0.6l-0.1,0.1l-0.6,0.9l-2,2.8l-0.1,0.1l-0.2,0.3l0,0l-0.2,0.3l0,0l0,0
	l-0.1,0.2l0,0l-0.4,0.5l-0.4,0.5l-0.9,1.2l-2.4,3.2l-1.5,1.8l-2,2.4l-0.4,0.5l-0.7,0.8l-0.8,0.8l-3.9,4.3l-0.7,0.8l-0.1,0.1
	l-0.5,0.5l-2.5,2.5l-1.5,1.5l-0.5,0.5l-0.1,0.1l-0.9,0.9l-1.5,1.4L638,714l-2.9,2.6l-1.8,1.6l-0.1,0.1l-0.9,0.8l-0.1,0.1l-0.4,0.3
	l-0.1,0.1l-1.4,1.2l-0.7,0.6l-2.4,1.9l-2,1.6l-0.6,0.5l-1.2,0.9l-0.3,0.2l0,0l0,0l-0.2,0.2l-0.1,0.1l-0.6,0.4l-1.5,1l-6.3,4.4
	l-1.1,0.7l-0.2,0.1l-0.3,0.2l0,0l-0.3,0.2l-3.3,2l-1.6,1l-0.8,0.5l-0.8,0.5l0,0l-0.5,0.3l-3.1,1.7l-0.4,0.2l-0.3,0.2l-0.6,0.3
	l-3.4,1.8l-2,1l-1.1,0.5l-6.3,2.9l0,0l-2.2,0.9l-1.1,0.4l-1.2,0.5l-0.1,0l-1.5,0.6l-2.8,1.1l-2.7,1l-0.2,0.1l-1,0.4l-1.1,0.4
	l-3.7,1.3l-1.6,0.5l-0.8,0.3l-0.6,0.2l-4.1,1.3l0,0l-0.1,0l-0.7,0.2l-0.3,0.1l-1.7,0.5l-5.3,1.5l-2,0.5l-2.3,0.6l-1.1,0.3l-1,0.2
	l-1.3,0.3l-5.7,1.2l-1.8,0.4l-0.6,0.1l-0.1,0l-1.6,0.3l-2,0.4l-2.5,0.5l-0.4,0.1l-1.6,0.3l-1,0.2l-1.1,0.2l-0.8,0.1l-0.4,0.1
	l-3.4,0.5l-6.5,0.9l0,0l-0.6,0.1l-1.5,0.2l-0.4,0l-8.6,1l0,0l-0.9,0.1l-0.9,0.1l-0.4,0L501,767l-0.2,0l-0.1,0l-2.1,0.1l-16.4,1
	l-0.9,0l-0.9,0l-1.4,0l-0.1,0l-0.2,0l-2.6,0.1l-3.3,0.1l-3.1,0.1l-3.3,0.1l0,0l-0.3,0.2l-0.2,0.2h-0.7l-0.1,0.1l-0.1,0.1l-0.5,0.5
	L464,770l0,0l-0.1,0.2l0,0l0,0l0,0l-0.1,0.2l0,0.2l0,0.1l0,0l0,0l0,0.1l0,0.1l0,0l0,0.1l0,0.1l0,0l0-0.1l-0.1,0
	c5.6,0.6,9.6,2.2,9.6,4c0,2.3-6.3,4.3-14.2,4.3s-14.2-1.9-14.2-4.3c0-1.6,3-3,7.4-3.7l0-0.1l-0.1,0.2l0.1-0.2l0-0.2l0-0.2l0-0.2v0
	l0,0l0,0l0,0l-0.1-0.2l0,0l0,0l0-0.1l0,0l0,0l0,0l0,0l0,0l-0.5-0.5l-0.2-0.2l0,0l-0.1-0.1l-0.5-0.4l-0.2-0.2h-0.1h-0.1h0h-0.1
	l-0.3-0.3l-0.1-0.1l0,0l-0.5,0l-3.2-0.1l-0.5,0l-2-0.1l-9.1-0.3l-0.3,0l-1.1,0l-1.9-0.1l-1.2,0l-2.8-0.1l-1.4-0.1l0,0l-4.7-0.3
	l-1.3-0.1l-0.4,0h0l-0.4,0l-7.7-0.8l-3.7-0.4l-4.6-0.4l0,0l-0.3,0l-0.3,0l-0.2,0l-0.1,0l0,0l-0.4,0l-0.1,0l-6-0.8l0,0l-1.1-0.1
	l-0.3,0l-0.2,0l-0.1,0l-0.1,0l0,0l-0.7-0.1l-0.6-0.1l-4.6-0.7l-0.5-0.1l0,0l-0.1,0l0,0l-3.2-0.5l-1.1-0.2l-0.3,0l-1.1-0.2l-4.5-0.8
	l-0.8-0.2l-0.3-0.1l-3.2-0.7l-4.5-1l-1-0.2l-2.6-0.6l-0.3-0.1l-2.9-0.7l0,0l-1.3-0.3l0,0l-7-2.1l-2.8-0.8l-0.1,0l-1.4-0.4l0,0l0,0
	l-1.4-0.5l0,0l-0.1,0l-0.4-0.1l-2.4-0.8l-0.3-0.1L344,753l-2-0.7l-0.1,0l0,0l0,0l-0.9-0.3l-1.5-0.5l-0.1,0l-0.3-0.1l-0.2-0.1
	l-0.4-0.2l-1.7-0.6l-2.2-0.9l0,0l-0.6-0.2l-0.3-0.1l-3.3-1.4l-3.6-1.5l0,0l-0.3-0.1l0,0l-0.5-0.2l-0.5-0.2l-3.3-1.5l-0.8-0.4
	l-2.7-1.3l-0.7-0.3l-0.9-0.4l-0.3-0.1l-3.2-1.7l-0.8-0.4l-0.7-0.4l-0.5-0.3l-1.4-0.8l-2.7-1.5l-0.5-0.3l0,0l-6.1-3.9l-1.4-0.9
	l-2.7-1.8l-1-0.8l-0.4-0.3l-1.7-1.3l-1.4-1l-0.4-0.3l-0.5-0.3l-0.4-0.3l-2.2-1.8l-0.6-0.5l-1.3-1l-1-0.9l-1.9-1.6l-0.3-0.2l-2.6-2.2
	l-1-0.9l-0.8-0.7l-0.2-0.2l-0.1-0.1l-0.6-0.6l-1.7-1.6l-1-0.9l-1.2-1.1l-2.4-2.3l0,0l-0.9-0.9l-1.4-1.4l-1-1l-0.3-0.3l-1.1-1.1
	l-1.6-1.7l-1.1-1.2l-0.1-0.1l0,0l0,0l0,0l-0.1-0.1l-0.1-0.1l-0.1-0.2l-1.3-1.5l-2-2.3l-0.4-0.5l-0.1-0.2l-2.1-2.6l-0.4-0.5l-0.4-0.5
	l-1.5-1.9l-0.4-0.5l-0.8-1.1l-0.6-0.9l-0.4-0.5l-0.8-1.1l-2.5-3.6l-0.6-1l-1.1-1.7l-1-1.6l-0.1-0.1l-1.4-2.2l-0.3-0.6l0-0.1l-0.6-1
	l-0.1-0.1l-2-3.3l-0.6-1.1l-1.4-2.4l-0.5-0.8l-0.9-1.6l-0.3-0.5l-0.8-1.5l-1.5-2.9l-0.1-0.3l-0.5-1l-0.6-1.2l-0.1-0.3l-3.1-6.8
	l-0.2-0.4l-0.2-0.5l-0.1-0.1l-1-2.5l-0.1-0.3l-0.5-1.2l-1.5-4l-0.1-0.2l-0.7-1.9l0-0.1l0,0l-0.1-0.3l-0.3-0.9l-1.6-4.5l0-0.1
	l-0.1-0.3l0-0.1l0,0l-0.1-0.3l-0.5-1.6l-0.6-1.9l0-0.1l0,0l0-0.1l-1.1-3.4l0-0.1l0-0.1l-0.2-0.6h0c-0.4,1.2-0.4,1.2-0.9,2.4
	c-0.8,2.7-1.4,3.4-3.2,3.9c-2.3,0.6-5.7-5-7.8-12.6c-2-7.6-4.7-22.2-2.5-22.8c1.6-0.4,6.6,10.1,8.4,14.2l-0.4-0.3l0.2,0.1l0.3,0.1
	l0.1,0l0,0l0.2,0l0.3-0.1l0.2-0.2l0.1-0.1l0,0l0.1-0.1l0.1-0.1l0.1-0.1l0,0l0,0l0,0l0,0l0,0l0,0l0.2-0.4l0,0l0-0.1l-0.1-0.3l0.1,0.3
	l-0.1-0.3l-1.9-9.6l-0.4-1.2l0.4,1.2l-0.4-0.8l-30.9-61l-0.2-3.3l-1-15.2l-0.7-12.9l-0.5-17.5l0-8.3l0.3-15.4l0.4-7.9l1-14.4
	l1.4-14.6l0.9-7.3l1.1-8.6l1.6-11l-0.1,0l3-17l1.8-9.6l1.3-6.1l2.5-11.2l1.2-5.1l1.9-7.4l2.8-10.4l1.7-5.8l1.7-5.6l2.5-8l4.4-12.9
	l6.4-17.3l5.2-13l5.1-11.9l3.2-6.9l5.5-11.4l4.4-8.4l6.2-11.6l6.3-11.3l7.1-11.9l7.3-11.6l4.3-6.6l7.6-11.2l28.2,2.5l-2.2,0.7
	l2.2-0.7l-0.1,0.1l0.1-0.1l0.3-0.4l0.7-1.1l1-1.5l0.3-0.5l0.2-0.4l0.4-0.7l0.5-0.9l0.3-0.7l0,0l0.2-0.7l0.1-0.3l0.1-0.2l0.1-0.2l0,0
	l0-0.4l0-0.2l0-0.1l0-0.1l0-0.1l0,0l0-0.2l0-0.4l-0.1-0.3l-0.1-0.5l-0.1-0.4l0-0.1l-0.2-0.5l-0.1-0.3l-0.4-0.6l-0.1-0.2l0,0
	l-0.2-0.2l-0.7-0.8l-0.1-0.1l0,0l0,0l-0.1,0l-0.8-0.7l-0.1-0.1l-0.1-0.1l-0.1-0.1l0,0l-0.3-0.1l-0.8-0.3l-0.1,0l0,0l-0.4,0l0,0
	l-0.3-0.1l0,0l-0.5,0l-0.5,0l-0.1,0l-0.4,0.1l0,0l-0.4,0.1l-0.1,0l-1.2,0.4l-0.1,0.1l-0.6,0.3l-1.5,0.8l-0.7,0.4l-0.2,0.2l-1.6,1
	l-0.7,0.3l-0.1,0l0,0l0,0l0,0l0,0l0,0l-0.1,0l-0.1,0l-0.3,0l-0.1,0l0,0l-0.2-0.1l0,0l-0.1-0.1l-0.4-0.3l-0.1-0.1l-0.4-0.3l-0.6-0.5
	l-2.4-1.9l-0.1-0.1l0,0l0,0l0,0l-0.1-0.1l-0.2-0.2l0,0l-0.1-0.1l-0.1-0.3l0,0l0-0.1l0-0.1l0-0.1l0-0.2l0-0.1l0-0.4l0.1-0.2l0-0.1
	l0.2-0.5l0.2-0.4l0.6-1.3l0.3-0.6l0.1-0.2l0.1-0.2l0.1-0.2l0,0l0.1-0.2l0.5-0.8l0.2-0.3l0.1-0.1l0.6-0.9l0,0l0.6-0.7l0.2-0.2
	l0.1-0.1l0,0l0,0l0,0l0.1-0.1l0.2-0.1l0.2-0.2l0.6-0.6l0.3-0.2l0.8-0.5l0.2-0.1l0.6-0.4l0.1-0.1l0.4-0.2l0.7-0.3l0.3-0.1l0.4-0.2
	l0.1,0l0.1,0l0.6-0.1l0.1,0l0.5-0.1l0.4-0.1l0.1,0l1.1-0.1l0.4,0l0.4,0l0.2,0l0,0l0.3,0l0.3,0l1,0l0.1,0l0.2,0l0.2,0l0.1,0l0.4,0.1
	l0.3,0.1l0.3,0.1l1.7,0.3l0.1,0l0.8,0.2l0,0l0.5,0.2l0.8,0.3l0.1,0l0.1,0.1l0,0l0.1,0.1l0.1,0l0.1,0l0.5,0.3l0.2,0.1l0.4,0.2l0,0
	l0.1,0.1l0.6,0.4l0.2,0.1l0.3,0.2l0.4,0.3l0.5,0.4l0.5,0.4l0,0l0,0l0.3,0.3l0.8,0.7l0.1,0.1l0.1,0.1l0.1,0.1l0.2,0.3l0.2,0.3
	l0.3,0.4l0.3,0.4l0,0l0.1,0.1l0.1,0.2l0.2,0.3l0.6,0.9l0,0l0.3,0.5l0,0.1l0,0l0.1,0.1l0.4,0.8l0.2,0.3l0.4,0.7l0.1,0.3l0.2,0.4
	l0.2,0.4l0,0l0,0l0.2,0.5l0.2,0.8l0,0.1l0.1,0.2l0.2,0.9l0,0.1l0.2,1.5l0,0.2l0,0.2l0,0.9l0,0.4l0,0.1l0,0.1l0,0.5l0,0.4l0,0.1
	l-0.2,1.2l0,0.1l-0.1,0.6l-0.5,2.1l0,0.1l-0.4,1.2l-0.6,1.7l-0.1,0.1l-0.9,1.9l-0.1,0.2l-0.3,0.7l0,0l-0.1,0.2l-0.7,1.2l-1.1,1.9
	l-0.4,0.7l-3.3,4.8l-3.2,4.7l-0.3,0.5l-1.6,2.3l-0.5,0.7l-0.5,0.7l-0.1,0.2l-0.4,0.6l0,0l-5.1,7.4l-0.3,0.4l-0.2,0.3l-0.6,0.8
	l-0.6,0.9l-2.8,4.2l-0.4,0.6l-0.5,0.7l-2.2,3.5l-0.4,0.7l-0.1,0.1l-0.6,1l-0.2,0.4l-2.7,4.5l-2.3,3.8l-0.2,0.4l-0.2,0.3l-0.1,0.1
	l-1.6,2.7l-0.2,0.4l-5.3,9l-0.8,1.4l-0.5,0.9l-0.3,0.6l-0.2,0.3l-0.2,0.3l-3.1,5.5l-0.6,1l-2.9,5.4l-0.3,0.5l-0.3,0.6l-0.2,0.3
	l-0.2,0.3l0,0l-0.2,0.4l-0.9,1.7l-2.5,4.9l0,0l-0.1,0.3l-0.1,0.3l-1,2l-0.8,1.6l0,0.1l-0.6,1.3l-3.9,8.3l-0.5,1l0,0.1l-0.2,0.4
	l0,0.1l-0.6,1.2l-0.9,1.9l-1,2.3l-0.3,0.6L262,280l-0.3,0.7l-1.1,2.6l-0.4,0.8l-1.2,2.8l-0.1,0.3l-0.8,1.9l-0.3,0.6l-2.2,5.6
	l-0.3,0.9l-0.6,1.5l-0.8,2l-0.3,0.8l-0.6,1.7l-1.8,4.9l-0.2,0.5l-0.4,1.1l-1.2,3.5l-0.2,0.4l0,0.1l-0.1,0.4l0,0l-2.4,6.8l-0.7,2
	l-0.9,2.7l-2.3,7.1l-0.4,1.4l-1.2,4l-1.4,4.8l-0.6,1.9l-0.2,0.8l-0.1,0.5l-1.2,4.5l-0.3,1l-0.9,3.3l-0.1,0.3l-0.3,1.1l-0.2,1
	l-0.2,1.1l-1.2,4.9l-1.5,6.3l-0.1,0.3l0,0.1l-0.7,3.2l-0.5,2.6l-0.1,0.5l-0.4,2.2l-0.7,3.3l-0.2,1.1l-1,5.5l-1.1,5.9l-0.2,0.9l0,0.1
	l-0.2,0.9l-0.5,3.1L227,399l-0.1,0.8l0,0.1l-0.2,1.5l-0.9,5.6l-0.8,5.2l0,0.3l-0.2,1.2l-1.3,9.4l-0.2,1.5l-0.1,0.5l-1,8.6l-0.2,1.4
	l-0.2,2.1l0,0.3l-0.7,7.3l-0.1,0.9l-0.3,4.3l-0.2,3l0,0l-0.2,2.9l-0.1,0.8l-0.1,1.2l0,0.9l0,2.4l0,1.1l0,0.1l0,1.3l0,2.3l0,0.4
	l0,3.5l0,0l0,0.7l0.2,4l0,0l0,0.2l0,0.7l0,0.4l0,0.3l0,0.3l0.1,2l0.1,0.6l0.1,0.6l0.5,5.7l0.1,0.6l0.1,1.4l0.3,3l0.3,2.4l0.4,3.4
	l0.4,2.9l0.1,0.7l0,0.2l0.1,0.5l0.1,0.5l1.5,7.6l0.1,0.5l0,0.1l0.8,3.2l0,0l0,0.1l0.2,0.8l0.2,0.6l0.4,1.3l0.6,2l0.8,2.8l0.1,0.3
	l0.1,0.3l0.2,0.5l0.1,0.4l0.1,0.4l1,3.1l0.1,0.4l1,2.9l0.2,0.6l0.9,2.4l0.1,0.4l0.1,0.3l0.2,0.5l0.5,1.2l0.8,1.9l0,0.1l0.1,0.2
	l0.1,0.2l0.4,0.8l0.3,0.7l0.5,1l0.7,1.5l1.2,2.5l0.3,0.5l0.3,0.6l1.7,3.3l1.1,2l0.6,1.2l1.5,2.7l0.6,1.1l2.8,4.9l0.3,0.5l0.1,0.2
	l0.2,0.3l0.2,0.3l1.6,2.6l1,1.7l0.2,0.3l0.1,0.2l0.1,0.2l0.1,0.1l0.2,0.3l0,0l0.2,0.2l6.2,9.5l0.2,0.3l0.2,0.3l0.2,0.2l0.8,1.1
	l0.9,1.3l0.6,0.9l0.2,0.3l1.3,1.9l1.1,1.6l1.3,1.8l0,0l0.7,0.9l1.3,1.7l2.2,2.9l0.8,1l2.8,3.6l1,1.2l0.6,0.8l3.1,3.7l6.3,7.5
	l1.3,1.6l2.5,2.8l0.9,1.1l0.8,0.9l1.5,1.7l1,1.1l2.8,2.9l0.8,0.8l2.3,2.3l2.1,2.1l0.6,0.6l0.2,0.2l0.7,0.7l2.9,2.8l5,4.5l0.9,0.8
	l0,0l2.9,2.5l0.1,0.1l0.9,0.8l0.1,0.1l0.3,0.3l1.7,1.5l2.8,2.2l1.3,1l0.1,0.1l0.6,0.4l0.3,0.2l5.2,3.9l1.9,1.3l1.1,0.8l3.1,2.1
	l1.1,0.8l0.6,0.4l0.2,0.1l0.6,0.4l3.7,2.3l1.1,0.6l0.2,0.1l1.5,0.9l2.5,1.4l5.9,3.3l1.2,0.7l0.8,0.4l3,1.5l0.5,0.2l0,0l0.1,0
	l0.1,0.1l4.3,2.1l0.2,0.1l0.5,0.2l0.2,0.1l0.4,0.2l6,2.7l3.4,1.5l0.2,0.1l0,0l0.1,0l3.7,1.6l1,0.4l0.2,0.1l0.2,0.1l0.1,0l0.7,0.3
	l2,0.8l1.3,0.5l4.5,1.7l1.5,0.6l0.6,0.2l3.7,1.3l1.2,0.4l0.7,0.2l0.2,0.1l6.6,2.1l0.1,0l0.2,0.1l1.9,0.5l0.7,0.2l0.9,0.3l2.5,0.7
	l0,0l0.3,0.1l4.5,1.1l1.7,0.4l0,0l1.6,0.3l1.7,0.4l2.6,0.6l0.1,0l0.3,0.1l0.4,0.1l0.3,0.1l2.4,0.4l3.3,0.6l0.5,0.1l0.6,0.1l2.8,0.4
	l0.4,0.1l0.4,0.1l0.1,0l6.6,0.8l0.3,0l0.3,0l0.5,0.1l5,0.5l0.7,0.1l0.3,0l0,0l0.1,0l5,0.3l1,0.1l0.6,0l0.5,0l9.4,0.1l2,0l0.4,0
	l0.7,0l1,0l1.1,0l4.5-0.2l0.7,0l0.7,0l0.5,0l2.6-0.2l2.1-0.1l0.5,0l3.9-0.4l1.4-0.1l0.1,0l0.9-0.1l3.1-0.3l0,0l0.1,0l0,0l0.1,0
	l5.7-0.8l0.1,0l0.4,0l0.4-0.1l0.1,0l0,0l1.6-0.3l5.3-1l1.5-0.3l0.3-0.1l0.2,0l0.4-0.1l1.3-0.3l2.6-0.6l2.5-0.6l1.4-0.3l1.1-0.3
	l3.9-1l1.6-0.4l0.1,0l0.7-0.2l0.2,0l2.6-0.7l2.2-0.6l2.5-0.8l3.7-1.2l0.6-0.2l2.4-0.8l1.4-0.5l2.9-1.1l4.3-1.7l0.5-0.2l0.8-0.3
	l1.1-0.4l0.9-0.4l0.5-0.2l0.5-0.2l0.8-0.4l0.7-0.3l6.2-2.7l5-2.2l0.6-0.3l1-0.5l0.7-0.3l4.2-2.1l2.9-1.4l0.7-0.3l0,0l0.2-0.1
	l0.1-0.1l0.4-0.2l1.3-0.7l3.8-2.1l0.4-0.2l1-0.6l0.8-0.4l2.8-1.6l0.7-0.4l3.4-2.1l3.6-2.3l1.1-0.7l0.1-0.1l2.9-2l3.6-2.5l0.7-0.5
	l1.2-0.9l3-2.3l0.6-0.4l4.6-3.7l0.7-0.5l0.4-0.3l1.5-1.3l3.7-3.2l0.6-0.5l0.1-0.1l0.8-0.7l0.9-0.9l4.2-3.8l0.5-0.5l4.5-4.4l0.2-0.2
	l0.1-0.1l0.2-0.2l0.6-0.6l4.8-5l0.9-1l3.5-3.9l0.3-0.3l0.7-0.8l7.7-9.1l1.5-1.8l3-3.7l2.6-3.3l0.8-1l2.7-3.4l0.9-1.2l0.2-0.3
	l0.2-0.2l4.8-6.7l0.1-0.1l0.6-0.8l2.5-3.6l0.2-0.4l0.6-0.9l0-0.1l0.2-0.3l0.1-0.2l0.3-0.5l0,0l0-0.1l0.2-0.3l0-0.1l5.6-8.6l0.1-0.1
	l0.1-0.1l0.2-0.3l0.2-0.4l0.5-0.7l0.5-0.9l0.5-0.8l0.9-1.5l0.3-0.5l2.3-3.9l0,0l2.7-4.9l0.2-0.4l0,0l0.2-0.4l0,0l2.1-3.9l0.2-0.5
	l0,0l0.2-0.5l0.4-0.7l0.5-1l2.4-4.7l0.3-0.6l0.1-0.3l0.1-0.3l1.9-4.5l0.3-0.7l0.1-0.3l1-2.6l0.1-0.3l0,0l0,0l0-0.1l0.1-0.3l0,0
	l0.1-0.2l0-0.1l0.5-1.6l0.6-1.8l0.3-0.9l0.1-0.3l1.4-4.5l0.6-1.9l0.1-0.3l0.1-0.5l1-3.7l0.1-0.4l0-0.1l0-0.1l0.2-0.6l0.1-0.2
	l0.1-0.2l0.8-3.2l0.1-0.4l0.1-0.4l1-5.2l0.1-0.4l0.1-0.5l0.2-1.5l0.5-3.2l0.1-0.7l0-0.3l0-0.2l0.3-2.3l0.3-1.9l0.3-2.7l0.1-1.1
	l0-0.1l0.3-3.3l0.1-0.7l0.3-3.3l0.1-1.1l0.1-0.6l0.2-3l0-0.4l0.1-2.2l0.1-2.6l0-1.4l0-5.6l0-0.3l0-0.4l0-1.1l0-0.6l-0.1-1.4
	l-0.1-1.4l-0.3-7.2l-0.1-0.8l0-0.1l-0.6-7.6l-0.2-1.8l-0.3-3l-0.3-3.2l-0.1-0.7l-1-8.6l-0.1-0.6l-0.2-1.4l-0.1-0.8l-0.2-1.4
	l-1.1-8.3l-0.2-1.7l-0.6-3.8l0-0.3l-0.4-2.2l-0.8-4.5l-0.8-5l-0.1-0.7l-1.3-6.8l-0.1-0.3l-0.4-2.2l-0.1-0.7l-1.6-8.2l-0.1-0.7
	l-0.1-0.5l0-0.2l-1.3-5.7l-0.1-0.5l0-0.2l-0.3-1.3l-0.8-3.4l-0.3-1.2l-0.8-3.3l0,0l-0.3-1.1l-0.4-1.6l-0.7-2.6l-0.8-2.8l-0.3-1.1
	l-0.4-1.5l-0.7-2.6l-0.3-1.3l-2.1-7.1l-1.9-6.5l-0.1-0.3l-0.4-1.2l-0.1-0.3l-0.2-0.8l-0.5-1.6l-0.3-0.8l-0.3-1l-3.8-11.2l-0.5-1.3
	l-0.1-0.4l-0.4-1.1l-0.3-1l-0.6-1.7l-0.2-0.5l-0.9-2.4l-2-5.4l-1.8-4.7l-0.2-0.5l0-0.1l-0.2-0.4L659,292l0,0l-0.7-1.8l-0.8-1.9
	l-0.4-1l-1.6-3.8l-0.7-1.6l-0.1-0.1l-1.8-4.1l-0.8-1.8l-0.5-1.1l-0.9-1.9l-0.5-1L648,267l-0.6-1.3l-0.1-0.2l-0.2-0.5l-1.4-2.9
	l-1.3-2.7l-0.5-1l-0.2-0.3l-0.1-0.2l-0.4-0.8l-1.8-3.5l-0.2-0.4l-0.1-0.2l-0.5-0.9l-0.3-0.6l-0.3-0.5l-0.8-1.5l-0.1-0.2l-4.8-8.8
	l-0.5-0.8l-0.4-0.7l-0.3-0.5l-0.2-0.4l-0.6-1.1l-0.3-0.5l-0.6-1l-0.8-1.3L626,226l-0.1-0.2l-0.7-1.1l-0.1-0.1l-3.6-6l-1-1.6
	l-0.3-0.4l-0.3-0.4l-0.7-1.1l-0.3-0.4l-1.6-2.6l-3.8-6l-1-1.5l-3.4-5l-0.4-0.6l-1.1-1.7l-2.2-3.2l-4.8-7l-3.4-5l-3.3-4.8l-0.4-0.6
	l-0.5-0.8l-0.8-1.3l-0.7-1.3l-0.1-0.3l-0.6-1.2l-0.5-1.1l-0.6-1.5l-0.1-0.3l0,0l0,0l-0.1-0.2l-0.3-0.8l-0.1-0.2l-0.3-0.8l0-0.1
	l-0.3-1.3l-0.3-1.2l0-0.1l0-0.2l0-0.3l-0.1-1.4l0-0.1l0-0.4l0-0.4l0.1-1.4l0.1-0.8l0.2-1.1l0.3-1l0.1-0.5l0.3-0.7l0.3-0.9l0.1-0.2
	l0.1-0.2l0,0l0.5-0.9l0.1-0.2l0.3-0.5l0.2-0.3l0,0l0.5-0.7l0.3-0.4l0-0.1l0.3-0.5l1.1-1.3l0,0l0.3-0.3l0.1-0.2l0,0l0.1-0.1l0,0
	l0.6-0.6l0.6-0.5l0.5-0.4l0,0l0.4-0.3l0,0l0.4-0.3l0.3-0.2l0.9-0.6l0.1,0l0.2-0.1l0.5-0.3l0.6-0.3l0.8-0.3l0.2-0.1l0,0l0.3-0.1
	l0.1-0.1l1.8-0.5l0.7-0.2l0.1,0l0.1,0l0.4-0.1l0.4-0.1l0.6-0.1l0.6-0.1l0.4,0l0.6,0l0.4,0l0.8-0.1l0.1,0l0.1,0l0.2,0l0.7,0.1
	l0.5,0.1l0,0l0.3,0.1l0.2,0l0,0l0.3,0.1l0.5,0.2l0.5,0.2l0.8,0.2l0,0l0.6,0.3l0,0l0.3,0.2l0.3,0.2l0.5,0.3l0.3,0.2l0.2,0.2l0.7,0.5
	l0,0l0.2,0.2l0,0l0.3,0.2l0.2,0.2l0.3,0.4l0.1,0.1l0.5,0.6l0.2,0.3l0.6,0.9l0.1,0.1l0,0l0.1,0.1l0.1,0.1l0,0l0.2,0.3l0.9,1.6
	l0.2,0.4l0.2,0.3l0.2,0.5l0.1,0.1l0,0l0,0l0.2,0.8l0.1,0.3l0.1,0.2l0.1,0.5l0,0.3l0,0l0,0.1l0,0.4l-0.2,0.3l0,0l0,0.1l0,0l-0.3,0.2
	l-1.7,1.3l-1.1,0.9l-0.6,0.5l0,0l-0.5,0.4l-0.2,0.1l-0.1,0.1l0,0l-0.2,0.1l-0.2,0l0,0l0,0l-0.4-0.1l-0.2,0l-0.3-0.1l0,0l-0.2-0.1
	l-0.2-0.1l-0.3-0.1l-1.1-0.7l-1.2-0.8l-0.4-0.3l-0.9-0.5l-0.1-0.1l0,0l-0.1,0l0,0l0,0l-0.9-0.4l-0.2-0.1l-0.2-0.1l-0.3-0.1l-0.4-0.1
	l0,0l-0.4-0.1l-0.3,0l-0.4,0l0,0l-0.8,0.1l-0.2,0l-0.3,0l-0.1,0l-0.1,0.1l-0.5,0.2l-0.3,0.1l-0.1,0l0,0l-0.2,0.1l-1.3,1l0,0l0,0l0,0
	l-0.9,1.1l0,0l0,0l-0.2,0.3l-0.2,0.5l-0.3,0.8l0,0.2l-0.1,0.6l0,0.1l0,0.6l0,0.1l0,0l0,0.2l0,0.1l0,0.1l0.1,0.8l0.3,0.9l0,0l0.2,0.4
	l0.2,0.4l0,0l0.1,0.1L600.9,165.2l-0.3-0.5l2.8,1.3"/>
<path class="st0" d="M591.1,624.8l-29.7-0.1l-3.5-5.1l-7.4-10.9l-9.8-15.3l-3.9-6.4l-5.7-9.9L521,558.6l-0.9,0.5l-10.9-24.4
	l-7.5-17.2l-5.4-13.5l-1.5-4l-6.7-18.9l-2.9-9l-3.4-11.1l-4-14.5l-2.3-9.3l-1.5-6.3l-2.3-10.8l-3.7-19.2l-1.2-7.1l-1.7-11.4l-2-14.8
	l-1.2-11.1l-1-10.9l-0.9-13.4l-0.3-7.4l-0.2-6.9l-0.1-8.3l0.1-7.7l0.3-10.9l0.5-10.4l1.6-24.9l0.9-4.2l32.6-67.1l0-0.5l-0.3-0.7
	l0.1,0.3l0,0l-0.2-0.1l0,0l0-0.1l0,0l0,0l0,0l0-0.1l0,0l0-0.1l-0.1-0.1l-0.1-0.2l-0.2-0.1l-0.2-0.1l0,0l-0.1,0l-0.1,0l-0.3,0l-0.1,0
	l0,0l-0.1,0l-0.1,0.1l-0.3,0.2c-2.4,5.1-7.5,14.2-9.2,13.5c-2.2-0.8,0.3-13.3,3-20.6s6.6-12.7,8.8-11.9c1.5,0.6,2.1,1.9,1.3,6.3
	l1.8-1.4l0,0l0.7-2.6l0-0.1l0,0l0.4-1.3l0.2-0.6l-0.2,0.7l0.1-0.4l1.6-5.1l0.2-0.6l0.5-1.6l1-2.8l0.7-2l0.2-0.6l0.3-0.9l0.1-0.3
	l0.9-2.3l0.8-2l1.7-4.1l0.9-2.3l0.4-0.9l0.4-0.8l0.7-1.5l0.1-0.2l0.3-0.7l0.4-0.8l0,0l1.2-2.5l0.5-1.1l0.4-0.7l1.1-2.1l0.4-0.7
	l0.2-0.3l1.9-3.5l0.5-0.9l0.1-0.2l0.4-0.7l2.4-4.2l0.3-0.5l0.3-0.6l0.1-0.2l0.2-0.4l0.7-1.1l0.2-0.3l1.9-3l0,0l0,0l1-1.4l0.6-0.9
	l0.9-1.4l0.3-0.4l0.5-0.8l0.4-0.6l0.1-0.1l0.6-0.9l2-2.8l0.1-0.1l0.2-0.3l0,0l0.2-0.3l0,0l0,0l0.1-0.2l0,0l0.4-0.5l0.4-0.5l0.9-1.2
	l2.4-3.2l1.5-1.8l2-2.4l0.4-0.5l0.7-0.8l0.8-0.8l3.9-4.3l0.7-0.8l0.1-0.1l0.5-0.5l2.5-2.5l1.5-1.5l0.5-0.5l0.1-0.1l0.9-0.9l1.5-1.4
	L554,76l2.9-2.6l1.8-1.6l0.1-0.1l0.9-0.8l0.1-0.1l0.4-0.3l0.1-0.1l1.4-1.2l0.7-0.6l2.4-1.9l2-1.6l0.6-0.5l1.2-0.9l0.3-0.2l0,0l0,0
	l0.2-0.2l0.1-0.1l0.6-0.4l1.5-1l6.3-4.4l1.1-0.7l0.2-0.1l0.3-0.2l0,0l0.3-0.2l3.3-2l1.6-1l0.8-0.5l0.8-0.5l0,0l0.5-0.3l3.1-1.7
	l0.4-0.2l0.3-0.2l0.6-0.3l3.4-1.8l2-1l1.1-0.5l6.3-2.9l0,0l2.2-0.9l1.1-0.4l1.2-0.5l0.1,0l1.5-0.6l2.8-1.1l2.7-1l0.2-0.1l1-0.4
	l1.1-0.4l3.7-1.3l1.6-0.5l0.8-0.3l0.6-0.2l4.1-1.3l0,0l0.1,0l0.7-0.2l0.3-0.1l1.7-0.5l5.3-1.5l2-0.5l2.3-0.6l1.1-0.3l1-0.2l1.3-0.3
	l5.7-1.2l1.8-0.4l0.6-0.1l0.1,0l1.6-0.3l2-0.4l2.5-0.5l0.4-0.1l1.6-0.3l1-0.2l1.1-0.2l0.8-0.1l0.4-0.1l3.4-0.5l6.5-0.9l0,0l0.6-0.1
	l1.5-0.2l0.4,0l8.6-1l0,0l0.9-0.1l0.9-0.1l0.4,0L691,23l0.2,0l0.1,0l2.1-0.1l16.4-1l0.9,0l0.9,0l1.4,0l0.1,0l0.2,0l2.6-0.1l3.3-0.1
	l3.1-0.1l3.3-0.1l0,0l0.3-0.2l0.2-0.2h0.7l0.1-0.1l0.1-0.1l0.5-0.5L728,20l0,0l0.1-0.2l0,0l0,0l0,0l0.1-0.2l0-0.2l0-0.1l0,0l0,0
	l0-0.1l0-0.1l0,0l0-0.1l0-0.1l0,0l0,0.1l0.1,0c-5.6-0.6-9.6-2.2-9.6-4c0-2.3,6.3-4.3,14.2-4.3c7.8,0,14.2,1.9,14.2,4.3
	c0,1.6-3,3-7.4,3.7l0,0.1l0.1-0.2l-0.1,0.2l0,0.2l0,0.2l0,0.2v0l0,0l0,0l0,0l0.1,0.2l0,0l0,0l0,0.1l0,0l0,0l0,0l0,0l0,0l0.5,0.5
	l0.2,0.2l0,0l0.1,0.1l0.5,0.4l0.2,0.2h0.1h0.1h0h0.1l0.3,0.3l0.1,0.1l0,0l0.5,0l3.2,0.1l0.5,0l2,0.1l9.1,0.3l0.3,0l1.1,0l1.9,0.1
	l1.2,0l2.8,0.1l1.4,0.1l0,0l4.7,0.3l1.3,0.1l0.4,0h0l0.4,0l7.7,0.8l3.7,0.4l4.6,0.4l0,0l0.3,0l0.3,0l0.2,0l0.1,0l0,0l0.4,0l0.1,0
	l6,0.8l0,0l1.1,0.1l0.3,0l0.2,0l0.1,0l0.1,0l0,0l0.7,0.1l0.6,0.1l4.6,0.7l0.5,0.1l0,0l0.1,0l0,0l3.2,0.5l1.1,0.2l0.3,0l1.1,0.2
	l4.5,0.8l0.8,0.2l0.3,0.1l3.2,0.7l4.5,1l1,0.2l2.6,0.6l0.3,0.1l2.9,0.7l0,0l1.3,0.3l0,0l7,2.1l2.8,0.8l0.1,0l1.4,0.4l0,0l0,0
	l1.4,0.5l0,0l0.1,0l0.4,0.1l2.4,0.8l0.3,0.1L848,37l2,0.7l0.1,0l0,0l0,0l0.9,0.3l1.5,0.5l0.1,0l0.3,0.1l0.2,0.1l0.4,0.2l1.7,0.6
	l2.2,0.9l0,0l0.6,0.2l0.3,0.1l3.3,1.4l3.6,1.5l0,0l0.3,0.1l0,0l0.5,0.2l0.5,0.2l3.3,1.5l0.8,0.4l2.7,1.3l0.7,0.3l0.9,0.4l0.3,0.1
	l3.2,1.7l0.8,0.4l0.7,0.4l0.5,0.3l1.4,0.8l2.7,1.5l0.5,0.3l0,0l6.1,3.9l1.4,0.9l2.7,1.8l1,0.8l0.4,0.3l1.7,1.3l1.4,1l0.4,0.3
	l0.5,0.3l0.4,0.3l2.2,1.8l0.6,0.5l1.3,1l1,0.9l1.9,1.6l0.3,0.2l2.6,2.2l1,0.9l0.8,0.7l0.2,0.2l0.1,0.1l0.6,0.6l1.7,1.6l1,0.9
	l1.2,1.1l2.4,2.3l0,0l0.9,0.9l1.4,1.4l1,1l0.3,0.3l1.1,1.1l1.6,1.7l1.1,1.2l0.1,0.1l0,0l0,0l0,0l0.1,0.1l0.1,0.1l0.1,0.2l1.3,1.5
	l2,2.3l0.4,0.5l0.1,0.2l2.1,2.6l0.4,0.5l0.4,0.5l1.5,1.9l0.4,0.5l0.8,1.1l0.6,0.9l0.4,0.5l0.8,1.1l2.5,3.6l0.6,1l1.1,1.7l1,1.6
	l0.1,0.1l1.4,2.2l0.3,0.6l0,0.1l0.6,1l0.1,0.1l2,3.3l0.6,1.1l1.4,2.4l0.5,0.8l0.9,1.6l0.3,0.5l0.8,1.5l1.5,2.9l0.1,0.3l0.5,1
	l0.6,1.2l0.1,0.3l3.1,6.8l0.2,0.4l0.2,0.5l0.1,0.1l1,2.5l0.1,0.3l0.5,1.2l1.5,4l0.1,0.2l0.7,1.9l0,0.1l0,0l0.1,0.3l0.3,0.9l1.6,4.5
	l0,0.1l0.1,0.3l0,0.1l0,0l0.1,0.3l0.5,1.6l0.6,1.9l0,0.1l0,0l0,0.1l1.1,3.4l0,0.1l0,0.1l0.2,0.6v0c0.4-1.2,0.4-1.2,0.9-2.4
	c0.8-2.7,1.4-3.4,3.2-3.9c2.3-0.6,5.7,5,7.8,12.6c2,7.6,4.7,22.2,2.5,22.8c-1.6,0.4-6.6-10.1-8.4-14.2l0.4,0.3l-0.2-0.1l-0.3-0.1
	l-0.1,0l0,0l-0.2,0l-0.3,0.1l-0.2,0.2l-0.1,0.1l0,0l-0.1,0.1l-0.1,0.1l-0.1,0.1l0,0l0,0l0,0l0,0l0,0l0,0l-0.2,0.4l0,0l0,0.1l0.1,0.3
	l-0.1-0.3l0.1,0.3l1.9,9.6l0.4,1.2l-0.4-1.2l0.4,0.8l30.9,61l0.2,3.3l1,15.2l0.7,12.9l0.5,17.5l0,8.3l-0.3,15.4l-0.4,7.9l-1,14.4
	l-1.4,14.6l-0.9,7.3l-1.1,8.6l-1.6,11l0.1,0l-3,17l-1.8,9.6l-1.3,6.1l-2.5,11.2l-1.2,5.1l-1.9,7.4l-2.8,10.4l-1.7,5.8l-1.7,5.6
	l-2.5,8l-4.4,12.9l-6.4,17.3l-5.2,13l-5.1,11.9l-3.2,6.9l-5.5,11.4l-4.4,8.4l-6.2,11.6l-6.3,11.3l-7.1,11.9l-7.3,11.6l-4.3,6.6
	l-7.6,11.2l-28.2-2.5l2.2-0.7l-2.2,0.7l0.1-0.1l-0.1,0.1l-0.3,0.4l-0.7,1.1l-1,1.5l-0.3,0.5l-0.2,0.4l-0.4,0.7l-0.5,0.9l-0.3,0.7
	l0,0l-0.2,0.7l-0.1,0.3l-0.1,0.2l-0.1,0.2l0,0l0,0.4l0,0.2l0,0.1l0,0.1l0,0.1l0,0l0,0.2l0,0.4l0.1,0.3l0.1,0.5l0.1,0.4l0,0.1
	l0.2,0.5l0.1,0.3l0.4,0.6l0.1,0.2l0,0l0.2,0.2l0.7,0.8l0.1,0.1l0,0l0,0l0.1,0l0.8,0.7l0.1,0.1l0.1,0.1l0.1,0.1l0,0l0.3,0.1l0.8,0.3
	l0.1,0l0,0l0.4,0l0,0l0.3,0.1l0,0l0.5,0l0.5,0l0.1,0l0.4-0.1l0,0l0.4-0.1l0.1,0l1.2-0.4l0.1-0.1l0.6-0.3l1.5-0.8l0.7-0.4l0.2-0.2
	l1.6-1l0.7-0.3l0.1,0l0,0l0,0l0,0l0,0l0,0l0.1,0l0.1,0l0.3,0l0.1,0l0,0l0.2,0.1l0,0l0.1,0.1l0.4,0.3l0.1,0.1l0.4,0.3l0.6,0.5
	l2.4,1.9l0.1,0.1l0,0l0,0l0,0l0.1,0.1l0.2,0.2l0,0l0.1,0.1l0.1,0.3l0,0l0,0.1l0,0.1l0,0.1l0,0.2l0,0.1l0,0.4l-0.1,0.2l0,0.1
	l-0.2,0.5l-0.2,0.4l-0.6,1.3l-0.3,0.6l-0.1,0.2l-0.1,0.2l-0.1,0.2l0,0l-0.1,0.2l-0.5,0.8l-0.2,0.3l-0.1,0.1l-0.6,0.9l0,0l-0.6,0.7
	l-0.2,0.2l-0.1,0.1l0,0l0,0l0,0l-0.1,0.1l-0.2,0.1l-0.2,0.2l-0.6,0.6l-0.3,0.2l-0.8,0.5l-0.2,0.1l-0.6,0.4l-0.1,0.1l-0.4,0.2
	l-0.7,0.3l-0.3,0.1l-0.4,0.2l-0.1,0l-0.1,0l-0.6,0.1l-0.1,0l-0.5,0.1l-0.4,0.1l-0.1,0l-1.1,0.1l-0.4,0l-0.4,0l-0.2,0l0,0l-0.3,0
	l-0.3,0l-1,0l-0.1,0l-0.2,0l-0.2,0l-0.1,0l-0.4-0.1l-0.3-0.1l-0.3-0.1l-1.7-0.3l-0.1,0l-0.8-0.2l0,0l-0.5-0.2l-0.8-0.3l-0.1,0
	l-0.1-0.1l0,0l-0.1-0.1l-0.1,0l-0.1,0l-0.5-0.3l-0.2-0.1l-0.4-0.2l0,0l-0.1-0.1l-0.6-0.4l-0.2-0.1l-0.3-0.2l-0.4-0.3l-0.5-0.4
	l-0.5-0.4l0,0l0,0l-0.3-0.3l-0.8-0.7l-0.1-0.1l-0.1-0.1l-0.1-0.1l-0.2-0.3l-0.2-0.3l-0.3-0.4l-0.3-0.4l0,0l-0.1-0.1l-0.1-0.2
	l-0.2-0.3l-0.6-0.9l0,0l-0.3-0.5l0-0.1l0,0l-0.1-0.1l-0.4-0.8l-0.2-0.3l-0.4-0.7l-0.1-0.3l-0.2-0.4l-0.2-0.4l0,0l0,0l-0.2-0.5
	l-0.2-0.8l0-0.1l-0.1-0.2l-0.2-0.9l0-0.1l-0.2-1.5l0-0.2l0-0.2l0-0.9l0-0.4l0-0.1l0-0.1l0-0.5l0-0.4l0-0.1l0.2-1.2l0-0.1l0.1-0.6
	l0.5-2.1l0-0.1l0.4-1.2l0.6-1.7l0.1-0.1l0.9-1.9l0.1-0.2l0.3-0.7l0,0l0.1-0.2l0.7-1.2l1.1-1.9l0.4-0.7l3.3-4.8l3.2-4.7l0.3-0.5
	l1.6-2.3l0.5-0.7l0.5-0.7l0.1-0.2l0.4-0.6l0,0l5.1-7.4l0.3-0.4l0.2-0.3l0.6-0.8l0.6-0.9l2.8-4.2l0.4-0.6l0.5-0.7l2.2-3.5l0.4-0.7
	l0.1-0.1l0.6-1l0.2-0.4l2.7-4.5l2.3-3.8l0.2-0.4l0.2-0.3l0.1-0.1l1.6-2.7l0.2-0.4l5.3-9l0.8-1.4l0.5-0.9l0.3-0.6l0.2-0.3l0.2-0.3
	l3.1-5.5l0.6-1l2.9-5.4l0.3-0.5l0.3-0.6l0.2-0.3l0.2-0.3l0,0l0.2-0.4l0.9-1.7l2.5-4.9l0,0l0.1-0.3l0.1-0.3l1-2l0.8-1.6l0-0.1
	l0.6-1.3l3.9-8.3l0.5-1l0-0.1l0.2-0.4l0-0.1l0.6-1.2l0.9-1.9l1-2.3l0.3-0.6l0.2-0.5l0.3-0.7l1.1-2.6l0.4-0.8l1.2-2.8l0.1-0.3
	l0.8-1.9l0.3-0.6l2.2-5.6l0.3-0.9l0.6-1.5l0.8-2l0.3-0.8l0.6-1.7l1.8-4.9l0.2-0.5l0.4-1.1l1.2-3.5l0.2-0.4l0-0.1l0.1-0.4l0,0
	l2.4-6.8l0.7-2l0.9-2.7l2.3-7.1l0.4-1.4l1.2-4l1.4-4.8l0.6-1.9l0.2-0.8l0.1-0.5l1.2-4.5l0.3-1l0.9-3.3l0.1-0.3l0.3-1.1l0.2-1
	l0.2-1.1l1.2-4.9l1.5-6.3l0.1-0.3l0-0.1l0.7-3.2l0.5-2.6l0.1-0.5l0.4-2.2l0.7-3.3l0.2-1.1l1-5.5l1.1-5.9l0.2-0.9l0-0.1l0.2-0.9
	l0.5-3.1l0.1-0.7l0.1-0.8l0-0.1l0.2-1.5l0.9-5.6l0.8-5.2l0-0.3l0.2-1.2l1.3-9.4l0.2-1.5l0.1-0.5l1-8.6l0.2-1.4l0.2-2.1l0-0.3
	l0.7-7.3l0.1-0.9l0.3-4.3l0.2-3l0,0l0.2-2.9l0.1-0.8l0.1-1.2l0-0.9l0-2.4l0-1.1l0-0.1l0-1.3l0-2.3l0-0.4l0-3.5l0,0l0-0.7l-0.2-4l0,0
	l0-0.2l0-0.7l0-0.4l0-0.3l0-0.3l-0.1-2l-0.1-0.6l-0.1-0.6l-0.5-5.7l-0.1-0.6l-0.1-1.4l-0.3-3l-0.3-2.4l-0.4-3.4l-0.4-2.9l-0.1-0.7
	l0-0.2l-0.1-0.5l-0.1-0.5l-1.5-7.6l-0.1-0.5l0-0.1l-0.8-3.2l0,0l0-0.1l-0.2-0.8l-0.2-0.6l-0.4-1.3l-0.6-2l-0.8-2.8l-0.1-0.3
	l-0.1-0.3l-0.2-0.5l-0.1-0.4l-0.1-0.4l-1-3.1l-0.1-0.4l-1-2.9L961,261l-0.9-2.4l-0.1-0.4l-0.1-0.3l-0.2-0.5l-0.5-1.2l-0.8-1.9l0-0.1
	l-0.1-0.2l-0.1-0.2l-0.4-0.8l-0.3-0.7l-0.5-1l-0.7-1.5l-1.2-2.5l-0.3-0.5l-0.3-0.6l-1.7-3.3l-1.1-2l-0.6-1.2l-1.5-2.7l-0.6-1.1
	l-2.8-4.9l-0.3-0.5l-0.1-0.2l-0.2-0.3l-0.2-0.3l-1.6-2.6l-1-1.7l-0.2-0.3l-0.1-0.2l-0.1-0.2l-0.1-0.1l-0.2-0.3l0,0l-0.2-0.2
	l-6.2-9.5l-0.2-0.3l-0.2-0.3l-0.2-0.2l-0.8-1.1l-0.9-1.3l-0.6-0.9l-0.2-0.3l-1.3-1.9l-1.1-1.6l-1.3-1.8l0,0l-0.7-0.9l-1.3-1.7
	l-2.2-2.9l-0.8-1l-2.8-3.6l-1-1.2l-0.6-0.8l-3.1-3.7l-6.3-7.5l-1.3-1.6l-2.5-2.8l-0.9-1.1l-0.8-0.9l-1.5-1.7l-1-1.1l-2.8-2.9
	l-0.8-0.8l-2.3-2.3l-2.1-2.1l-0.6-0.6l-0.2-0.2L893,163l-2.9-2.8l-5-4.5l-0.9-0.8l0,0l-2.9-2.5l-0.1-0.1l-0.9-0.8l-0.1-0.1l-0.3-0.3
	l-1.7-1.5l-2.8-2.2l-1.3-1l-0.1-0.1l-0.6-0.4l-0.3-0.2l-5.2-3.9l-1.9-1.3l-1.1-0.8l-3.1-2.1l-1.1-0.8l-0.6-0.4l-0.2-0.1l-0.6-0.4
	l-3.7-2.3l-1.1-0.6l-0.2-0.1l-1.5-0.9l-2.5-1.4l-5.9-3.3l-1.2-0.7l-0.8-0.4l-3-1.5l-0.5-0.2l0,0l-0.1,0l-0.1-0.1l-4.3-2.1l-0.2-0.1
	l-0.5-0.2l-0.2-0.1l-0.4-0.2l-6-2.7l-3.4-1.5l-0.2-0.1l0,0l-0.1,0l-3.7-1.6l-1-0.4l-0.2-0.1l-0.2-0.1l-0.1,0l-0.7-0.3l-2-0.8
	l-1.3-0.5l-4.5-1.7l-1.5-0.6l-0.6-0.2l-3.7-1.3l-1.2-0.4l-0.7-0.2l-0.2-0.1l-6.6-2.1l-0.1,0l-0.2-0.1l-1.9-0.5l-0.7-0.2l-0.9-0.3
	l-2.5-0.7l0,0l-0.3-0.1l-4.5-1.1l-1.7-0.4l0,0l-1.6-0.3l-1.7-0.4l-2.6-0.6l-0.1,0l-0.3-0.1l-0.4-0.1l-0.3-0.1l-2.4-0.4l-3.3-0.6
	l-0.5-0.1l-0.6-0.1l-2.8-0.4l-0.4-0.1l-0.4-0.1l-0.1,0l-6.6-0.8l-0.3,0l-0.3,0l-0.5-0.1l-5-0.5l-0.7-0.1l-0.3,0l0,0l-0.1,0l-5-0.3
	l-1-0.1l-0.6,0l-0.5,0l-9.4-0.1l-2,0l-0.4,0l-0.7,0l-1,0l-1.1,0l-4.5,0.2l-0.7,0l-0.7,0l-0.5,0l-2.6,0.2l-2.1,0.1l-0.5,0l-3.9,0.4
	l-1.4,0.1l-0.1,0l-0.9,0.1l-3.1,0.3l0,0l-0.1,0l0,0l-0.1,0l-5.7,0.8l-0.1,0l-0.4,0l-0.4,0.1l-0.1,0l0,0l-1.6,0.3l-5.3,1l-1.5,0.3
	l-0.3,0.1l-0.2,0l-0.4,0.1l-1.3,0.3l-2.6,0.6l-2.5,0.6l-1.4,0.3l-1.1,0.3l-3.9,1l-1.6,0.4l-0.1,0l-0.7,0.2l-0.2,0l-2.6,0.7l-2.2,0.6
	l-2.5,0.8l-3.7,1.2l-0.6,0.2l-2.4,0.8l-1.4,0.5l-2.9,1.1l-4.3,1.7l-0.5,0.2l-0.8,0.3l-1.1,0.4l-0.9,0.4l-0.5,0.2l-0.5,0.2l-0.8,0.4
	l-0.7,0.3l-6.2,2.7l-5,2.2l-0.6,0.3l-1,0.5l-0.7,0.3l-4.2,2.1l-2.9,1.4l-0.7,0.3l0,0l-0.2,0.1l-0.1,0.1l-0.4,0.2l-1.3,0.7l-3.8,2.1
	l-0.4,0.2l-1,0.6l-0.8,0.4l-2.8,1.6l-0.7,0.4l-3.4,2.1l-3.6,2.3l-1.1,0.7l-0.1,0.1l-2.9,2l-3.6,2.5l-0.7,0.5l-1.2,0.9l-3,2.3
	l-0.6,0.4l-4.6,3.7l-0.7,0.5l-0.4,0.3l-1.5,1.3l-3.7,3.2l-0.6,0.5l-0.1,0.1l-0.8,0.7l-0.9,0.9l-4.2,3.8l-0.5,0.5l-4.5,4.4l-0.2,0.2
	l-0.1,0.1l-0.2,0.2l-0.6,0.6l-4.8,5l-0.9,1l-3.5,3.9l-0.3,0.3l-0.7,0.8l-7.7,9.1l-1.5,1.8l-3,3.7l-2.6,3.3l-0.8,1l-2.7,3.4l-0.9,1.2
	l-0.2,0.3l-0.2,0.2l-4.8,6.7l-0.1,0.1l-0.6,0.8l-2.5,3.6l-0.2,0.4l-0.6,0.9l0,0.1l-0.2,0.3l-0.1,0.2l-0.3,0.5l0,0l0,0.1l-0.2,0.3
	l0,0.1l-5.6,8.6l-0.1,0.1l-0.1,0.1l-0.2,0.3l-0.2,0.4l-0.5,0.7l-0.5,0.9l-0.5,0.8l-0.9,1.5l-0.3,0.5l-2.3,3.9l0,0l-2.7,4.9l-0.2,0.4
	l0,0l-0.2,0.4l0,0l-2.1,3.9l-0.2,0.5l0,0l-0.2,0.5l-0.4,0.7l-0.5,1l-2.4,4.7l-0.3,0.6l-0.1,0.3l-0.1,0.3l-1.9,4.5l-0.3,0.7l-0.1,0.3
	l-1,2.6l-0.1,0.3l0,0l0,0l0,0.1l-0.1,0.3l0,0l-0.1,0.2l0,0.1l-0.5,1.6l-0.6,1.8l-0.3,0.9l-0.1,0.3l-1.4,4.5l-0.6,1.9l-0.1,0.3
	l-0.1,0.5l-1,3.7l-0.1,0.4l0,0.1l0,0.1l-0.2,0.6l-0.1,0.2l-0.1,0.2l-0.8,3.2l-0.1,0.4l-0.1,0.4l-1,5.2l-0.1,0.4l-0.1,0.5l-0.2,1.5
	l-0.5,3.2l-0.1,0.7l0,0.3l0,0.2l-0.3,2.3l-0.3,1.9l-0.3,2.7l-0.1,1.1l0,0.1l-0.3,3.3l-0.1,0.7l-0.3,3.3l-0.1,1.1l-0.1,0.6l-0.2,3
	l0,0.4l-0.1,2.2l-0.1,2.6l0,1.4l0,5.6l0,0.3l0,0.4l0,1.1l0,0.6l0.1,1.4l0.1,1.4l0.3,7.2l0.1,0.8l0,0.1l0.6,7.6l0.2,1.8l0.3,3
	l0.3,3.2l0.1,0.7l1,8.6l0.1,0.6l0.2,1.4l0.1,0.8l0.2,1.4l1.1,8.3l0.2,1.7l0.6,3.8l0,0.3l0.4,2.2l0.8,4.5l0.8,5l0.1,0.7l1.3,6.8
	l0.1,0.3l0.4,2.2l0.1,0.7l1.6,8.2l0.1,0.7l0.1,0.5l0,0.2l1.3,5.7l0.1,0.5l0,0.2l0.3,1.3l0.8,3.4l0.3,1.2l0.8,3.3l0,0l0.3,1.1
	l0.4,1.6l0.7,2.6l0.8,2.8l0.3,1.1l0.4,1.5l0.7,2.6l0.3,1.3l2.1,7.1l1.9,6.5l0.1,0.3l0.4,1.2l0.1,0.3l0.2,0.8l0.5,1.6l0.3,0.8l0.3,1
	l3.8,11.2l0.5,1.3l0.1,0.4l0.4,1.1l0.3,1l0.6,1.7l0.2,0.5l0.9,2.4l2,5.4l1.8,4.7l0.2,0.5l0,0.1l0.2,0.4l0.8,2.1l0,0l0.7,1.8l0.8,1.9
	l0.4,1l1.6,3.8l0.7,1.6l0.1,0.1l1.8,4.1l0.8,1.8l0.5,1.1l0.9,1.9l0.5,1l2.2,4.7l0.6,1.3l0.1,0.2l0.2,0.5l1.4,2.9l1.3,2.7l0.5,1
	l0.2,0.3l0.1,0.2l0.4,0.8l1.8,3.5l0.2,0.4l0.1,0.2l0.5,0.9l0.3,0.6l0.3,0.5l0.8,1.5l0.1,0.2l4.8,8.8l0.5,0.8l0.4,0.7l0.3,0.5
	l0.2,0.4l0.6,1.1l0.3,0.5l0.6,1l0.8,1.3l4.8,8.3l0.1,0.2l0.7,1.1l0.1,0.1l3.6,6l1,1.6l0.3,0.4l0.3,0.4l0.7,1.1l0.3,0.4l1.6,2.6
	l3.8,6l1,1.5l3.4,5l0.4,0.6l1.1,1.7l2.2,3.2l4.8,7l3.4,5l3.3,4.8l0.4,0.6l0.5,0.8l0.8,1.3l0.7,1.3l0.1,0.3l0.6,1.2l0.5,1.1l0.6,1.5
	l0.1,0.3l0,0l0,0l0.1,0.2l0.3,0.8l0.1,0.2l0.3,0.8l0,0.1l0.3,1.3l0.3,1.2l0,0.1l0,0.2l0,0.3l0.1,1.4l0,0.1l0,0.4l0,0.4l-0.1,1.4
	l-0.1,0.8l-0.2,1.1l-0.3,1l-0.1,0.5l-0.3,0.7l-0.3,0.9l-0.1,0.2l-0.1,0.2l0,0l-0.5,0.9l-0.1,0.2l-0.3,0.5l-0.2,0.3l0,0l-0.5,0.7
	l-0.3,0.4l0,0.1l-0.3,0.5l-1.1,1.3l0,0l-0.3,0.3l-0.1,0.2l0,0l-0.1,0.1l0,0l-0.6,0.6l-0.6,0.5l-0.5,0.4l0,0l-0.4,0.3l0,0l-0.4,0.3
	l-0.3,0.2l-0.9,0.6l-0.1,0l-0.2,0.1l-0.5,0.3l-0.6,0.3l-0.8,0.3l-0.2,0.1l0,0l-0.3,0.1l-0.1,0.1l-1.8,0.5l-0.7,0.2l-0.1,0l-0.1,0
	l-0.4,0.1l-0.4,0.1l-0.6,0.1l-0.6,0.1l-0.4,0l-0.6,0l-0.4,0l-0.8,0.1l-0.1,0l-0.1,0l-0.2,0l-0.7-0.1l-0.5-0.1l0,0l-0.3-0.1l-0.2,0
	l0,0l-0.3-0.1l-0.5-0.2l-0.5-0.2l-0.8-0.2l0,0l-0.6-0.3l0,0l-0.3-0.2l-0.3-0.2l-0.5-0.3l-0.3-0.2l-0.2-0.2l-0.7-0.5l0,0l-0.2-0.2
	l0,0l-0.3-0.2l-0.2-0.2l-0.3-0.4l-0.1-0.1l-0.5-0.6l-0.2-0.3l-0.6-0.9l-0.1-0.1l0,0l-0.1-0.1l-0.1-0.1l0,0l-0.2-0.3l-0.9-1.6
	l-0.2-0.4l-0.2-0.3l-0.2-0.5l-0.1-0.1l0,0l0,0l-0.2-0.8l-0.1-0.3l-0.1-0.2l-0.1-0.5l0-0.3l0,0l0-0.1l0-0.4l0.2-0.3l0,0l0-0.1l0,0
	l0.3-0.2l1.7-1.3l1.1-0.9l0.6-0.5l0,0l0.5-0.4l0.2-0.1l0.1-0.1l0,0l0.2-0.1l0.2,0l0,0l0,0l0.4,0.1l0.2,0l0.3,0.1l0,0l0.2,0.1
	l0.2,0.1l0.3,0.1l1.1,0.7l1.2,0.8l0.4,0.3l0.9,0.5l0.1,0.1l0,0l0.1,0l0,0l0,0l0.9,0.4l0.2,0.1l0.2,0.1l0.3,0.1l0.4,0.1l0,0l0.4,0.1
	l0.3,0l0.4,0l0,0l0.8-0.1l0.2,0l0.3,0l0.1,0l0.1-0.1l0.5-0.2l0.3-0.1l0.1,0l0,0l0.2-0.1l1.3-1l0,0l0,0l0,0l0.9-1.1l0,0l0,0l0.2-0.3
	l0.2-0.5l0.3-0.8l0-0.2l0.1-0.6l0-0.1l0-0.6l0-0.1l0,0l0-0.2l0-0.1l0-0.1l-0.1-0.8l-0.3-0.9l0,0l-0.2-0.4l-0.2-0.4l0,0l-0.1-0.1
	L591.1,624.8l0.3,0.5l-2.8-1.3"/>
<path class="st0" d="M45.1,630.8l-29.7-0.1l-3.5-5.1l-7.4-10.9l-9.8-15.3l-3.9-6.4l-5.7-9.9L-25,564.6l-0.9,0.5l-10.9-24.4
	l-7.5-17.2l-5.4-13.5l-1.5-4l-6.7-18.9l-2.9-9l-3.4-11.1l-4-14.5l-2.3-9.3l-1.5-6.3l-2.3-10.8l-3.7-19.2l-1.2-7.1l-1.7-11.4l-2-14.8
	l-1.2-11.1l-1-10.9l-0.9-13.4l-0.3-7.4l-0.2-6.9l-0.1-8.3l0.1-7.7l0.3-10.9l0.5-10.4l1.6-24.9l0.9-4.2l32.6-67.1l0-0.5l-0.3-0.7
	l0.1,0.3l0,0l-0.2-0.1l0,0l0-0.1l0,0l0,0l0,0l0-0.1l0,0l0-0.1l-0.1-0.1l-0.1-0.2l-0.2-0.1l-0.2-0.1l0,0l-0.1,0l-0.1,0l-0.3,0l-0.1,0
	l0,0l-0.1,0l-0.1,0.1l-0.3,0.2c-2.4,5.1-7.5,14.2-9.2,13.5c-2.2-0.8,0.3-13.3,3-20.6c2.7-7.4,6.6-12.7,8.8-11.9
	c1.5,0.6,2.1,1.9,1.3,6.3l1.8-1.4l0,0l0.7-2.6l0-0.1l0,0l0.4-1.3l0.2-0.6l-0.2,0.7l0.1-0.4l1.6-5.1l0.2-0.6l0.5-1.6l1-2.8l0.7-2
	l0.2-0.6l0.3-0.9l0.1-0.3l0.9-2.3l0.8-2l1.7-4.1l0.9-2.3l0.4-0.9l0.4-0.8l0.7-1.5l0.1-0.2l0.3-0.7l0.4-0.8l0,0l1.2-2.5l0.5-1.1
	l0.4-0.7l1.1-2.1l0.4-0.7l0.2-0.3l1.9-3.5l0.5-0.9l0.1-0.2l0.4-0.7l2.4-4.2l0.3-0.5l0.3-0.6l0.1-0.2l0.2-0.4l0.7-1.1l0.2-0.3l1.9-3
	l0,0l0,0l1-1.4l0.6-0.9l0.9-1.4l0.3-0.4l0.5-0.8l0.4-0.6l0.1-0.1l0.6-0.9l2-2.8l0.1-0.1l0.2-0.3l0,0l0.2-0.3l0,0l0,0l0.1-0.2l0,0
	l0.4-0.5l0.4-0.5l0.9-1.2l2.4-3.2l1.5-1.8l2-2.4l0.4-0.5l0.7-0.8l0.8-0.8l3.9-4.3l0.7-0.8l0.1-0.1l0.5-0.5l2.5-2.5l1.5-1.5l0.5-0.5
	l0.1-0.1l0.9-0.9l1.5-1.4L8,82l2.9-2.6l1.8-1.6l0.1-0.1l0.9-0.8l0.1-0.1l0.4-0.3l0.1-0.1l1.4-1.2l0.7-0.6l2.4-1.9l2-1.6l0.6-0.5
	l1.2-0.9l0.3-0.2l0,0l0,0l0.2-0.2l0.1-0.1l0.6-0.4l1.5-1l6.3-4.4l1.1-0.7l0.2-0.1l0.3-0.2l0,0l0.3-0.2l3.3-2l1.6-1l0.8-0.5l0.8-0.5
	l0,0l0.5-0.3l3.1-1.7l0.4-0.2l0.3-0.2l0.6-0.3l3.4-1.8l2-1l1.1-0.5l6.3-2.9l0,0l2.2-0.9l1.1-0.4l1.2-0.5l0.1,0l1.5-0.6l2.8-1.1
	l2.7-1l0.2-0.1l1-0.4l1.1-0.4l3.7-1.3l1.6-0.5l0.8-0.3l0.6-0.2l4.1-1.3l0,0l0.1,0l0.7-0.2l0.3-0.1l1.7-0.5l5.3-1.5l2-0.5l2.3-0.6
	l1.1-0.3l1-0.2l1.3-0.3l5.7-1.2l1.8-0.4l0.6-0.1l0.1,0l1.6-0.3l2-0.4l2.5-0.5l0.4-0.1l1.6-0.3l1-0.2l1.1-0.2l0.8-0.1l0.4-0.1
	l3.4-0.5l6.5-0.9l0,0l0.6-0.1l1.5-0.2l0.4,0l8.6-1l0,0l0.9-0.1l0.9-0.1l0.4,0L145,29l0.2,0l0.1,0l2.1-0.1l16.4-1l0.9,0l0.9,0l1.4,0
	l0.1,0l0.2,0l2.6-0.1l3.3-0.1l3.1-0.1l3.3-0.1l0,0l0.3-0.2l0.2-0.2h0.7l0.1-0.1l0.1-0.1l0.5-0.5L182,26l0,0l0.1-0.2l0,0l0,0l0,0
	l0.1-0.2l0-0.2l0-0.1l0,0l0,0l0-0.1l0-0.1l0,0l0-0.1l0-0.1l0,0l0,0.1l0.1,0c-5.6-0.6-9.6-2.2-9.6-4c0-2.3,6.3-4.3,14.2-4.3
	s14.2,1.9,14.2,4.3c0,1.6-3,3-7.4,3.7l0,0.1l0.1-0.2l-0.1,0.2l0,0.2l0,0.2l0,0.2v0l0,0l0,0l0,0l0.1,0.2l0,0l0,0l0,0.1l0,0l0,0l0,0
	l0,0l0,0l0.5,0.5l0.2,0.2l0,0l0.1,0.1l0.5,0.4l0.2,0.2h0.1h0.1h0h0.1l0.3,0.3l0.1,0.1l0,0l0.5,0l3.2,0.1l0.5,0l2,0.1l9.1,0.3l0.3,0
	l1.1,0l1.9,0.1l1.2,0l2.8,0.1l1.4,0.1l0,0l4.7,0.3l1.3,0.1l0.4,0h0l0.4,0l7.7,0.8l3.7,0.4l4.6,0.4l0,0l0.3,0l0.3,0l0.2,0l0.1,0l0,0
	l0.4,0l0.1,0l6,0.8l0,0l1.1,0.1l0.3,0l0.2,0l0.1,0l0.1,0l0,0l0.7,0.1l0.6,0.1l4.6,0.7l0.5,0.1l0,0l0.1,0l0,0l3.2,0.5l1.1,0.2l0.3,0
	l1.1,0.2l4.5,0.8l0.8,0.2l0.3,0.1l3.2,0.7l4.5,1l1,0.2l2.6,0.6l0.3,0.1l2.9,0.7l0,0l1.3,0.3l0,0l7,2.1l2.8,0.8l0.1,0l1.4,0.4l0,0
	l0,0l1.4,0.5l0,0l0.1,0l0.4,0.1l2.4,0.8l0.3,0.1L302,43l2,0.7l0.1,0l0,0l0,0l0.9,0.3l1.5,0.5l0.1,0l0.3,0.1l0.2,0.1l0.4,0.2l1.7,0.6
	l2.2,0.9l0,0l0.6,0.2l0.3,0.1l3.3,1.4l3.6,1.5l0,0l0.3,0.1l0,0l0.5,0.2l0.5,0.2l3.3,1.5l0.8,0.4l2.7,1.3l0.7,0.3l0.9,0.4l0.3,0.1
	l3.2,1.7l0.8,0.4l0.7,0.4l0.5,0.3l1.4,0.8l2.7,1.5l0.5,0.3l0,0l6.1,3.9l1.4,0.9l2.7,1.8l1,0.8l0.4,0.3l1.7,1.3l1.4,1l0.4,0.3
	l0.5,0.3l0.4,0.3l2.2,1.8l0.6,0.5l1.3,1l1,0.9l1.9,1.6l0.3,0.2l2.6,2.2l1,0.9l0.8,0.7l0.2,0.2l0.1,0.1l0.6,0.6l1.7,1.6l1,0.9
	l1.2,1.1l2.4,2.3l0,0l0.9,0.9l1.4,1.4l1,1l0.3,0.3l1.1,1.1l1.6,1.7l1.1,1.2l0.1,0.1l0,0l0,0l0,0l0.1,0.1l0.1,0.1l0.1,0.2l1.3,1.5
	l2,2.3l0.4,0.5l0.1,0.2l2.1,2.6l0.4,0.5l0.4,0.5l1.5,1.9l0.4,0.5l0.8,1.1l0.6,0.9l0.4,0.5l0.8,1.1l2.5,3.6l0.6,1l1.1,1.7l1,1.6
	l0.1,0.1l1.4,2.2l0.3,0.6l0,0.1l0.6,1l0.1,0.1l2,3.3l0.6,1.1l1.4,2.4l0.5,0.8l0.9,1.6l0.3,0.5l0.8,1.5l1.5,2.9l0.1,0.3l0.5,1
	l0.6,1.2l0.1,0.3l3.1,6.8l0.2,0.4l0.2,0.5l0.1,0.1l1,2.5l0.1,0.3l0.5,1.2l1.5,4l0.1,0.2l0.7,1.9l0,0.1l0,0l0.1,0.3l0.3,0.9l1.6,4.5
	l0,0.1l0.1,0.3l0,0.1l0,0l0.1,0.3l0.5,1.6l0.6,1.9l0,0.1l0,0l0,0.1l1.1,3.4l0,0.1l0,0.1l0.2,0.6l0,0c0.4-1.2,0.4-1.2,0.9-2.4
	c0.8-2.7,1.4-3.4,3.2-3.9c2.3-0.6,5.7,5,7.8,12.6c2,7.6,4.7,22.2,2.5,22.8c-1.6,0.4-6.6-10.1-8.4-14.2l0.4,0.3l-0.2-0.1l-0.3-0.1
	l-0.1,0l0,0l-0.2,0l-0.3,0.1l-0.2,0.2l-0.1,0.1l0,0l-0.1,0.1l-0.1,0.1l-0.1,0.1l0,0l0,0l0,0l0,0l0,0l0,0l-0.2,0.4l0,0l0,0.1l0.1,0.3
	l-0.1-0.3l0.1,0.3l1.9,9.6l0.4,1.2l-0.4-1.2l0.4,0.8l30.9,61l0.2,3.3l1,15.2l0.7,12.9l0.5,17.5l0,8.3l-0.3,15.4l-0.4,7.9l-1,14.4
	l-1.4,14.6l-0.9,7.3l-1.1,8.6l-1.6,11l0.1,0l-3,17l-1.8,9.6l-1.3,6.1l-2.5,11.2l-1.2,5.1l-1.9,7.4l-2.8,10.4l-1.7,5.8l-1.7,5.6
	l-2.5,8l-4.4,12.9l-6.4,17.3l-5.2,13l-5.1,11.9l-3.2,6.9l-5.5,11.4l-4.4,8.4l-6.2,11.6l-6.3,11.3l-7.1,11.9l-7.3,11.6l-4.3,6.6
	l-7.6,11.2l-28.2-2.5l2.2-0.7l-2.2,0.7l0.1-0.1l-0.1,0.1l-0.3,0.4l-0.7,1.1l-1,1.5l-0.3,0.5l-0.2,0.4l-0.4,0.7l-0.5,0.9l-0.3,0.7
	l0,0l-0.2,0.7l-0.1,0.3l-0.1,0.2l-0.1,0.2l0,0l0,0.4l0,0.2l0,0.1l0,0.1l0,0.1l0,0l0,0.2l0,0.4l0.1,0.3l0.1,0.5l0.1,0.4l0,0.1
	l0.2,0.5l0.1,0.3l0.4,0.6l0.1,0.2l0,0l0.2,0.2l0.7,0.8l0.1,0.1l0,0l0,0l0.1,0l0.8,0.7l0.1,0.1l0.1,0.1l0.1,0.1l0,0l0.3,0.1l0.8,0.3
	l0.1,0l0,0l0.4,0l0,0l0.3,0.1l0,0l0.5,0l0.5,0l0.1,0l0.4-0.1l0,0l0.4-0.1l0.1,0l1.2-0.4l0.1-0.1l0.6-0.3l1.5-0.8l0.7-0.4l0.2-0.2
	l1.6-1l0.7-0.3l0.1,0l0,0l0,0l0,0l0,0l0,0l0.1,0l0.1,0l0.3,0l0.1,0l0,0l0.2,0.1l0,0l0.1,0.1l0.4,0.3l0.1,0.1l0.4,0.3l0.6,0.5
	l2.4,1.9l0.1,0.1l0,0l0,0l0,0l0.1,0.1l0.2,0.2l0,0l0.1,0.1l0.1,0.3l0,0l0,0.1l0,0.1l0,0.1l0,0.2l0,0.1l0,0.4l-0.1,0.2l0,0.1
	l-0.2,0.5l-0.2,0.4l-0.6,1.3l-0.3,0.6l-0.1,0.2l-0.1,0.2l-0.1,0.2l0,0l-0.1,0.2l-0.5,0.8l-0.2,0.3l-0.1,0.1l-0.6,0.9l0,0l-0.6,0.7
	l-0.2,0.2l-0.1,0.1l0,0l0,0l0,0l-0.1,0.1l-0.2,0.1l-0.2,0.2l-0.6,0.6l-0.3,0.2l-0.8,0.5l-0.2,0.1l-0.6,0.4l-0.1,0.1l-0.4,0.2
	l-0.7,0.3l-0.3,0.1l-0.4,0.2l-0.1,0l-0.1,0l-0.6,0.1l-0.1,0l-0.5,0.1l-0.4,0.1l-0.1,0l-1.1,0.1l-0.4,0l-0.4,0l-0.2,0l0,0l-0.3,0
	l-0.3,0l-1,0l-0.1,0l-0.2,0l-0.2,0l-0.1,0l-0.4-0.1l-0.3-0.1l-0.3-0.1l-1.7-0.3l-0.1,0l-0.8-0.2l0,0l-0.5-0.2l-0.8-0.3l-0.1,0
	l-0.1-0.1l0,0l-0.1-0.1l-0.1,0l-0.1,0l-0.5-0.3l-0.2-0.1l-0.4-0.2l0,0l-0.1-0.1l-0.6-0.4l-0.2-0.1l-0.3-0.2l-0.4-0.3l-0.5-0.4
	l-0.5-0.4l0,0l0,0l-0.3-0.3l-0.8-0.7l-0.1-0.1l-0.1-0.1l-0.1-0.1l-0.2-0.3l-0.2-0.3l-0.3-0.4l-0.3-0.4l0,0l-0.1-0.1l-0.1-0.2
	l-0.2-0.3l-0.6-0.9l0,0l-0.3-0.5l0-0.1l0,0l-0.1-0.1l-0.4-0.8l-0.2-0.3l-0.4-0.7l-0.1-0.3l-0.2-0.4l-0.2-0.4l0,0l0,0l-0.2-0.5
	l-0.2-0.8l0-0.1l-0.1-0.2l-0.2-0.9l0-0.1l-0.2-1.5l0-0.2l0-0.2l0-0.9l0-0.4l0-0.1l0-0.1l0-0.5l0-0.4l0-0.1l0.2-1.2l0-0.1l0.1-0.6
	l0.5-2.1l0-0.1l0.4-1.2l0.6-1.7l0.1-0.1l0.9-1.9l0.1-0.2l0.3-0.7l0,0l0.1-0.2l0.7-1.2l1.1-1.9l0.4-0.7l3.3-4.8l3.2-4.7l0.3-0.5
	l1.6-2.3l0.5-0.7l0.5-0.7l0.1-0.2l0.4-0.6l0,0l5.1-7.4l0.3-0.4l0.2-0.3l0.6-0.8l0.6-0.9l2.8-4.2l0.4-0.6l0.5-0.7l2.2-3.5l0.4-0.7
	l0.1-0.1l0.6-1l0.2-0.4l2.7-4.5l2.3-3.8l0.2-0.4l0.2-0.3l0.1-0.1l1.6-2.7l0.2-0.4l5.3-9l0.8-1.4l0.5-0.9l0.3-0.6l0.2-0.3l0.2-0.3
	l3.1-5.5l0.6-1l2.9-5.4l0.3-0.5l0.3-0.6l0.2-0.3l0.2-0.3l0,0l0.2-0.4l0.9-1.7l2.5-4.9l0,0l0.1-0.3l0.1-0.3l1-2l0.8-1.6l0-0.1
	l0.6-1.3l3.9-8.3l0.5-1l0-0.1l0.2-0.4l0-0.1l0.6-1.2l0.9-1.9l1-2.3l0.3-0.6l0.2-0.5l0.3-0.7l1.1-2.6l0.4-0.8l1.2-2.8l0.1-0.3
	l0.8-1.9l0.3-0.6l2.2-5.6l0.3-0.9l0.6-1.5l0.8-2l0.3-0.8l0.6-1.7l1.8-4.9l0.2-0.5l0.4-1.1l1.2-3.5l0.2-0.4l0-0.1l0.1-0.4l0,0
	l2.4-6.8l0.7-2l0.9-2.7l2.3-7.1l0.4-1.4l1.2-4l1.4-4.8l0.6-1.9l0.2-0.8l0.1-0.5l1.2-4.5l0.3-1l0.9-3.3l0.1-0.3l0.3-1.1l0.2-1
	l0.2-1.1l1.2-4.9l1.5-6.3l0.1-0.3l0-0.1l0.7-3.2l0.5-2.6l0.1-0.5l0.4-2.2l0.7-3.3l0.2-1.1l1-5.5l1.1-5.9l0.2-0.9l0-0.1l0.2-0.9
	l0.5-3.1l0.1-0.7l0.1-0.8l0-0.1l0.2-1.5l0.9-5.6l0.8-5.2l0-0.3l0.2-1.2l1.3-9.4l0.2-1.5l0.1-0.5l1-8.6l0.2-1.4l0.2-2.1l0-0.3
	l0.7-7.3l0.1-0.9l0.3-4.3l0.2-3l0,0l0.2-2.9l0.1-0.8l0.1-1.2l0-0.9l0-2.4l0-1.1l0-0.1l0-1.3l0-2.3l0-0.4l0-3.5l0,0l0-0.7l-0.2-4l0,0
	l0-0.2l0-0.7l0-0.4l0-0.3l0-0.3l-0.1-2l-0.1-0.6l-0.1-0.6l-0.5-5.7l-0.1-0.6l-0.1-1.4l-0.3-3l-0.3-2.4l-0.4-3.4l-0.4-2.9l-0.1-0.7
	l0-0.2l-0.1-0.5l-0.1-0.5l-1.5-7.6l-0.1-0.5l0-0.1l-0.8-3.2l0,0l0-0.1l-0.2-0.8l-0.2-0.6l-0.4-1.3l-0.6-2l-0.8-2.8l-0.1-0.3
	l-0.1-0.3l-0.2-0.5l-0.1-0.4l-0.1-0.4l-1-3.1l-0.1-0.4l-1-2.9L415,267l-0.9-2.4l-0.1-0.4l-0.1-0.3l-0.2-0.5l-0.5-1.2l-0.8-1.9l0-0.1
	l-0.1-0.2l-0.1-0.2l-0.4-0.8l-0.3-0.7l-0.5-1l-0.7-1.5l-1.2-2.5l-0.3-0.5l-0.3-0.6l-1.7-3.3l-1.1-2l-0.6-1.2l-1.5-2.7l-0.6-1.1
	l-2.8-4.9l-0.3-0.5l-0.1-0.2l-0.2-0.3l-0.2-0.3l-1.6-2.6l-1-1.7l-0.2-0.3l-0.1-0.2l-0.1-0.2l-0.1-0.1l-0.2-0.3l0,0l-0.2-0.2
	l-6.2-9.5l-0.2-0.3l-0.2-0.3l-0.2-0.2l-0.8-1.1l-0.9-1.3l-0.6-0.9l-0.2-0.3l-1.3-1.9l-1.1-1.6l-1.3-1.8l0,0l-0.7-0.9l-1.3-1.7
	l-2.2-2.9l-0.8-1l-2.8-3.6l-1-1.2l-0.6-0.8l-3.1-3.7l-6.3-7.5l-1.3-1.6l-2.5-2.8l-0.9-1.1l-0.8-0.9l-1.5-1.7l-1-1.1l-2.8-2.9
	l-0.8-0.8l-2.3-2.3l-2.1-2.1l-0.6-0.6l-0.2-0.2L347,169l-2.9-2.8l-5-4.5l-0.9-0.8l0,0l-2.9-2.5l-0.1-0.1l-0.9-0.8l-0.1-0.1l-0.3-0.3
	l-1.7-1.5l-2.8-2.2l-1.3-1l-0.1-0.1l-0.6-0.4l-0.3-0.2l-5.2-3.9l-1.9-1.3l-1.1-0.8l-3.1-2.1l-1.1-0.8l-0.6-0.4l-0.2-0.1l-0.6-0.4
	l-3.7-2.3l-1.1-0.6l-0.2-0.1l-1.5-0.9l-2.5-1.4l-5.9-3.3l-1.2-0.7l-0.8-0.4l-3-1.5l-0.5-0.2l0,0l-0.1,0l-0.1-0.1l-4.3-2.1l-0.2-0.1
	l-0.5-0.2l-0.2-0.1l-0.4-0.2l-6-2.7l-3.4-1.5l-0.2-0.1l0,0l-0.1,0l-3.7-1.6l-1-0.4l-0.2-0.1l-0.2-0.1l-0.1,0l-0.7-0.3l-2-0.8
	l-1.3-0.5l-4.5-1.7l-1.5-0.6l-0.6-0.2l-3.7-1.3l-1.2-0.4l-0.7-0.2l-0.2-0.1l-6.6-2.1l-0.1,0l-0.2-0.1l-1.9-0.5l-0.7-0.2l-0.9-0.3
	l-2.5-0.7l0,0l-0.3-0.1l-4.5-1.1l-1.7-0.4l0,0l-1.6-0.3l-1.7-0.4l-2.6-0.6l-0.1,0l-0.3-0.1l-0.4-0.1l-0.3-0.1l-2.4-0.4l-3.3-0.6
	l-0.5-0.1l-0.6-0.1l-2.8-0.4l-0.4-0.1l-0.4-0.1l-0.1,0l-6.6-0.8l-0.3,0l-0.3,0l-0.5-0.1l-5-0.5l-0.7-0.1l-0.3,0l0,0l-0.1,0l-5-0.3
	l-1-0.1l-0.6,0l-0.5,0l-9.4-0.1l-2,0l-0.4,0l-0.7,0l-1,0l-1.1,0l-4.5,0.2l-0.7,0l-0.7,0l-0.5,0l-2.6,0.2l-2.1,0.1l-0.5,0l-3.9,0.4
	l-1.4,0.1l-0.1,0l-0.9,0.1l-3.1,0.3l0,0l-0.1,0l0,0l-0.1,0l-5.7,0.8l-0.1,0l-0.4,0l-0.4,0.1l-0.1,0l0,0l-1.6,0.3l-5.3,1l-1.5,0.3
	l-0.3,0.1l-0.2,0l-0.4,0.1l-1.3,0.3l-2.6,0.6l-2.5,0.6l-1.4,0.3l-1.1,0.3l-3.9,1l-1.6,0.4l-0.1,0l-0.7,0.2l-0.2,0l-2.6,0.7l-2.2,0.6
	l-2.5,0.8l-3.7,1.2l-0.6,0.2l-2.4,0.8l-1.4,0.5l-2.9,1.1l-4.3,1.7l-0.5,0.2l-0.8,0.3l-1.1,0.4l-0.9,0.4l-0.5,0.2l-0.5,0.2l-0.8,0.4
	l-0.7,0.3l-6.2,2.7l-5,2.2l-0.6,0.3l-1,0.5l-0.7,0.3l-4.2,2.1l-2.9,1.4l-0.7,0.3l0,0l-0.2,0.1l-0.1,0.1l-0.4,0.2l-1.3,0.7l-3.8,2.1
	l-0.4,0.2l-1,0.6l-0.8,0.4l-2.8,1.6l-0.7,0.4l-3.4,2.1l-3.6,2.3l-1.1,0.7l-0.1,0.1l-2.9,2l-3.6,2.5l-0.7,0.5l-1.2,0.9l-3,2.3
	l-0.6,0.4l-4.6,3.7l-0.7,0.5l-0.4,0.3l-1.5,1.3l-3.7,3.2l-0.6,0.5l-0.1,0.1l-0.8,0.7l-0.9,0.9l-4.2,3.8l-0.5,0.5l-4.5,4.4l-0.2,0.2
	l-0.1,0.1l-0.2,0.2l-0.6,0.6l-4.8,5l-0.9,1l-3.5,3.9l-0.3,0.3l-0.7,0.8l-7.7,9.1l-1.5,1.8l-3,3.7l-2.6,3.3l-0.8,1l-2.7,3.4l-0.9,1.2
	l-0.2,0.3l-0.2,0.2l-4.8,6.7l-0.1,0.1l-0.6,0.8l-2.5,3.6l-0.2,0.4l-0.6,0.9l0,0.1l-0.2,0.3l-0.1,0.2l-0.3,0.5l0,0l0,0.1l-0.2,0.3
	l0,0.1l-5.6,8.6l-0.1,0.1l-0.1,0.1l-0.2,0.3l-0.2,0.4l-0.5,0.7l-0.5,0.9l-0.5,0.8l-0.9,1.5l-0.3,0.5l-2.3,3.9l0,0l-2.7,4.9l-0.2,0.4
	l0,0l-0.2,0.4l0,0l-2.1,3.9l-0.2,0.5l0,0l-0.2,0.5l-0.4,0.7l-0.5,1l-2.4,4.7l-0.3,0.6l-0.1,0.3l-0.1,0.3l-1.9,4.5l-0.3,0.7l-0.1,0.3
	l-1,2.6l-0.1,0.3l0,0l0,0l0,0.1l-0.1,0.3l0,0l-0.1,0.2l0,0.1l-0.5,1.6l-0.6,1.8l-0.3,0.9l-0.1,0.3l-1.4,4.5l-0.6,1.9l-0.1,0.3
	l-0.1,0.5l-1,3.7l-0.1,0.4l0,0.1l0,0.1l-0.2,0.6l-0.1,0.2l-0.1,0.2l-0.8,3.2l-0.1,0.4l-0.1,0.4l-1,5.2l-0.1,0.4l-0.1,0.5l-0.2,1.5
	l-0.5,3.2l-0.1,0.7l0,0.3l0,0.2l-0.3,2.3l-0.3,1.9l-0.3,2.7l-0.1,1.1l0,0.1l-0.3,3.3l-0.1,0.7l-0.3,3.3l-0.1,1.1l-0.1,0.6l-0.2,3
	l0,0.4l-0.1,2.2l-0.1,2.6l0,1.4l0,5.6l0,0.3l0,0.4l0,1.1l0,0.6l0.1,1.4l0.1,1.4l0.3,7.2l0.1,0.8l0,0.1l0.6,7.6l0.2,1.8l0.3,3
	l0.3,3.2l0.1,0.7l1,8.6l0.1,0.6l0.2,1.4l0.1,0.8l0.2,1.4l1.1,8.3l0.2,1.7l0.6,3.8l0,0.3l0.4,2.2l0.8,4.5l0.8,5l0.1,0.7l1.3,6.8
	l0.1,0.3l0.4,2.2l0.1,0.7l1.6,8.2l0.1,0.7l0.1,0.5l0,0.2l1.3,5.7l0.1,0.5l0,0.2l0.3,1.3l0.8,3.4l0.3,1.2l0.8,3.3l0,0l0.3,1.1
	l0.4,1.6l0.7,2.6l0.8,2.8l0.3,1.1l0.4,1.5l0.7,2.6l0.3,1.3l2.1,7.1l1.9,6.5l0.1,0.3l0.4,1.2l0.1,0.3l0.2,0.8l0.5,1.6l0.3,0.8l0.3,1
	l3.8,11.2l0.5,1.3l0.1,0.4l0.4,1.1l0.3,1l0.6,1.7l0.2,0.5l0.9,2.4l2,5.4l1.8,4.7l0.2,0.5l0,0.1l0.2,0.4l0.8,2.1l0,0l0.7,1.8l0.8,1.9
	l0.4,1l1.6,3.8l0.7,1.6l0.1,0.1l1.8,4.1l0.8,1.8l0.5,1.1l0.9,1.9l0.5,1L-2,529l0.6,1.3l0.1,0.2l0.2,0.5l1.4,2.9l1.3,2.7l0.5,1
	l0.2,0.3l0.1,0.2l0.4,0.8l1.8,3.5l0.2,0.4l0.1,0.2l0.5,0.9l0.3,0.6l0.3,0.5l0.8,1.5l0.1,0.2l4.8,8.8l0.5,0.8l0.4,0.7l0.3,0.5
	l0.2,0.4l0.6,1.1l0.3,0.5l0.6,1l0.8,1.3L20,570l0.1,0.2l0.7,1.1l0.1,0.1l3.6,6l1,1.6l0.3,0.4l0.3,0.4l0.7,1.1l0.3,0.4l1.6,2.6l3.8,6
	l1,1.5l3.4,5l0.4,0.6l1.1,1.7l2.2,3.2l4.8,7l3.4,5l3.3,4.8l0.4,0.6l0.5,0.8l0.8,1.3l0.7,1.3l0.1,0.3l0.6,1.2l0.5,1.1l0.6,1.5
	l0.1,0.3l0,0l0,0l0.1,0.2l0.3,0.8l0.1,0.2l0.3,0.8l0,0.1l0.3,1.3l0.3,1.2l0,0.1l0,0.2l0,0.3l0.1,1.4l0,0.1l0,0.4l0,0.4l-0.1,1.4
	l-0.1,0.8l-0.2,1.1l-0.3,1l-0.1,0.5l-0.3,0.7l-0.3,0.9l-0.1,0.2l-0.1,0.2l0,0l-0.5,0.9l-0.1,0.2l-0.3,0.5l-0.2,0.3l0,0l-0.5,0.7
	l-0.3,0.4l0,0.1l-0.3,0.5l-1.1,1.3l0,0l-0.3,0.3l-0.1,0.2l0,0l-0.1,0.1l0,0l-0.6,0.6l-0.6,0.5l-0.5,0.4l0,0l-0.4,0.3l0,0l-0.4,0.3
	l-0.3,0.2l-0.9,0.6l-0.1,0l-0.2,0.1l-0.5,0.3l-0.6,0.3l-0.8,0.3l-0.2,0.1l0,0l-0.3,0.1l-0.1,0.1l-1.8,0.5l-0.7,0.2l-0.1,0l-0.1,0
	l-0.4,0.1l-0.4,0.1l-0.6,0.1l-0.6,0.1l-0.4,0l-0.6,0l-0.4,0l-0.8,0.1l-0.1,0l-0.1,0l-0.2,0l-0.7-0.1l-0.5-0.1l0,0l-0.3-0.1l-0.2,0
	l0,0l-0.3-0.1l-0.5-0.2l-0.5-0.2l-0.8-0.2l0,0l-0.6-0.3l0,0l-0.3-0.2l-0.3-0.2l-0.5-0.3l-0.3-0.2l-0.2-0.2l-0.7-0.5l0,0l-0.2-0.2
	l0,0l-0.3-0.2l-0.2-0.2l-0.3-0.4l-0.1-0.1l-0.5-0.6l-0.2-0.3l-0.6-0.9l-0.1-0.1l0,0l-0.1-0.1l-0.1-0.1l0,0l-0.2-0.3l-0.9-1.6
	l-0.2-0.4l-0.2-0.3l-0.2-0.5l-0.1-0.1l0,0l0,0l-0.2-0.8l-0.1-0.3l-0.1-0.2l-0.1-0.5l0-0.3l0,0l0-0.1l0-0.4l0.2-0.3l0,0l0-0.1l0,0
	l0.3-0.2l1.7-1.3l1.1-0.9l0.6-0.5l0,0l0.5-0.4l0.2-0.1l0.1-0.1l0,0l0.2-0.1l0.2,0l0,0l0,0l0.4,0.1l0.2,0l0.3,0.1l0,0l0.2,0.1
	l0.2,0.1l0.3,0.1l1.1,0.7l1.2,0.8l0.4,0.3l0.9,0.5l0.1,0.1l0,0l0.1,0l0,0l0,0l0.9,0.4l0.2,0.1l0.2,0.1l0.3,0.1l0.4,0.1l0,0l0.4,0.1
	l0.3,0l0.4,0l0,0l0.8-0.1l0.2,0l0.3,0l0.1,0l0.1-0.1l0.5-0.2l0.3-0.1l0.1,0l0,0l0.2-0.1l1.3-1l0,0l0,0l0,0l0.9-1.1l0,0l0,0l0.2-0.3
	l0.2-0.5l0.3-0.8l0-0.2l0.1-0.6l0-0.1l0-0.6l0-0.1l0,0l0-0.2l0-0.1l0-0.1l-0.1-0.8l-0.3-0.9l0,0l-0.2-0.4l-0.2-0.4l0,0l-0.1-0.1
	L45.1,630.8l0.3,0.5l-2.8-1.3"/>
</svg>
