<?xml version="1.0" encoding="utf-8"?>
<!-- Generator: Adobe Illustrator 23.1.1, SVG Export Plug-In . SVG Version: 6.00 Build 0)  -->
<svg version="1.1" id="Layer_1" xmlns="http://www.w3.org/2000/svg" xmlns:xlink="http://www.w3.org/1999/xlink" x="0px" y="0px"
	 viewBox="0 0 612 792" style="enable-background:new 0 0 612 792;" xml:space="preserve">
<style type="text/css">
	.st0{fill:none;stroke:#00AEEF;stroke-miterlimit:10;}
	.st1{fill:none;stroke:#000000;stroke-miterlimit:10;}
</style>
<g>
	<path class="st0" d="M256.6,149.2c0.6-1,1.2-1.8,1.6-2.8c0.6-1.5-0.4-2.7-2-2.6c-2.4,0.1-5.4,2.4-6.1,4.7c-0.5,1.7,0.4,2.9,2.2,2.6
		c1-0.2,1.9-0.5,2.9-0.8c1.1,1.4,2.2,2.9,3.4,4.4c-1.4,1.4-2.8,2.7-4.3,4.1c-3.7-3.1-7.4-6.2-11-9.2c0.3-0.6,0.5-1.1,0.7-1.6
		c0.1-0.2,0-0.5-0.1-0.6c-0.1-0.1-0.5-0.1-0.6,0c-1.5,0.9-2.6,2.2-3.3,3.9c-0.1,0.2,0,0.5,0,0.7c0.3,0,0.5,0,0.7-0.1
		c0.5-0.3,0.9-0.6,1.3-0.9c3.7,3.1,7.4,6.2,11,9.2c-1.1,1.7-2.2,3.3-3.3,4.9c-1.7-0.9-3.4-1.7-4.9-2.6c0.1-0.9,0.3-1.7,0.3-2.6
		c0.1-0.9-0.1-1.8-1-2.2c-0.9-0.4-1.7-0.1-2.4,0.4c-1.9,1.5-3,3.4-3.1,5.8c-0.1,1,0.1,1.9,1,2.4c1,0.5,1.8,0,2.6-0.6
		c0.6-0.5,1.2-0.9,1.9-1.5c1.4,0.7,3,1.6,4.7,2.4c-0.7,1.8-1.4,3.6-2.1,5.5c-4.6-1.2-9.3-2.5-13.9-3.7c0-0.6,0-1.1,0-1.6
		c0-0.2-0.2-0.4-0.3-0.7c-0.2,0.1-0.5,0.2-0.6,0.4c-1,1.4-1.4,3.1-1.3,4.8c0,0.2,0.2,0.4,0.4,0.6c0.2-0.1,0.5-0.2,0.6-0.4
		c0.3-0.4,0.5-0.9,0.8-1.4c4.6,1.2,9.3,2.5,13.9,3.7c-0.3,2-0.6,3.9-0.9,5.8c-1.9-0.1-3.8-0.2-5.6-0.2c-0.2-0.9-0.4-1.7-0.7-2.4
		c-0.3-0.8-0.9-1.6-1.9-1.7c-1,0-1.6,0.7-2,1.5c-0.7,1.2-0.9,2.6-0.8,4c0,1.3,0.3,2.5,1.1,3.5c0.8,1.1,2,1.2,2.9,0.2
		c0.4-0.5,0.7-1.2,1-1.8c0.2-0.4,0.3-0.9,0.4-1.4c1.9,0.1,3.8,0.2,5.7,0.3c0.1,2,0.3,3.9,0.4,5.8c-0.1,0-0.1,0-0.2,0.1
		c-4.6,0.8-9.1,1.6-13.7,2.4c-0.1,0-0.3-0.2-0.4-0.3c-0.2-0.4-0.3-0.8-0.6-1.2c-0.1-0.2-0.4-0.4-0.5-0.4c-0.2,0.1-0.4,0.3-0.4,0.5
		c-0.3,1.8,0,3.4,0.9,5c0.1,0.2,0.4,0.4,0.6,0.4c0.2,0,0.4-0.3,0.4-0.5c0.1-0.5,0.1-1.1,0.2-1.6c4.7-0.8,9.4-1.7,14.1-2.5
		c0.6,1.9,1.1,3.8,1.7,5.7c-1.7,0.7-3.5,1.4-5.2,2.2c-0.4-0.5-0.6-0.9-1-1.3c-0.4-0.4-0.8-0.8-1.2-1c-1.4-0.8-2.6-0.3-2.9,1.2
		c-0.1,0.8-0.1,1.6,0,2.4c0.4,1.9,1.2,3.6,2.8,4.7c1.5,1.1,3,0.4,3.2-1.4c0.1-0.9,0-1.9-0.1-2.9c1.6-0.7,3.4-1.4,5.1-2.1
		c1,1.7,1.9,3.4,2.8,5.2c-3.9,2.7-7.9,5.5-11.8,8.2c-0.5-0.4-0.8-0.7-1.2-1c-0.2-0.1-0.5-0.1-0.7-0.1c0,0.2-0.1,0.5-0.1,0.7
		c0.5,1.7,1.4,3,2.8,4c0.2,0.1,0.5,0.1,0.8,0.2c0-0.3,0.2-0.6,0.1-0.8c-0.1-0.5-0.3-0.9-0.5-1.4c3.9-2.8,7.9-5.5,11.8-8.2
		c1.3,1.5,2.6,2.9,3.9,4.4c-1.3,1.4-2.6,2.8-3.8,4.2c-0.3-0.2-0.6-0.4-0.8-0.5c-0.7-0.3-1.4-0.6-2.1-0.7c-1.5-0.3-2.4,0.7-2.2,2.2
		c0.1,0.5,0.2,0.9,0.4,1.3c0.9,1.7,2.3,3,4,3.8c0.5,0.2,1.2,0.3,1.8,0.4c1.1,0,1.8-0.7,1.8-1.8c0-0.5-0.1-1-0.3-1.4
		c-0.3-0.7-0.8-1.3-1.2-2.1c1.3-1.4,2.5-2.8,3.8-4.1c1.6,1.2,3.2,2.3,4.7,3.5c0,0,0,0.1,0,0.1c-2.3,4-4.6,8-6.9,12
		c-0.2,0.3-0.3,0.3-0.6,0.2c-0.4-0.1-0.8-0.3-1.2-0.3c-0.2,0-0.6,0-0.6,0.2c-0.1,0.2,0,0.5,0.1,0.7c1.1,1.3,2.6,2.2,4.3,2.5
		c0.2,0,0.5-0.1,0.8-0.2c-0.1-0.3-0.1-0.6-0.3-0.8c-0.3-0.4-0.7-0.8-1-1.2c2.4-4.1,4.8-8.2,7.1-12.3c2.4,1,4.6,1.9,7,2.9
		c-0.5,1.8-0.9,3.6-1.4,5.4c-1.6-0.1-2.6,0-3.4,0.4c-1.2,0.6-1.5,1.7-0.8,2.7c0.2,0.3,0.5,0.7,0.8,0.9c1.7,1.3,3.6,1.8,5.7,1.6
		c0.6-0.1,1.2-0.3,1.8-0.5c0.9-0.5,1.2-1.4,0.7-2.3c-0.2-0.4-0.5-0.8-0.9-1.1c-0.5-0.4-1.2-0.7-1.7-1.1c-0.1-0.1-0.3-0.3-0.3-0.4
		c0.4-1.8,0.9-3.5,1.4-5.2c2.5,0.3,4.9,0.6,7.3,0.9c0,4.7,0,9.5,0,14.3c-0.6,0.2-1.2,0.3-1.8,0.6c-0.4,0.2-0.4,0.5,0,0.8
		c1,0.7,4.6,0.7,5.5,0c0.4-0.3,0.4-0.5,0-0.8c-0.3-0.2-0.7-0.4-1.1-0.4c-0.6,0-0.6-0.3-0.6-0.8c0-4.4,0-8.7,0-13.1
		c0-0.2,0-0.4,0-0.6c1.9-0.2,3.8-0.4,5.7-0.6c0.4,1.7,0.8,3.4,1.2,5.2c0.1,0.3-0.1,0.4-0.4,0.6c-0.8,0.5-1.7,0.9-2.3,1.5
		c-1.1,1.1-0.8,2.4,0.7,3.1c0.2,0.1,0.4,0.2,0.6,0.2c1,0.3,2.1,0.3,3.2,0.1c1.5-0.3,2.9-0.8,4-2c1.1-1.2,0.8-2.6-0.7-3.2
		c-0.8-0.3-1.8-0.3-2.7-0.4c-0.3,0-0.5-0.1-0.5-0.4c-0.2-1-0.4-2-0.6-2.9c-0.2-0.8-0.3-1.5-0.5-2.2c1.9-0.6,3.7-1.3,5.6-1.9
		c2,4.3,4.1,8.7,6.1,13c-0.5,0.4-0.9,0.7-1.3,1.1c-0.1,0.1-0.2,0.5-0.2,0.6c0,0.1,0.4,0.3,0.6,0.2c1.8-0.2,3.4-0.9,4.6-2.2
		c0.1-0.1,0.3-0.5,0.2-0.6c-0.1-0.2-0.4-0.3-0.6-0.3c-0.5,0-1.1,0.2-1.7,0.3c-2-4.3-4.1-8.7-6.1-13c1.7-1,3.4-2,5-3
		c0.1,0.1,0.1,0.1,0.2,0.2c1.1,1.4,2.2,2.8,3.3,4.3c-0.2,0.2-0.4,0.4-0.5,0.6c-0.4,0.7-1,1.4-1.2,2.2c-0.5,1.4,0.3,2.4,1.8,2.4
		c0.2,0,0.3,0,0.5,0c2.6-0.5,4.5-1.9,5.7-4.3c0.1-0.3,0.2-0.6,0.3-1c0.2-1-0.5-1.8-1.5-2c-0.5-0.1-1-0.1-1.5,0.1
		c-0.7,0.2-1.5,0.5-2.2,0.8c-1.1-1.5-2.3-3-3.4-4.4c1.5-1.4,2.8-2.7,4.3-4.1c3.7,3.1,7.4,6.2,11,9.2c-0.2,0.5-0.5,0.9-0.7,1.4
		c-0.1,0.2,0,0.5,0,0.8c0.2,0,0.5,0,0.7-0.1c1.5-0.9,2.6-2.2,3.2-3.8c0.1-0.2,0-0.5,0-0.7c-0.3,0-0.5,0-0.7,0.1
		c-0.5,0.3-0.9,0.6-1.3,0.9c-3.7-3.1-7.4-6.2-11-9.2c1.1-1.7,2.2-3.3,3.3-4.9c1.7,0.9,3.3,1.7,4.9,2.5c-0.1,1-0.3,2-0.3,2.9
		c0,1.8,1.4,2.6,3,1.7c0.3-0.2,0.7-0.4,1-0.7c1.2-1.1,2-2.5,2.4-4.1c0.2-0.8,0.2-1.6,0.1-2.4c-0.2-1.2-1.2-1.8-2.3-1.4
		c-0.6,0.2-1.2,0.7-1.7,1.1c-0.4,0.3-0.7,0.8-1.1,1.2c-1.7-0.9-3.3-1.7-5-2.6c0.7-1.8,1.4-3.6,2.1-5.5c4.6,1.2,9.2,2.5,13.8,3.7
		c0,0.6,0,1,0,1.5c0,0.3,0.2,0.5,0.4,0.8c0.2-0.1,0.5-0.2,0.7-0.4c0.8-1.1,1.1-2.4,1.2-3.7c0-0.4,0-0.9,0-1.3
		c-0.1-0.4-0.4-0.6-0.7-0.2c-0.3,0.3-0.5,0.7-0.7,1.1c-0.2,0.4-0.4,0.5-0.8,0.4c-3.6-1-7.3-1.9-10.9-2.9c-0.8-0.2-1.7-0.5-2.5-0.7
		c0.3-2,0.6-3.9,0.9-5.8c1.7,0.1,3.5,0.2,5.2,0.2c0.4,0,0.5,0.2,0.6,0.6c0.1,1.1,0.4,2.2,1.3,3c0.7,0.7,1.5,0.7,2.2,0.2
		c0.3-0.3,0.6-0.6,0.9-1c0.6-0.9,0.8-1.9,0.9-3c0.1-1.5,0-3-0.9-4.4c-0.9-1.4-2.3-1.4-3.2-0.1c-0.4,0.6-0.7,1.3-1,2
		c-0.1,0.3-0.2,0.6-0.2,0.9c-1.6-0.1-3.1-0.1-4.6-0.2c-1.1,0-1.1,0-1.1-1.1c0-0.1,0-0.3,0-0.4c-0.1-1.5-0.2-2.9-0.3-4.5
		c4.7-0.8,9.4-1.7,14.1-2.5c0.2,0.5,0.4,1,0.7,1.4c0.1,0.2,0.4,0.3,0.6,0.5c0.2-0.2,0.4-0.4,0.4-0.7c0.2-1.7,0-3.3-0.9-4.8
		c-0.1-0.2-0.4-0.3-0.6-0.5c-0.2,0.2-0.4,0.4-0.4,0.7c-0.1,0.5-0.1,1-0.1,1.6c-4.7,0.8-9.4,1.7-14.1,2.5c-0.6-1.9-1.1-3.8-1.7-5.7
		c0.9-0.4,1.7-0.7,2.6-1.1c0.9-0.4,1.7-0.7,2.6-1.1c0.1,0.2,0.2,0.4,0.4,0.6c0.6,0.6,1.1,1.3,1.8,1.8c1.2,0.8,2.4,0.3,2.9-1.1
		c0.3-1.1,0.2-2.1-0.1-3.2c-0.5-1.7-1.3-3.2-2.8-4.2c-1.4-0.9-2.7-0.4-3,1.2c-0.1,0.9,0,1.8,0,2.7c0,0.2-0.1,0.5-0.2,0.5
		c-1.6,0.7-3.3,1.4-4.9,2.1c-1-1.7-1.9-3.4-2.8-5.2c0,0,0.1-0.1,0.2-0.2c3.7-2.6,7.5-5.2,11.2-7.8c0.3-0.2,0.5-0.2,0.7,0.1
		c0.3,0.3,0.5,0.5,0.9,0.7c0.2,0.1,0.5,0.1,0.7,0.1c0-0.2,0.1-0.5,0.1-0.7c-0.5-1.7-1.5-3.1-2.9-4.1c-0.2-0.1-0.5-0.2-0.7-0.1
		c-0.1,0.1-0.2,0.5-0.1,0.7c0.1,0.5,0.3,1,0.5,1.5c-3.9,2.7-7.8,5.5-11.7,8.2c-1.3-1.5-2.6-2.9-3.9-4.4c1.3-1.4,2.6-2.8,3.7-4
		c1.1,0.4,2,0.9,3,1.1c1.5,0.3,2.6-0.8,2.3-2.3c0-0.2-0.1-0.3-0.1-0.5c-1-2.5-2.8-4.2-5.5-4.8c-1.7-0.4-2.8,0.7-2.3,2.4
		c0.2,0.7,0.5,1.3,0.9,1.9c0.1,0.3,0.4,0.5,0.6,0.8c-1.3,1.4-2.6,2.8-3.8,4.2c-1.6-1.2-3.2-2.3-4.8-3.5c2.4-4.1,4.8-8.3,7.2-12.4
		c0.6,0.2,1.1,0.3,1.6,0.4c0.2,0,0.5-0.1,0.6-0.2c0.1-0.1,0-0.5-0.1-0.6c-1.2-1.4-2.7-2.2-4.4-2.6c-0.2,0-0.6,0-0.6,0.2
		c-0.1,0.2,0,0.5,0.1,0.7c0.3,0.4,0.7,0.8,1.1,1.3c-2.4,4.1-4.8,8.3-7.1,12.3c-2.4-1-4.7-1.9-7-2.9c0.5-1.8,0.9-3.6,1.4-5.3
		c1-0.1,1.9-0.1,2.7-0.2c0.8-0.1,1.6-0.5,1.8-1.4c0.2-0.9-0.3-1.6-0.9-2.3c-0.1-0.1-0.2-0.2-0.3-0.3c-1.3-1-2.9-1.6-4.5-1.6
		c-0.9,0-1.8,0.1-2.6,0.5c-1.2,0.4-1.5,1.6-0.7,2.6c0.4,0.6,1,1,1.5,1.4c0.4,0.3,0.8,0.5,1.3,0.7c-0.5,1.8-1,3.7-1.4,5.4
		c-2.4-0.3-4.7-0.6-7.1-0.9c0-0.2,0-0.4,0-0.6c0-4.2,0-8.5,0-12.7c0-1,0-1,0.9-1.2c0.1,0,0.3-0.1,0.4-0.1c0.2-0.2,0.4-0.4,0.7-0.6
		c-0.2-0.2-0.4-0.5-0.6-0.6c-1.1-0.4-2.2-0.4-3.3-0.3c-0.6,0.1-1.1,0.2-1.7,0.4c-0.2,0.1-0.4,0.3-0.4,0.4c0,0.2,0.3,0.4,0.4,0.5
		c0.3,0.2,0.7,0.3,1,0.3c0.5,0,0.6,0.2,0.6,0.7c0,4.4,0,8.9,0,13.3c0,0.2,0,0.4,0,0.5c-2,0.2-3.9,0.4-5.9,0.6
		c-0.4-1.8-0.8-3.7-1.2-5.4c0.9-0.6,1.8-1,2.5-1.7c1.4-1.3,1-2.7-0.8-3.4c-1.1-0.4-2.3-0.4-3.4-0.2c-1.6,0.3-3.1,0.8-4.1,2.2
		c-0.9,1.1-0.6,2.2,0.6,2.9c0.3,0.1,0.6,0.3,0.8,0.3c0.8,0.1,1.6,0.2,2.5,0.3c0.4,1.8,0.8,3.6,1.2,5.4c-1.9,0.6-3.7,1.3-5.6,1.9
		c-2-4.3-4-8.7-6.1-13c0.5-0.4,1-0.8,1.3-1.2c0.4-0.4,0.2-0.7-0.4-0.8c-0.1,0-0.3,0-0.5,0c-1.4,0.2-2.6,0.8-3.7,1.6
		c-0.3,0.2-0.5,0.4-0.7,0.7c-0.1,0.1-0.2,0.4-0.1,0.5c0.1,0.1,0.3,0.3,0.5,0.3c0.6,0,1.2-0.2,1.8-0.2c2,4.3,4,8.7,6.1,13
		c-1.7,1-3.4,2-5,3.1C258.8,152,257.7,150.5,256.6,149.2z"/>
	<path class="st0" d="M256.6,149.2c1.1,1.4,2.2,2.9,3.3,4.3c1.7-1,3.3-2,5-3.1c-2-4.3-4-8.7-6.1-13c-0.6,0.1-1.2,0.2-1.8,0.2
		c-0.2,0-0.4-0.1-0.5-0.3c-0.1-0.1,0-0.4,0.1-0.5c0.2-0.3,0.4-0.5,0.7-0.7c1.1-0.8,2.3-1.4,3.7-1.6c0.1,0,0.3,0,0.5,0
		c0.6,0.1,0.7,0.4,0.4,0.8c-0.4,0.4-0.8,0.8-1.3,1.2c2,4.3,4,8.7,6.1,13c1.9-0.6,3.7-1.3,5.6-1.9c-0.4-1.8-0.8-3.6-1.2-5.4
		c-0.9-0.1-1.7-0.2-2.5-0.3c-0.3,0-0.6-0.2-0.8-0.3c-1.2-0.6-1.5-1.8-0.6-2.9c1.1-1.3,2.5-1.9,4.1-2.2c1.2-0.2,2.3-0.2,3.4,0.2
		c1.7,0.6,2.1,2.1,0.8,3.4c-0.7,0.7-1.6,1.1-2.5,1.7c0.4,1.7,0.8,3.6,1.2,5.4c2-0.2,3.9-0.4,5.9-0.6c0-0.1,0-0.3,0-0.5
		c0-4.4,0-8.9,0-13.3c0-0.5-0.1-0.7-0.6-0.7c-0.3,0-0.7-0.1-1-0.3c-0.2-0.1-0.4-0.3-0.4-0.5c0-0.1,0.2-0.4,0.4-0.4
		c0.5-0.2,1.1-0.3,1.7-0.4c1.1-0.1,2.2-0.1,3.3,0.3c0.2,0.1,0.4,0.4,0.6,0.6c-0.2,0.2-0.4,0.4-0.7,0.6c-0.1,0.1-0.3,0.1-0.4,0.1
		c-0.9,0.2-0.9,0.2-0.9,1.2c0,4.2,0,8.5,0,12.7c0,0.2,0,0.4,0,0.6c2.4,0.3,4.7,0.6,7.1,0.9c0.5-1.8,1-3.6,1.4-5.4
		c-0.5-0.3-0.9-0.4-1.3-0.7c-0.5-0.4-1.1-0.9-1.5-1.4c-0.7-1-0.4-2.2,0.7-2.6c0.8-0.3,1.7-0.5,2.6-0.5c1.7,0,3.2,0.6,4.5,1.6
		c0.1,0.1,0.2,0.2,0.3,0.3c0.6,0.6,1.2,1.3,0.9,2.3c-0.2,0.9-1,1.3-1.8,1.4c-0.9,0.2-1.8,0.2-2.7,0.2c-0.5,1.7-0.9,3.6-1.4,5.3
		c2.4,1,4.6,1.9,7,2.9c2.3-4.1,4.7-8.2,7.1-12.3c-0.4-0.4-0.8-0.8-1.1-1.3c-0.1-0.2-0.2-0.5-0.1-0.7c0-0.1,0.4-0.2,0.6-0.2
		c1.8,0.3,3.3,1.2,4.4,2.6c0.1,0.1,0.2,0.5,0.1,0.6c-0.1,0.1-0.4,0.2-0.6,0.2c-0.5-0.1-1-0.3-1.6-0.4c-2.4,4.1-4.8,8.3-7.2,12.4
		c1.6,1.2,3.2,2.3,4.8,3.5c1.2-1.4,2.5-2.8,3.8-4.2c-0.2-0.3-0.4-0.5-0.6-0.8c-0.3-0.6-0.7-1.2-0.9-1.9c-0.5-1.7,0.6-2.8,2.3-2.4
		c2.7,0.6,4.5,2.3,5.5,4.8c0.1,0.2,0.1,0.3,0.1,0.5c0.3,1.5-0.7,2.6-2.3,2.3c-1-0.2-1.9-0.7-3-1.1c-1.2,1.3-2.4,2.7-3.7,4
		c1.3,1.5,2.6,2.9,3.9,4.4c3.9-2.7,7.8-5.5,11.7-8.2c-0.2-0.6-0.4-1-0.5-1.5c-0.1-0.2,0-0.6,0.1-0.7c0.1-0.1,0.5,0,0.7,0.1
		c1.4,1,2.4,2.4,2.9,4.1c0.1,0.2-0.1,0.5-0.1,0.7c-0.2,0-0.5,0-0.7-0.1c-0.3-0.2-0.6-0.4-0.9-0.7c-0.2-0.2-0.4-0.3-0.7-0.1
		c-3.7,2.6-7.5,5.2-11.2,7.8c-0.1,0.1-0.2,0.1-0.2,0.2c0.9,1.7,1.9,3.4,2.8,5.2c1.6-0.7,3.3-1.4,4.9-2.1c0.1-0.1,0.2-0.3,0.2-0.5
		c0-0.9-0.2-1.8,0-2.7c0.3-1.6,1.6-2.1,3-1.2c1.5,1,2.3,2.5,2.8,4.2c0.3,1,0.4,2.1,0.1,3.2c-0.4,1.4-1.6,2-2.9,1.1
		c-0.7-0.5-1.2-1.2-1.8-1.8c-0.1-0.1-0.2-0.3-0.4-0.6c-0.9,0.4-1.8,0.7-2.6,1.1c-0.9,0.4-1.7,0.7-2.6,1.1c0.6,1.9,1.1,3.8,1.7,5.7
		c4.7-0.8,9.4-1.7,14.1-2.5c0-0.6,0-1.1,0.1-1.6c0-0.2,0.3-0.4,0.4-0.7c0.2,0.2,0.5,0.3,0.6,0.5c0.8,1.5,1.1,3.1,0.9,4.8
		c0,0.2-0.3,0.4-0.4,0.7c-0.2-0.2-0.5-0.3-0.6-0.5c-0.3-0.4-0.4-0.9-0.7-1.4c-4.7,0.8-9.4,1.7-14.1,2.5c0.1,1.5,0.2,3,0.3,4.5
		c0,0.1,0,0.3,0,0.4c0,1.1,0,1,1.1,1.1c1.5,0.1,3,0.1,4.6,0.2c0.1-0.3,0.1-0.6,0.2-0.9c0.3-0.7,0.6-1.4,1-2c0.9-1.3,2.4-1.2,3.2,0.1
		c0.8,1.3,1,2.8,0.9,4.4c-0.1,1.1-0.3,2.1-0.9,3c-0.2,0.4-0.5,0.7-0.9,1c-0.7,0.6-1.5,0.5-2.2-0.2c-0.9-0.8-1.2-1.9-1.3-3
		c0-0.4-0.1-0.5-0.6-0.6c-1.7-0.1-3.4-0.1-5.2-0.2c-0.3,2-0.6,3.9-0.9,5.8c0.8,0.2,1.6,0.5,2.5,0.7c3.6,1,7.3,1.9,10.9,2.9
		c0.4,0.1,0.6,0,0.8-0.4c0.2-0.4,0.4-0.8,0.7-1.1c0.3-0.3,0.7-0.2,0.7,0.2c0.1,0.4,0.1,0.9,0,1.3c-0.1,1.3-0.5,2.6-1.2,3.7
		c-0.1,0.2-0.4,0.3-0.7,0.4c-0.1-0.3-0.3-0.5-0.4-0.8c-0.1-0.5,0-0.9,0-1.5c-4.6-1.2-9.2-2.5-13.8-3.7c-0.7,1.9-1.4,3.7-2.1,5.5
		c1.7,0.9,3.3,1.7,5,2.6c0.4-0.4,0.7-0.9,1.1-1.2c0.5-0.4,1.1-0.9,1.7-1.1c1.1-0.4,2.2,0.2,2.3,1.4c0.1,0.8,0.1,1.6-0.1,2.4
		c-0.3,1.6-1.2,3-2.4,4.1c-0.3,0.3-0.6,0.5-1,0.7c-1.6,0.9-3,0.1-3-1.7c0-0.9,0.2-1.9,0.3-2.9c-1.6-0.8-3.2-1.7-4.9-2.5
		c-1.1,1.6-2.2,3.2-3.3,4.9c3.6,3,7.3,6.1,11,9.2c0.5-0.3,0.9-0.7,1.3-0.9c0.2-0.1,0.5-0.1,0.7-0.1c0,0.2,0.1,0.5,0,0.7
		c-0.6,1.6-1.7,2.9-3.2,3.8c-0.2,0.1-0.5,0.1-0.7,0.1c0-0.3-0.1-0.6,0-0.8c0.2-0.5,0.4-0.9,0.7-1.4c-3.7-3.1-7.3-6.2-11-9.2
		c-1.4,1.4-2.8,2.7-4.3,4.1c1.1,1.5,2.3,3,3.4,4.4c0.8-0.3,1.5-0.6,2.2-0.8c0.5-0.1,1-0.1,1.5-0.1c1,0.1,1.6,1,1.5,2
		c-0.1,0.3-0.1,0.7-0.3,1c-1.2,2.4-3.1,3.8-5.7,4.3c-0.2,0-0.3,0-0.5,0c-1.5,0-2.3-1.1-1.8-2.4c0.3-0.8,0.8-1.5,1.2-2.2
		c0.1-0.2,0.3-0.4,0.5-0.6c-1.1-1.4-2.2-2.8-3.3-4.3c-0.1-0.1-0.1-0.2-0.2-0.2c-1.7,1-3.3,2-5,3c2,4.3,4,8.7,6.1,13
		c0.6-0.1,1.1-0.2,1.7-0.3c0.2,0,0.5,0.1,0.6,0.3c0.1,0.1-0.1,0.5-0.2,0.6c-1.3,1.3-2.9,2-4.6,2.2c-0.2,0-0.5-0.1-0.6-0.2
		c-0.1-0.2,0-0.5,0.2-0.6c0.4-0.4,0.8-0.7,1.3-1.1c-2-4.3-4-8.7-6.1-13c-1.9,0.6-3.7,1.2-5.6,1.9c0.2,0.7,0.3,1.4,0.5,2.2
		c0.2,1,0.5,2,0.6,2.9c0.1,0.3,0.2,0.4,0.5,0.4c0.9,0.1,1.8,0.1,2.7,0.4c1.6,0.6,1.8,1.9,0.7,3.2c-1.1,1.2-2.5,1.7-4,2
		c-1.1,0.2-2.1,0.2-3.2-0.1c-0.2-0.1-0.4-0.1-0.6-0.2c-1.4-0.7-1.8-2-0.7-3.1c0.6-0.6,1.5-1.1,2.3-1.5c0.3-0.2,0.4-0.2,0.4-0.6
		c-0.4-1.7-0.8-3.4-1.2-5.2c-1.9,0.2-3.8,0.4-5.7,0.6c0,0.2,0,0.4,0,0.6c0,4.4,0,8.7,0,13.1c0,0.5,0,0.8,0.6,0.8
		c0.4,0,0.8,0.2,1.1,0.4c0.4,0.2,0.4,0.5,0,0.8c-1,0.7-4.6,0.7-5.5,0c-0.4-0.3-0.4-0.6,0-0.8c0.5-0.2,1.1-0.4,1.8-0.6
		c0-4.8,0-9.6,0-14.3c-2.4-0.3-4.8-0.6-7.3-0.9c-0.4,1.7-0.9,3.4-1.4,5.2c0,0.1,0.1,0.3,0.3,0.4c0.6,0.4,1.2,0.7,1.7,1.1
		c0.4,0.3,0.7,0.7,0.9,1.1c0.5,0.9,0.2,1.9-0.7,2.3c-0.5,0.3-1.2,0.5-1.8,0.5c-2.1,0.2-4-0.4-5.7-1.6c-0.3-0.3-0.6-0.6-0.8-0.9
		c-0.7-1.1-0.4-2.2,0.8-2.7c0.8-0.4,1.8-0.5,3.4-0.4c0.5-1.8,1-3.7,1.4-5.4c-2.4-1-4.7-1.9-7-2.9c-2.3,4.1-4.7,8.2-7.1,12.3
		c0.4,0.4,0.7,0.8,1,1.2c0.2,0.2,0.2,0.5,0.3,0.8c-0.3,0.1-0.5,0.2-0.8,0.2c-1.7-0.3-3.1-1.2-4.3-2.5c-0.1-0.2-0.2-0.5-0.1-0.7
		c0-0.1,0.4-0.2,0.6-0.2c0.4,0.1,0.8,0.2,1.2,0.3c0.3,0.1,0.4,0.1,0.6-0.2c2.3-4,4.6-8,6.9-12c0,0,0-0.1,0-0.1
		c-1.6-1.1-3.1-2.3-4.7-3.5c-1.2,1.4-2.5,2.8-3.8,4.1c0.4,0.7,0.8,1.4,1.2,2.1c0.2,0.4,0.3,0.9,0.3,1.4c0,1.1-0.6,1.9-1.8,1.8
		c-0.6,0-1.2-0.1-1.8-0.4c-1.8-0.8-3.2-2-4-3.8c-0.2-0.4-0.4-0.9-0.4-1.3c-0.3-1.5,0.7-2.5,2.2-2.2c0.7,0.1,1.4,0.4,2.1,0.7
		c0.3,0.1,0.5,0.3,0.8,0.5c1.3-1.4,2.6-2.8,3.8-4.2c-1.3-1.5-2.6-2.9-3.9-4.4c-3.9,2.7-7.8,5.5-11.8,8.2c0.2,0.5,0.4,1,0.5,1.4
		c0.1,0.2-0.1,0.5-0.1,0.8c-0.3-0.1-0.6,0-0.8-0.2c-1.4-1-2.3-2.4-2.8-4c-0.1-0.2,0.1-0.5,0.1-0.7c0.2,0,0.5,0,0.7,0.1
		c0.4,0.3,0.8,0.6,1.2,1c3.9-2.7,7.8-5.5,11.8-8.2c-1-1.7-1.9-3.4-2.8-5.2c-1.7,0.7-3.5,1.4-5.1,2.1c0,1,0.2,2,0.1,2.9
		c-0.2,1.9-1.7,2.5-3.2,1.4c-1.6-1.1-2.5-2.8-2.8-4.7c-0.1-0.8-0.1-1.6,0-2.4c0.3-1.6,1.6-2.1,2.9-1.2c0.4,0.3,0.8,0.6,1.2,1
		c0.4,0.4,0.6,0.8,1,1.3c1.7-0.7,3.5-1.4,5.2-2.2c-0.6-1.9-1.1-3.8-1.7-5.7c-4.7,0.8-9.4,1.7-14.1,2.5c-0.1,0.6-0.1,1.1-0.2,1.6
		c0,0.2-0.2,0.5-0.4,0.5c-0.2,0-0.5-0.2-0.6-0.4c-0.9-1.6-1.2-3.2-0.9-5c0-0.2,0.2-0.5,0.4-0.5c0.1,0,0.4,0.2,0.5,0.4
		c0.2,0.4,0.4,0.8,0.6,1.2c0.1,0.1,0.3,0.3,0.4,0.3c4.6-0.8,9.1-1.6,13.7-2.4c0.1,0,0.1,0,0.2-0.1c-0.1-1.9-0.2-3.9-0.4-5.8
		c-1.8-0.1-3.7-0.2-5.7-0.3c-0.1,0.5-0.2,0.9-0.4,1.4c-0.3,0.6-0.6,1.3-1,1.8c-0.9,1-2.1,0.9-2.9-0.2c-0.8-1-1-2.2-1.1-3.5
		c0-1.4,0.2-2.7,0.8-4c0.5-0.8,1-1.5,2-1.5c1,0,1.6,0.8,1.9,1.7c0.3,0.7,0.5,1.6,0.7,2.4c1.8,0.1,3.7,0.2,5.6,0.2
		c0.3-2,0.6-3.9,0.9-5.8c-4.6-1.2-9.2-2.5-13.9-3.7c-0.3,0.5-0.5,1-0.8,1.4c-0.1,0.2-0.4,0.3-0.6,0.4c-0.1-0.2-0.4-0.4-0.4-0.6
		c-0.1-1.7,0.3-3.3,1.3-4.8c0.1-0.2,0.4-0.3,0.6-0.4c0.1,0.2,0.3,0.4,0.3,0.7c0,0.5,0,1,0,1.6c4.6,1.2,9.2,2.5,13.9,3.7
		c0.7-1.8,1.4-3.7,2.1-5.5c-1.7-0.9-3.3-1.7-4.7-2.4c-0.7,0.6-1.3,1.1-1.9,1.5c-0.8,0.6-1.6,1.1-2.6,0.6c-1-0.5-1.1-1.5-1-2.4
		c0.1-2.4,1.2-4.4,3.1-5.8c0.7-0.5,1.5-0.9,2.4-0.4c0.9,0.5,1.1,1.3,1,2.2c-0.1,0.8-0.2,1.6-0.3,2.6c1.6,0.8,3.3,1.7,4.9,2.6
		c1.1-1.6,2.2-3.2,3.3-4.9c-3.6-3.1-7.3-6.1-11-9.2c-0.5,0.3-0.9,0.7-1.3,0.9c-0.2,0.1-0.5,0.1-0.7,0.1c0-0.2-0.1-0.5,0-0.7
		c0.6-1.7,1.7-3,3.3-3.9c0.2-0.1,0.5-0.1,0.6,0c0.1,0.1,0.2,0.4,0.1,0.6c-0.2,0.5-0.4,1-0.7,1.6c3.6,3,7.3,6.1,11,9.2
		c1.4-1.4,2.8-2.7,4.3-4.1c-1.1-1.5-2.3-3-3.4-4.4c-1,0.3-1.9,0.7-2.9,0.8c-1.7,0.3-2.7-0.9-2.2-2.6c0.7-2.3,3.7-4.6,6.1-4.7
		c1.7-0.1,2.6,1.1,2,2.6C257.8,147.3,257.2,148.2,256.6,149.2z M280.8,216c18.4,0,33.3-14.8,33.8-32.9c0.5-18.7-14.4-34.1-32.9-34.6
		c-18.8-0.5-34.6,14.5-34.6,33.7C247.1,201,262.3,216,280.8,216z"/>
	<path class="st0" d="M280.8,216c-18.5,0-33.8-15-33.7-33.8c0-19.2,15.9-34.2,34.6-33.7c18.5,0.5,33.4,15.9,32.9,34.6
		C314.2,201.3,299.3,216,280.8,216z M292.6,180.1c-3.4,0-6.2,2.7-6.2,6.1c0,3.3,2.8,6.1,6.1,6.1c3.4,0,6.1-2.7,6.2-6.1
		C298.7,182.9,296,180.1,292.6,180.1z M271.6,190.1c0,2.2,1.7,4,3.9,4c2.2,0,3.9-1.7,3.9-3.9c0-2.2-1.7-4-3.9-4
		C273.4,186.2,271.6,187.9,271.6,190.1z M261.9,164.2c0,2.2,1.8,3.9,3.9,3.9c2.2,0,4-1.8,3.9-4c0-2.2-1.8-3.9-4-3.9
		C263.6,160.3,261.9,162,261.9,164.2z M287,154.9c0-2.2-1.7-3.9-3.8-3.9c-2.1,0-3.8,1.7-3.8,3.8c0,2.1,1.7,3.9,3.8,3.9
		C285.3,158.7,287,157,287,154.9z M304.6,178.3c2.2,0,3.9-1.7,3.9-3.8c0-2.1-1.7-3.8-3.8-3.8c-2.1,0-3.9,1.7-3.9,3.8
		C300.8,176.6,302.5,178.3,304.6,178.3z M268.7,205.3c0-1.5-1.2-2.7-2.8-2.7c-1.5,0-2.7,1.2-2.7,2.7c0,1.5,1.2,2.7,2.7,2.7
		C267.4,208.1,268.7,206.8,268.7,205.3z M294.8,206.4c0,1.3,1,2.4,2.4,2.4c1.3,0,2.4-1.1,2.4-2.4c0-1.3-1.1-2.4-2.4-2.4
		C295.8,204,294.8,205.1,294.8,206.4z M302.3,194c0,1.3,1,2.4,2.4,2.4c1.3,0,2.4-1.1,2.4-2.4c0-1.3-1.1-2.4-2.4-2.4
		C303.3,191.6,302.3,192.7,302.3,194z M264.5,187.8c0-1.4-1-2.4-2.3-2.4c-1.3,0-2.5,1.1-2.5,2.4c0,1.3,1.1,2.4,2.4,2.4
		C263.5,190.1,264.5,189.1,264.5,187.8z M288.6,172.8c1.4,0,2.4-1.1,2.4-2.4c0-1.3-1.1-2.4-2.4-2.4c-1.3,0-2.4,1.1-2.4,2.4
		C286.2,171.7,287.3,172.7,288.6,172.8z M274,173.4c0.8,0,1.5-0.7,1.5-1.5c0-0.8-0.7-1.6-1.6-1.5c-0.8,0-1.5,0.7-1.5,1.5
		C272.5,172.8,273.1,173.4,274,173.4z M252.5,176.6c0.8,0,1.5-0.7,1.5-1.5c0-0.9-0.7-1.6-1.6-1.6c-0.9,0-1.5,0.7-1.5,1.6
		C250.9,175.9,251.6,176.6,252.5,176.6z M287,198.7c-0.8,0-1.5,0.7-1.5,1.5c0,0.9,0.7,1.6,1.5,1.6c0.8,0,1.5-0.7,1.5-1.5
		C288.6,199.4,287.9,198.7,287,198.7z M264.5,171c0-0.4-0.3-0.6-0.7-0.7c-0.4,0-0.8,0.3-0.8,0.8c0,0.5,0.3,0.7,0.7,0.8
		C264.2,171.9,264.5,171.6,264.5,171z M309.9,183.1c0.4,0,0.8-0.4,0.8-0.8c0-0.4-0.4-0.8-0.8-0.8c-0.4,0-0.8,0.4-0.8,0.8
		C309.1,182.7,309.4,183.1,309.9,183.1z M295.6,163.3c0,0.4,0.3,0.8,0.7,0.8c0.5,0.1,0.8-0.2,0.9-0.7c0-0.4-0.2-0.8-0.7-0.8
		C296.1,162.6,295.7,162.9,295.6,163.3z M256.6,195.5c-0.4,0-0.8,0.3-0.8,0.7c0,0.5,0.3,0.8,0.8,0.8c0.4,0,0.7-0.3,0.7-0.8
		C257.3,195.8,257,195.5,256.6,195.5z M280.2,208.9c0-0.4-0.3-0.8-0.7-0.8c-0.4,0-0.8,0.2-0.8,0.7c0,0.5,0.3,0.8,0.7,0.8
		C279.8,209.6,280.2,209.3,280.2,208.9z"/>
	<path class="st0" d="M280.9,176.2c3.4,0,6.1,2.8,6.1,6.1c0,3.4-2.8,6.1-6.2,6.1c-3.3,0-6.1-2.8-6.1-6.1
		C274.7,178.9,277.5,176.2,280.9,176.2z"/>
	<path class="st0" d="M276.9,182.3c0-2.1,1.8-3.9,3.9-3.9c2.2,0,3.9,1.8,3.9,4c0,2.1-1.8,3.9-3.9,3.9
		C278.7,186.2,276.9,184.5,276.9,182.3z"/>
	<path class="st0" d="M276.9,182.3c0-2.2,1.7-3.9,3.9-3.9c2.2,0,4,1.7,4,3.9c0,2.2-1.8,4-3.9,4C278.7,186.2,277,184.5,276.9,182.3z"
		/>
	<path class="st0" d="M284.7,182.3c0,2.1-1.7,3.8-3.8,3.8c-2.1,0-3.8-1.8-3.8-3.9c0-2.1,1.7-3.8,3.8-3.8
		C283,178.5,284.7,180.2,284.7,182.3z"/>
	<path class="st0" d="M280.8,186.1c-2.1,0-3.8-1.7-3.8-3.8c0-2.1,1.7-3.8,3.9-3.8c2.1,0,3.8,1.7,3.8,3.8
		C284.7,184.4,283,186.1,280.8,186.1z"/>
	<path class="st0" d="M283.6,182.3c0,1.5-1.2,2.8-2.7,2.8c-1.5,0-2.7-1.3-2.7-2.7c0-1.5,1.2-2.7,2.7-2.7
		C282.4,179.5,283.6,180.7,283.6,182.3z"/>
	<path class="st0" d="M278.5,182.3c0-1.3,1.1-2.4,2.4-2.4c1.3,0,2.4,1.1,2.4,2.4c0,1.3-1.1,2.4-2.4,2.4
		C279.5,184.7,278.5,183.6,278.5,182.3z"/>
	<path class="st0" d="M278.5,182.3c0-1.3,1-2.4,2.4-2.4c1.4,0,2.4,1.1,2.4,2.4c0,1.3-1.1,2.4-2.4,2.4
		C279.5,184.7,278.5,183.6,278.5,182.3z"/>
	<path class="st0" d="M283.3,182.3c0,1.3-1.1,2.4-2.4,2.4c-1.3,0-2.4-1.1-2.4-2.4c0-1.3,1.1-2.4,2.5-2.4
		C282.3,179.9,283.3,181,283.3,182.3z"/>
	<path class="st0" d="M280.9,184.7c-1.3,0-2.4-1.1-2.4-2.4c0-1.3,1.1-2.4,2.4-2.4c1.3,0,2.4,1.1,2.4,2.4
		C283.3,183.6,282.2,184.7,280.9,184.7z"/>
	<path class="st0" d="M280.9,183.8c-0.9,0-1.5-0.6-1.5-1.5c0-0.9,0.7-1.5,1.5-1.5c0.9,0,1.6,0.7,1.6,1.5
		C282.4,183.2,281.7,183.8,280.9,183.8z"/>
	<path class="st0" d="M280.9,183.8c-0.8,0-1.5-0.7-1.6-1.5c0-0.9,0.7-1.6,1.5-1.6c0.9,0,1.6,0.7,1.6,1.6
		C282.4,183.1,281.7,183.8,280.9,183.8z"/>
	<path class="st0" d="M280.9,180.8c0.9,0,1.6,0.7,1.5,1.6c0,0.8-0.7,1.5-1.5,1.5c-0.9,0-1.5-0.7-1.5-1.6
		C279.4,181.4,280,180.8,280.9,180.8z"/>
	<path class="st0" d="M281.6,182.2c0,0.6-0.4,0.9-0.8,0.9c-0.4,0-0.7-0.3-0.7-0.8c0-0.5,0.3-0.8,0.8-0.8
		C281.3,181.6,281.6,181.8,281.6,182.2z"/>
	<path class="st0" d="M280.9,183.1c-0.4,0-0.7-0.3-0.8-0.8c0-0.4,0.3-0.8,0.8-0.8c0.4,0,0.8,0.4,0.8,0.8
		C281.6,182.7,281.3,183.1,280.9,183.1z"/>
	<path class="st0" d="M280.1,182.2c0.1-0.4,0.4-0.7,0.9-0.7c0.4,0.1,0.7,0.4,0.7,0.8c0,0.4-0.4,0.7-0.9,0.7
		C280.4,183,280.1,182.6,280.1,182.2z"/>
	<path class="st0" d="M280.9,181.5c0.4,0,0.8,0.3,0.8,0.7c0,0.4-0.3,0.8-0.7,0.8c-0.5,0-0.8-0.3-0.8-0.8
		C280.1,181.8,280.4,181.5,280.9,181.5z"/>
	<path class="st0" d="M281.6,182.3c0,0.4-0.4,0.7-0.8,0.7c-0.5,0-0.8-0.4-0.7-0.8c0-0.4,0.4-0.7,0.8-0.7
		C281.4,181.6,281.7,181.9,281.6,182.3z"/>
	<circle class="st1" cx="280.9" cy="182.3" r="70.9"/>
</g>
<circle class="st1" cx="280.9" cy="122.1" r="5.7"/>
</svg>
