<svg id="Layer_1" data-name="Layer 1" xmlns="http://www.w3.org/2000/svg" viewBox="0 0 494.36 645.95"><defs><style>.cls-1{fill:none;stroke:#31302f;stroke-miterlimit:10;stroke-width:0.5px;}</style></defs><title>Closed_Top_Face_Shield_with_with_stems</title><path class="cls-1" d="M354.26,669.38c-4.93,0-9.85-.3-14.77-.66-4.76-.35-9.51-.86-14.23-1.57L317.38,666c-1.32-.19-1.63,0-2,1-.56,1.53-.49,2.07.63,2.59a1.33,1.33,0,0,1,.79,1.77c-.16.78-.33,1.56-.53,2.33a4.47,4.47,0,0,1-5.33,3.24q-4.46-1-8.9-2.15a4.42,4.42,0,0,1-3.29-5.27c.12-.59.28-1.17.41-1.75.24-1,.63-1.83,2-1.77s1.21-1,1.37-1.85c.19-1-.62-1-1.24-1.19-.26-.08-.51-.16-.77-.22a256.64,256.64,0,0,1-26.4-7.59c-2-.69-4-1.37-6-2.11-.86-.31-1.49-.35-2,.58-.69,1.29-.84,1.84,0,2.44,1.05.74.86,1.49.41,2.4-.26.53-.47,1.09-.72,1.63a4.41,4.41,0,0,1-5.93,2.26c-2.73-1.22-5.45-2.46-8.15-3.75a4.32,4.32,0,0,1-2.19-6.1c.27-.61.56-1.21.82-1.82.35-.83.81-1.26,1.84-1s1.45-.12,1.89-1.37c.34-1-.33-1.14-.93-1.42-3.3-1.56-6.6-3.13-9.86-4.78a225,225,0,0,1-66.79-51.28,258.33,258.33,0,0,1-27.64-37.48c-1.94-3.18-3.77-6.42-5.65-9.63-.39-.68-.8-1.17-1.74-.76-1.44.63-2,1.09-1.59,2,.45,1.11,0,1.6-.88,2s-1.39.79-2.1,1.15a4.38,4.38,0,0,1-5.67-1.72c-1.46-2.6-2.87-5.24-4.27-7.88s-.68-5,2-6.47c.52-.28,1.07-.54,1.59-.83.86-.49,1.63-.57,2.2.43.38.68.93.63,1.52.3.35-.19.7-.39,1.06-.55.74-.33,1-.82.6-1.59-.22-.41-.42-.83-.62-1.25-2.79-5.81-5.44-11.68-7.85-17.66q-2.72-6.75-5-13.65c-.21-.61-.38-1.38-1.34-1-.75.28-2.06.19-1.83,1.37.29,1.52-.53,1.86-1.62,2.18l-1.91.59a4.49,4.49,0,0,1-5.26-2.71c-.7-2.08-1.3-4.19-2-6.27a5.36,5.36,0,0,0-1.06-2.34v-3.19c1-.63,1.19-2.11,2.52-2.45,1-.24,1.91-.56,2.86-.87s1.55-.17,1.92.8c.3.8.91.84,1.64.61,1.2-.38,4.37-1.22,5.57-1.59a4.7,4.7,0,0,1,2.55-.08,5.59,5.59,0,0,1,4.18,4.13c.6,2,1.13,4,1.76,5.92a264,264,0,0,0,24.76,54.06,247.17,247.17,0,0,0,33.19,43.38c3.52,3.73,5.15,5.21,5.13,4.75s-2.38-2.85-5.48-6.89c-10.51-13.71-19.79-28-26.88-43.75a221.59,221.59,0,0,1-15.25-47.11c-2.49-12.4-2.38-24.92-2.3-37.59l.24-7.91c0-3.21.06-6.42.07-9.63,0-7.56,0-15.12,0-22.68,0-14.3.44-28.58,1.45-42.84.79-11.22,3.56-136.5,5.22-147.63a362,362,0,0,1,19.31-74.88c9.76-25.87,21.78-50.27,40.57-71.11a130.48,130.48,0,0,1,37.23-29.23c9-4.61,18.48-7.92,28-11.18a4.28,4.28,0,0,0,2-.88c-2.34-1.24-4.46-.67-6.67.07a4.13,4.13,0,0,1-5.51-2.67,5,5,0,0,1,3.45-6c5.17-1.32,13-1.75,18,.35,1.76.74,3.07,1.65,3.58,3.43,2,6.78.53,10.86-6.33,12.65-.25.06-.5.13-.74.21-9,2.86-18,5.75-26.39,10-23.2,11.81-40.9,29.32-54.29,51.21A263.52,263.52,0,0,0,183.84,149a300.71,300.71,0,0,0-14.69,45c-3.08,13.2-5.06,26.59-7.07,40-3,19.69-6.54,153.57-6.66,173.48,0,6,0,11.62,0,17.59.07.21,0,.74.11,1,.24,1.12.49,2.23.76,3.35A143.1,143.1,0,0,0,170,464.89a179.42,179.42,0,0,0,18.08,26.45,208.73,208.73,0,0,0,19.84,21.45,176.23,176.23,0,0,0,23.89,18.68A186.32,186.32,0,0,0,262,547.36c8.06,3.34,16.32,6.13,24.67,8.72a216.08,216.08,0,0,0,25.08,6.45,184.87,184.87,0,0,0,21.4,2.43c7,.43,14.06.6,21.09.75,7-.15,14.22-.32,21.25-.75a184.87,184.87,0,0,0,21.4-2.43A216.08,216.08,0,0,0,422,556.08c8.35-2.59,16.61-5.38,24.67-8.72a186.32,186.32,0,0,0,30.21-15.89,176.23,176.23,0,0,0,23.89-18.68,208.73,208.73,0,0,0,19.84-21.45,179.42,179.42,0,0,0,18.08-26.45,143.1,143.1,0,0,0,13.66-35.56c.27-1.12.52-2.23.76-3.35.07-.21,0-.74.11-1,.06-6,.08-11.63,0-17.59-.12-19.91-3.69-153.79-6.66-173.48-2-13.39-4-26.78-7.07-40a300.71,300.71,0,0,0-14.69-45,263.52,263.52,0,0,0-18.89-38.41c-13.39-21.89-31.09-39.4-54.29-51.21-8.41-4.28-17.4-7.17-26.39-10-.24-.08-.49-.15-.74-.21-6.86-1.79-8.29-5.87-6.33-12.65.51-1.78,1.82-2.69,3.58-3.43,5-2.1,12.8-1.67,18-.35a5,5,0,0,1,3.45,6,4.13,4.13,0,0,1-5.51,2.67c-2.21-.74-4.33-1.31-6.67-.07a4.28,4.28,0,0,0,2,.88c9.53,3.26,19,6.57,28,11.18a130.48,130.48,0,0,1,37.23,29.23c18.79,20.84,30.81,45.24,40.57,71.11a362,362,0,0,1,19.31,74.88c1.65,11.13,4.43,136.41,5.22,147.63,1,14.26,1.42,28.54,1.45,42.84,0,7.56-.06,15.12,0,22.68,0,3.21.05,6.42.07,9.63l.24,7.91c.08,12.67.19,25.19-2.3,37.59a221.59,221.59,0,0,1-15.25,47.11c-7.09,15.78-16.37,30-26.88,43.75-3.1,4-5.46,6.44-5.48,6.89s1.61-1,5.13-4.75a247.17,247.17,0,0,0,33.19-43.38,264,264,0,0,0,24.76-54.06c.63-2,1.16-3.95,1.76-5.92a5.59,5.59,0,0,1,4.18-4.13,4.7,4.7,0,0,1,2.55.08c1.2.37,4.37,1.21,5.57,1.59.73.23,1.34.19,1.64-.61.37-1,1-1.08,1.92-.8s1.9.63,2.86.87c1.33.34,1.51,1.82,2.52,2.45v3.19a5.36,5.36,0,0,0-1.06,2.34c-.67,2.08-1.27,4.19-2,6.27a4.49,4.49,0,0,1-5.26,2.71l-1.91-.59c-1.09-.32-1.91-.66-1.62-2.18.23-1.18-1.08-1.09-1.83-1.37-1-.35-1.13.42-1.34,1q-2.32,6.9-5,13.65c-2.41,6-5.06,11.85-7.85,17.66-.2.42-.4.84-.62,1.25-.4.77-.14,1.26.6,1.59.36.16.71.36,1.06.55.59.33,1.14.38,1.52-.3.57-1,1.34-.92,2.2-.43.52.29,1.07.55,1.59.83,2.68,1.44,3.42,3.79,2,6.47s-2.81,5.28-4.27,7.88a4.38,4.38,0,0,1-5.67,1.72c-.71-.36-1.39-.78-2.1-1.15-.86-.45-1.33-.94-.88-2,.37-.93-.15-1.39-1.59-2-.94-.41-1.35.08-1.74.76-1.88,3.21-3.71,6.45-5.65,9.63a258.33,258.33,0,0,1-27.64,37.48,225,225,0,0,1-66.79,51.28c-3.26,1.65-6.56,3.22-9.86,4.78-.6.28-1.27.46-.93,1.42.44,1.25.81,1.66,1.89,1.37s1.49.16,1.84,1c.26.61.55,1.21.82,1.82a4.32,4.32,0,0,1-2.19,6.1c-2.7,1.29-5.42,2.53-8.15,3.75a4.41,4.41,0,0,1-5.93-2.26c-.25-.54-.46-1.1-.72-1.63-.45-.91-.64-1.66.41-2.4.85-.6.7-1.15,0-2.44-.5-.93-1.13-.89-2-.58-2,.74-4,1.42-6,2.11a256.64,256.64,0,0,1-26.4,7.59c-.26.06-.51.14-.77.22-.62.18-1.43.22-1.24,1.19.16.8.14,1.91,1.37,1.85s1.72.72,2,1.77c.13.58.29,1.16.41,1.75a4.42,4.42,0,0,1-3.29,5.27q-4.44,1.11-8.9,2.15a4.47,4.47,0,0,1-5.33-3.24c-.2-.77-.37-1.55-.53-2.33a1.33,1.33,0,0,1,.79-1.77c1.12-.52,1.19-1.06.63-2.59-.38-1.06-.69-1.21-2-1l-7.88,1.16c-4.72.71-9.47,1.22-14.23,1.57C364.25,669.08,359.19,669.37,354.26,669.38Z" transform="translate(-107.15 -31.35)"/></svg>