<?xml version="1.0" encoding="utf-8"?>
<!-- Generator: Adobe Illustrator 23.1.1, SVG Export Plug-In . SVG Version: 6.00 Build 0)  -->
<svg version="1.1" id="Layer_1" xmlns="http://www.w3.org/2000/svg" xmlns:xlink="http://www.w3.org/1999/xlink" x="0px" y="0px"
	 viewBox="0 0 612 792" style="enable-background:new 0 0 612 792;" xml:space="preserve">
<style type="text/css">
	.st0{fill:none;stroke:#000000;stroke-miterlimit:11.3386;}
</style>
<g>
	<path class="st0" d="M286,613.3c-2.9,0.1-5.5,0.7-8.6,0c-14.9-0.2-29.9-3.3-44.5-6.3c-17-3.6-33.4-9.2-49.4-16
		c-18.5-7.9-35.7-17.8-51.4-30.4c-12.2-9.7-23.1-20.7-33.4-32.3c-12.4-13.9-23.5-28.7-33.2-44.6c-4-6.6-7.9-13.2-10.8-20.3
		c-5.2-12.6-8.7-25.5-10.2-39.1c-1.2-10.7-1.7-21.4-1.1-32.1c0.6-11.6,1.9-23.1,3.6-34.6c2.9-19.5,6.7-38.8,12-57.7
		c8.4-30,19.6-58.8,34-86.4c8.8-16.9,19.1-32.9,29.8-48.7c6.7-9.8,13.9-19.1,20.8-28.8c1.8-2.5,3.3-5.1,4.7-7.8
		c1.5-2.9,2.3-6,2.1-9.2c-0.5-6.8-6.1-13.2-13-14.9c-1-0.2-1.9-0.6-2.9-0.9"/>
	<path class="st0" d="M277.8,695.1c-0.3-0.1-0.5-0.3-0.8-0.4c-2.2-1-4.3-2-6.5-3c-0.8-0.4-1.5-1.1-1.2-2.1c0.2-1,0.7-2,1.9-2.3
		c0.7-0.2,1.4-0.3,2.1-0.6c0.6-0.2,1.2-0.6,1.8-1c-1.1-2.1-2.6-2.5-4.5-2.5c-17.1-0.1-34.2-1.2-51.2-3.3c-14-1.7-27.8-4.1-41.4-7.8
		c-18.7-5-36.6-11.9-53.2-22c-16.9-10.4-32-22.9-44.7-38.1c-15.7-18.8-26.7-40.2-33.9-63.5c-0.8-2.6-1.6-5.2-2.4-7.8
		c-0.2-0.8-0.4-1.7-1.5-1.8c0,1.5,0.1,3,0,4.4c-0.2,2.6-1.8,3.3-3.9,1.7c-1-0.7-1.7-1.7-2.7-2.3c-1.9-1.3-3.3-3.1-4-5.3
		c-0.6-2-0.8-4-1.3-6.1c-0.3-1.5-0.7-3.1-1.1-4.6c0-0.6,0-1.3,0-1.9c0.3-0.5,0.6-1.1,1-1.6c0.3-0.4,0.7-0.9,1.2-1.1
		c0.7-0.3,4.8,1.4,5.2,2.1c0.2,0.3,0.3,0.6,0.4,0.9c0.2,0.4,0.3,0.8,0.5,1.1c0.4,0.4,1,0.7,1.5,1c0.4-0.6,0.8-1.1,1.1-1.7
		c0.1-0.2-0.1-0.6-0.1-0.9c-0.9-6-2.3-7.5-5.4-17.3c-4.1-13-7.3-12.9-9.8-24.7c-2.3-10.5-6.2-21.8-6.7-31.2
		c-0.6-10.2-1.3-24.4-1.4-34.6c-0.1-15.2,1.3-30.5,3.1-45.6c2.2-18.5,4.9-41.7,9-59.9c6.2-24.5,15.8-52.5,25.6-76.2
		c14.4-34.8,27.3-71.9,61.2-95.8c6.3-4.5,15.8-6.8,20.4-13.1c1-1.3,1.7-2.9,2.4-4.4c0.7-1.4,0.3-2.8-0.5-4.1
		c-1.7-2.6-4.4-3.5-7.3-2.2c-0.7,0.3-1.5,0.7-2.1,1.1c-4.3,2.5-3.4,2.6-7.7-0.6c-1.6-1.2-1.7-1.6-0.9-3.4c2.2-4.7,5.5-8,10.8-8.8
		c0.3,0,0.6-0.2,0.9-0.3c1,0,1.9,0,2.9,0c1,0.3,1.9,0.6,2.9,0.9c6.9,1.7,12.5,8.1,13,14.9c0.2,3.3-0.6,6.4-2.1,9.2
		c-1.4,2.7-3,5.3-4.7,7.8c-6.9,9.6-14.1,19-20.8,28.8c-10.7,15.7-21,31.8-29.8,48.7c-14.4,27.6-25.6,56.5-34,86.4
		c-5.3,19-9.1,38.2-12,57.7c-1.7,11.5-3,23-3.6,34.6c-0.6,10.7-0.1,21.4,1.1,32.1c1.5,13.5,5.1,26.5,10.2,39.1
		c2.9,7.1,6.8,13.8,10.8,20.3c9.6,15.9,20.7,30.7,33.2,44.6c10.4,11.6,21.3,22.6,33.4,32.3c15.7,12.6,33,22.5,51.4,30.4
		c16,6.9,32.4,12.4,49.4,16c14.6,3.1,29,5.7,43.9,6"/>
	<path class="st0" d="M29.3,695.1"/>
	<path class="st0" d="M29.3,526.6c0.4,1.5,0.8,3.1,1.1,4.6c0.4,2,0.7,4.1,1.3,6.1c0.6,2.2,2.1,3.9,4,5.3c1,0.7,1.8,1.6,2.7,2.3
		c2.1,1.6,3.7,0.9,3.9-1.7c0.1-1.4,0-2.9,0-4.4c1.1,0.1,1.2,1,1.5,1.8c0.8,2.6,1.5,5.2,2.4,7.8c7.3,23.3,18.2,44.7,33.9,63.5
		c12.7,15.3,27.8,27.8,44.7,38.1c16.6,10.2,34.5,17,53.2,22c13.6,3.7,27.4,6.1,41.4,7.8c17,2.1,34.1,3.2,51.2,3.3
		c1.9,0,3.4,0.4,4.5,2.5c-0.6,0.3-1.2,0.7-1.8,1c-0.7,0.3-1.4,0.4-2.1,0.6c-1.2,0.3-1.6,1.3-1.9,2.3c-0.2,1,0.4,1.7,1.2,2.1
		c2.1,1.1,4.3,2,6.5,3c0.3,0.1,0.5,0.3,0.8,0.4"/>
</g>
<g>
	<path class="st0" d="M286,613.3c2.9,0.5,6.2,0.6,8.8,0.4c14.8,1.8,29.3,1.7,44.2,0.7c17.4-1.2,34.4-4.5,51.1-9
		c19.4-5.3,37.8-12.7,55.1-23c13.4-8,25.7-17.3,37.6-27.4c14.2-12,27.2-25.2,39-39.6c4.8-6,9.6-12,13.5-18.6
		c6.8-11.7,12.1-24.1,15.5-37.3c2.7-10.4,4.6-20.9,5.6-31.6c1-11.6,1.3-23.1,1.2-34.7c-0.2-19.7-1.2-39.3-3.9-58.8
		c-4.2-30.8-11.3-61-21.7-90.3c-6.4-18-14.3-35.3-22.8-52.3c-5.3-10.6-11.1-20.9-16.7-31.4c-1.4-2.7-2.6-5.5-3.6-8.3
		c-1.1-3-1.5-6.2-0.8-9.4c1.4-6.7,7.9-12.2,15-13c1-0.1,2-0.3,3-0.5"/>
	<path class="st0" d="M282.3,695.4c0.3-0.1,0.6-0.2,0.9-0.3c2.3-0.7,4.6-1.3,6.8-2.1c0.8-0.3,1.6-0.9,1.5-1.9
		c-0.1-1-0.4-2.1-1.5-2.5c-0.7-0.3-1.3-0.5-2-0.9c-0.6-0.3-1.1-0.8-1.6-1.2c1.3-1.9,2.9-2.1,4.8-1.9c17,2.2,34,3.5,51.1,3.8
		c14.1,0.2,28.1-0.2,42.1-2c19.2-2.4,37.9-6.7,55.7-14.5c18.2-7.9,34.8-18.3,49.5-31.6c18.1-16.5,31.9-36.1,42.3-58.2
		c1.2-2.5,2.3-4.9,3.4-7.4c0.3-0.8,0.6-1.6,1.7-1.6c-0.2,1.5-0.5,2.9-0.6,4.4c-0.1,2.6,1.3,3.5,3.6,2.2c1-0.6,2-1.4,3-1.9
		c2.1-1.1,3.7-2.6,4.7-4.7c0.8-1.9,1.4-3.9,2.1-5.8c0.5-1.5,1.2-2.9,1.7-4.4c0.1-0.6,0.2-1.3,0.3-1.9c-0.2-0.6-0.4-1.2-0.8-1.7
		c-0.3-0.5-0.6-1-1-1.2c-0.6-0.4-5,0.8-5.4,1.4c-0.2,0.3-0.3,0.5-0.5,0.8c-0.2,0.3-0.4,0.8-0.7,1c-0.5,0.4-1.1,0.6-1.6,0.8
		c-0.3-0.6-0.6-1.2-0.8-1.8c-0.1-0.2,0.2-0.6,0.3-0.9c1.7-5.8,3.3-7.1,7.8-16.4c5.9-12.3,9-11.8,13.2-23.2c3.7-10.1,9.2-20.7,11-30
		c2-10,4.7-24,6.2-34.1c2.2-15,2.9-30.4,3.2-45.6c0.3-18.6,0.9-42-0.6-60.6c-2.8-25.1-8.4-54.1-14.8-79
		c-9.5-36.5-17.1-75-47.4-103.4c-5.7-5.3-14.7-9-18.4-15.8c-0.8-1.5-1.3-3.1-1.8-4.7c-0.5-1.5,0.1-2.8,1.1-4c2-2.4,4.9-2.8,7.5-1.2
		c0.7,0.4,1.3,0.9,2,1.4c3.9,3,3,3,7.7,0.5c1.7-0.9,1.9-1.4,1.3-3.3c-1.5-5-4.3-8.7-9.5-10.2c-0.3-0.1-0.5-0.3-0.8-0.5
		c-1-0.1-1.9-0.3-2.9-0.4c-1,0.2-2,0.4-3,0.5c-7.1,0.7-13.5,6.3-15,13c-0.7,3.2-0.3,6.4,0.8,9.4c1,2.9,2.2,5.7,3.6,8.3
		c5.5,10.5,11.4,20.8,16.7,31.4c8.5,17,16.4,34.4,22.8,52.3c10.5,29.3,17.6,59.5,21.7,90.3c2.6,19.5,3.7,39.1,3.9,58.8
		c0.1,11.6-0.2,23.2-1.2,34.7c-0.9,10.7-2.9,21.2-5.6,31.6c-3.4,13.2-8.7,25.6-15.5,37.3c-3.9,6.7-8.6,12.7-13.5,18.6
		c-11.7,14.4-24.8,27.6-39,39.6c-11.9,10-24.2,19.4-37.6,27.4c-17.3,10.3-35.8,17.7-55.1,23c-16.8,4.6-33.8,7.9-51.1,9
		c-14.9,1-29.4,1.1-44.2-0.7"/>
	<path class="st0" d="M528.4,729.7"/>
	<path class="st0" d="M551.7,562.9c-0.6,1.5-1.2,2.9-1.7,4.4c-0.7,1.9-1.3,4-2.1,5.8c-0.9,2.1-2.6,3.6-4.7,4.7c-1.1,0.5-2,1.4-3,1.9
		c-2.3,1.3-3.8,0.4-3.6-2.2c0.1-1.4,0.4-2.8,0.6-4.4c-1.1,0-1.4,0.8-1.7,1.6c-1.1,2.5-2.3,4.9-3.4,7.4
		c-10.4,22.1-24.2,41.7-42.3,58.2c-14.7,13.4-31.4,23.7-49.5,31.6c-17.8,7.8-36.5,12.1-55.7,14.5c-14,1.7-28,2.2-42.1,2
		c-17.1-0.3-34.2-1.6-51.1-3.8c-1.9-0.2-3.5,0-4.8,1.9c0.6,0.4,1.1,0.9,1.6,1.2c0.6,0.4,1.3,0.6,2,0.9c1.1,0.5,1.4,1.5,1.5,2.5
		c0.1,1-0.7,1.7-1.5,1.9c-2.3,0.8-4.6,1.4-6.8,2.1c-0.3,0.1-5.1-0.1-5.4,0"/>
</g>
</svg>
