<?xml version="1.0" encoding="utf-8"?>
<!-- Generator: Adobe Illustrator 23.1.1, SVG Export Plug-In . SVG Version: 6.00 Build 0)  -->
<svg version="1.1" id="Layer_1" xmlns="http://www.w3.org/2000/svg" xmlns:xlink="http://www.w3.org/1999/xlink" x="0px" y="0px"
	 viewBox="0 0 612 792" style="enable-background:new 0 0 612 792;" xml:space="preserve">
<style type="text/css">
	.st0{fill:none;stroke:#000000;stroke-width:8.035216e-03;stroke-miterlimit:11.3386;}
</style>
<path class="st0" d="M64.9,531.6l0.4,1.2l1.9,9.6l0.1,0.3l-0.1-0.3l0.1,0.3l0,0.1l0,0l-0.2,0.4l0,0l0,0l0,0l0,0l0,0l0,0l-0.1,0.1
	l-0.1,0.1l-0.1,0.1l0,0l-0.1,0.1l-0.2,0.2l-0.3,0.1l-0.2,0l0,0l-0.1,0l-0.3-0.1l-0.2-0.1l0.4,0.3c-1.8-4.1-6.9-14.6-8.4-14.2
	c-2.3,0.6,0.5,15.2,2.5,22.8c2,7.6,5.5,13.2,7.8,12.6c1.8-0.5,2.3-4.8,1.4-10.3l0,0.9l0-0.1l0,0l0.2,0.1l0.2,0.1l1.4,0.3l0.8,2.7
	l0,0l0.2,0.6l0,0.1l0,0.1l1.1,3.4l0,0.1l0,0l0,0.1l0.6,1.9l0.5,1.6l0.1,0.3l0,0l0,0.1l0.1,0.3l0,0.1l1.6,4.5l0.3,0.9l0.1,0.3l0,0
	l0,0.1l0.7,1.9l0.1,0.2l1.5,4l0.5,1.2l0.1,0.3l1,2.5l0.1,0.1l0.2,0.5l0.2,0.4l3.1,6.8l0.1,0.3l0.6,1.2l0.5,1l0.1,0.3l1.5,2.9
	l0.8,1.5l0.3,0.5l0.9,1.6l0.5,0.8l1.4,2.4l0.6,1.1l2,3.3l0.1,0.1l0.6,1l0,0.1l0.3,0.6l1.4,2.2l0.1,0.1l1,1.6l1.1,1.7l0.6,1l2.5,3.6
	l0.8,1.1l0.4,0.5l0.6,0.9l0.8,1.1l0.4,0.5l1.5,1.9l0.4,0.5l0.4,0.5l2.1,2.6l0.1,0.2l0.4,0.5l2,2.3l1.3,1.5l0.1,0.2l0.1,0.1l0.1,0.1
	l0,0l0,0l0,0l0.1,0.1l1.1,1.2l1.6,1.7l1.1,1.1l0.3,0.3l1,1l1.4,1.4l0.9,0.9l0,0l2.4,2.3l1.2,1.1l1,0.9l1.7,1.6l0.6,0.6l0.1,0.1
	l0.2,0.2l0.8,0.7l1,0.9l2.6,2.2l0.3,0.2l1.9,1.6l1,0.9l1.3,1l0.6,0.5l2.2,1.8l0.4,0.3l0.5,0.3l0.4,0.3l1.4,1l1.7,1.3l0.4,0.3l1,0.8
	l2.7,1.8l1.4,0.9l6.1,3.9l0,0l0.5,0.3l2.7,1.5l1.4,0.8l0.5,0.3l0.7,0.4l0.8,0.4l3.2,1.7l0.3,0.1l0.9,0.4l0.7,0.3l2.7,1.3l0.8,0.4
	l3.3,1.5l0.5,0.2l0.5,0.2l0,0l0.3,0.1l0,0l3.6,1.5l3.3,1.4l0.3,0.1l0.6,0.2l0,0l2.2,0.9l1.7,0.6l0.4,0.2l0.2,0.1l0.3,0.1l0.1,0
	l1.5,0.5l0.9,0.3l0,0l0,0l0.1,0l2,0.7l0.6,0.2l0.3,0.1l2.4,0.8l0.4,0.1l0.1,0l0,0l1.4,0.5l0,0l0,0l1.4,0.4l0.1,0l2.8,0.8l7,2.1l0,0
	l1.3,0.3l0,0l2.9,0.7l0.3,0.1l2.6,0.6l1,0.2l4.5,1l3.2,0.7l0.3,0.1l0.8,0.2l4.5,0.8l1.1,0.2l0.3,0l1.1,0.2l3.2,0.5l0,0l0.1,0l0,0
	l0.5,0.1l4.6,0.7l0.6,0.1l0.7,0.1l0,0l0.1,0l0.1,0l0.2,0l0.3,0l1.1,0.1l0,0l6,0.8l0.1,0l0.4,0l0,0l0.1,0l0.2,0l0.3,0l0.3,0l0,0
	l4.6,0.4l3.7,0.4l7.7,0.8l0.4,0h0l0.4,0l1.3,0.1l4.7,0.3l0,0l1.4,0.1l2.8,0.1l1.2,0l1.9,0.1l1.1,0l0.3,0l9.1,0.3l2,0.1l0.5,0
	l3.2,0.1l0.5,0l0,0l0.1,0.1l0.3,0.3h0.1h0h0.1h0.1l0.2,0.2l0.5,0.4l0.1,0.1l0,0l0.2,0.2l0.5,0.5l0,0l0,0l0,0l0,0l0,0l0,0.1l0,0l0,0
	l0.1,0.2l0,0l0,0l0,0v0l0,0.2l0,0.2l0,0.2l-0.1,0.2l0.1-0.2l0,0.1c-4.4,0.7-7.4,2.1-7.4,3.7c0,2.3,6.3,4.3,14.2,4.3
	s14.2-1.9,14.2-4.3c0-1.9-4-3.5-9.6-4l0.1,0l0,0.1l0,0l0-0.1l0-0.1l0,0l0-0.1l0-0.1l0,0l0,0l0-0.1l0-0.2l0.1-0.2l0,0l0,0l0,0
	l0.1-0.2l0,0l0.4-0.3l0.5-0.5l0.1-0.1l0.1-0.1h0.7l0.2-0.2l0.3-0.2l0,0l3.3-0.1l3.1-0.1l3.3-0.1l2.6-0.1l0.2,0l0.1,0l1.4,0l0.9,0
	l0.9,0l16.4-1l2.1-0.1l0.1,0l0.2,0l3.4-0.3l0.4,0l0.9-0.1l0.9-0.1l0,0l8.6-1l0.4,0l1.5-0.2l0.6-0.1l0,0l6.5-0.9l3.4-0.5l0.4-0.1
	l0.8-0.1l1.1-0.2l1-0.2l1.6-0.3l0.4-0.1l2.5-0.5l2-0.4l1.6-0.3l0.1,0l0.6-0.1l1.8-0.4l5.7-1.2l1.3-0.3l1-0.2l1.1-0.3l2.3-0.6l2-0.5
	l5.3-1.5l1.7-0.5l0.3-0.1l0.7-0.2l0.1,0l0,0l4.1-1.3l0.6-0.2l0.8-0.3l1.6-0.5l3.7-1.3l1.1-0.4l1-0.4l0.2-0.1l2.7-1l2.8-1.1l1.5-0.6
	l0.1,0l1.2-0.5l1.1-0.4l2.2-0.9l0,0l6.3-2.9l1.1-0.5l2-1l3.4-1.8l0.6-0.3l0.3-0.2l0.4-0.2l3.1-1.7l0.5-0.3l0,0l0.8-0.5l0.8-0.5
	l1.6-1l3.3-2l0.3-0.2l0,0l0.3-0.2l0.2-0.1l1.1-0.7l6.3-4.4l1.5-1l0.6-0.4l0.1-0.1l0.2-0.2l0,0l0,0l0.3-0.2l1.2-0.9l0.6-0.5l2-1.6
	l2.4-1.9l0.7-0.6l1.4-1.2l0.1-0.1l0.4-0.3l0.1-0.1l0.9-0.8l0.1-0.1l1.8-1.6l2.9-2.6l1.3-1.2l1.5-1.4l0.9-0.9l0.1-0.1l0.5-0.5
	l1.5-1.5l2.5-2.5l0.5-0.5l0.1-0.1l0.7-0.8l3.9-4.3l0.8-0.8l0.7-0.8l0.4-0.5l2-2.4l1.5-1.8l2.4-3.2l0.9-1.2l0.4-0.5l0.4-0.5l0,0
	l0.1-0.2l0,0l0,0l0.2-0.3l0,0l0.2-0.3l0.1-0.1l2-2.8l0.6-0.9l0.1-0.1l0.4-0.6l0.5-0.8l0.3-0.4l0.9-1.4l0.6-0.9l1-1.4l0,0l0,0l1.9-3
	l0.2-0.3l0.7-1.1l0.2-0.4l0.1-0.2l0.3-0.6l0.3-0.5l2.4-4.2l0.4-0.7l0.1-0.2l0.5-0.9l1.9-3.5l0.2-0.3l0.4-0.7l1.1-2.1l0.4-0.7
	l0.5-1.1l1.2-2.5l0,0l0.4-0.8l0.3-0.7l0.1-0.2l0.7-1.5l0.4-0.8l0.4-0.9l0.9-2.3l1.7-4.1l0.8-2l0.9-2.3l0.1-0.3l0.3-0.9l0.2-0.6
	l0.7-2l1-2.8l0.5-1.6l0.2-0.6l1.6-5.1l0.1-0.4l-0.2,0.7l0.2-0.6l0.4-1.3l0,0l0-0.1l0.7-2.6l0.4-1.3l1.7-0.1"/>
<polyline class="st0" points="33.9,471 33.7,467.7 32.7,452.5 32,439.6 31.4,422.1 31.4,413.9 31.6,398.5 32,390.6 33,376.2 
	34.5,361.6 35.3,354.3 36.5,345.6 38.1,334.6 37.9,334.6 41,317.5 42.8,307.9 44,301.8 46.5,290.6 47.7,285.5 49.6,278.1 
	52.4,267.7 54.1,261.9 55.8,256.2 58.3,248.2 62.6,235.3 69.1,218 74.2,205.1 79.3,193.2 82.5,186.3 88,174.9 92.3,166.5 
	98.6,154.9 104.9,143.6 112,131.7 119.3,120.1 123.6,113.5 131.2,102.3 "/>
<polyline class="st0" points="451.2,100.5 448.4,99.2 448.7,99.6 448.4,99.2 448.4,99 448.3,99 448.2,98.7 448,98.2 448,98.2 
	447.7,97.3 447.6,96.5 447.6,96.4 447.6,96.4 447.6,96.1 447.6,96.1 447.6,96 447.6,95.4 447.6,95.3 447.7,94.7 447.7,94.5 
	448,93.7 448.3,93.2 448.4,92.9 448.5,92.9 448.5,92.9 449.4,91.8 449.4,91.8 449.4,91.8 449.4,91.7 450.7,90.7 450.9,90.6 
	450.9,90.6 451,90.5 451.3,90.4 451.8,90.2 451.9,90.2 452,90.1 452.3,90.1 452.5,90 453.3,90 453.3,90 453.7,90 454,90.1 
	454.4,90.2 454.4,90.2 454.8,90.2 455.1,90.3 455.3,90.4 455.5,90.5 456.4,90.9 456.5,90.9 456.5,90.9 456.6,91 456.6,91 456.7,91 
	457.6,91.6 458.1,91.8 459.3,92.6 460.3,93.3 460.6,93.4 460.8,93.5 461,93.6 461,93.6 461.2,93.7 461.4,93.8 461.8,93.8 
	461.8,93.8 461.8,93.8 462,93.8 462.2,93.7 462.2,93.7 462.3,93.6 462.5,93.5 463,93.2 463.1,93.1 463.7,92.7 464.7,91.8 
	466.4,90.5 466.7,90.3 466.7,90.3 466.7,90.2 466.8,90.2 466.9,89.9 467,89.5 467,89.3 467,89.3 466.9,89 466.8,88.5 466.7,88.3 
	466.6,88 466.3,87.3 466.3,87.2 466.3,87.2 466.3,87.1 466,86.6 465.9,86.3 465.7,85.9 464.8,84.3 464.6,84 464.6,84 464.5,83.9 
	464.5,83.8 464.4,83.8 464.4,83.7 463.7,82.8 463.5,82.5 462.9,81.9 462.8,81.8 462.5,81.5 462.3,81.3 462.1,81 462.1,81 
	461.8,80.8 461.8,80.8 461.2,80.3 460.9,80.1 460.6,79.9 460.1,79.6 459.8,79.5 459.5,79.3 459.5,79.3 458.9,79 458.9,79 
	458.2,78.8 457.6,78.6 457.2,78.4 456.9,78.3 456.9,78.3 456.7,78.3 456.4,78.2 456.4,78.2 455.9,78.2 455.2,78 455,78 454.8,78 
	454.7,78 453.9,78.1 453.5,78.1 452.9,78 452.5,78 451.9,78.1 451.3,78.2 450.9,78.2 450.5,78.3 450.4,78.3 450.2,78.3 449.5,78.5 
	447.7,79.1 447.6,79.1 447.3,79.2 447.3,79.2 447.1,79.3 446.3,79.6 445.7,79.9 445.3,80.2 445.1,80.3 445,80.3 444.1,80.9 
	443.8,81 443.5,81.3 443.5,81.3 443,81.6 443,81.7 442.5,82.1 441.9,82.6 441.3,83.2 441.3,83.2 441.1,83.4 441.1,83.4 441,83.5 
	440.7,83.9 440.7,83.9 439.6,85.2 439.3,85.7 439.2,85.7 439,86.1 438.5,86.9 438.5,86.9 438.3,87.2 438,87.8 437.9,88 437.4,88.9 
	437.4,88.9 437.4,89 437.3,89.3 436.9,90.2 436.7,90.8 436.5,91.3 436.3,92.3 436.1,93.4 436,94.2 435.9,95.6 435.9,96 435.9,96.4 
	435.9,96.6 436,97.9 436.1,98.2 436.1,98.5 436.2,98.6 436.4,99.8 436.7,101.1 436.7,101.2 437,102 437,102.1 437.3,103 
	437.4,103.2 437.4,103.2 437.4,103.3 437.6,103.6 438.2,105 438.7,106.2 439.3,107.4 439.4,107.7 440.2,108.9 440.9,110.2 
	441.4,111 441.8,111.6 445.1,116.4 448.5,121.5 453.4,128.5 455.6,131.7 456.7,133.4 457.1,134 460.5,139 461.4,140.5 465.2,146.5 
	466.9,149.1 467.1,149.5 467.8,150.6 468.1,151 468.3,151.4 469.3,153 472.9,159 473,159.1 473.6,160.2 473.7,160.4 478.6,168.7 
	479.4,170 479.9,171 480.2,171.5 480.8,172.6 481,172.9 481.3,173.5 481.7,174.2 482.2,175 487,183.8 487.1,184 487.9,185.5 
	488.2,186.1 488.5,186.6 489,187.5 489.1,187.7 489.3,188.1 491,191.6 491.5,192.4 491.5,192.6 491.7,192.9 492.2,193.9 
	493.5,196.6 494.9,199.4 495.1,199.9 495.2,200.1 495.8,201.4 498,206.1 498.5,207.1 499.3,209.1 499.8,210.2 500.7,212 502.4,216 
	502.5,216.2 503.1,217.8 504.8,221.6 505.2,222.6 506,224.5 506.7,226.3 506.7,226.4 507.5,228.5 507.7,228.9 507.7,229 
	507.9,229.4 509.7,234.1 511.7,239.5 512.6,241.9 512.8,242.4 513.4,244.1 513.8,245.1 514.2,246.2 514.3,246.6 514.8,248 
	518.6,259.2 518.9,260.2 519.2,261 519.7,262.6 520,263.4 520,263.6 520.4,264.9 520.5,265.2 522.4,271.7 524.6,278.8 524.9,280 
	525.7,282.7 526.1,284.2 526.4,285.3 527.1,288.1 527.8,290.7 528.2,292.3 528.5,293.4 528.5,293.4 529.3,296.7 529.6,297.9 
	530.4,301.4 530.7,302.6 530.7,302.8 530.8,303.3 532.1,309 532.1,309.2 532.2,309.7 532.4,310.4 534,318.6 534.2,319.3 
	534.6,321.4 534.6,321.8 535.9,328.5 536,329.3 536.8,334.3 537.6,338.8 537.9,341 538,341.3 538.6,345.1 538.8,346.8 540,355.1 
	540.2,356.6 540.2,357.3 540.4,358.8 540.5,359.3 541.5,367.9 541.6,368.7 541.9,371.8 542.2,374.8 542.3,376.7 542.9,384.2 
	542.9,384.4 543,385.1 543.3,392.4 543.3,393.8 543.4,395.1 543.4,395.7 543.4,396.9 543.4,397.2 543.4,397.6 543.4,403.2 
	543.4,404.6 543.3,407.2 543.2,409.4 543.2,409.8 543,412.8 543,413.5 542.9,414.6 542.6,417.9 542.6,418.6 542.2,421.9 542.2,422 
	542.1,423.1 541.8,425.8 541.6,427.7 541.3,430.1 541.2,430.3 541.2,430.5 541.1,431.2 540.6,434.4 540.4,435.9 540.3,436.4 
	540.2,436.7 539.2,441.9 539.1,442.3 539,442.6 538.3,445.8 538.2,446.1 538.1,446.3 538,446.9 538,446.9 537.9,447 537.8,447.4 
	536.8,451.1 536.7,451.6 536.6,451.9 536,453.8 534.6,458.3 534.5,458.5 534.1,459.5 533.5,461.3 533,462.9 532.9,463 532.9,463.1 
	532.9,463.2 532.8,463.5 532.7,463.6 532.7,463.6 532.7,463.6 532.6,463.9 531.6,466.5 531.5,466.8 531.2,467.5 529.3,472 
	529.2,472.3 529,472.6 528.7,473.2 526.4,477.9 525.9,478.9 525.5,479.6 525.3,480.1 525.2,480.1 525,480.6 522.9,484.5 
	522.9,484.5 522.7,484.9 522.7,485 522.4,485.4 519.7,490.3 519.7,490.3 517.4,494.2 517.1,494.7 516.2,496.3 515.8,497 
	515.2,497.9 514.8,498.7 514.5,499 514.4,499.3 514.3,499.4 514.2,499.5 508.6,508.2 508.5,508.2 508.3,508.5 508.3,508.6 
	508.3,508.6 507.9,509.1 507.8,509.3 507.7,509.5 507.6,509.6 507,510.5 506.8,510.9 504.3,514.5 503.8,515.3 503.7,515.4 
	498.9,522.1 498.7,522.3 498.5,522.6 497.6,523.8 494.9,527.2 494.2,528.2 491.5,531.4 488.6,535.1 487.1,536.9 479.3,546 
	478.7,546.8 478.4,547.1 474.9,551 474,552 469.2,557 468.6,557.6 468.4,557.8 468.3,557.9 468.1,558.1 463.6,562.5 463.1,563 
	458.9,566.8 458,567.7 457.2,568.4 457.1,568.4 456.5,569 452.8,572.1 451.3,573.4 450.9,573.7 450.3,574.3 445.7,578 445.1,578.4 
	442.1,580.7 440.9,581.6 440.2,582.1 436.5,584.7 433.6,586.7 433.5,586.8 432.4,587.5 428.8,589.8 425.4,591.9 424.6,592.3 
	421.9,593.9 421.1,594.3 420.1,594.9 419.7,595.1 416,597.2 414.6,597.9 414.2,598.1 414.1,598.2 413.8,598.3 413.8,598.3 
	413.1,598.7 410.3,600.1 406,602.2 405.4,602.5 404.3,603 403.7,603.3 398.7,605.5 392.4,608.3 391.7,608.6 390.9,608.9 
	390.4,609.2 389.9,609.3 389,609.7 387.9,610.1 387,610.5 386.5,610.7 382.2,612.3 379.3,613.4 377.9,613.9 375.4,614.7 
	374.9,614.9 371.1,616.2 368.6,616.9 366.4,617.6 363.8,618.3 363.7,618.4 362.9,618.6 362.8,618.6 361.2,619 357.2,620 
	356.1,620.3 354.7,620.6 352.2,621.2 349.6,621.8 348.3,622 347.9,622.1 347.7,622.2 347.4,622.2 345.9,622.5 340.6,623.4 
	339,623.7 338.9,623.7 338.8,623.7 338.4,623.8 338.1,623.9 338,623.9 332.3,624.7 332.2,624.7 332.2,624.7 332.1,624.7 
	332.1,624.7 329,625.1 328.1,625.2 328,625.2 326.5,625.3 322.6,625.7 322.1,625.7 320,625.8 317.4,626 316.9,626 316.2,626.1 
	315.5,626.1 311,626.2 309.9,626.3 308.9,626.3 308.1,626.3 307.8,626.3 305.8,626.2 296.3,626.1 295.8,626.1 295.2,626.1 
	294.2,626 289.1,625.7 289,625.7 289,625.7 288.7,625.6 288,625.6 283,625.1 282.5,625.1 282.2,625 281.9,625 275.3,624.1 
	275.1,624.1 274.7,624.1 274.3,624 271.5,623.6 270.9,623.5 270.4,623.4 267.1,622.8 264.8,622.4 264.4,622.3 264,622.2 
	263.7,622.2 263.7,622.1 261.1,621.6 259.3,621.2 257.7,620.9 257.7,620.9 256,620.5 251.5,619.4 251.2,619.3 251.2,619.3 
	248.6,618.6 247.7,618.3 247,618.1 245.1,617.6 244.9,617.5 244.8,617.5 238.2,615.4 238,615.4 237.3,615.2 236.1,614.7 
	232.4,613.5 231.8,613.3 230.3,612.7 225.8,611 224.5,610.5 222.5,609.7 221.8,609.4 221.7,609.4 221.5,609.3 221.3,609.2 
	220.3,608.8 216.6,607.2 216.5,607.2 216.5,607.2 216.3,607.1 212.9,605.6 206.9,602.9 206.4,602.7 206.2,602.6 205.7,602.3 
	205.5,602.2 201.3,600.2 201.2,600.1 201.1,600.1 201.1,600.1 200.6,599.8 197.6,598.3 196.8,597.9 195.6,597.2 189.7,593.9 
	187.1,592.4 185.6,591.6 185.4,591.4 184.3,590.8 180.6,588.5 180,588.1 179.8,587.9 179.2,587.5 178,586.8 175,584.7 173.8,583.9 
	171.9,582.6 166.7,578.7 166.4,578.5 165.9,578 165.8,578 164.5,577 161.7,574.7 160,573.3 159.6,573 159.5,572.9 158.6,572.1 
	158.6,572.1 155.6,569.5 155.6,569.5 154.7,568.7 149.7,564.2 146.8,561.5 146.1,560.8 145.9,560.6 145.3,560 143.2,557.9 
	141,555.7 140.2,554.8 137.4,551.9 136.4,550.8 134.8,549.1 134,548.2 133.1,547.1 130.6,544.3 129.3,542.7 123,535.3 120,531.5 
	119.4,530.7 118.4,529.6 115.6,526 114.8,525 112.6,522.1 111.3,520.4 110.6,519.4 110.6,519.4 109.3,517.5 108.2,515.9 106.9,514 
	106.7,513.7 106.1,512.9 105.2,511.6 104.4,510.4 104.3,510.2 104,509.9 103.8,509.5 97.6,500.1 97.5,499.8 97.5,499.8 97.3,499.6 
	97.2,499.4 97.1,499.3 97,499.1 96.8,498.7 95.7,497 94.2,494.4 94,494.1 93.8,493.9 93.7,493.7 93.5,493.2 90.7,488.3 90.1,487.2 
	88.6,484.5 88,483.4 86.9,481.4 85.2,478 84.9,477.5 84.6,476.9 83.4,474.5 82.7,472.9 82.2,472 81.9,471.3 81.5,470.5 81.4,470.3 
	81.4,470.1 81.3,470.1 80.6,468.2 80,467 79.9,466.5 79.8,466.2 79.6,465.8 78.7,463.4 78.5,462.8 77.5,459.9 77.4,459.5 
	76.3,456.4 76.2,456 76.1,455.6 75.9,455.1 75.8,454.8 75.7,454.5 74.9,451.8 74.3,449.8 73.9,448.4 73.8,447.8 73.6,447.1 
	73.6,447 73.5,446.9 72.7,443.8 72.7,443.7 72.6,443.2 71.1,435.6 71,435.1 70.9,434.6 70.9,434.4 70.8,433.7 70.3,430.8 
	69.9,427.4 69.6,425 69.3,421.9 69.1,420.6 69.1,420 68.6,414.3 68.6,413.7 68.5,413 68.4,411.1 68.4,410.8 68.4,410.5 68.4,410.1 
	68.3,409.4 68.3,409.1 68.3,409.1 68.2,405.1 68.1,404.4 68.1,404.4 68.1,400.9 68.1,400.5 68.1,398.2 68.1,396.9 68.1,396.7 
	68.1,395.7 68.2,393.2 68.2,392.3 68.3,391.1 68.3,390.3 68.5,387.5 68.5,387.4 68.7,384.4 68.9,380.1 69,379.2 69.7,371.8 
	69.7,371.5 69.9,369.4 70,368 71,359.3 71.1,358.8 71.2,357.4 72.5,348 72.7,346.8 72.7,346.5 73.6,341.3 74.4,335.7 74.7,334.3 
	74.7,334.2 74.8,333.4 74.9,332.7 75.4,329.6 75.6,328.7 75.6,328.6 75.8,327.7 76.9,321.8 77.9,316.3 78.1,315.2 78.8,311.9 
	79.3,309.7 79.4,309.2 79.9,306.6 80.6,303.4 80.6,303.3 80.7,303 82.2,296.7 83.4,291.9 83.7,290.8 83.9,289.8 84.2,288.7 
	84.3,288.4 85.2,285.2 85.4,284.2 86.6,279.7 86.8,279.2 87,278.4 87.6,276.5 89,271.7 90.2,267.7 90.6,266.3 92.9,259.2 
	93.8,256.5 94.4,254.5 96.8,247.7 96.8,247.6 96.9,247.2 97,247.1 97.1,246.6 98.4,243.2 98.8,242 99,241.5 100.8,236.6 
	101.4,234.9 101.7,234.1 102.5,232.1 103.1,230.6 103.4,229.7 105.7,224.1 105.9,223.5 106.7,221.6 106.8,221.3 108,218.5 
	108.4,217.6 109.5,215.1 109.8,214.4 110,213.9 110.3,213.3 111.3,211 112.1,209.1 112.7,207.8 112.7,207.7 112.9,207.3 
	112.9,207.2 113.4,206.2 117.3,197.9 117.9,196.6 118,196.5 118.7,194.9 119.7,192.9 119.9,192.7 120,192.4 120,192.4 122.5,187.5 
	123.4,185.8 123.6,185.3 123.7,185.3 123.8,184.9 124,184.6 124.3,184 124.6,183.5 127.6,178.1 128.1,177.1 131.3,171.5 
	131.4,171.2 131.6,170.9 131.9,170.3 132.5,169.4 133.3,168 138.6,159 138.9,158.6 140.4,155.9 140.5,155.8 140.7,155.5 
	140.9,155.1 143.2,151.3 146,146.9 146.2,146.5 146.8,145.5 146.9,145.4 147.3,144.7 149.5,141.2 150,140.5 150.4,139.9 
	153.2,135.7 153.8,134.8 154.3,134 154.5,133.7 154.8,133.3 159.9,125.9 159.9,125.8 160.3,125.3 160.4,125.1 160.9,124.4 
	161.4,123.7 162.9,121.5 163.2,121 166.4,116.3 169.7,111.5 170.2,110.8 171.2,108.9 171.9,107.7 172,107.5 172.1,107.4 
	172.4,106.7 172.5,106.5 173.4,104.6 173.5,104.5 174.1,102.8 174.5,101.6 174.5,101.5 175.1,99.3 175.2,98.7 175.2,98.6 
	175.4,97.4 175.4,97.3 175.4,96.9 175.5,96.4 175.5,96.3 175.5,96.2 175.5,95.9 175.4,94.9 175.4,94.7 175.4,94.5 175.2,92.9 
	175.2,92.8 174.9,91.9 174.9,91.7 174.8,91.5 174.6,90.7 174.4,90.2 174.4,90.2 174.4,90.1 174.2,89.7 174,89.3 173.9,88.9 
	173.5,88.2 173.4,87.9 172.9,87.1 172.8,87 172.8,87 172.8,86.9 172.5,86.4 172.5,86.4 171.9,85.5 171.7,85.2 171.6,85 171.5,84.9 
	171.5,84.9 171.2,84.6 170.8,84.2 170.6,83.9 170.4,83.6 170.3,83.5 170.1,83.4 170.1,83.3 169.3,82.5 169,82.3 168.9,82.2 
	168.9,82.2 168.4,81.8 167.9,81.4 167.5,81.1 167.2,80.9 167.1,80.8 166.4,80.5 166.3,80.4 166.3,80.4 165.8,80.1 165.7,80 
	165.1,79.8 165.1,79.7 165,79.7 164.9,79.6 164.9,79.6 164.7,79.6 164.6,79.5 163.8,79.2 163.2,79 163.2,79 162.5,78.7 162.3,78.7 
	160.6,78.4 160.3,78.3 159.9,78.3 159.5,78.2 159.5,78.2 159.3,78.1 159.1,78.1 159,78.1 158,78.1 157.6,78 157.4,78.1 157.4,78.1 
	157.1,78.1 156.8,78.1 156.4,78.1 155.3,78.2 155.3,78.2 154.8,78.4 154.3,78.5 154.2,78.5 153.6,78.7 153.5,78.7 153.4,78.7 
	152.9,78.9 152.6,79.1 151.9,79.4 151.6,79.5 151.5,79.6 150.9,80 150.7,80.1 149.9,80.6 149.6,80.8 149,81.4 148.8,81.6 
	148.6,81.7 148.5,81.9 148.5,81.9 148.5,81.9 148.5,81.9 148.4,82 148.2,82.2 147.6,82.9 147.6,82.9 147,83.8 146.9,83.9 
	146.7,84.2 146.2,85 146.1,85.2 146.1,85.2 146,85.4 145.9,85.6 145.8,85.7 145.5,86.3 144.9,87.6 144.8,87.9 144.6,88.5 
	144.5,88.6 144.5,88.8 144.4,89.2 144.4,89.3 144.4,89.5 144.4,89.5 144.4,89.6 144.4,89.7 144.4,89.7 144.5,90.1 144.5,90.1 
	144.5,90.2 144.7,90.3 144.8,90.5 144.8,90.5 144.8,90.5 144.9,90.6 145,90.6 147.4,92.6 148.1,93.1 148.5,93.4 148.6,93.4 
	149,93.7 149.2,93.8 149.2,93.9 149.4,93.9 149.4,93.9 149.5,93.9 149.8,93.9 149.9,93.9 150,93.9 150,93.9 150,93.9 150,93.9 
	150.1,93.9 150.1,93.8 150.2,93.8 150.8,93.5 152.4,92.5 152.7,92.3 153.3,91.9 154.8,91.1 155.4,90.8 155.5,90.7 156.7,90.3 
	156.8,90.3 157.3,90.2 157.3,90.2 157.7,90.1 157.7,90.1 158.2,90.1 158.7,90.1 158.7,90.1 158.9,90.2 159,90.2 159.4,90.2 
	159.4,90.2 159.5,90.2 160.3,90.6 160.5,90.7 160.5,90.7 160.6,90.8 160.8,90.9 160.9,91 161.7,91.6 161.7,91.7 161.8,91.7 
	161.8,91.7 161.8,91.7 162.5,92.5 162.7,92.7 162.7,92.7 162.8,92.9 163.2,93.5 163.3,93.8 163.5,94.3 163.6,94.4 163.6,94.8 
	163.7,95.3 163.8,95.7 163.8,96.1 163.8,96.2 163.8,96.3 163.8,96.4 163.8,96.4 163.8,96.5 163.7,96.7 163.7,97.1 163.7,97.2 
	163.6,97.4 163.6,97.6 163.5,97.9 163.3,98.5 163.2,98.6 162.9,99.3 162.4,100.1 162,100.8 161.8,101.2 161.5,101.7 160.5,103.2 
	159.8,104.3 159.5,104.7 159.4,104.8 159.5,104.7 157.3,105.5 "/>
<polyline class="st0" points="478.4,99.7 481.9,104.8 489.3,115.7 499,131 502.9,137.5 508.6,147.3 518.8,165.8 519.7,165.3 
	530.6,189.7 538,207 543.4,220.5 544.9,224.5 551.6,243.4 554.5,252.5 557.9,263.6 561.9,278.1 564.2,287.3 565.7,293.6 568,304.5 
	571.6,323.7 572.8,330.8 574.6,342.2 576.5,357 577.7,368 578.7,378.9 579.6,392.3 579.9,399.7 580.1,406.6 580.2,414.9 
	580.1,422.6 579.8,433.6 579.3,443.9 577.7,468.8 576.8,473 "/>
<path class="st0" d="M546.4,541.7l-0.3,0.2L546,542l-0.1,0l0,0l-0.1,0l-0.3,0l-0.1,0l-0.1,0l0,0l-0.2-0.1l-0.2-0.1l-0.1-0.2
	l-0.1-0.1l0-0.1l0,0l0-0.1l0,0l0,0l0,0l0-0.1l0,0l-0.2-0.1l0,0l0.1,0.3l-0.3-0.7l0-0.5"/>
<path class="st0" d="M542.8,552.4c-0.8,4.4-0.5,7.7,1,8.2c2.2,0.8,6.2-4.5,8.8-11.9c2.7-7.4,5.2-19.8,3-20.6
	c-1.8-0.6-6.8,8.5-9.2,13.5"/>
<line class="st0" x1="131.2" y1="102.3" x2="159.4" y2="104.8"/>
<line class="st0" x1="478.4" y1="99.7" x2="448.7" y2="99.6"/>
<line class="st0" x1="576.8" y1="473" x2="544.2" y2="540.1"/>
<line class="st0" x1="64.9" y1="532" x2="65.3" y2="532.9"/>
<line class="st0" x1="33.9" y1="471" x2="64.9" y2="532"/>
</svg>
