<?xml version="1.0" encoding="utf-8"?>
<!-- Generator: Adobe Illustrator 23.1.1, SVG Export Plug-In . SVG Version: 6.00 Build 0)  -->
<svg version="1.1" id="Layer_1" xmlns="http://www.w3.org/2000/svg" xmlns:xlink="http://www.w3.org/1999/xlink" x="0px" y="0px"
	 viewBox="0 0 1440 792" style="enable-background:new 0 0 1440 792;" xml:space="preserve">
<style type="text/css">
	.st0{fill:none;stroke:#000000;stroke-width:8.035216e-03;stroke-miterlimit:11.3386;}
</style>
<g>
	<polygon points="837.4,632.6 823.4,619.2 823.4,619.2 837.4,632.6 	"/>
	<path d="M1145.2,732.5h-8l-14.8-0.2l-7.6-0.4l-13.8-1l-14.1-1.4l-7.1-0.9l-8.3-1.1l-10.6-1.6v0.1l0,0l-16.4-3l-9.3-1.8l-5.8-1.3
		l-10.8-2.5l-4.9-1.2l-7.1-1.9l-10-2.8l-5.6-1.7l-5.4-1.7l-7.7-2.5l-12.4-4.4l-16.6-6.4l-12.5-5.2l-11.4-5.1l-6.7-3.2l-10.9-5.5
		l-8.1-4.4l-11.2-6.2l-10.9-6.3l-11.4-7.1l-11.2-7.3l-6.4-4.3l-10.8-7.6l2.4-28.2l0,0l0.1,0.4l0,0l-0.1-0.4l-2.4,28.2l10.8,7.6
		l6.4,4.3l11.2,7.3l11.4,7.1l10.9,6.3l11.2,6.2l8.1,4.4l10.9,5.5l6.7,3.2l11.4,5.1l12.5,5.2l16.6,6.4l12.4,4.4l7.7,2.5l5.4,1.7
		l5.6,1.7l10,2.8l7.1,1.9l4.9,1.2l10.8,2.5l5.8,1.3l9.3,1.8l16.4,3v-0.1l0,0l10.6,1.6l8.3,1.1l7.1,0.9l14.1,1.4l13.8,1l7.6,0.4
		l14.8,0.2L1145.2,732.5l16.8-0.5l12.4-0.7l15-1.2l3.2-0.2l58.7-30.9l0.8-0.4l-1.1,0.4l0,0l1.2-0.4l9.2-1.9l0.3-0.1h0.1l0.3,0.2
		l0.4,0.4l0.1,0.2l0.1,0.3v0.3l-0.1,0.2c0.1,0,0.1,0,0.1-0.1l0,0l0,0l-0.3,0.4l0.1-0.2l0-0.1c-4.9,2.3-13.8,6.8-13.4,8.3
		c0.3,1.2,4.8,0.9,8.4,0.3c4.9-0.7,10.3-2,13.5-2.8c3.6-1,6.8-2.4,9-3.8c2.3-1.5,3.4-2.9,3.1-4c-0.5-1.8-1.2-2.4-3.8-3.2
		c-1.1-0.5-1.1-0.5-2.3-0.9l0,0l0.6-0.2h0.2l3.3-1.1h0.2l1.8-0.6l1.6-0.5l0.3-0.1h0.1l0.3-0.1h0.1l4.4-1.6l1.2-0.4h0.1l1.8-0.7
		l0.2-0.1l3.8-1.5l1.1-0.5l0.3-0.1l2.4-1l0.1-0.1l0.8-0.4l6.5-3.1l0.3-0.1l1.1-0.6l1-0.5l0.3-0.1l2.8-1.5l1.4-0.8l0.5-0.3l1.6-0.9
		l0.8-0.5l2.3-1.4l1.1-0.6l3.2-2l0.1-0.1l1-0.6h0.1l0.5-0.3l2.1-1.4l0.1-0.1l1.5-1l1.7-1.1l0.9-0.6l3.5-2.5l1.5-1.2l0.8-0.6l1.5-1.2
		l1.9-1.5l1-0.8l2.5-2.1l0.1-0.1l0.5-0.4l2.2-2l1.5-1.3l0.2-0.1l0.3-0.3l1.2-1.1l1.7-1.6l4.6-4.6l3.3-3.6l0.9-1l1.5-1.7l0.9-0.9
		l0.7-0.8l0.8-1l2.2-2.6l0.2-0.3l1.5-1.9l0.8-1l1-1.3l0.5-0.6l1.7-2.2l0.3-0.4l0.3-0.5l0.3-0.4l1-1.4l1.2-1.7l0.3-0.4l0.7-1l1.8-2.7
		l0.9-1.4l4-6.7l1.5-2.7l0.8-1.4l0.3-0.5l0.4-0.7l0.2-1l1.7-3.2l0.1-0.3l0.4-0.9l0.3-0.7l1.3-2.7l0.4-0.8l1.5-3.3l0.4-1l0.1-0.3
		l1.5-3.6l1.4-3.3l0.3-0.9l0.8-2.2l0.6-1.7l0.3-0.6l0.1-0.3v-0.1l0.8-2.4v-0.1l0.7-2l1.1-3.3l0.1-0.4v-0.1l0.8-2.8v-0.1l2.8-9.8
		l0.3-1.3l0.7-2.9l0.1-0.3l0.6-2.6l1.1-5.5l0.7-3.2v-0.3l0.2-0.8l0.8-4.5l0.2-1.1v-0.3l0.2-1.1l0.5-3.2v-0.1l0.1-0.5l0.7-4.6
		l0.1-0.6l0.1-0.7v-0.7l0.1-1.1l0.8-6v-1.4l0.4-4.6l0.3-3.7l0.7-7.7v-0.8l0.1-1.3l0.3-4.7l0.1-1.4l0.1-2.8v-1.2l0.1-1.9v-1.4
		l0.3-9.1l0.1-2v-4.2l0.4-0.4l0-0.3l0.2-0.2l0.4-0.5l0.8-0.8l0.1,0l0.2-0.1h0.7v0c0.7,4.6,2.1,7.4,3.6,7.4c1.1,0,2.1-1.5,2.9-4.1
		c0.8-2.7,1.2-6.2,1.2-10.1s-0.4-7.4-1.2-10.1c-0.8-2.7-1.8-4.1-2.9-4.1c-1.8,0-3.4,3.9-3.9,9.5h0.1v0h-0.1c0,0,0,0.1,0,0.1h0V452
		h-0.5l-0.4-0.2l-0.3-0.4l-0.4-0.5l-0.2-0.2l0-0.7l-0.2-0.2l-0.2-0.3l-0.1-3.3l-0.1-3.1l-0.1-3.3l-0.1-2.6v-3.5l-1-16.4l-0.1-2.1
		v-0.3l-0.3-3.4v-0.4l-0.2-1.8l-1-8.6v-0.4l-0.2-1.5l-0.1-0.6l-0.9-6.5l-0.5-3.4l-0.1-0.4l-0.1-0.8l-0.2-1.1l-0.2-1l-0.3-1.6
		l-0.1-0.4l-0.4-2.5l-0.4-2l-0.3-1.6v-0.1l-0.1-0.6l-0.4-1.8l-1.2-5.7l-0.3-1.3l-0.2-1l-0.3-1.1l-0.5-2.3l-0.5-2l-1.4-5.3l-0.5-1.7
		l-0.1-0.3l-0.2-0.7v-0.1l-1.2-4.1l-0.2-0.6l-0.2-0.8l-0.5-1.6l-1.2-3.7l-0.4-1.1l-0.4-1l-0.1-0.2l-1-2.7l-1-2.8l-0.6-1.5v-0.1
		l-0.5-1.2l-0.4-1.1l-0.9-2.2l-2.8-6.3l-0.5-1.1l-3-6l-0.2-0.3l-0.2-0.4l-1.7-3.1l-0.3-0.5l-0.4-0.8l-1.5-2.4l-1.9-3.3l-0.4-0.6
		l-0.1-0.2l-0.7-1.1l-4.3-6.3l-1.4-2.1l-0.3-0.3l-0.2-0.3l-0.9-1.2l-0.4-0.6l-1.6-2l-1.8-2.4l-0.6-0.7l-1.1-1.4l-0.1-0.1l-0.3-0.4
		l-0.1-0.1l-0.8-0.9l-0.1-0.1l-1.6-1.8l-2.5-2.9l-1.1-1.3l-1.3-1.5l-1.5-1.5l-1.4-1.5l-2.4-2.5l-0.4-0.5l-0.1-0.1l-0.7-0.7l-4.2-3.9
		l-0.8-0.8l-0.8-0.7l-0.5-0.4l-2.3-2l-1.8-1.5l-3-2.4l-1.1-0.9l-0.4-0.4l-0.5-0.4l-0.1-0.1l-0.6-0.4l-0.1-0.1l-2.7-2l-0.8-0.6
		l-0.1-0.1l-0.6-0.4l-0.7-0.5l-0.4-0.3l-1.3-0.9l-0.8-0.6l-1.4-1l-2.9-1.9l-0.3-0.2l-1-0.7l-0.6-0.3l-1-0.6l-4.1-2.4l-0.6-0.4
		l-0.2-0.1l-0.8-0.5l-3.4-1.9l-0.3-0.2l-0.7-0.4l-2.1-1.1l-0.7-0.4l-1-0.5l-2.5-1.2l-0.8-0.4l-0.7-0.3l-0.2-0.1l-1.5-0.7l-0.8-0.4
		l-0.9-0.4l-2.2-0.9l-4-1.7l-1.9-0.8l-2.2-0.9l-0.3-0.1l-0.8-0.3l-0.6-0.2l-1.9-0.7l-2.7-1l-2.1-0.7l-4.6-1.5l0,0l-0.7-0.2l0,0l0,0
		l0.4,0.1l0.2,0.1l-0.4-0.1l-1.3-0.4h-0.1l-2.5-0.7l-1.3-1.8l0,0c4.4,0.8,5.5,0.1,6-1.3c0.4-1.1-0.6-2.6-2.7-4.2
		c-2.1-1.6-5.2-3.3-8.7-4.6c-3.2-1.2-7.4-2.4-11.1-3.1c-4.1-0.8-7.1-0.9-8.2-0.4c-0.3,0.1-0.5,0.3-0.6,0.5c-0.6,1.7,8.2,6.8,13,9.2
		l0.2,0.3l0.1,0.1l0,0.2v0.5l-0.2,0.4l-0.2,0.1l-0.1,0.1l-0.3,0l-0.1,0.2l0.3-0.1l0,0l-0.7,0.3h-0.5l-64.6-32.6l-4-0.9l-23.9-1.6
		l-10-0.5l-10.5-0.3l-7.4-0.1l-8,0.1l-6.6,0.2l-7.1,0.3l-12.9,0.9l-10.5,1l-10.6,1.2l-14.2,2l-11,1.7l-6.8,1.2l-18.6,3.6l-10.4,2.3
		l-6.1,1.5l-8.9,2.3l-13.9,4l-10.7,3.4l-8.7,2.9l-18.2,6.7l-3.8,1.5l-13,5.4l-16.6,7.5L898,244.3l0.4,0.9l0,0l-17.8,10.1l-9.5,5.7
		l-6.2,3.9l-14.7,9.8l-10.5,7.4l-4.9,3.5l0,13.3h0l0-13.3l4.9-3.5l10.5-7.4l14.7-9.8l6.2-3.9l9.5-5.7l17.8-10.1l-0.4-0.9l0,0
		l23.5-10.9l16.6-7.5l13-5.4l3.8-1.5l18.2-6.7l8.7-2.9l10.7-3.4l13.9-4l8.9-2.3l6.1-1.5l10.4-2.3l18.6-3.6l6.8-1.2l11-1.7l14.2-2
		l10.6-1.2l10.5-1l12.9-0.9l7.1-0.3l6.6-0.2l8-0.1l7.4,0.1l10.5,0.3l10,0.5l23.9,1.6l4,0.9l64.6,32.6l0.5,0l0.6-0.3l-0.2,0.1l0,0
		l0.1-0.2l0.3,0l0.1-0.1l0.2-0.1l0.2-0.4V218l-0.1-0.1l-0.2-0.3c-4.8-2.4-13.6-7.5-13-9.2c0.1-0.2,0.3-0.4,0.6-0.5
		c1.2-0.5,4.1-0.4,8.2,0.4c3.7,0.7,7.9,1.9,11.1,3.1c3.4,1.3,6.5,2.9,8.7,4.6c2.2,1.7,3.1,3.2,2.7,4.2c-0.5,1.4-1.6,2.1-6,1.3
		l1.3,1.8l2.5,0.7h0.1l1.3,0.4l0.5,0.2l4.6,1.5l2.1,0.7l2.7,1l1.9,0.7l0.6,0.2l0.8,0.3l0.3,0.1l2.2,0.9l1.9,0.8l4,1.7l2.2,0.9
		l0.9,0.4l0.8,0.4l1.5,0.7l0.2,0.1l0.7,0.3l0.8,0.4l2.5,1.2l1,0.5l0.7,0.4l2.1,1.1l0.7,0.4l0.3,0.2l3.4,1.9l0.8,0.5l0.2,0.1l0.6,0.4
		l4.1,2.4l1,0.6l0.6,0.3l1,0.7l0.3,0.2l2.9,1.9l1.4,1l0.8,0.6l1.3,0.9l0.4,0.3l0.7,0.5l0.6,0.4l0.1,0.1l0.8,0.6l2.7,2l0.1,0.1
		l0.6,0.4l0.1,0.1l0.5,0.4l0.4,0.4l1.1,0.9l3,2.4l1.8,1.5l2.3,2l0.5,0.4l0.8,0.7l0.8,0.8l4.2,3.9l0.8,0.8l0.4,0.5l2.4,2.5l1.4,1.5
		l1.5,1.5l1.3,1.5l1.1,1.3l2.5,2.9l1.6,1.8l0.1,0.1l0.8,0.9l0.1,0.1l0.3,0.4l0.1,0.1l1.1,1.4l0.6,0.7l1.8,2.4l1.6,2l0.4,0.6l0.9,1.2
		l0.2,0.3l0.3,0.3l1.4,2.1l4.3,6.3l0.7,1.1l0.1,0.2l0.4,0.6l1.9,3.3l1.5,2.4l0.4,0.8l0.3,0.5l1.7,3.1l0.2,0.4l0.2,0.3l3,6l0.5,1.1
		l2.8,6.3l0.9,2.2l0.4,1.1l0.5,1.2v0.1l0.6,1.5l1,2.8l1,2.7l0.1,0.2l0.4,1l0.4,1.1l1.2,3.7l0.5,1.6l0.2,0.8l0.2,0.6l1.2,4.1v0.1
		l0.2,0.7l0.1,0.3l0.5,1.7l1.4,5.3l0.5,2l0.5,2.3l0.3,1.1l0.2,1l0.3,1.3l1.2,5.7l0.4,1.8l0.1,0.6v0.1l0.3,1.6l0.4,2l0.4,2.5l0.1,0.4
		l0.3,1.6l0.2,1l0.2,1.1l0.1,0.8l0.1,0.4l0.5,3.4l0.9,6.5l0.1,0.6l0.2,1.5v0.4l1,8.6l0.2,1.8v0.4l0.3,3.4v0.3l0.1,2.1l1,16.4v3.5
		l0.1,2.6l0.1,3.3l0.1,3.1l0.1,3.3l0.2,0.3l0.2,0.2l0,0.7l0.2,0.2l0.4,0.5l0.3,0.4l0.4,0.2h0.5c0.5-5.6,2.1-9.5,3.9-9.5
		c1.1,0,2.1,1.5,2.9,4.1c0.8,2.7,1.2,6.2,1.2,10.1c0,3.8-0.4,7.4-1.2,10.1c-0.8,2.7-1.8,4.1-2.9,4.1c-1.5,0-2.9-2.8-3.6-7.4h-0.1
		l0.1,0.1l0,0l-0.1-0.1l-0.6,0l-0.2,0.1h-0.1l-0.8,0.8l-0.4,0.5l-0.2,0.2l0,0.3l-0.4,0.4l0,0.5v3.7l-0.1,2l-0.3,9.1v1.4l-0.1,1.9
		v1.2l-0.1,2.8l-0.1,1.4l-0.3,4.7l-0.1,1.3v0.8l-0.7,7.7l-0.3,3.7l-0.4,4.6v1.4l-0.8,6l-0.1,1.1v0.7l-0.1,0.7l-0.1,0.6l-0.7,4.6
		l-0.1,0.5v0.1l-0.5,3.2l-0.2,1.1v0.3l-0.2,1.1l-0.8,4.5l-0.2,0.8v0.3l-0.7,3.2l-1.1,5.5l-0.6,2.6l-0.1,0.3l-0.7,2.9l-0.3,1.3
		l-2.8,9.8v0.1l-0.8,2.8v0.1l-0.1,0.4l-1.1,3.3l-0.7,2v0.1l-0.8,2.4v0.1l-0.1,0.3l-0.3,0.6l-0.6,1.7l-0.8,2.2l-0.3,0.9l-1.4,3.3
		l-1.5,3.6l-0.1,0.3l-0.4,1l-1.5,3.3l-0.4,0.8l-1.3,2.7l-0.3,0.7l-0.4,0.9l-0.1,0.3l-1.7,3.2l-0.2,1l-0.4,0.7l-0.3,0.5l-0.8,1.4
		l-1.5,2.7l-0.3,0.5l-3.7,6.2l-0.9,1.4l-1.8,2.7l-0.7,1l-0.3,0.4l-1.2,1.7l-1,1.4l-0.3,0.4l-0.3,0.5l-0.3,0.4l-1.7,2.2l-0.5,0.6
		l-1,1.3l-0.8,1l-1.5,1.9l-0.2,0.3l-2.2,2.6l-0.8,1l-0.7,0.8l-0.9,0.9l-1.5,1.7l-0.9,1l-3.3,3.6l-4.6,4.6l-1.7,1.6l-1.2,1.1
		l-0.3,0.3l-0.2,0.1l-1.5,1.3l-2.2,2l-0.5,0.4l-0.1,0.1l-2.5,2.1l-1,0.8l-1.9,1.5l-1.5,1.2l-0.8,0.6l-1.5,1.2l-3.5,2.5l-0.9,0.6
		l-1.7,1.1l-1.5,1l-0.1,0.1l-2.1,1.4l-0.5,0.3h-0.1l-1,0.6l-0.1,0.1l-3.2,2l-1.1,0.6l-2.3,1.4l-0.8,0.5l-1.6,0.9l-0.5,0.3l-1.4,0.8
		l-2.8,1.5l-0.3,0.1l-1,0.5l-1.1,0.6l-0.3,0.1l-6.5,3.1l-0.8,0.4l-0.1,0.1l-2.4,1l-0.3,0.1l-1.1,0.5l-3.8,1.5l-0.2,0.1l-1.8,0.7
		h-0.1l-1.2,0.4l-4.4,1.6h-0.1l-0.3,0.1h-0.1l-0.3,0.1l-1.6,0.5l-1.8,0.6h-0.2l-3.3,1.1h-0.2l-0.6,0.2c1.2,0.4,1.2,0.4,2.3,0.9
		c2.6,0.8,3.3,1.4,3.8,3.2c0.3,1.1-0.8,2.5-3.1,4c-2.3,1.4-5.5,2.8-9,3.8c-3.1,0.9-8.5,2.1-13.5,2.8c-3.7,0.5-8.1,0.9-8.4-0.3
		c-0.2-0.7,1.6-2.1,5.2-4.1c2.7-1.5,6-3.2,8.3-4.2l0.1-0.2v-0.3l-0.1-0.3l-0.1-0.2l-0.4-0.4l-0.3-0.2l-0.1,0l-0.3,0.1l-9.2,1.9
		l-0.8,0.4l-58.7,30.9l-3.2,0.2l-15,1.2L1162,732L1145.2,732.5z M1262.5,698.2l0,0.1l-0.1,0.2l0.3-0.4
		C1262.6,698.1,1262.6,698.2,1262.5,698.2z M1417.4,452L1417.4,452C1417.4,452,1417.4,452,1417.4,452L1417.4,452z M1277.5,224.5
		l0.3,0.1l-0.1,0L1277.5,224.5z"/>
	<polygon points="839.9,604.8 839.8,604.4 839.9,604.5 839.9,604.5 839.8,604.4 839.9,604.8 	"/>
	<path d="M1128.4,695.8h-12.2l-1.1-0.1l-0.8-0.1l-2.7-0.2l-2.9-0.2l-4.1-0.3l-0.9-0.1l-7.1-0.7h-0.3l-2.1-0.2l-1.4-0.2l-8.3-1
		l-0.5-0.1l-1.4-0.2l-9.1-1.3l-1.1-0.2h-0.3l-5-0.8l-5.4-0.9l-1.4-0.2h-0.1l-1.4-0.2l-3-0.5l-0.9-0.2h-0.1l-0.9-0.2l-5.7-1.1l-5.3-1
		l-1.1-0.2l-3.2-0.7l-2.1-0.4l-3-0.6l-3.1-0.7h-0.1l-0.3-0.1l-6.1-1.5l-4.7-1.2l-1-0.2l-0.9-0.2l-1-0.3l-0.3-0.1l-3.2-0.9l-0.9-0.3
		l-4.3-1.2l-0.5-0.1l-0.7-0.2l-1.8-0.6l-4.6-1.4l-3.8-1.2l-1.3-0.4L988,671l-2.6-0.9l-1.9-0.7l-6.6-2.4l-0.4-0.1h-0.1l-0.4-0.2
		l-3.4-1.2l-1.1-0.4l-0.5-0.2l-4.7-1.8l-1.6-0.6l-0.7-0.3l-3.5-1.4l-0.8-0.3l-5.4-2.2l-0.6-0.3l-1.8-0.8l-0.3-0.1l-2.7-1.2l-0.8-0.4
		l-2.5-1.1l-0.7-0.3l-1-0.5l-2.2-1l-3-1.5h-0.1l-0.4-0.2h-0.1l-1-0.5l-8-3.9l-1.3-0.6h-0.1l-1.5-0.8l-1.9-1l-0.4-0.2l-4.7-2.5
		l-1.7-0.9l-0.4-0.2l-0.6-0.4l-1-0.6l-5.2-2.9l-1-0.6l-5.3-3.1l-0.6-0.4l-0.5,0l-0.9-0.5l-1.4-0.8l-8.7-5.3l-0.4-0.2l-2.6-1.6
		l-0.1-0.1l-0.6-0.4l-3.6-2.3l-4.3-2.7l-0.4-0.2l-1-0.6l-0.1-0.1l-0.6-0.4l-3.4-2.2l-0.7-0.5l-0.6-0.4l-4-2.8l-0.9-0.6l-0.8-0.6
		l-0.3-0.2l-0.4-0.3l-7.1-5.1l-0.5-0.4l-0.2-0.1l-0.6-0.5l-0.7-0.5l-2.2-1.6l-0.4-0.3l-4.5-3.2l-4.6-3.3l-0.7-0.4l-1.8-1.1l-1.1-0.7
		l-0.2-0.1l-0.7-0.3l-0.2-0.1l-1.9-0.9l-0.1-0.1l-1.6-0.6l-1.2-0.4h-0.1l-2.1-0.5l-0.6-0.1h-0.1l-1.1-0.2H830l-1.5,0.2h-0.1
		l-0.9,0.2l-0.2,0.1h-0.1l-0.8,0.2l-0.5,0.2l-0.8,0.4l-0.3,0.1l-0.7,0.4l-0.3,0.2l-0.8,0.4l-0.1,0.1l-0.5,0.3l-1.2,0.8l-0.2,0.2
		l-0.8,0.6l-0.6,0.4l-0.3,0.3l-0.7,0.8l-0.3,0.3l-0.8,1l-0.3,0.4l-0.2,0.3l-0.1,0.2l-0.4,0.6l-0.1,0.1l-0.3,0.6l-0.3,0.5v0.2
		l-0.2,0.2l0,0.1l-0.3,0.8l-0.2,0.5l-0.2,0.8v0.1l-0.3,1.7l-0.2,0.6l-0.1,0.4v3.2l0.1,1.1v0.1l0.1,0.4l0.1,0.5v0.1l0.1,0.6v0.2
		l0.2,0.4l0.1,0.3l0.3,0.7l0.2,0.4l0.1,0.1l0.4,0.6l0.1,0.2l0.5,0.8l0.2,0.3l0.5,0.6l0.2,0.2l0.1,0.2l0.4,0.4l0.7,0.6l0.8,0.6
		l0.1,0.1l0.3,0.2l0.7,0.5l0.6,0.3l0.1,0.1l0.5,0.3l1.6,0.8l0.5,0.2h0.1l0.2,0.1h0.9l0.3-0.1l0.1-0.1l0.4-0.4l1.9-2.4l0.5-0.6
		l0.3-0.4l0.1-0.1l0.3-0.4l0.1-0.1l0.1-0.2V614l-0.3-0.7l-1-1.6l-0.1-0.2l-0.4-0.7l-0.8-1.5l-0.3-0.6l-0.1-0.1l-0.4-1.2v-0.1
		l-0.2-0.8v-1.1l0.1-0.3v-0.5l0.3-0.8l0.1-0.3l0.3-0.3l0.6-0.8l0-0.1l0.1-0.1l0.8-0.7l0.2-0.2l0.2-0.1l0.6-0.4l0.3-0.1l0.5-0.2h0.1
		l0.3-0.1l0.5-0.1l0.3-0.1h1.5l0.4,0.2l0.3,0.1l0.7,0.2l0.7,0.3l0.8,0.5l0.7,0.4l0.4,0.2l0.5,0.3l1.4,1l1.1,0.7l0.4,0.3l0,0
		l-0.4-0.3l-1.1-0.7l-1.4-1l-0.5-0.3l-0.4-0.2l-0.7-0.4l-0.8-0.5l-0.7-0.3l-0.7-0.2l-0.3-0.1l-0.4-0.2h-1.5l-0.3,0.1l-0.5,0.1
		l-0.3,0.1h-0.1l-0.5,0.2l-0.3,0.1l-0.6,0.4l-0.2,0.1l-0.2,0.2l-0.8,0.7l-0.1,0.1l0,0.1l-0.6,0.8l-0.3,0.3l-0.1,0.3l-0.3,0.8v0.5
		l-0.1,0.3v1.1l0.2,0.8v0.1l0.4,1.2l0.1,0.1l0.3,0.6l0.8,1.5l0.4,0.7l0.1,0.2l1,1.6l0.3,0.7v0.7l-0.1,0.2L829,615l-0.3,0.4l-0.1,0.1
		l-0.3,0.4l-0.5,0.6l-1.9,2.4l-0.5,0.5l-0.3,0.1h-0.9l-0.2-0.1h-0.1l-0.5-0.2l-1.6-0.8l-0.5-0.3l-0.1-0.1l-0.6-0.3l-0.7-0.5
		l-0.3-0.2l-0.1-0.1l-0.8-0.6l-0.7-0.6l-0.4-0.4l-0.1-0.2l-0.2-0.2l-0.5-0.6l-0.2-0.3l-0.5-0.8L816,613l-0.4-0.6l-0.1-0.1l-0.2-0.4
		l-0.3-0.7l-0.1-0.3l-0.2-0.4v-0.2l-0.1-0.6v-0.1l-0.1-0.5l-0.1-0.4v-0.1l-0.1-1.1v-3.2l0.1-0.4l0.2-0.6l0.3-1.7v-0.1l0.2-0.8
		l0.2-0.5l0.3-0.8v-0.1l0.2-0.2l0-0.2l0.3-0.5l0.3-0.6l0.1-0.1l0.4-0.6l0.1-0.2l0.2-0.3l0.3-0.4l0.8-1l0.3-0.3l0.7-0.8l0.3-0.3
		l0.6-0.4l0.8-0.6l0.2-0.2l1.2-0.8l0.5-0.3l0.1-0.1l0.8-0.4l0.3-0.2l0.7-0.4l0.3-0.1l0.8-0.4l0.5-0.2l0.8-0.2h0.1l0.2-0.1l0.9-0.2
		h0.1l1.5-0.2h2.8l1.1,0.2h0.1l0.6,0.1l2.1,0.5h0.1l1.2,0.4l1.6,0.6l0.1,0.1l1.9,0.9l0.2,0.1l0.7,0.3l0.2,0.1l1.1,0.7l1.8,1.1
		l0.7,0.4l4.6,3.3l4.5,3.2l0.4,0.3l2.2,1.6l0.7,0.5l0.6,0.5l0.2,0.1l0.5,0.4l7.1,5.1l0.4,0.3l0.3,0.2l0.8,0.6l0.9,0.6l4,2.8l0.6,0.4
		l0.7,0.5l3.4,2.2l0.6,0.4l0.1,0.1l1,0.6l0.4,0.2l4.3,2.7l3.6,2.3l0.6,0.4l0.1,0.1l2.6,1.6l0.4,0.2l8.7,5.3l1.4,0.8l0.9,0.5h0.5
		l0.6,0.4l5.3,3.1l1,0.6l5.2,2.9l1,0.6l0.6,0.4l0.4,0.2l1.7,0.9l4.7,2.5l0.4,0.2l1.9,1l1.5,0.8h0.1l1.3,0.6l8,3.9l1,0.5h0.1l0.4,0.2
		h0.1l3,1.5l2.2,1l1,0.5l0.7,0.3l2.5,1.1l0.8,0.4l2.7,1.2l0.3,0.1l1.8,0.8l0.6,0.3l5.4,2.2l0.8,0.3l3.5,1.4l0.7,0.3l1.6,0.6l4.7,1.8
		l0.5,0.2l1.1,0.4l3.4,1.2l0.4,0.2h0.1l0.4,0.1l6.6,2.4l1.9,0.7l2.6,0.9l6.9,2.3l1.3,0.4l3.8,1.2l4.6,1.4l1.8,0.6l0.7,0.2l0.5,0.1
		l4.3,1.2l0.9,0.3l3.2,0.9l0.3,0.1l1,0.3l0.9,0.2l1,0.2l4.7,1.2l6.1,1.5l0.3,0.1h0.1l3.1,0.7l3,0.6l2.1,0.4l3.2,0.7l1.1,0.2l5.3,1
		l5.7,1.1l0.9,0.2h0.1l0.9,0.2l3,0.5l1.4,0.2h0.1l1.4,0.2l5.4,0.9l5,0.8h0.3l1.1,0.2l10.5,1.5l0.5,0.1l8.3,1l1.4,0.2l2.1,0.2h0.3
		l7.1,0.7l0.9,0.1l4.1,0.3l2.9,0.2l2.7,0.2l0.8,0.1l1.1,0.1L1128.4,695.8l3.8-0.2h1.9l1.9-0.1l1.2-0.2l5.5-0.5l0.5-0.1l1.3-0.1
		l2.9-0.3l2.3-0.3l3.2-0.4l3.5-0.5h0.1l1-0.2l8.4-1.7h0.1l3.1-0.8h0.1l0.7-0.2l0.6-0.2l1.3-0.4l1.9-0.6l2.7-0.8l0.2-0.1l0.3-0.1
		l0.5-0.2l0.4-0.1l0.3-0.1l3-1l0.4-0.1l2.8-1l0.6-0.2l2.3-0.9l0.6-0.2l0.5-0.2l1.2-0.5l1.8-0.8h0.1l0.4-0.2l0.7-0.4l0.7-0.3l0.9-0.5
		l1.5-0.7l2.4-1.2l0.5-0.3l0.6-0.3l3.2-1.7l1.9-1.1l1.1-0.6l2.6-1.5l1.1-0.6l4.7-2.8l0.4-0.3l0.2-0.1l0.6-0.4l2.5-1.6l1.6-1l0.3-0.2
		l0.4-0.2l0.1-0.1l0.3-0.2l0.2-0.2l9.1-6.2l0.6-0.4l0.2-0.2l1.1-0.8l1.2-0.9l1.2-0.8l1.8-1.3l1.5-1.1l1.8-1.3l0.9-0.7l1.6-1.3
		l2.8-2.2l1-0.8l3.4-2.8l1.1-1l0.8-0.6l3.6-3.1l7.2-6.3l1.5-1.3l2.7-2.5l1-0.9l0.9-0.8l1.6-1.5l1.1-1l3.6-3.6l2.2-2.3l2-2.1l0.8-0.8
		l0.6-0.7l2.7-2.9l4.3-5l0.8-0.9l2.4-2.9l0.1-0.1l0.7-0.9l0.4-0.4l1.4-1.7l2.2-2.8l1-1.3l0.1-0.1l0.6-0.9l3.8-5.2l1.2-1.9l0.8-1.1
		l2-3.1l0.7-1.1l0.4-0.6l0.1-0.2l0.4-0.6l2.2-3.7l0.6-1.1l0.1-0.2l0.8-1.5l1.4-2.5l3.2-5.9l0.7-1.2l1.9-3.8l0.2-0.5v-0.1l0.1-0.1
		l2-4.3l0.1-0.2l0.2-0.5l0.3-0.6l2.6-6l1.5-3.4l0.1-0.2v-0.1l1.5-3.7l0.4-1l0.2-0.4v-0.1l0.3-0.7l0.8-2l0.5-1.3l1.6-4.5l0.7-2.1
		l1.2-3.7l0.4-1.2l0.2-0.7l0.1-0.2l2-6.6v-0.3l0.5-1.9l0.2-0.7l0.2-0.9l0.7-2.5l0.1-0.3l1.1-4.5l0.4-1.7l0.3-1.6l0.4-1.7l0.5-2.6
		v-0.1l0.1-0.3l0.1-0.4l0.1-0.3l0.4-2.4l0.6-3.3l0.1-0.5l0.1-0.6l0.4-2.8l0.2-0.8v-0.1l0.8-6.6v-0.6l0.1-0.5l0.5-5l0.1-0.7V475
		l0.3-5l0.1-1v-1.1l0.1-9.4v-5.2l-0.2-4.5v-1.9l-0.2-2.6l-0.1-2.1v-0.5l-0.3-3.9l-0.1-1.4v-0.1l-0.1-0.9l-0.3-3.1v-0.2l-0.8-5.7
		v-0.5l-0.1-0.4v-0.1l-0.3-1.6l-0.9-5.3l-0.2-1.5l-0.1-0.3v-0.2l-0.1-0.4l-0.9-3.9l-0.5-2.5l-0.3-1.4l-0.3-1.1l-1-3.9l-0.4-1.6v-0.1
		l-0.2-0.7v-0.2l-0.7-2.6l-0.6-2.2l-0.7-2.5l-1.2-3.7l-1-3l-0.5-1.4l-1-2.9l-1.6-4.3l-0.2-0.5l-0.3-0.8l-0.4-1.1l-0.3-0.9l-0.4-1
		l-0.3-0.8l-0.3-0.7l-2.6-6.2l-2.1-5l-0.8-1.6l-0.3-0.7l-2-4.2l-1.4-2.9l-0.3-0.7l-0.1-0.2l-0.1-0.1l-0.2-0.4l-0.7-1.3l-2-3.8
		l-0.2-0.4l-0.6-1l-0.4-0.8l-1.5-2.8l-0.4-0.7l-2-3.4l-2.2-3.6l-0.7-1.1l-0.1-0.1l-2-2.9l-2.4-3.6l-0.5-0.7l-0.9-1.2l-2.2-3
		l-0.4-0.6l-3.6-4.6l-0.5-0.7l-0.3-0.4l-1.2-1.5l-3.6-4.3l-0.1-0.1l-0.7-0.8l-0.8-0.9l-3.7-4.2l-0.5-0.5l-4.2-4.5l-1.1-1.1l-5.7-5.7
		l-3.8-3.5l-1-1l-8.8-7.7l-1.8-1.5l-3.5-3l-3.1-2.6l-0.9-0.8l-3.3-2.7l-1.2-0.9l-0.3-0.2l-0.2-0.2l-6.4-4.8l-0.1-0.1l-0.8-0.6
		l-3.5-2.5l-0.4-0.2l-0.9-0.6l-0.1,0l-0.3-0.3l-0.5-0.3l-0.1,0l-0.3-0.2l-0.1,0l-8.3-5.6l-0.2-0.2l-0.6-0.4l-0.7-0.5l-0.9-0.5
		l-0.7-0.5l-2-1.2l-3.7-2.3l-4.7-2.7l-0.8-0.4l-3.8-2.1l-0.8-0.4l-0.7-0.4l-1-0.5l-4.5-2.4l-0.6-0.3l-0.6-0.2l-4.3-1.9l-0.7-0.3
		l-0.3-0.1l-2.5-1l-0.3-0.1h-0.1l-0.3-0.1l-0.2-0.1l-0.1,0l-1.5-0.5l-1.7-0.6l-0.9-0.3l-0.2-0.1l-4.3-1.4l-2.1-0.7l-0.4-0.1l-3.6-1
		l-0.4-0.1h-0.2l-0.6-0.2l-0.4-0.2l-3.1-0.8l-0.3-0.1l-0.4-0.1l-5-1l-0.8-0.2l-1.4-0.2l-3.1-0.5l-0.6-0.1h-0.5l-2.3-0.3l-1.8-0.3
		l-2.6-0.3l-1.1-0.1h-0.1l-3.2-0.3l-0.7-0.1l-3.2-0.3l-1-0.1l-0.6-0.1l-2.9-0.2h-0.4l-2.2-0.1l-2.5-0.1h-9.2l-1.3,0.1l-1.4,0.1
		l-7,0.3l-0.8,0.1h-0.1l-7.3,0.6l-1.8,0.2l-2.9,0.3l-3.1,0.3l-0.7,0.1l-8.3,1l-0.5,0.1l-3.5,0.5l-8,1.1l-1.7,0.2l-3.7,0.6h-0.2
		l-2.1,0.4l-4.3,0.8l-4.8,0.8l-0.7,0.1l-6.5,1.3l-0.3,0.1l-2.1,0.4l-0.7,0.1l-7.9,1.6l-0.6,0.1l-0.4,0.1h-0.2l-5.5,1.3l-0.4,0.1
		h-0.2l-1.2,0.3l-3.3,0.8l-1.1,0.3l-3.2,0.8l-1.1,0.3l-1.6,0.4l-2.5,0.7l-2.7,0.8l-1.1,0.3l-1.5,0.4l-2.5,0.7l-1.2,0.3l-6.8,2.1
		l-6.2,1.9l-1.5,0.5l-0.2,0.1l-0.7,0.2l-1.6,0.5l-0.8,0.3l-1,0.3l-10.8,3.8l-1.3,0.5l-0.4,0.1l-1,0.4l-1,0.3l-1.7,0.6l-0.5,0.2
		l-2.3,0.9l-5.2,2l-4.5,1.8l-0.4,0.2l-0.1,0l-0.4,0.2l-2,0.8l-1.8,0.7l-2.7,1.2l-3.7,1.6l-1.5,0.7l-0.1,0.1l-3.9,1.8l-1.7,0.8
		l-1,0.5l-1.9,0.9l-1,0.5l-4.5,2.2l-1.4,0.7l-0.5,0.2l-2.7,1.4l-3.6,1.8l-0.3,0.2l-0.1,0.1L924,274l-3.3,1.8l-0.6,0.3l-0.9,0.5
		l-0.6,0.3l-0.5,0.3l-1.4,0.8l-0.2,0.1l-8.5,4.8l-0.8,0.5l-0.7,0.4l-0.5,0.3l-0.3,0.2l-2.5,1.5l-1.3,0.8l-7.9,4.8l-0.2,0.1l-1.1,0.7
		l-0.1,0.1l-5.8,3.6l-1.5,1l-0.8,0.6l-1,0.7l-0.4,0.3l-2.5,1.6l-5.8,3.8l-1.4,1l-4.8,3.4l-0.6,0.4l-1.6,1.1l-3.1,2.2l-6.8,4.8
		l-4.8,3.4l-4.6,3.3l-0.6,0.4l-0.8,0.5l-1.2,0.8l-1.2,0.7L843,326l-1.2,0.6l-1.1,0.5l-1.4,0.6l-0.3,0.1l-0.2,0.1l-0.8,0.3l-0.2,0.1
		l-0.8,0.3h-0.1l-2.4,0.6h-0.6l-1.3,0.1h-0.9l-1.3-0.1l-0.8-0.1l-1-0.2l-0.9-0.3l-0.5-0.1l-0.6-0.3l-0.8-0.3l-0.2-0.1l-0.1-0.1
		l-0.9-0.5l-0.2-0.1l-0.5-0.3l-0.3-0.2l-0.7-0.5l-0.4-0.3l-0.1,0l-0.4-0.3l-1.2-1.1l-0.3-0.3l-0.2-0.1l-0.7-0.7l-0.5-0.6l-0.4-0.5
		l-0.6-0.8l-0.2-0.3l-0.5-0.9v-0.1l-0.1-0.2l-0.2-0.5l-0.3-0.6l-0.3-0.8l-0.1-0.2l-0.1-0.3v-0.1l-0.5-1.8l-0.2-0.7v-0.2l-0.2-0.8
		l-0.2-1.2v-1.4l-0.1-0.8v-0.4l0.1-0.7l0.1-0.5l0.1-0.3v-0.2l0.1-0.3l0.4-1l0.2-0.8l0.3-0.6l0.2-0.6l0.3-0.5l0.2-0.3l0.2-0.2
		l0.5-0.7l0.2-0.2l0.2-0.3l0.2-0.2l0.4-0.3l0.6-0.6l0.3-0.2l0.8-0.6l0.3-0.3l0.3-0.2l1.5-0.9l0.4-0.2l0.3-0.2l0.4-0.2l0.1-0.1
		l0.7-0.2l0.3-0.1l0.2-0.1l0.5-0.1h0.8l0.2,0.2l0.1,0l0.2,0.3l1.3,1.7l0.8,1.1l0.4,0.6l0.4,0.5l0.1,0.2l0.1,0.1l0.1,0.2v0.2
		l-0.1,0.4v0.2l-0.1,0.3l-0.2,0.4l-0.1,0.3l-0.7,1.1l-0.8,1.2l-0.2,0.4l-0.5,0.9l0,0l-0.9-1.4v0.1l-0.4,0.9l-0.2,0.4l-0.1,0.3
		l-0.2,0.8v0.7l0.1,0.8v0.6l0.1,0.1l0.2,0.5l0.1,0.3v0.1l0.1,0.2l1,1.3l1.1,0.9l0.3,0.2l0.4,0.2l0.8,0.3h0.2l0.6,0.1h1.2l0.7-0.1
		l0.9-0.3l0.4-0.2l0.3-0.2l0.1-0.1l0.3,0l1.1-2.4l0,0l-1.1,2.4l0.3,0.1l0,0l-0.5,0.3l0,0l0.2-0.4l-0.3,0l-0.1,0.1l-0.3,0.2l-0.4,0.2
		l-0.9,0.3l-0.7,0.1h-1.2l-0.6-0.1h-0.2l-0.8-0.3l-0.4-0.2l-0.3-0.2l-1.1-0.9l-1-1.3l-0.1-0.2v-0.1l-0.1-0.3l-0.2-0.5l-0.1-0.1
		l0-0.1v-0.5l-0.1-0.8v-0.7l0.2-0.8l0.1-0.3l0.2-0.4l0.4-0.9v-0.1l0,0l0.9,1.4l0.5-0.9l0.2-0.4l0.8-1.2l0.7-1.1l0.1-0.3l0.2-0.4
		l0.1-0.3v-0.2l0.1-0.4v-0.2l-0.1-0.2l-0.1-0.1l-0.1-0.2l-0.4-0.5l-0.4-0.6l-0.8-1.1l-1.3-1.7l-0.2-0.3l-0.1,0l-0.2-0.2l-0.8,0
		l-0.5,0.1l-0.2,0.1l-0.3,0.1l-0.7,0.2l-0.1,0.1l-0.4,0.2l-0.3,0.2l-0.4,0.2l-1.5,0.9l-0.3,0.2l-0.3,0.3l-0.8,0.6l-0.3,0.2l-0.6,0.6
		l-0.4,0.3l-0.2,0.2l-0.2,0.3l-0.2,0.2l-0.5,0.7l-0.2,0.2l-0.2,0.3l-0.3,0.5l-0.2,0.6l-0.3,0.6l-0.2,0.8l-0.4,1l-0.1,0.3v0.2
		l-0.1,0.3l-0.1,0.5l-0.1,0.7v0.4l0.1,0.8v1.4l0.2,1.2l0.2,0.8v0.2l0.2,0.7l0.5,1.8v0.1l0.1,0.3l0.1,0.2l0.3,0.8l0.3,0.6l0.2,0.5
		l0.1,0.2v0.1l0.5,0.9l0.2,0.3l0.6,0.8l0.4,0.5l0.5,0.6l0.7,0.7l0.2,0.1l0.3,0.3l1.2,1.1l0.4,0.3l0.1,0l0.4,0.3l0.7,0.5l0.3,0.2
		l0.5,0.3l0.2,0.1l0.9,0.5l0.1,0.1l0.2,0.1l0.8,0.3l0.6,0.3l0.5,0.1l0.9,0.3l1,0.2l0.8,0.1l1.3,0.1h0.9l1.3-0.1h0.6l2.4-0.6h0.1
		l0.8-0.3l0.2-0.1l0.8-0.3l0.2-0.1l0.3-0.1l1.4-0.6l1.1-0.5l1.2-0.6l0.3-0.1l1.2-0.7l1.2-0.8l0.8-0.5l0.6-0.4l4.6-3.3l4.8-3.4
		l6.8-4.8l3.1-2.2l1.6-1.1l0.6-0.4l4.8-3.4l1.4-1l5.8-3.8l2.5-1.6l0.4-0.3l1-0.7l0.8-0.6l1.5-1l5.8-3.6l0.1-0.1l1.1-0.7l0.2-0.1
		l7.9-4.8l1.3-0.8l2.5-1.5l0.3-0.2l0.5-0.3l0.7-0.4l0.8-0.5l8.5-4.8l0.2-0.1l1.4-0.8l0.5-0.3l0.6-0.3l0.9-0.5l0.6-0.3l3.3-1.8
		l0.8-0.4l0.1-0.1l0.3-0.2l3.6-1.8l2.7-1.4l0.5-0.2l0.2-0.1l1.2-0.6l4.5-2.2l1-0.5l1.9-0.9l1-0.5l1.7-0.8l3.9-1.8l0.1-0.1l1.5-0.7
		l3.7-1.6l2.7-1.2l1.8-0.7l2-0.8l0.4-0.2l0.1,0l0.4-0.2l4.5-1.8l5.2-2l2.3-0.9l0.5-0.2l1.7-0.6l1-0.3l1-0.4l0.4-0.1l1.3-0.5
		l10.8-3.8l1-0.3l0.8-0.3l1.6-0.5l0.7-0.2l0.2-0.1l1.5-0.5l6.2-1.9l6.8-2.1l1.2-0.3l2.5-0.7l1.5-0.4l1.1-0.3l2.7-0.8l2.5-0.7
		l1.6-0.4l1.1-0.3l3.2-0.8l1.1-0.3l3.3-0.8l1.2-0.3h0.2l0.4-0.1l5.5-1.3h0.2l0.4-0.1l0.6-0.1l7.9-1.6l0.7-0.1l2.1-0.4l0.3-0.1
		l6.5-1.3l0.7-0.1l4.8-0.8l4.3-0.8l2.1-0.4h0.2l3.7-0.6l1.7-0.2l8-1.1l3.5-0.5l0.5-0.1l8.3-1l0.7-0.1l3.1-0.3l2.9-0.3l1.8-0.2
		l7.3-0.6h0.1l0.8-0.1l7-0.3l1.4-0.1l1.3-0.1h9.2l2.5,0.1l2.2,0.1h0.4l2.9,0.2l0.6,0.1l1,0.1l3.2,0.3l0.7,0.1l3.2,0.3h0.1l1.1,0.1
		l2.6,0.3l1.8,0.3l2.3,0.3h0.5l0.6,0.1l3.1,0.5l1.4,0.2l0.8,0.2l5,1l0.4,0.1l0.3,0.1l3.1,0.8l0.4,0.2l0.6,0.2h0.2l0.4,0.1l3.6,1
		l0.4,0.1l2.1,0.7l4.3,1.4l0.2,0.1l0.9,0.3l1.7,0.6l1.5,0.5h0.1l0.2,0.1l0.3,0.1h0.1l0.3,0.1l2.5,1l0.3,0.1l0.7,0.3l4.3,1.9l0.6,0.2
		l0.6,0.3l4.5,2.4l1,0.5l0.7,0.4l0.8,0.4l3.8,2.1l0.8,0.4l4.7,2.7l3.7,2.3l2,1.2l0.7,0.5l0.9,0.5l0.7,0.5l0.6,0.4l0.2,0.2l8.3,5.6
		l0.1,0l0.3,0.2l0.1,0l0.5,0.3l0.3,0.3l0.1,0l0.9,0.6l0.4,0.2l3.5,2.5l0.8,0.6l0.1,0.1l6.4,4.8l0.2,0.2l0.3,0.2l1.2,0.9l3.3,2.7
		l0.9,0.8l3.1,2.6l3.5,3l1.8,1.5l8.8,7.7l1,1l3.8,3.5l6.8,6.8l4.2,4.5l0.5,0.5l3.7,4.2l0.8,0.9l0.7,0.8l0.1,0.1l0.5,0.6l3.1,3.7
		l1.2,1.5l0.3,0.4l0.5,0.7l3.6,4.6l0.4,0.6l2.2,3l0.9,1.2l0.5,0.7l2.4,3.6l2,2.9l0.1,0.1l0.7,1.1l2.2,3.6l2,3.4l0.4,0.7l1.5,2.8
		l0.4,0.8l0.6,1l0.2,0.4l2,3.8l0.7,1.3l0.2,0.4l0.1,0.1l0.1,0.2l0.3,0.7l1.4,2.9l2,4.2l0.3,0.7l0.8,1.6l2.1,5l2.6,6.2l0.3,0.7
		l0.3,0.8l0.4,1l0.3,0.9l0.4,1.1l0.3,0.8l0.2,0.5l1.6,4.3l1,2.9l0.5,1.4l1,3l1.2,3.7l0.7,2.5l0.6,2.2l0.7,2.6v0.2l0.2,0.7v0.1
		l0.4,1.6l1,3.9l0.3,1.1l0.3,1.4l0.5,2.5l0.9,3.9l0.1,0.4v0.2l0.1,0.3l0.2,1.5l0.9,5.3l0.3,1.6v0.1l0.1,0.4v0.5l0.8,5.7v0.2l0.3,3.1
		l0.1,0.9v0.1l0.1,1.4l0.3,3.9v0.5l0.1,2.1l0.2,2.6v1.9l0.2,4.5v5.2l-0.1,9.4v1.1l-0.1,1l-0.3,5v0.4l-0.1,0.7l-0.5,5l-0.1,0.5v0.6
		l-0.8,6.6v0.1l-0.2,0.8l-0.4,2.8l-0.1,0.6l-0.1,0.5l-0.6,3.3l-0.4,2.4l-0.1,0.3l-0.1,0.4l-0.1,0.3v0.1l-0.5,2.6l-0.4,1.7l-0.3,1.6
		l-0.4,1.7l-1.1,4.5l-0.1,0.3l-0.7,2.5l-0.2,0.9l-0.2,0.7l-0.5,1.9v0.3l-2,6.6l-0.1,0.2l-0.2,0.7l-0.4,1.2l-1.2,3.7l-0.7,2.1
		l-1.6,4.5l-0.5,1.3l-0.8,2l-0.3,0.7v0.1l-0.2,0.4l-0.4,1l-1.5,3.7v0.1l-0.1,0.2l-1.5,3.4l-2.6,6l-0.3,0.6l-0.2,0.5l-0.1,0.2l-2,4.3
		l-0.1,0.1l0,0.1l-0.2,0.5l-1.9,3.8l-0.7,1.2l-3.2,5.9l-1.4,2.5l-0.8,1.5l-0.1,0.2l-0.6,1.1l-2.2,3.7l-0.4,0.6l-0.1,0.2l-0.4,0.6
		l-0.7,1.1l-2,3.1l-0.8,1.1l-1.2,1.9l-3.8,5.2l-0.6,0.9l-0.1,0.1l-1,1.3l-2.2,2.8l-1.4,1.7l-0.4,0.4l-0.7,0.9l-0.1,0.1l-2.4,2.9
		l-0.8,0.9l-4.3,5l-2.7,2.9l-0.6,0.7l-0.8,0.8l-2,2.1l-2.2,2.3l-3.6,3.6l-1.1,1l-1.6,1.5l-0.9,0.8l-1,0.9l-2.7,2.5l-1.5,1.3
		l-7.2,6.3l-3.6,3.1l-0.8,0.6l-1.1,1l-3.4,2.8l-1,0.8l-2.8,2.2l-1.6,1.3l-0.9,0.7l-1.8,1.3l-1.5,1.1l-1.8,1.3l-1.2,0.8l-1.2,0.9
		l-1.1,0.8l-0.2,0.2l-0.6,0.4l-9.1,6.2l-0.2,0.2l-0.3,0.2l-0.1,0.1l-0.4,0.2l-0.3,0.2l-1.6,1l-2.5,1.6l-0.6,0.4l-0.2,0.1l-0.4,0.3
		l-4.7,2.8l-1.1,0.6l-2.6,1.5l-1.1,0.6l-1.9,1.1l-3.2,1.7l-0.6,0.3l-0.5,0.3l-2.4,1.2l-1.5,0.7l-0.9,0.5l-0.7,0.3l-0.7,0.4l-0.4,0.2
		h-0.1l-1.8,0.8l-1.2,0.5l-0.5,0.2l-0.6,0.2l-2.3,0.9l-0.6,0.2l-2.8,1l-0.4,0.1l-3.3,1.1l-0.4,0.1l-0.5,0.2l-0.3,0.1l-0.2,0.1
		l-2.7,0.8l-1.9,0.6l-1.3,0.4l-0.6,0.2l-0.7,0.2h-0.1l-3.1,0.8h-0.1l-0.5,0.1l-8.9,1.8h-0.1l-0.7,0.1l-2.8,0.4l-3.2,0.4l-2.3,0.3
		l-2.9,0.3l-1.3,0.1l-0.5,0.1l-5.5,0.5l-1.2,0.2l-1.9,0.1h-1.9L1128.4,695.8z M834.4,315.2l-0.2,0.3l0.5-0.3L834.4,315.2z"/>
	<path class="st0" d="M835.5,312.8"/>
	<path class="st0" d="M823.7,299"/>
	<polygon points="823.7,299 823.7,299 834.8,285.6 834.8,285.6 	"/>
	<path d="M1316.9,241.4L1316.9,241.4c0.4-1,0.4-2.1,0-3.3c-0.4-1.2-1.3-2.4-2.5-3.7c-2.3-2.5-6.2-5.3-11.4-8.5
		c-8.9-5.4-21.8-11.5-40.4-19.4c-15.1-6.4-29.6-12.4-40.4-15.6c-5.4-1.6-9.5-2.3-12.6-2.3c-0.1,0-0.2,0-0.3,0c-1.7,0-3,0.3-4.1,0.8
		c-1.1,0.5-1.8,1.3-2.3,2.3l0,0c0.4-1,1.2-1.8,2.3-2.3c1-0.5,2.4-0.8,4.1-0.8c0.1,0,0.2,0,0.3,0c3.1,0,7.2,0.8,12.6,2.3
		c10.8,3.2,25.3,9.2,40.4,15.6c18.6,7.9,31.5,14.1,40.4,19.4c5.2,3.1,9.1,6,11.4,8.5c1.2,1.3,2.1,2.6,2.5,3.7
		C1317.3,239.3,1317.3,240.4,1316.9,241.4z"/>
	<path d="M1412,519c-0.1,0-0.1,0-0.2,0v0C1411.9,519,1412,519,1412,519c4.4,0,7.6-5.9,9.8-17.9c1.8-9.8,2.9-23.5,3.6-44.4
		c0.3-8.6,0.2-17-0.4-24.8c-0.5-7.7-1.5-14.7-2.7-20.6c-1.3-6-2.9-10.8-4.8-14.1c-2-3.5-4.1-5.3-6.5-5.4v0c2.4,0.1,4.5,1.9,6.5,5.4
		c1.9,3.3,3.5,8.1,4.8,14.1c1.3,6,2.2,12.9,2.7,20.6c0.5,7.9,0.7,16.2,0.4,24.8c-0.7,20.9-1.8,34.6-3.6,44.4
		C1419.6,513.1,1416.4,519,1412,519z"/>
	<path class="st0" d="M1401.8,535.7"/>
	<path d="M1198.2,731.9c-3,0-4.9-0.7-5.6-2l0,0c1.8,3.7,12.2,2.4,30.2-3.7c14.5-4.9,33.4-12.8,50.5-21.1c3.8-1.8,7.3-3.5,10.7-5.2
		c10-4.8,18-8.7,23.8-12.1c6.3-3.7,9.5-6.5,10.4-9.2c0.5-1.3,0.4-2.6-0.3-3.9l0,0c0.6,1.3,0.7,2.6,0.3,3.9
		c-0.9,2.7-4.2,5.6-10.4,9.2c-5.8,3.4-13.8,7.2-23.8,12.1c-3.4,1.6-6.9,3.3-10.7,5.2c-17.1,8.3-36,16.2-50.5,21.1
		C1211.5,730,1203.2,731.9,1198.2,731.9z"/>
	<polygon points="835.5,312.8 834.8,298.9 834.8,298.9 835.5,312.8 	"/>
</g>
</svg>
