<?xml version="1.0" encoding="utf-8"?>
<!-- Generator: Adobe Illustrator 23.1.1, SVG Export Plug-In . SVG Version: 6.00 Build 0)  -->
<svg version="1.1" id="Layer_1" xmlns="http://www.w3.org/2000/svg" xmlns:xlink="http://www.w3.org/1999/xlink" x="0px" y="0px"
	 viewBox="0 0 515.2 576" style="enable-background:new 0 0 515.2 576;" xml:space="preserve">
<style type="text/css">
	.st0{fill:none;stroke:#FF0000;stroke-width:8.035216e-03;stroke-miterlimit:11.3386;}
</style>
<path class="st0" d="M12.6,487.7l1.1-0.2l0.3,4.8l3.7-0.3l-1.2-18.2l-1.5-23.2l-0.7-11.6l-0.4-6.4l-0.2,0l-3.5,0.3l0.3,4.8l-1.2-0.1
	l-1.2-0.4l-1.1-0.6l-1-0.9l-0.9-1.1l-0.7-1.3l-0.1-0.1l-0.6-1.5l-0.8-3.4l0-0.3l0-0.6l-0.1-0.9l0-0.4l0.3-2.6l0-0.3l0.5-1.6l0-0.1
	l0.6-1.4l0.8-1.3l0.9-1l1-0.8l1.1-0.5l1.1-0.2l0.3,4.8l3.7-0.3l-0.3-4.9l-0.8-11.6l-0.6-8.9l-0.1-2.7l-0.5-11.6l-2.3-5.7L7.8,368
	l-0.6-10.7v-15.2l-0.6-9v-29.2V288l2.2-19.6l3.9-32.1l6.7-30.9l2.8-11.8l7.9-24.7L42.7,139l12.9-30.9l5.1-6.7l7.9-14.1l5.1-8.4
	l14.6-23.1l2.8-5.6l14.1-18.6l10.9-7.3l0.1-0.2l0.1-0.1l0.5-0.7l0.5-1.2l0-0.1l0-0.1l0-0.2l0.1-0.7l0.1-0.6l-0.3-1.7l-0.1-0.2
	l-0.9-1.5l-0.1-0.2l-0.6-0.6l-0.2-0.1l-1.5-0.9l-0.2-0.1l-1.7-0.3l-0.2,0l-1.3,0.2l-0.2,0.1l-1.5,0.7l-0.2,0.1l-0.1,0.1l-1,0.9
	l-0.2,0.2l-0.5,0.4l-0.9,0.7l-0.2,0.1l-1.3,0.5l-1.5,0.2l0,0l-0.2,0l-1.3-0.2l-0.1,0l-0.2-0.1l-1.3-0.5l-0.7-0.5l-0.2-0.2l-0.8-1
	L98,16.1L97.9,16l-0.6-1.2l0,0l0-0.2l-0.3-1.8l0.2-1.5l0.6-1.4l0.4-0.5L98.3,9l2.2-2.1l2.5-1.7l2.8-1.3l3-0.8l3-0.2l3,0.3l3,0.8
	l0.5,0.2l2.3,1.1l2.5,1.8l2.2,2.2l0.1,0.2l1.6,2.3l1.3,2.8l0.8,3l0.3,3l-0.3,3l-0.8,3l-1.3,2.8l-1.8,2.5l-0.7,0.8l-6.3,8.1
	l-11.8,15.2l-1.5,2L86.7,85.2l-9.5,17l-5.4,9.5l-1.3,2.2l-13.9,29.9L45,174.8l-6,20.4l-3.3,11.3l-6.9,32.2l-4.5,32.7l-1,16.7
	l-1,16.2l0.4,30.2l0,2.8l0.8,9.5l0.6,4.6l0.9,4.4l0.5,1.6l0.1,0.3l0.7,2.4l1.7,4.1l2.1,3.9l0.8,1.2l1.7,2.6l2.5,3.3l2,2.6l1.3,1.6
	l1.4,1.6l1.6,1.8l3.3,3.2l3.5,3l0.5,0.4l14.9,11.4l3.8,3.3l0.1,0l2,2l1.8,2.2l0.7,0.9l12.7,18.1l0.6,0.8l5.8,7.6l2.7,3.2l0.3,0.4
	l1.2,1.2l2,2.2l3.4,3.2l3.5,3.1l1.9,1.5l0.8,0.6l4.8,3.8l6.8,4.9l0.9,0.6l8,5l8.3,4.4l6.1,2.7l2.5,1.1l0,0l8.9,3.1l9.1,2.5l2.6,0.6
	l6.7,1.4l16.6,1.7l12.1,1.2l11.1,0.6l7.6,0.4l4,0.2l6,0.3l5.6,0l23.2,0.1l0.1,0l23.2-0.1l5.5,0l6.1-0.3l3.9-0.2l7.7-0.4l11-0.6
	l12.2-1.3l16.4-1.7l6.8-1.4l2.5-0.5l9.1-2.5l8.9-3.1l0,0l2.6-1.2l5.9-2.6l8.3-4.4l8-5l1-0.7l6.7-4.8l5.6-4.5l1.9-1.5l3.5-3.1
	l3.4-3.2l2.2-2.3l1-1.1l0.3-0.4l2.7-3.2l5.8-7.6l0.6-0.8l12.8-18.3l0.5-0.8l1.8-2.2l2-2l0.1,0l3.8-3.3l15.1-11.5l0.4-0.3l3.5-3
	l3.3-3.2l1.6-1.8l1.4-1.6l1.4-1.8l1.9-2.4l2.5-3.3l1.7-2.6l0.8-1.2l2.1-3.9l1.7-4.1l0.7-2.4l0.2-0.7l0.4-1.2l0.9-4.4l0.6-4.6
	l0.8-9.5l0-2.8l0.4-30.2l-1-16.2l-1-16.7l-4.5-32.7l-6.9-32.2l-3.3-11.3l-6-20.4l-11.7-30.9L444.5,114l-1.1-2l-5.5-9.8l-9.5-17
	l-18.2-27.5l-1.5-2l-11.7-15l-6.4-8.2l-0.7-0.8l-1.8-2.5l-1.3-2.8l-0.8-3l-0.3-3l0.3-3l0.8-3l1.3-2.8l1.6-2.3l0.1-0.2L392,7l2.5-1.8
	l2.4-1.1l0.3-0.2l3-0.8l3-0.3l3,0.2l3,0.8l2.8,1.3l2.5,1.7l2.2,2.1l0.2,0.3l0.4,0.5l0.6,1.4l0.2,1.5l0,0l0,0.2l-0.1,0.9l-0.4,1.3
	l-0.1,0.2l0,0l-0.1,0.1l-1,1.5l-0.2,0.2l-1.1,0.9l-0.8,0.4l-0.2,0.1l-1.8,0.3l-0.1,0l-1.4-0.2l-0.1,0l0,0l-0.1,0l-1.3-0.5l-0.8-0.5
	l-0.1-0.1l-0.1,0l-0.1-0.1l-2-1.7l-0.2-0.2l0,0l-0.8-0.4l-0.2-0.1l-1.7-0.3l-0.2,0l-0.9,0.1l0,0l-0.2,0.1l-0.9,0.2l-1.2,0.6l0,0
	l-0.1,0.1l-0.1,0.1l-1,0.9l-0.5,0.7l0,0l-0.1,0.2l-0.4,0.8l-0.3,1.3l0,0.1l0,0l0,0.1l0,0.8l0,0.4l0,0l0.1,0.2l0.2,0.9l0.9,1.5
	l4.9,1.4l6.2,7.3l10.7,12.9l5.6,9.6L442,77.2l6.2,11.2l7.3,11.8l3.9,7.9l14.6,27.6l10.7,31.5l8.4,19.1l3.4,8.4l1.1,10.1l5.1,32.1
	l3.9,31.5l1.7,19.6v15.9l-0.6,30.9l0.6,4.5l1.1,18l-1.1,7.9l-0.6,5.1l-0.6,9.6l-3.6,12.7l-0.1,2.7l-0.6,8.9l-0.8,11.6l-0.3,4.9
	l3.7,0.3l0.3-4.7l1.1,0.2l1.1,0.5l1,0.8l0.9,1l0.8,1.3l0.6,1.3l0,0.1l0.5,1.6l0,0.4l0.3,3.8l0,0.1l0,0.1l-0.1,0.4l-0.3,2.3l-0.4,1.4
	l-0.3,0.7l-0.4,0.8l-0.1,0.1l-0.7,1.2l-0.9,1.1l-1,0.9L507,437l-1.1,0.4l-1.2,0.1l0.3-4.7l-3.6-0.3l-0.2,0l-0.4,6.5l-0.8,11.6
	l-1.6,23.2l-1.2,18.2l3.7,0.3l0,0l0.3-4.3l0-0.6l1,0.2l0.1,0l1.1,0.5l1,0.8l0.9,1l0.8,1.3l0.6,1.4l0,0.1l0.5,1.6l0.3,2.6l0.1,0.9
	l0,0.3l-0.1,1.6l-0.1,0.4l-0.6,2.6l-0.1,0.3l-0.6,1.5l-0.1,0.1l-0.7,1.3l-0.9,1.2l-1,0.9l-1.1,0.6l-1.2,0.4l-1.2,0.1l0.3-4.8
	l-3.7-0.3l-1.4,6.5l-2.9,8.4l-0.7,1.3l-1.8,3.3l-1.7,3.2l-3.8,5.1l-1.5,2l-4.6,4.4l-1.8,1.7l-4.9,3.4l-2.4,1.7l-8,3.9l-8.5,2.6
	l-9.4,1.9l-7.6,1.5l-15.7,3.2l-6.9,1.4l-8.7,1.2l0.7,3.3l5-1l-0.6,1.2l-0.9,1.2l-1.2,1.1l-0.1,0.1l-1.4,0.9l-1.7,0.9l-1.8,0.7
	l-1.9,0.5l-1.9,0.3l-1.8,0.1l-0.2,0l-1.9-0.1l-1.7-0.3l-1.5-0.5l-1.3-0.7l-1.1-0.9l3.6-0.7l1.4-0.3l-0.7-3.5l-19.8,3l-0.2,0
	l-7.1,0.8l-16,1.8l-3.8,0.4l-8.5,1l-3.1,0.4l-1.5,0.1l-25.5,1.4l-25.1,1.4h-25.3h-25.4l-50.7-2.8l-1.5-0.1l-11.6-1.3l-3.7-0.4
	l-16.3-1.8l-3.8-0.4l-3.1-0.4l0,0l-19.9-3.1l-0.8,3.5l1.9,0.4l3.1,0.6l-1.1,0.9l-1.3,0.7l-1.6,0.6l-1.7,0.4l-1.7,0.1l-0.1,0
	l-1.9-0.1l-1.9-0.3l-1.9-0.5l-1.8-0.7l-1.6-0.8l-1.4-1l-0.1-0.1l-1.1-1l-0.9-1.2l-0.6-1.2l5,0.9l0.7-3.3l-8.7-1.3l-6.7-1.4
	l-15.8-3.2l-7.4-1.5l-9.5-1.9l-8.5-2.6l-8-3.9l-2.4-1.7l-4.9-3.4l-1.7-1.6l-4.7-4.5l-1.5-2l-3.8-5.1l-0.4-0.7l-1.2-2.2l-1.9-3.6
	l-0.7-1.3l-2.9-8.4l-1.5-6.7l-3.7,0.3l0.3,4.8l-1.2-0.1l-1.2-0.4l-1.1-0.6l-1-0.9l-0.9-1.1l-0.7-1.3l-0.1-0.1L8.2,503l-0.1-0.3
	l-0.6-2.5l-0.1-0.4l-0.1-1.6l0-0.3l0.1-0.8l0.3-2.6l0.5-1.6l0-0.1l0.6-1.4l0.8-1.3l0.9-1l1-0.8L12.6,487.7z"/>
</svg>
